<svg width="280" height="280" viewBox="0 0 280 280" fill="none" xmlns="http://www.w3.org/2000/svg">
<path d="M96.9229 2.5H183.077C235.207 2.50012 277.5 45.0933 277.5 97.6748V182.325C277.5 234.907 235.207 277.5 183.077 277.5H96.9229C44.7927 277.5 2.5 234.907 2.5 182.325V97.6748C2.5 45.0933 44.7927 2.50012 96.9229 2.5Z" fill="url(#paint0_linear_317_1623)" stroke="url(#paint1_linear_317_1623)" stroke-width="5"/>
<path d="M48.0156 197.781V87.9766H106.055C118.709 87.9766 128.016 90.4341 133.977 95.3491C139.937 100.16 142.918 107.48 142.918 117.31C142.918 122.957 141.454 127.82 138.526 131.898C135.702 135.872 131.833 138.748 126.918 140.526C133.611 142.094 138.735 145.075 142.29 149.467C145.846 153.859 147.624 159.611 147.624 166.722C147.624 173.31 146.212 178.957 143.388 183.663C140.669 188.264 136.277 191.768 130.212 194.173C124.251 196.578 116.46 197.781 106.839 197.781H48.0156ZM82.8392 173.467H97.4275C103.284 173.467 107.31 172.63 109.506 170.957C111.702 169.284 112.8 166.617 112.8 162.957C112.8 159.297 111.65 156.63 109.349 154.957C107.153 153.284 103.022 152.447 96.9569 152.447H82.8392V173.467ZM82.8392 130.957H95.2314C100.042 130.957 103.388 130.173 105.271 128.604C107.153 127.035 108.094 124.683 108.094 121.545C108.094 118.303 107.153 115.95 105.271 114.486C103.388 113.022 100.146 112.29 95.5452 112.29H82.8392V130.957Z" fill="white"/>
<path d="M197.004 199.977C188.324 199.977 180.585 198.408 173.788 195.271C167.095 192.134 161.814 187.428 157.945 181.153C154.18 174.879 152.298 166.983 152.298 157.467V154.33C152.298 145.022 154.128 137.284 157.788 131.114C161.448 124.944 166.52 120.29 173.004 117.153C179.592 114.016 187.069 112.447 195.435 112.447C209.867 112.447 220.638 116.055 227.749 123.271C234.86 130.382 238.416 140.839 238.416 154.643V163.741H182.102C182.311 166.983 183.043 169.702 184.298 171.898C185.553 173.99 187.226 175.558 189.317 176.604C191.514 177.545 194.076 178.016 197.004 178.016C200.664 178.016 203.487 177.441 205.474 176.291C207.566 175.036 208.978 173.467 209.71 171.585H237.318C235.644 181.206 231.357 188.369 224.455 193.075C217.657 197.676 208.507 199.977 197.004 199.977ZM196.219 134.408C193.5 134.408 191.095 134.879 189.004 135.82C187.017 136.761 185.448 138.12 184.298 139.898C183.147 141.676 182.468 143.924 182.259 146.643H209.553C209.448 143.82 208.821 141.519 207.67 139.741C206.52 137.859 204.951 136.5 202.965 135.663C201.082 134.826 198.834 134.408 196.219 134.408Z" fill="white"/>
<line x1="173.797" y1="104.422" x2="218.615" y2="104.422" stroke="white" stroke-width="3"/>
<defs>
<linearGradient id="paint0_linear_317_1623" x1="140" y1="0" x2="140" y2="280" gradientUnits="userSpaceOnUse">
<stop offset="0.365385"/>
<stop offset="1" stop-opacity="0.1"/>
</linearGradient>
<linearGradient id="paint1_linear_317_1623" x1="140" y1="0" x2="140" y2="280" gradientUnits="userSpaceOnUse">
<stop stop-color="white"/>
<stop offset="1" stop-color="white" stop-opacity="0.3"/>
</linearGradient>
</defs>
</svg>
