<svg width="1249" height="575" viewBox="0 0 1249 575" fill="none" xmlns="http://www.w3.org/2000/svg">
<path d="M80.1266 60.45V71.55H51.6266V165H37.9766V71.55H9.32656V60.45H80.1266ZM172.979 60.45V165H159.329V117.6H106.079V165H92.4289V60.45H106.079V106.35H159.329V60.45H172.979ZM205.436 71.55V106.5H243.536V117.75H205.436V153.75H248.036V165H191.786V60.3H248.036V71.55H205.436ZM354.731 165L329.831 122.25H313.331V165H299.681V60.45H333.431C341.331 60.45 347.981 61.8 353.381 64.5C358.881 67.2 362.981 70.85 365.681 75.45C368.381 80.05 369.731 85.3 369.731 91.2C369.731 98.4 367.631 104.75 363.431 110.25C359.331 115.75 353.131 119.4 344.831 121.2L371.081 165H354.731ZM313.331 111.3H333.431C340.831 111.3 346.381 109.5 350.081 105.9C353.781 102.2 355.631 97.3 355.631 91.2C355.631 85 353.781 80.2 350.081 76.8C346.481 73.4 340.931 71.7 333.431 71.7H313.331V111.3ZM400.091 60.45V165H386.441V60.45H400.091ZM452.005 166.05C445.105 166.05 438.905 164.85 433.405 162.45C428.005 159.95 423.755 156.55 420.655 152.25C417.555 147.85 415.955 142.8 415.855 137.1H430.405C430.905 142 432.905 146.15 436.405 149.55C440.005 152.85 445.205 154.5 452.005 154.5C458.505 154.5 463.605 152.9 467.305 149.7C471.105 146.4 473.005 142.2 473.005 137.1C473.005 133.1 471.905 129.85 469.705 127.35C467.505 124.85 464.755 122.95 461.455 121.65C458.155 120.35 453.705 118.95 448.105 117.45C441.205 115.65 435.655 113.85 431.455 112.05C427.355 110.25 423.805 107.45 420.805 103.65C417.905 99.75 416.455 94.55 416.455 88.05C416.455 82.35 417.905 77.3 420.805 72.9C423.705 68.5 427.755 65.1 432.955 62.7C438.255 60.3 444.305 59.1 451.105 59.1C460.905 59.1 468.905 61.55 475.105 66.45C481.405 71.35 484.955 77.85 485.755 85.95H470.755C470.255 81.95 468.155 78.45 464.455 75.45C460.755 72.35 455.855 70.8 449.755 70.8C444.055 70.8 439.405 72.3 435.805 75.3C432.205 78.2 430.405 82.3 430.405 87.6C430.405 91.4 431.455 94.5 433.555 96.9C435.755 99.3 438.405 101.15 441.505 102.45C444.705 103.65 449.155 105.05 454.855 106.65C461.755 108.55 467.305 110.45 471.505 112.35C475.705 114.15 479.305 117 482.305 120.9C485.305 124.7 486.805 129.9 486.805 136.5C486.805 141.6 485.455 146.4 482.755 150.9C480.055 155.4 476.055 159.05 470.755 161.85C465.455 164.65 459.205 166.05 452.005 166.05ZM516.042 71.55V106.5H554.142V117.75H516.042V153.75H558.642V165H502.392V60.3H558.642V71.55H516.042ZM657.686 166.05C647.986 166.05 639.136 163.8 631.136 159.3C623.136 154.7 616.786 148.35 612.086 140.25C607.486 132.05 605.186 122.85 605.186 112.65C605.186 102.45 607.486 93.3 612.086 85.2C616.786 77 623.136 70.65 631.136 66.15C639.136 61.55 647.986 59.25 657.686 59.25C667.486 59.25 676.386 61.55 684.386 66.15C692.386 70.65 698.686 76.95 703.286 85.05C707.886 93.15 710.186 102.35 710.186 112.65C710.186 122.95 707.886 132.15 703.286 140.25C698.686 148.35 692.386 154.7 684.386 159.3C676.386 163.8 667.486 166.05 657.686 166.05ZM657.686 154.2C664.986 154.2 671.536 152.5 677.336 149.1C683.236 145.7 687.836 140.85 691.136 134.55C694.536 128.25 696.236 120.95 696.236 112.65C696.236 104.25 694.536 96.95 691.136 90.75C687.836 84.45 683.286 79.6 677.486 76.2C671.686 72.8 665.086 71.1 657.686 71.1C650.286 71.1 643.686 72.8 637.886 76.2C632.086 79.6 627.486 84.45 624.086 90.75C620.786 96.95 619.136 104.25 619.136 112.65C619.136 120.95 620.786 128.25 624.086 134.55C627.486 140.85 632.086 145.7 637.886 149.1C643.786 152.5 650.386 154.2 657.686 154.2ZM782.806 60.45V71.55H737.356V106.8H774.256V117.9H737.356V165H723.706V60.45H782.806ZM889.382 60.45V71.55H843.932V106.8H880.832V117.9H843.932V165H830.282V60.45H889.382ZM915.018 153.9H951.618V165H901.368V60.45H915.018V153.9ZM1023.41 141.75H977.814L969.414 165H955.014L992.814 61.05H1008.56L1046.21 165H1031.81L1023.41 141.75ZM1019.51 130.65L1000.61 77.85L981.714 130.65H1019.51ZM1164.24 61.2V165H1150.59V87.6L1116.09 165H1106.49L1071.84 87.45V165H1058.19V61.2H1072.89L1111.29 147L1149.69 61.2H1164.24ZM1196.54 71.55V106.5H1234.64V117.75H1196.54V153.75H1239.14V165H1182.89V60.3H1239.14V71.55H1196.54Z" fill="white"/>
<g filter="url(#filter0_d_310_1309)">
<path d="M116.457 437.162L114.748 467.924L35.793 469.633L34.7676 437.846H60.0605L59.7188 263.188L33.4004 263.871L35.1094 230.717L90.1387 232.426L89.1133 437.846L116.457 437.162ZM260.524 355.131C260.524 362.65 260.183 370.74 259.499 379.398C258.929 388.057 257.79 396.773 256.081 405.546C254.372 414.205 251.923 422.579 248.732 430.668C245.656 438.757 241.612 445.935 236.599 452.201C231.586 458.354 225.49 463.31 218.312 467.069C211.135 470.829 202.647 472.709 192.849 472.709C184.19 472.709 176.328 471.057 169.265 467.753C162.201 464.335 155.992 459.778 150.637 454.081C145.396 448.384 141.123 441.833 137.819 434.428C134.629 426.908 132.578 419.047 131.667 410.844L161.745 407.426C162.087 411.755 162.998 416.028 164.479 420.243C165.961 424.345 167.954 428.048 170.461 431.352C173.081 434.542 176.215 437.162 179.86 439.213C183.62 441.264 187.836 442.289 192.507 442.289C197.976 442.289 202.704 441.15 206.691 438.871C210.679 436.479 214.097 433.402 216.945 429.643C219.794 425.769 222.072 421.382 223.781 416.483C225.49 411.47 226.857 406.4 227.883 401.273C228.908 396.033 229.592 390.906 229.934 385.893C230.275 380.766 230.446 376.208 230.446 372.221C230.446 370.284 230.446 368.404 230.446 366.581C230.446 364.758 230.332 362.992 230.104 361.283C224.75 366.752 218.654 371.081 211.818 374.271C204.982 377.462 197.634 379.057 189.772 379.057C180.202 379.057 171.543 376.949 163.796 372.733C156.162 368.404 149.611 362.821 144.143 355.985C138.674 349.149 134.458 341.402 131.496 332.743C128.648 324.084 127.224 315.368 127.224 306.596C127.224 296.228 128.534 286.088 131.154 276.176C133.775 266.264 137.819 257.491 143.288 249.857C148.757 242.11 155.707 235.901 164.138 231.229C172.683 226.558 182.823 224.223 194.558 224.223C205.609 224.223 214.895 226.387 222.414 230.717C230.048 234.932 236.257 240.572 241.042 247.636C245.941 254.586 249.701 262.618 252.321 271.732C255.056 280.847 256.993 290.246 258.132 299.931C259.385 309.615 260.069 319.242 260.183 328.812C260.41 338.383 260.524 347.156 260.524 355.131ZM228.737 304.887C228.737 299.76 228.111 294.177 226.857 288.139C225.604 281.986 223.61 276.29 220.876 271.049C218.142 265.694 214.553 261.251 210.109 257.719C205.666 254.073 200.254 252.25 193.874 252.25C187.38 252.25 181.797 253.902 177.126 257.206C172.569 260.51 168.809 264.726 165.847 269.853C162.998 274.866 160.891 280.391 159.523 286.43C158.27 292.468 157.644 298.165 157.644 303.52C157.644 309.444 158.327 315.141 159.694 320.609C161.175 326.078 163.397 330.977 166.359 335.307C169.436 339.522 173.309 342.94 177.98 345.561C182.652 348.067 188.291 349.32 194.899 349.32C200.14 349.32 204.868 347.896 209.084 345.048C213.299 342.086 216.831 338.44 219.68 334.11C222.642 329.667 224.864 324.882 226.345 319.755C227.94 314.514 228.737 309.558 228.737 304.887ZM363.234 437.162L361.525 467.924L282.57 469.633L281.545 437.846H306.838L306.496 263.188L280.178 263.871L281.887 230.717L336.916 232.426L335.891 437.846L363.234 437.162ZM504.738 393.754C504.738 404.122 503.599 414.091 501.32 423.661C499.042 433.118 495.396 441.492 490.383 448.783C485.37 456.075 478.819 461.885 470.729 466.215C462.64 470.544 452.785 472.709 441.164 472.709C430.34 472.709 420.827 470.43 412.624 465.873C404.535 461.316 397.756 455.334 392.287 447.929C386.818 440.409 382.717 431.921 379.982 422.465C377.248 412.895 375.995 403.096 376.223 393.07V388.285L408.352 389.311C408.352 394.665 408.75 400.59 409.548 407.084C410.345 413.464 411.883 419.503 414.162 425.199C416.555 430.782 419.859 435.51 424.074 439.384C428.404 443.144 434.1 445.023 441.164 445.023C447.772 445.023 453.184 443.542 457.399 440.58C461.615 437.504 464.919 433.63 467.312 428.959C469.818 424.288 471.527 419.104 472.438 413.407C473.464 407.711 473.977 402.185 473.977 396.83C473.977 389.766 473.065 383.329 471.242 377.519C469.419 371.594 466.685 366.581 463.039 362.479C459.507 358.264 454.95 355.017 449.367 352.738C443.898 350.46 437.518 349.32 430.227 349.32C426.125 349.32 422.023 349.719 417.922 350.517C413.934 351.314 410.061 352.396 406.301 353.764L377.932 338.383L387.844 230.033L494.826 229.008L496.535 294.633H466.457V260.111L414.846 259.77L410.061 324.369C413.706 323.458 417.295 322.831 420.827 322.489C424.359 322.147 427.948 321.977 431.594 321.977C441.962 321.977 451.589 323.743 460.476 327.274C469.476 330.806 477.224 335.762 483.718 342.143C490.326 348.409 495.453 355.985 499.099 364.872C502.858 373.645 504.738 383.272 504.738 393.754ZM634.45 327.787L632.741 358.549L528.151 360.258L527.126 328.471L634.45 327.787ZM736.818 437.162L735.109 467.924L656.154 469.633L655.129 437.846H680.422L680.08 263.188L653.762 263.871L655.471 230.717L710.5 232.426L709.475 437.846L736.818 437.162ZM880.886 355.131C880.886 362.65 880.544 370.74 879.86 379.398C879.291 388.057 878.151 396.773 876.442 405.546C874.733 414.205 872.284 422.579 869.094 430.668C866.018 438.757 861.973 445.935 856.96 452.201C851.947 458.354 845.852 463.31 838.674 467.069C831.496 470.829 823.008 472.709 813.21 472.709C804.551 472.709 796.69 471.057 789.626 467.753C782.562 464.335 776.353 459.778 770.998 454.081C765.757 448.384 761.485 441.833 758.181 434.428C754.991 426.908 752.94 419.047 752.028 410.844L782.106 407.426C782.448 411.755 783.36 416.028 784.841 420.243C786.322 424.345 788.316 428.048 790.822 431.352C793.443 434.542 796.576 437.162 800.222 439.213C803.981 441.264 808.197 442.289 812.868 442.289C818.337 442.289 823.065 441.15 827.053 438.871C831.04 436.479 834.458 433.402 837.307 429.643C840.155 425.769 842.434 421.382 844.143 416.483C845.852 411.47 847.219 406.4 848.244 401.273C849.27 396.033 849.953 390.906 850.295 385.893C850.637 380.766 850.808 376.208 850.808 372.221C850.808 370.284 850.808 368.404 850.808 366.581C850.808 364.758 850.694 362.992 850.466 361.283C845.111 366.752 839.016 371.081 832.18 374.271C825.344 377.462 817.995 379.057 810.134 379.057C800.563 379.057 791.905 376.949 784.157 372.733C776.524 368.404 769.973 362.821 764.504 355.985C759.035 349.149 754.82 341.402 751.857 332.743C749.009 324.084 747.585 315.368 747.585 306.596C747.585 296.228 748.895 286.088 751.516 276.176C754.136 266.264 758.181 257.491 763.649 249.857C769.118 242.11 776.068 235.901 784.499 231.229C793.044 226.558 803.184 224.223 814.919 224.223C825.97 224.223 835.256 226.387 842.775 230.717C850.409 234.932 856.618 240.572 861.403 247.636C866.302 254.586 870.062 262.618 872.683 271.732C875.417 280.847 877.354 290.246 878.493 299.931C879.746 309.615 880.43 319.242 880.544 328.812C880.772 338.383 880.886 347.156 880.886 355.131ZM849.099 304.887C849.099 299.76 848.472 294.177 847.219 288.139C845.965 281.986 843.972 276.29 841.237 271.049C838.503 265.694 834.914 261.251 830.471 257.719C826.027 254.073 820.616 252.25 814.235 252.25C807.741 252.25 802.159 253.902 797.487 257.206C792.93 260.51 789.17 264.726 786.208 269.853C783.36 274.866 781.252 280.391 779.885 286.43C778.632 292.468 778.005 298.165 778.005 303.52C778.005 309.444 778.688 315.141 780.056 320.609C781.537 326.078 783.758 330.977 786.721 335.307C789.797 339.522 793.671 342.94 798.342 345.561C803.013 348.067 808.653 349.32 815.261 349.32C820.502 349.32 825.23 347.896 829.445 345.048C833.661 342.086 837.193 338.44 840.041 334.11C843.003 329.667 845.225 324.882 846.706 319.755C848.301 314.514 849.099 309.558 849.099 304.887ZM1041.36 406.059C1041.36 428.845 1035.66 445.65 1024.27 456.474C1012.88 467.297 996.014 472.709 973.684 472.709C963.43 472.709 954.201 470.829 945.998 467.069C937.795 463.196 930.845 458.012 925.148 451.518C919.452 445.023 915.065 437.39 911.989 428.617C908.913 419.844 907.375 410.502 907.375 400.59C907.375 398.539 907.432 396.488 907.546 394.438C907.66 392.387 907.831 390.336 908.059 388.285L936.77 389.311C936.77 396.146 937.453 402.925 938.82 409.647C940.301 416.256 942.694 422.18 945.998 427.421C949.302 432.662 953.632 436.934 958.986 440.238C964.341 443.428 970.949 445.023 978.811 445.023C984.507 445.023 989.406 444.169 993.508 442.46C997.609 440.751 1000.91 438.301 1003.42 435.111C1006.04 431.921 1007.92 428.104 1009.06 423.661C1010.31 419.218 1010.94 414.262 1010.94 408.793C1010.94 403.438 1009.8 398.026 1007.52 392.558C1005.24 386.975 1002.17 381.962 998.293 377.519C994.419 373.075 989.919 369.429 984.792 366.581C979.665 363.733 974.253 362.309 968.557 362.309L953.176 362.65V334.965H968.215C974.253 334.965 979.779 333.769 984.792 331.376C989.805 328.869 994.077 325.565 997.609 321.464C1001.26 317.362 1004.05 312.691 1005.98 307.45C1007.92 302.095 1008.89 296.57 1008.89 290.873C1008.89 286.202 1008.26 281.701 1007.01 277.372C1005.87 272.929 1004.05 269.055 1001.54 265.751C999.034 262.333 995.843 259.656 991.97 257.719C988.21 255.668 983.71 254.643 978.469 254.643C973.228 254.643 968.614 255.497 964.626 257.206C960.752 258.801 957.277 261.023 954.201 263.871C951.239 266.719 948.675 270.08 946.511 273.954C944.346 277.714 942.466 281.701 940.871 285.917C939.39 290.132 938.137 294.519 937.111 299.076C936.2 303.52 935.402 307.849 934.719 312.064L907.717 313.09L903.957 225.932L934.035 225.248L934.377 253.617C937.339 248.718 940.244 244.446 943.093 240.8C945.941 237.154 949.074 234.135 952.492 231.742C955.91 229.35 959.727 227.584 963.942 226.444C968.272 225.191 973.456 224.564 979.494 224.564C989.178 224.564 997.837 226.16 1005.47 229.35C1013.1 232.54 1019.54 237.04 1024.78 242.851C1030.14 248.547 1034.24 255.383 1037.09 263.358C1039.94 271.334 1041.36 280.049 1041.36 289.506C1041.36 303.292 1038 315.312 1031.28 325.565C1024.55 335.819 1014.47 343.282 1001.03 347.953C1006.95 350.346 1012.36 353.536 1017.26 357.523C1022.16 361.397 1026.38 365.84 1029.91 370.854C1033.56 375.867 1036.35 381.392 1038.28 387.431C1040.33 393.355 1041.36 399.564 1041.36 406.059ZM1215.16 350.688C1215.16 358.549 1214.65 367.037 1213.62 376.151C1212.71 385.266 1211.12 394.381 1208.84 403.495C1206.56 412.61 1203.54 421.439 1199.78 429.984C1196.02 438.415 1191.29 445.878 1185.6 452.372C1180.01 458.866 1173.41 464.05 1165.77 467.924C1158.14 471.798 1149.31 473.734 1139.28 473.734C1128.92 473.734 1119.92 471.798 1112.28 467.924C1104.65 464.05 1098.04 458.866 1092.46 452.372C1086.99 445.878 1082.43 438.415 1078.79 429.984C1075.25 421.553 1072.41 412.781 1070.24 403.666C1068.19 394.551 1066.77 385.437 1065.97 376.322C1065.17 367.208 1064.77 358.663 1064.77 350.688C1064.77 342.143 1065.17 333.142 1065.97 323.686C1066.88 314.115 1068.42 304.716 1070.58 295.487C1072.86 286.259 1075.88 277.429 1079.64 268.998C1083.51 260.453 1088.36 252.991 1094.17 246.61C1100.09 240.23 1107.1 235.16 1115.19 231.4C1123.39 227.527 1132.9 225.59 1143.73 225.59C1153.18 225.59 1161.5 227.698 1168.68 231.913C1175.86 236.015 1182.07 241.54 1187.31 248.49C1192.66 255.326 1197.1 263.188 1200.64 272.074C1204.28 280.847 1207.13 289.905 1209.18 299.247C1211.35 308.476 1212.88 317.59 1213.8 326.591C1214.71 335.478 1215.16 343.51 1215.16 350.688ZM1187.14 350.688C1187.14 346.13 1186.85 340.661 1186.28 334.281C1185.83 327.787 1184.97 321.065 1183.72 314.115C1182.46 307.051 1180.7 300.045 1178.42 293.095C1176.26 286.145 1173.46 279.936 1170.05 274.467C1166.63 268.998 1162.53 264.555 1157.74 261.137C1152.96 257.719 1147.37 256.01 1140.99 256.01C1134.04 256.01 1128.06 257.662 1123.05 260.966C1118.04 264.27 1113.76 268.656 1110.23 274.125C1106.7 279.48 1103.85 285.575 1101.69 292.411C1099.64 299.247 1097.98 306.197 1096.73 313.261C1095.59 320.211 1094.79 326.99 1094.34 333.598C1094 340.206 1093.83 345.902 1093.83 350.688C1093.83 355.359 1094 360.884 1094.34 367.265C1094.79 373.645 1095.59 380.253 1096.73 387.089C1097.87 393.811 1099.46 400.533 1101.52 407.255C1103.68 413.863 1106.47 419.787 1109.89 425.028C1113.31 430.269 1117.47 434.542 1122.37 437.846C1127.38 441.036 1133.25 442.631 1139.97 442.631C1146.12 442.631 1151.53 440.979 1156.2 437.675C1160.99 434.371 1165.09 430.041 1168.51 424.687C1172.04 419.332 1175 413.293 1177.39 406.571C1179.79 399.849 1181.67 393.07 1183.03 386.234C1184.52 379.398 1185.54 372.904 1186.11 366.752C1186.79 360.486 1187.14 355.131 1187.14 350.688Z" fill="white"/>
</g>
<defs>
<filter id="filter0_d_310_1309" x="-0.00156403" y="221.823" width="1248.57" height="316.312" filterUnits="userSpaceOnUse" color-interpolation-filters="sRGB">
<feFlood flood-opacity="0" result="BackgroundImageFix"/>
<feColorMatrix in="SourceAlpha" type="matrix" values="0 0 0 0 0 0 0 0 0 0 0 0 0 0 0 0 0 0 127 0" result="hardAlpha"/>
<feOffset dy="31"/>
<feGaussianBlur stdDeviation="16.7"/>
<feComposite in2="hardAlpha" operator="out"/>
<feColorMatrix type="matrix" values="0 0 0 0 0 0 0 0 0 0 0 0 0 0 0 0 0 0 1 0"/>
<feBlend mode="normal" in2="BackgroundImageFix" result="effect1_dropShadow_310_1309"/>
<feBlend mode="normal" in="SourceGraphic" in2="effect1_dropShadow_310_1309" result="shape"/>
</filter>
</defs>
</svg>
