<svg width="1171" height="575" viewBox="0 0 1171 575" fill="none" xmlns="http://www.w3.org/2000/svg">
<path d="M76.233 60.45V71.55H47.733V165H34.083V71.55H5.43301V60.45H76.233ZM169.085 60.45V165H155.435V117.6H102.185V165H88.5354V60.45H102.185V106.35H155.435V60.45H169.085ZM201.543 71.55V106.5H239.643V117.75H201.543V153.75H244.143V165H187.893V60.3H244.143V71.55H201.543ZM390.378 60.45V71.55H344.928V106.8H381.828V117.9H344.928V165H331.278V60.45H390.378ZM416.013 60.45V165H402.363V60.45H416.013ZM489.828 165L464.928 122.25H448.428V165H434.778V60.45H468.528C476.428 60.45 483.078 61.8 488.478 64.5C493.978 67.2 498.078 70.85 500.778 75.45C503.478 80.05 504.828 85.3 504.828 91.2C504.828 98.4 502.728 104.75 498.528 110.25C494.428 115.75 488.228 119.4 479.928 121.2L506.178 165H489.828ZM448.428 111.3H468.528C475.928 111.3 481.478 109.5 485.178 105.9C488.878 102.2 490.728 97.3 490.728 91.2C490.728 85 488.878 80.2 485.178 76.8C481.578 73.4 476.028 71.7 468.528 71.7H448.428V111.3ZM554.687 166.05C547.787 166.05 541.587 164.85 536.087 162.45C530.687 159.95 526.437 156.55 523.337 152.25C520.237 147.85 518.637 142.8 518.537 137.1H533.087C533.587 142 535.587 146.15 539.087 149.55C542.687 152.85 547.887 154.5 554.687 154.5C561.187 154.5 566.287 152.9 569.987 149.7C573.787 146.4 575.687 142.2 575.687 137.1C575.687 133.1 574.587 129.85 572.387 127.35C570.187 124.85 567.437 122.95 564.137 121.65C560.837 120.35 556.387 118.95 550.787 117.45C543.887 115.65 538.337 113.85 534.137 112.05C530.037 110.25 526.487 107.45 523.487 103.65C520.587 99.75 519.137 94.55 519.137 88.05C519.137 82.35 520.587 77.3 523.487 72.9C526.387 68.5 530.437 65.1 535.637 62.7C540.937 60.3 546.987 59.1 553.787 59.1C563.587 59.1 571.587 61.55 577.787 66.45C584.087 71.35 587.637 77.85 588.437 85.95H573.437C572.937 81.95 570.837 78.45 567.137 75.45C563.437 72.35 558.537 70.8 552.437 70.8C546.737 70.8 542.087 72.3 538.487 75.3C534.887 78.2 533.087 82.3 533.087 87.6C533.087 91.4 534.137 94.5 536.237 96.9C538.437 99.3 541.087 101.15 544.187 102.45C547.387 103.65 551.837 105.05 557.537 106.65C564.437 108.55 569.987 110.45 574.187 112.35C578.387 114.15 581.987 117 584.987 120.9C587.987 124.7 589.487 129.9 589.487 136.5C589.487 141.6 588.137 146.4 585.437 150.9C582.737 155.4 578.737 159.05 573.437 161.85C568.137 164.65 561.887 166.05 554.687 166.05ZM669.424 60.45V71.55H640.924V165H627.274V71.55H598.624V60.45H669.424ZM811.807 60.45V71.55H766.357V106.8H803.257V117.9H766.357V165H752.707V60.45H811.807ZM837.443 153.9H874.043V165H823.793V60.45H837.443V153.9ZM945.839 141.75H900.239L891.839 165H877.439L915.239 61.05H930.989L968.639 165H954.239L945.839 141.75ZM941.939 130.65L923.039 77.85L904.139 130.65H941.939ZM1086.66 61.2V165H1073.01V87.6L1038.51 165H1028.91L994.263 87.45V165H980.613V61.2H995.313L1033.71 147L1072.11 61.2H1086.66ZM1118.96 71.55V106.5H1157.06V117.75H1118.96V153.75H1161.56V165H1105.31V60.3H1161.56V71.55H1118.96Z" fill="white"/>
<g filter="url(#filter0_d_310_1308)">
<path d="M404.86 437.162L403.151 467.924L324.196 469.633L323.171 437.846H348.464L348.122 263.188L321.804 263.871L323.513 230.717L378.542 232.426L377.517 437.846L404.86 437.162ZM562.087 405.717C562.087 415.857 560.093 425.085 556.105 433.402C552.118 441.605 546.763 448.612 540.041 454.423C533.433 460.233 525.743 464.734 516.97 467.924C508.197 471.114 498.968 472.709 489.284 472.709C479.144 472.709 469.631 471.228 460.744 468.266C451.857 465.303 444.11 461.031 437.502 455.448C431.008 449.752 425.881 442.745 422.121 434.428C418.361 426.111 416.481 416.54 416.481 405.717C416.481 399.451 417.336 393.184 419.045 386.918C420.868 380.652 423.431 374.784 426.735 369.315C430.153 363.847 434.198 358.948 438.869 354.618C443.654 350.289 449.066 346.928 455.104 344.535C450.091 342.712 445.648 339.978 441.774 336.332C437.901 332.572 434.597 328.357 431.862 323.686C429.242 318.9 427.191 313.83 425.71 308.476C424.343 303.121 423.659 297.937 423.659 292.924C423.659 283.24 425.197 274.239 428.273 265.922C431.464 257.605 435.907 250.484 441.604 244.56C447.3 238.521 454.193 233.793 462.282 230.375C470.371 226.957 479.372 225.248 489.284 225.248C498.968 225.248 507.855 227.014 515.944 230.546C524.034 233.964 530.926 238.749 536.623 244.901C542.434 250.94 546.934 258.118 550.124 266.435C553.314 274.638 554.909 283.467 554.909 292.924C554.909 297.823 554.169 302.95 552.688 308.305C551.32 313.66 549.27 318.729 546.535 323.515C543.801 328.3 540.497 332.572 536.623 336.332C532.749 340.092 528.363 342.826 523.464 344.535C529.388 346.928 534.743 350.289 539.528 354.618C544.313 358.948 548.358 363.847 551.662 369.315C555.08 374.784 557.644 380.652 559.353 386.918C561.175 393.184 562.087 399.451 562.087 405.717ZM522.78 292.924C522.78 288.025 521.983 283.297 520.388 278.739C518.907 274.182 516.685 270.137 513.723 266.605C510.874 262.96 507.399 260.054 503.298 257.89C499.196 255.725 494.525 254.643 489.284 254.643C483.929 254.643 479.201 255.725 475.1 257.89C470.998 259.94 467.466 262.789 464.504 266.435C461.656 269.966 459.491 274.068 458.01 278.739C456.529 283.297 455.788 288.025 455.788 292.924C455.788 298.051 456.472 302.95 457.839 307.621C459.32 312.292 461.428 316.394 464.162 319.926C467.01 323.458 470.485 326.306 474.587 328.471C478.802 330.521 483.701 331.547 489.284 331.547C494.867 331.547 499.709 330.521 503.811 328.471C508.026 326.306 511.501 323.458 514.235 319.926C517.084 316.394 519.191 312.292 520.559 307.621C522.04 302.95 522.78 298.051 522.78 292.924ZM531.667 405.717C531.667 392.159 527.964 381.563 520.559 373.93C513.267 366.182 502.842 362.309 489.284 362.309C482.904 362.309 477.093 363.391 471.853 365.556C466.612 367.606 462.111 370.569 458.352 374.442C454.706 378.202 451.857 382.759 449.807 388.114C447.87 393.469 446.901 399.337 446.901 405.717C446.901 411.641 448.041 417.053 450.319 421.952C452.598 426.737 455.674 430.839 459.548 434.257C463.535 437.675 468.036 440.352 473.049 442.289C478.176 444.112 483.588 445.023 489.284 445.023C495.209 445.023 500.734 444.169 505.861 442.46C510.988 440.637 515.432 438.017 519.191 434.599C523.065 431.181 526.084 427.079 528.249 422.294C530.528 417.395 531.667 411.869 531.667 405.717ZM711.11 393.754C711.11 404.122 709.971 414.091 707.692 423.661C705.414 433.118 701.768 441.492 696.755 448.783C691.742 456.075 685.191 461.885 677.102 466.215C669.012 470.544 659.157 472.709 647.536 472.709C636.713 472.709 627.199 470.43 618.996 465.873C610.907 461.316 604.128 455.334 598.659 447.929C593.19 440.409 589.089 431.921 586.354 422.465C583.62 412.895 582.367 403.096 582.595 393.07V388.285L614.724 389.311C614.724 394.665 615.122 400.59 615.92 407.084C616.717 413.464 618.256 419.503 620.534 425.199C622.927 430.782 626.231 435.51 630.446 439.384C634.776 443.144 640.472 445.023 647.536 445.023C654.144 445.023 659.556 443.542 663.771 440.58C667.987 437.504 671.291 433.63 673.684 428.959C676.19 424.288 677.899 419.104 678.811 413.407C679.836 407.711 680.349 402.185 680.349 396.83C680.349 389.766 679.437 383.329 677.614 377.519C675.791 371.594 673.057 366.581 669.411 362.479C665.879 358.264 661.322 355.017 655.739 352.738C650.271 350.46 643.89 349.32 636.599 349.32C632.497 349.32 628.396 349.719 624.294 350.517C620.306 351.314 616.433 352.396 612.673 353.764L584.304 338.383L594.216 230.033L701.198 229.008L702.907 294.633H672.829V260.111L621.218 259.77L616.433 324.369C620.078 323.458 623.667 322.831 627.199 322.489C630.731 322.147 634.32 321.977 637.966 321.977C648.334 321.977 657.961 323.743 666.848 327.274C675.848 330.806 683.596 335.762 690.09 342.143C696.698 348.409 701.825 355.985 705.471 364.872C709.23 373.645 711.11 383.272 711.11 393.754ZM853.64 263.188L795.192 437.846L819.46 437.162L817.409 467.924L746.999 469.633L745.974 437.846H766.14L822.536 263.188L752.81 263.529L751.784 294.633H725.808L728.884 230.717H729.226L851.247 232.426L853.64 263.188Z" fill="white"/>
</g>
<defs>
<filter id="filter0_d_310_1308" x="288.405" y="222.85" width="598.636" height="314.261" filterUnits="userSpaceOnUse" color-interpolation-filters="sRGB">
<feFlood flood-opacity="0" result="BackgroundImageFix"/>
<feColorMatrix in="SourceAlpha" type="matrix" values="0 0 0 0 0 0 0 0 0 0 0 0 0 0 0 0 0 0 127 0" result="hardAlpha"/>
<feOffset dy="31"/>
<feGaussianBlur stdDeviation="16.7"/>
<feComposite in2="hardAlpha" operator="out"/>
<feColorMatrix type="matrix" values="0 0 0 0 0 0 0 0 0 0 0 0 0 0 0 0 0 0 1 0"/>
<feBlend mode="normal" in2="BackgroundImageFix" result="effect1_dropShadow_310_1308"/>
<feBlend mode="normal" in="SourceGraphic" in2="effect1_dropShadow_310_1308" result="shape"/>
</filter>
</defs>
</svg>
