<svg width="1628" height="575" viewBox="0 0 1628 575" fill="none" xmlns="http://www.w3.org/2000/svg">
<path d="M76.3229 60.45V71.55H47.8229V165H34.1729V71.55H5.52285V60.45H76.3229ZM169.175 60.45V165H155.525V117.6H102.275V165H88.6252V60.45H102.275V106.35H155.525V60.45H169.175ZM201.633 71.55V106.5H239.733V117.75H201.633V153.75H244.233V165H187.983V60.3H244.233V71.55H201.633ZM328.427 60.45C339.827 60.45 349.677 62.6 357.977 66.9C366.377 71.1 372.777 77.15 377.177 85.05C381.677 92.95 383.927 102.25 383.927 112.95C383.927 123.65 381.677 132.95 377.177 140.85C372.777 148.65 366.377 154.65 357.977 158.85C349.677 162.95 339.827 165 328.427 165H295.877V60.45H328.427ZM328.427 153.75C341.927 153.75 352.227 150.2 359.327 143.1C366.427 135.9 369.977 125.85 369.977 112.95C369.977 99.95 366.377 89.8 359.177 82.5C352.077 75.2 341.827 71.55 328.427 71.55H309.527V153.75H328.427ZM459.232 141.75H413.632L405.232 165H390.832L428.632 61.05H444.382L482.032 165H467.632L459.232 141.75ZM455.332 130.65L436.432 77.85L417.532 130.65H455.332ZM625.406 60.45L595.106 165H579.806L555.506 80.85L530.306 165L515.156 165.15L485.906 60.45H500.456L523.256 149.1L548.456 60.45H563.756L587.756 148.8L610.706 60.45H625.406ZM718.044 165H704.394L649.494 81.75V165H635.844V60.3H649.494L704.394 143.4V60.3H718.044V165ZM819.703 166.05C810.003 166.05 801.153 163.8 793.153 159.3C785.153 154.7 778.803 148.35 774.103 140.25C769.503 132.05 767.203 122.85 767.203 112.65C767.203 102.45 769.503 93.3 774.103 85.2C778.803 77 785.153 70.65 793.153 66.15C801.153 61.55 810.003 59.25 819.703 59.25C829.503 59.25 838.403 61.55 846.403 66.15C854.403 70.65 860.703 76.95 865.303 85.05C869.903 93.15 872.203 102.35 872.203 112.65C872.203 122.95 869.903 132.15 865.303 140.25C860.703 148.35 854.403 154.7 846.403 159.3C838.403 163.8 829.503 166.05 819.703 166.05ZM819.703 154.2C827.003 154.2 833.553 152.5 839.353 149.1C845.253 145.7 849.853 140.85 853.153 134.55C856.553 128.25 858.253 120.95 858.253 112.65C858.253 104.25 856.553 96.95 853.153 90.75C849.853 84.45 845.303 79.6 839.503 76.2C833.703 72.8 827.103 71.1 819.703 71.1C812.303 71.1 805.703 72.8 799.903 76.2C794.103 79.6 789.503 84.45 786.103 90.75C782.803 96.95 781.153 104.25 781.153 112.65C781.153 120.95 782.803 128.25 786.103 134.55C789.503 140.85 794.103 145.7 799.903 149.1C805.803 152.5 812.403 154.2 819.703 154.2ZM944.823 60.45V71.55H899.373V106.8H936.273V117.9H899.373V165H885.723V60.45H944.823ZM1051.4 60.45V71.55H1005.95V106.8H1042.85V117.9H1005.95V165H992.299V60.45H1051.4ZM1118.43 165L1093.53 122.25H1077.03V165H1063.38V60.45H1097.13C1105.03 60.45 1111.68 61.8 1117.08 64.5C1122.58 67.2 1126.68 70.85 1129.38 75.45C1132.08 80.05 1133.43 85.3 1133.43 91.2C1133.43 98.4 1131.33 104.75 1127.13 110.25C1123.03 115.75 1116.83 119.4 1108.53 121.2L1134.78 165H1118.43ZM1077.03 111.3H1097.13C1104.53 111.3 1110.08 109.5 1113.78 105.9C1117.48 102.2 1119.33 97.3 1119.33 91.2C1119.33 85 1117.48 80.2 1113.78 76.8C1110.18 73.4 1104.63 71.7 1097.13 71.7H1077.03V111.3ZM1163.79 71.55V106.5H1201.89V117.75H1163.79V153.75H1206.39V165H1150.14V60.3H1206.39V71.55H1163.79ZM1236.2 71.55V106.5H1274.3V117.75H1236.2V153.75H1278.8V165H1222.55V60.3H1278.8V71.55H1236.2ZM1327.5 60.45C1338.9 60.45 1348.75 62.6 1357.05 66.9C1365.45 71.1 1371.85 77.15 1376.25 85.05C1380.75 92.95 1383 102.25 1383 112.95C1383 123.65 1380.75 132.95 1376.25 140.85C1371.85 148.65 1365.45 154.65 1357.05 158.85C1348.75 162.95 1338.9 165 1327.5 165H1294.95V60.45H1327.5ZM1327.5 153.75C1341 153.75 1351.3 150.2 1358.4 143.1C1365.5 135.9 1369.05 125.85 1369.05 112.95C1369.05 99.95 1365.45 89.8 1358.25 82.5C1351.15 75.2 1340.9 71.55 1327.5 71.55H1308.6V153.75H1327.5ZM1443.91 166.05C1434.21 166.05 1425.36 163.8 1417.36 159.3C1409.36 154.7 1403.01 148.35 1398.31 140.25C1393.71 132.05 1391.41 122.85 1391.41 112.65C1391.41 102.45 1393.71 93.3 1398.31 85.2C1403.01 77 1409.36 70.65 1417.36 66.15C1425.36 61.55 1434.21 59.25 1443.91 59.25C1453.71 59.25 1462.61 61.55 1470.61 66.15C1478.61 70.65 1484.91 76.95 1489.51 85.05C1494.11 93.15 1496.41 102.35 1496.41 112.65C1496.41 122.95 1494.11 132.15 1489.51 140.25C1484.91 148.35 1478.61 154.7 1470.61 159.3C1462.61 163.8 1453.71 166.05 1443.91 166.05ZM1443.91 154.2C1451.21 154.2 1457.76 152.5 1463.56 149.1C1469.46 145.7 1474.06 140.85 1477.36 134.55C1480.76 128.25 1482.46 120.95 1482.46 112.65C1482.46 104.25 1480.76 96.95 1477.36 90.75C1474.06 84.45 1469.51 79.6 1463.71 76.2C1457.91 72.8 1451.31 71.1 1443.91 71.1C1436.51 71.1 1429.91 72.8 1424.11 76.2C1418.31 79.6 1413.71 84.45 1410.31 90.75C1407.01 96.95 1405.36 104.25 1405.36 112.65C1405.36 120.95 1407.01 128.25 1410.31 134.55C1413.71 140.85 1418.31 145.7 1424.11 149.1C1430.01 152.5 1436.61 154.2 1443.91 154.2ZM1615.98 61.2V165H1602.33V87.6L1567.83 165H1558.23L1523.58 87.45V165H1509.93V61.2H1524.63L1563.03 147L1601.43 61.2H1615.98Z" fill="white"/>
<g filter="url(#filter0_d_310_1310)">
<path d="M639 437.162L637.291 467.924L558.336 469.633L557.311 437.846H582.604L582.262 263.188L555.943 263.871L557.652 230.717L612.682 232.426L611.656 437.846L639 437.162ZM783.067 355.131C783.067 362.65 782.726 370.74 782.042 379.398C781.472 388.057 780.333 396.773 778.624 405.546C776.915 414.205 774.465 422.579 771.275 430.668C768.199 438.757 764.155 445.935 759.142 452.201C754.129 458.354 748.033 463.31 740.855 467.069C733.678 470.829 725.19 472.709 715.392 472.709C706.733 472.709 698.871 471.057 691.808 467.753C684.744 464.335 678.535 459.778 673.18 454.081C667.939 448.384 663.666 441.833 660.362 434.428C657.172 426.908 655.121 419.047 654.21 410.844L684.288 407.426C684.63 411.755 685.541 416.028 687.022 420.243C688.504 424.345 690.497 428.048 693.004 431.352C695.624 434.542 698.757 437.162 702.403 439.213C706.163 441.264 710.379 442.289 715.05 442.289C720.519 442.289 725.247 441.15 729.234 438.871C733.222 436.479 736.64 433.402 739.488 429.643C742.337 425.769 744.615 421.382 746.324 416.483C748.033 411.47 749.4 406.4 750.426 401.273C751.451 396.033 752.135 390.906 752.477 385.893C752.818 380.766 752.989 376.208 752.989 372.221C752.989 370.284 752.989 368.404 752.989 366.581C752.989 364.758 752.875 362.992 752.647 361.283C747.293 366.752 741.197 371.081 734.361 374.271C727.525 377.462 720.177 379.057 712.315 379.057C702.745 379.057 694.086 376.949 686.339 372.733C678.705 368.404 672.154 362.821 666.686 355.985C661.217 349.149 657.001 341.402 654.039 332.743C651.191 324.084 649.767 315.368 649.767 306.596C649.767 296.228 651.077 286.088 653.697 276.176C656.318 266.264 660.362 257.491 665.831 249.857C671.3 242.11 678.25 235.901 686.681 231.229C695.226 226.558 705.366 224.223 717.101 224.223C728.152 224.223 737.438 226.387 744.957 230.717C752.59 234.932 758.8 240.572 763.585 247.636C768.484 254.586 772.244 262.618 774.864 271.732C777.599 280.847 779.535 290.246 780.675 299.931C781.928 309.615 782.612 319.242 782.726 328.812C782.953 338.383 783.067 347.156 783.067 355.131ZM751.28 304.887C751.28 299.76 750.654 294.177 749.4 288.139C748.147 281.986 746.153 276.29 743.419 271.049C740.685 265.694 737.096 261.251 732.652 257.719C728.209 254.073 722.797 252.25 716.417 252.25C709.923 252.25 704.34 253.902 699.669 257.206C695.112 260.51 691.352 264.726 688.39 269.853C685.541 274.866 683.434 280.391 682.066 286.43C680.813 292.468 680.187 298.165 680.187 303.52C680.187 309.444 680.87 315.141 682.237 320.609C683.718 326.078 685.94 330.977 688.902 335.307C691.979 339.522 695.852 342.94 700.523 345.561C705.195 348.067 710.834 349.32 717.442 349.32C722.683 349.32 727.411 347.896 731.627 345.048C735.842 342.086 739.374 338.44 742.223 334.11C745.185 329.667 747.407 324.882 748.888 319.755C750.483 314.514 751.28 309.558 751.28 304.887ZM937.047 368.461L935.338 399.223L906.969 399.564L906.627 437.846L930.553 437.162L928.844 467.924L858.434 469.633L857.408 437.846H877.574V399.906L797.252 400.932L796.227 369.486L868.346 230.375H908.336L907.311 368.803L937.047 368.461ZM877.574 368.803L877.232 268.998L825.279 369.486L877.574 368.803ZM1076.5 263.188L1018.05 437.846L1042.32 437.162L1040.27 467.924L969.859 469.633L968.834 437.846H989L1045.4 263.188L975.67 263.529L974.645 294.633H948.668L951.744 230.717H952.086L1074.11 232.426L1076.5 263.188Z" fill="white"/>
</g>
<defs>
<filter id="filter0_d_310_1310" x="522.545" y="221.823" width="587.355" height="315.288" filterUnits="userSpaceOnUse" color-interpolation-filters="sRGB">
<feFlood flood-opacity="0" result="BackgroundImageFix"/>
<feColorMatrix in="SourceAlpha" type="matrix" values="0 0 0 0 0 0 0 0 0 0 0 0 0 0 0 0 0 0 127 0" result="hardAlpha"/>
<feOffset dy="31"/>
<feGaussianBlur stdDeviation="16.7"/>
<feComposite in2="hardAlpha" operator="out"/>
<feColorMatrix type="matrix" values="0 0 0 0 0 0 0 0 0 0 0 0 0 0 0 0 0 0 1 0"/>
<feBlend mode="normal" in2="BackgroundImageFix" result="effect1_dropShadow_310_1310"/>
<feBlend mode="normal" in="SourceGraphic" in2="effect1_dropShadow_310_1310" result="shape"/>
</filter>
</defs>
</svg>
