<svg width="1139" height="72" viewBox="0 0 1139 72" fill="none" xmlns="http://www.w3.org/2000/svg">
<path d="M-0.00273433 35.6992C-0.00273433 28.8326 1.49727 22.6992 4.49727 17.2992C7.49727 11.8325 11.5973 7.59921 16.7973 4.59922C21.9973 1.53255 27.7973 -0.000782967 34.1973 -0.000782967C41.9973 -0.000782967 48.6639 1.86588 54.1973 5.59922C59.7973 9.26588 63.8639 14.4659 66.3973 21.1992H58.1973C56.1973 16.4659 53.1306 12.7659 48.9973 10.0992C44.9306 7.43255 39.9973 6.09922 34.1973 6.09922C29.0639 6.09922 24.4306 7.29922 20.2973 9.69922C16.2306 12.0992 13.0306 15.5659 10.6973 20.0992C8.36393 24.5659 7.19727 29.7659 7.19727 35.6992C7.19727 41.6326 8.36393 46.8326 10.6973 51.2992C13.0306 55.7659 16.2306 59.1992 20.2973 61.5992C24.4306 63.9992 29.0639 65.1992 34.1973 65.1992C39.9973 65.1992 44.9306 63.8992 48.9973 61.2992C53.1306 58.6326 56.1973 54.9659 58.1973 50.2992H66.3973C63.8639 56.9659 59.7973 62.1326 54.1973 65.7992C48.5973 69.4659 41.9306 71.2992 34.1973 71.2992C27.7973 71.2992 21.9973 69.7992 16.7973 66.7992C11.5973 63.7326 7.49727 59.4992 4.49727 54.0992C1.49727 48.6992 -0.00273433 42.5659 -0.00273433 35.6992ZM87.3457 6.49922V32.5992H113.846V38.3992H87.3457V64.8992H116.846V70.6992H80.3457V0.699214H116.846V6.49922H87.3457ZM137.639 64.9992H162.739V70.6992H130.639V0.799213H137.639V64.9992ZM179.729 6.49922V32.5992H206.229V38.3992H179.729V64.8992H209.229V70.6992H172.729V0.699214H209.229V6.49922H179.729ZM255.721 34.5992C259.655 35.3325 262.988 37.3325 265.721 40.5992C268.455 43.8659 269.821 47.6659 269.821 51.9992C269.821 55.5326 268.921 58.7326 267.121 61.5992C265.388 64.3992 262.821 66.6326 259.421 68.2992C256.021 69.8992 251.955 70.6992 247.221 70.6992H223.021V0.799213H246.521C253.588 0.799213 258.955 2.43255 262.621 5.69922C266.355 8.96588 268.221 13.1992 268.221 18.3992C268.221 22.7325 267.055 26.2659 264.721 28.9992C262.388 31.6659 259.388 33.5326 255.721 34.5992ZM230.021 31.6992H246.321C251.055 31.6992 254.688 30.5992 257.221 28.3992C259.821 26.1326 261.121 23.0325 261.121 19.0992C261.121 15.2326 259.821 12.1992 257.221 9.99921C254.688 7.79921 250.955 6.69921 246.021 6.69921H230.021V31.6992ZM246.721 64.7992C251.788 64.7992 255.721 63.5992 258.521 61.1992C261.388 58.7992 262.821 55.4992 262.821 51.2992C262.821 47.0992 261.321 43.7659 258.321 41.2992C255.388 38.7659 251.421 37.4992 246.421 37.4992H230.021V64.7992H246.721ZM319.889 70.6992L302.589 41.4992H289.689V70.6992H282.689V0.799213H303.689C311.489 0.799213 317.389 2.66588 321.389 6.39922C325.456 10.1326 327.489 15.0326 327.489 21.0992C327.489 26.1659 326.023 30.4992 323.089 34.0992C320.223 37.6325 315.956 39.9325 310.289 40.9992L328.289 70.6992H319.889ZM289.689 35.7992H303.789C309.256 35.7992 313.356 34.4659 316.089 31.7992C318.889 29.1325 320.289 25.5659 320.289 21.0992C320.289 16.4992 318.956 12.9659 316.289 10.4992C313.623 7.96588 309.423 6.69921 303.689 6.69921H289.689V35.7992ZM381.881 54.0992H350.081L343.981 70.6992H336.581L362.081 1.69921H369.981L395.381 70.6992H387.981L381.881 54.0992ZM379.781 48.2992L365.981 10.4992L352.181 48.2992H379.781ZM447.515 0.799213V6.59922H428.115V70.6992H421.115V6.59922H401.615V0.799213H447.515ZM465.568 6.49922V32.5992H492.068V38.3992H465.568V64.8992H495.068V70.6992H458.568V0.699214H495.068V6.49922H465.568ZM577.203 0.799213V6.59922H557.803V70.6992H550.803V6.59922H531.303V0.799213H577.203ZM640.156 0.799213V70.6992H633.156V37.9992H595.256V70.6992H588.256V0.799213H595.256V32.1992H633.156V0.799213H640.156ZM663.127 6.49922V32.5992H689.627V38.3992H663.127V64.8992H692.627V70.6992H656.127V0.699214H692.627V6.49922H663.127ZM778.561 20.8992C778.561 26.8992 776.595 31.7326 772.661 35.3992C768.728 39.0659 762.828 40.8992 754.961 40.8992H740.861V70.6992H733.861V0.799213H754.961C762.761 0.799213 768.628 2.63255 772.561 6.29921C776.561 9.96588 778.561 14.8325 778.561 20.8992ZM754.961 34.8992C765.895 34.8992 771.361 30.2326 771.361 20.8992C771.361 16.2325 770.061 12.6992 767.461 10.2992C764.861 7.89921 760.695 6.69921 754.961 6.69921H740.861V34.8992H754.961ZM827.507 70.6992L810.207 41.4992H797.307V70.6992H790.307V0.799213H811.307C819.107 0.799213 825.007 2.66588 829.007 6.39922C833.073 10.1326 835.107 15.0326 835.107 21.0992C835.107 26.1659 833.64 30.4992 830.707 34.0992C827.84 37.6325 823.573 39.9325 817.907 40.9992L835.907 70.6992H827.507ZM797.307 35.7992H811.407C816.873 35.7992 820.973 34.4659 823.707 31.7992C826.507 29.1325 827.907 25.5659 827.907 21.0992C827.907 16.4992 826.573 12.9659 823.907 10.4992C821.24 7.96588 817.04 6.69921 811.307 6.69921H797.307V35.7992ZM855.998 6.49922V32.5992H882.498V38.3992H855.998V64.8992H885.498V70.6992H848.998V0.699214H885.498V6.49922H855.998ZM920.491 71.3992C915.891 71.3992 911.824 70.5992 908.291 68.9992C904.824 67.3992 902.091 65.1659 900.091 62.2992C898.091 59.4326 897.024 56.2326 896.891 52.6992H904.291C904.624 56.0992 906.124 59.0992 908.791 61.6992C911.458 64.2326 915.358 65.4992 920.491 65.4992C925.224 65.4992 928.958 64.2992 931.691 61.8992C934.491 59.4326 935.891 56.3326 935.891 52.5992C935.891 49.5992 935.124 47.1992 933.591 45.3992C932.058 43.5326 930.158 42.1659 927.891 41.2992C925.624 40.3659 922.491 39.3659 918.491 38.2992C913.824 37.0326 910.124 35.7992 907.391 34.5992C904.658 33.3992 902.324 31.5326 900.391 28.9992C898.458 26.4659 897.491 23.0325 897.491 18.6992C897.491 15.0992 898.424 11.8992 900.291 9.09921C902.158 6.23255 904.791 3.99922 908.191 2.39922C911.591 0.799217 915.491 -0.000782967 919.891 -0.000782967C926.358 -0.000782967 931.558 1.59922 935.491 4.79921C939.491 7.93255 941.791 11.9992 942.391 16.9992H934.791C934.324 14.1325 932.758 11.5992 930.091 9.39922C927.424 7.13255 923.824 5.99922 919.291 5.99922C915.091 5.99922 911.591 7.13255 908.791 9.39922C905.991 11.5992 904.591 14.6325 904.591 18.4992C904.591 21.4326 905.358 23.7992 906.891 25.5992C908.424 27.3992 910.324 28.7659 912.591 29.6992C914.924 30.6325 918.058 31.6325 921.991 32.6992C926.524 33.9659 930.191 35.2325 932.991 36.4992C935.791 37.6992 938.158 39.5659 940.091 42.0992C942.024 44.6326 942.991 48.0326 942.991 52.2992C942.991 55.5659 942.124 58.6659 940.391 61.5992C938.658 64.5326 936.091 66.8992 932.691 68.6992C929.291 70.4992 925.224 71.3992 920.491 71.3992ZM963.518 6.49922V32.5992H990.018V38.3992H963.518V64.8992H993.018V70.6992H956.518V0.699214H993.018V6.49922H963.518ZM1059.51 70.6992H1052.51L1013.81 11.8992V70.6992H1006.81V0.799213H1013.81L1052.51 59.4992V0.799213H1059.51V70.6992ZM1116.27 0.799213V6.59922H1096.87V70.6992H1089.87V6.59922H1070.37V0.799213H1116.27ZM1136.72 0.799213L1135.82 52.1992H1129.92L1129.12 0.799213H1136.72ZM1133.22 71.1992C1131.75 71.1992 1130.52 70.6992 1129.52 69.6992C1128.59 68.6992 1128.12 67.4659 1128.12 65.9992C1128.12 64.5326 1128.59 63.3326 1129.52 62.3992C1130.52 61.3992 1131.75 60.8992 1133.22 60.8992C1134.62 60.8992 1135.79 61.3992 1136.72 62.3992C1137.72 63.3326 1138.22 64.5326 1138.22 65.9992C1138.22 67.4659 1137.72 68.6992 1136.72 69.6992C1135.79 70.6992 1134.62 71.1992 1133.22 71.1992Z" fill="white"/>
</svg>
