<svg width="115" height="115" viewBox="0 0 115 115" fill="none" xmlns="http://www.w3.org/2000/svg">
<path d="M57.5 0C89.2564 0 115 25.7436 115 57.5C115 88.3858 90.6484 113.582 60.0977 114.94C60.128 114.474 60.1445 113.99 60.1445 113.486V72.2139H67.7832C73.8577 72.2138 76.8945 69.5337 76.8945 64.1738C76.8945 58.7247 73.8576 56.0001 67.7832 56H60.1445V52.7842C60.1445 48.8536 60.681 45.5481 61.7529 42.8682C62.8249 40.0989 65.1475 38.7139 68.7207 38.7139H69.5254C72.1159 38.8925 74.2153 39.2057 75.8232 39.6523C77.5205 40.0096 79.5755 40.1885 81.9873 40.1885C84.7565 40.1884 86.9003 39.7409 88.4189 38.8477C90.0268 37.865 90.831 35.9 90.8311 32.9521C90.8311 28.9322 89.1339 25.939 85.7393 23.9736C82.4339 22.0083 77.1183 20.9809 69.793 20.8916H68.5869C59.3856 20.8916 52.5516 24.0636 48.085 30.4062C43.6184 36.7489 41.3848 45.1013 41.3848 55.4639V56H39.5088C32.8983 56 29.5928 58.7246 29.5928 64.1738C29.5928 69.5338 32.8982 72.2138 39.5088 72.2139H41.3848V112.71C17.4726 105.742 0 83.662 0 57.5C0 25.7436 25.7436 0 57.5 0Z" fill="white"/>
</svg>
