<svg width="3694" height="591" viewBox="0 0 3694 591" fill="none" xmlns="http://www.w3.org/2000/svg">
<path d="M50.7836 40.3V47.7H31.7836V110H22.6836V47.7H3.58359V40.3H50.7836ZM133.585 110.7C127.118 110.7 121.218 109.2 115.885 106.2C110.552 103.133 106.318 98.9 103.185 93.5C100.118 88.0333 98.5852 81.9 98.5852 75.1C98.5852 68.3 100.118 62.2 103.185 56.8C106.318 51.3333 110.552 47.1 115.885 44.1C121.218 41.0333 127.118 39.5 133.585 39.5C140.118 39.5 146.052 41.0333 151.385 44.1C156.718 47.1 160.918 51.3 163.985 56.7C167.052 62.1 168.585 68.2333 168.585 75.1C168.585 81.9667 167.052 88.1 163.985 93.5C160.918 98.9 156.718 103.133 151.385 106.2C146.052 109.2 140.118 110.7 133.585 110.7ZM133.585 102.8C138.452 102.8 142.818 101.667 146.685 99.4C150.618 97.1333 153.685 93.9 155.885 89.7C158.152 85.5 159.285 80.6333 159.285 75.1C159.285 69.5 158.152 64.6333 155.885 60.5C153.685 56.3 150.652 53.0667 146.785 50.8C142.918 48.5333 138.518 47.4 133.585 47.4C128.652 47.4 124.252 48.5333 120.385 50.8C116.518 53.0667 113.452 56.3 111.185 60.5C108.985 64.6333 107.885 69.5 107.885 75.1C107.885 80.6333 108.985 85.5 111.185 89.7C113.452 93.9 116.518 97.1333 120.385 99.4C124.318 101.667 128.718 102.8 133.585 102.8ZM273.398 60.5C271.465 56.4333 268.665 53.3 264.998 51.1C261.332 48.8333 257.065 47.7 252.198 47.7C247.332 47.7 242.932 48.8333 238.998 51.1C235.132 53.3 232.065 56.5 229.798 60.7C227.598 64.8333 226.498 69.6333 226.498 75.1C226.498 80.5667 227.598 85.3667 229.798 89.5C232.065 93.6333 235.132 96.8333 238.998 99.1C242.932 101.3 247.332 102.4 252.198 102.4C258.998 102.4 264.598 100.367 268.998 96.3C273.398 92.2333 275.965 86.7333 276.698 79.8H248.898V72.4H286.398V79.4C285.865 85.1333 284.065 90.4 280.998 95.2C277.932 99.9333 273.898 103.7 268.898 106.5C263.898 109.233 258.332 110.6 252.198 110.6C245.732 110.6 239.832 109.1 234.498 106.1C229.165 103.033 224.932 98.8 221.798 93.4C218.732 88 217.198 81.9 217.198 75.1C217.198 68.3 218.732 62.2 221.798 56.8C224.932 51.3333 229.165 47.1 234.498 44.1C239.832 41.0333 245.732 39.5 252.198 39.5C259.598 39.5 266.132 41.3333 271.798 45C277.532 48.6667 281.698 53.8333 284.298 60.5H273.398ZM347.53 47.7V71H372.93V78.5H347.53V102.5H375.93V110H338.43V40.2H375.93V47.7H347.53ZM472.6 40.3V47.7H453.6V110H444.5V47.7H425.4V40.3H472.6ZM577.502 40.3V110H568.402V78.4H532.902V110H523.802V40.3H532.902V70.9H568.402V40.3H577.502ZM642.14 47.7V71H667.54V78.5H642.14V102.5H670.54V110H633.04V40.2H670.54V47.7H642.14ZM761.009 110L744.409 81.5H733.409V110H724.309V40.3H746.809C752.076 40.3 756.509 41.2 760.109 43C763.776 44.8 766.509 47.2333 768.309 50.3C770.109 53.3667 771.009 56.8667 771.009 60.8C771.009 65.6 769.609 69.8333 766.809 73.5C764.076 77.1667 759.943 79.6 754.409 80.8L771.909 110H761.009ZM733.409 74.2H746.809C751.743 74.2 755.443 73 757.909 70.6C760.376 68.1333 761.609 64.8667 761.609 60.8C761.609 56.6667 760.376 53.4667 757.909 51.2C755.509 48.9333 751.809 47.8 746.809 47.8H733.409V74.2ZM1001.37 40.3V47.7H982.37V110H973.27V47.7H954.17V40.3H1001.37ZM1084.17 110.7C1077.7 110.7 1071.8 109.2 1066.47 106.2C1061.14 103.133 1056.9 98.9 1053.77 93.5C1050.7 88.0333 1049.17 81.9 1049.17 75.1C1049.17 68.3 1050.7 62.2 1053.77 56.8C1056.9 51.3333 1061.14 47.1 1066.47 44.1C1071.8 41.0333 1077.7 39.5 1084.17 39.5C1090.7 39.5 1096.64 41.0333 1101.97 44.1C1107.3 47.1 1111.5 51.3 1114.57 56.7C1117.64 62.1 1119.17 68.2333 1119.17 75.1C1119.17 81.9667 1117.64 88.1 1114.57 93.5C1111.5 98.9 1107.3 103.133 1101.97 106.2C1096.64 109.2 1090.7 110.7 1084.17 110.7ZM1084.17 102.8C1089.04 102.8 1093.4 101.667 1097.27 99.4C1101.2 97.1333 1104.27 93.9 1106.47 89.7C1108.74 85.5 1109.87 80.6333 1109.87 75.1C1109.87 69.5 1108.74 64.6333 1106.47 60.5C1104.27 56.3 1101.24 53.0667 1097.37 50.8C1093.5 48.5333 1089.1 47.4 1084.17 47.4C1079.24 47.4 1074.84 48.5333 1070.97 50.8C1067.1 53.0667 1064.04 56.3 1061.77 60.5C1059.57 64.6333 1058.47 69.5 1058.47 75.1C1058.47 80.6333 1059.57 85.5 1061.77 89.7C1064.04 93.9 1067.1 97.1333 1070.97 99.4C1074.9 101.667 1079.3 102.8 1084.17 102.8ZM1258.78 40.3L1238.58 110H1228.38L1212.18 53.9L1195.38 110L1185.28 110.1L1165.78 40.3H1175.48L1190.68 99.4L1207.48 40.3H1217.68L1233.68 99.2L1248.98 40.3H1258.78ZM1349.94 94.5H1319.54L1313.94 110H1304.34L1329.54 40.7H1340.04L1365.14 110H1355.54L1349.94 94.5ZM1347.34 87.1L1334.74 51.9L1322.14 87.1H1347.34ZM1452.83 110L1436.23 81.5H1425.23V110H1416.13V40.3H1438.63C1443.89 40.3 1448.33 41.2 1451.93 43C1455.59 44.8 1458.33 47.2333 1460.13 50.3C1461.93 53.3667 1462.83 56.8667 1462.83 60.8C1462.83 65.6 1461.43 69.8333 1458.63 73.5C1455.89 77.1667 1451.76 79.6 1446.23 80.8L1463.73 110H1452.83ZM1425.23 74.2H1438.63C1443.56 74.2 1447.26 73 1449.73 70.6C1452.19 68.1333 1453.43 64.8667 1453.43 60.8C1453.43 56.6667 1452.19 53.4667 1449.73 51.2C1447.33 48.9333 1443.63 47.8 1438.63 47.8H1425.23V74.2ZM1538.67 40.3C1546.27 40.3 1552.83 41.7333 1558.37 44.6C1563.97 47.4 1568.23 51.4333 1571.17 56.7C1574.17 61.9667 1575.67 68.1667 1575.67 75.3C1575.67 82.4333 1574.17 88.6333 1571.17 93.9C1568.23 99.1 1563.97 103.1 1558.37 105.9C1552.83 108.633 1546.27 110 1538.67 110H1516.97V40.3H1538.67ZM1538.67 102.5C1547.67 102.5 1554.53 100.133 1559.27 95.4C1564 90.6 1566.37 83.9 1566.37 75.3C1566.37 66.6333 1563.97 59.8667 1559.17 55C1554.43 50.1333 1547.6 47.7 1538.67 47.7H1526.07V102.5H1538.67ZM1649.77 110.7C1645.17 110.7 1641.04 109.9 1637.37 108.3C1633.77 106.633 1630.94 104.367 1628.87 101.5C1626.8 98.5667 1625.74 95.2 1625.67 91.4H1635.37C1635.7 94.6667 1637.04 97.4333 1639.37 99.7C1641.77 101.9 1645.24 103 1649.77 103C1654.1 103 1657.5 101.933 1659.97 99.8C1662.5 97.6 1663.77 94.8 1663.77 91.4C1663.77 88.7333 1663.04 86.5667 1661.57 84.9C1660.1 83.2333 1658.27 81.9667 1656.07 81.1C1653.87 80.2333 1650.9 79.3 1647.17 78.3C1642.57 77.1 1638.87 75.9 1636.07 74.7C1633.34 73.5 1630.97 71.6333 1628.97 69.1C1627.04 66.5 1626.07 63.0333 1626.07 58.7C1626.07 54.9 1627.04 51.5333 1628.97 48.6C1630.9 45.6667 1633.6 43.4 1637.07 41.8C1640.6 40.2 1644.64 39.4 1649.17 39.4C1655.7 39.4 1661.04 41.0333 1665.17 44.3C1669.37 47.5667 1671.74 51.9 1672.27 57.3H1662.27C1661.94 54.6333 1660.54 52.3 1658.07 50.3C1655.6 48.2333 1652.34 47.2 1648.27 47.2C1644.47 47.2 1641.37 48.2 1638.97 50.2C1636.57 52.1333 1635.37 54.8667 1635.37 58.4C1635.37 60.9333 1636.07 63 1637.47 64.6C1638.94 66.2 1640.7 67.4333 1642.77 68.3C1644.9 69.1 1647.87 70.0333 1651.67 71.1C1656.27 72.3667 1659.97 73.6333 1662.77 74.9C1665.57 76.1 1667.97 78 1669.97 80.6C1671.97 83.1333 1672.97 86.6 1672.97 91C1672.97 94.4 1672.07 97.6 1670.27 100.6C1668.47 103.6 1665.8 106.033 1662.27 107.9C1658.74 109.767 1654.57 110.7 1649.77 110.7ZM1900.88 94.5H1870.48L1864.88 110H1855.28L1880.48 40.7H1890.98L1916.08 110H1906.48L1900.88 94.5ZM1898.28 87.1L1885.68 51.9L1873.08 87.1H1898.28ZM2122.08 40.3C2129.68 40.3 2136.25 41.7333 2141.78 44.6C2147.38 47.4 2151.65 51.4333 2154.58 56.7C2157.58 61.9667 2159.08 68.1667 2159.08 75.3C2159.08 82.4333 2157.58 88.6333 2154.58 93.9C2151.65 99.1 2147.38 103.1 2141.78 105.9C2136.25 108.633 2129.68 110 2122.08 110H2100.38V40.3H2122.08ZM2122.08 102.5C2131.08 102.5 2137.95 100.133 2142.68 95.4C2147.42 90.6 2149.78 83.9 2149.78 75.3C2149.78 66.6333 2147.38 59.8667 2142.58 55C2137.85 50.1333 2131.02 47.7 2122.08 47.7H2109.48V102.5H2122.08ZM2220.19 47.7V71H2245.59V78.5H2220.19V102.5H2248.59V110H2211.09V40.2H2248.59V47.7H2220.19ZM2359.96 40.3L2333.66 110H2323.16L2296.86 40.3H2306.56L2328.46 100.4L2350.36 40.3H2359.96ZM2419.03 47.7V71H2444.43V78.5H2419.03V102.5H2447.43V110H2409.93V40.2H2447.43V47.7H2419.03ZM2510.3 102.6H2534.7V110H2501.2V40.3H2510.3V102.6ZM2615.97 110.7C2609.5 110.7 2603.6 109.2 2598.27 106.2C2592.93 103.133 2588.7 98.9 2585.57 93.5C2582.5 88.0333 2580.97 81.9 2580.97 75.1C2580.97 68.3 2582.5 62.2 2585.57 56.8C2588.7 51.3333 2592.93 47.1 2598.27 44.1C2603.6 41.0333 2609.5 39.5 2615.97 39.5C2622.5 39.5 2628.43 41.0333 2633.77 44.1C2639.1 47.1 2643.3 51.3 2646.37 56.7C2649.43 62.1 2650.97 68.2333 2650.97 75.1C2650.97 81.9667 2649.43 88.1 2646.37 93.5C2643.3 98.9 2639.1 103.133 2633.77 106.2C2628.43 109.2 2622.5 110.7 2615.97 110.7ZM2615.97 102.8C2620.83 102.8 2625.2 101.667 2629.07 99.4C2633 97.1333 2636.07 93.9 2638.27 89.7C2640.53 85.5 2641.67 80.6333 2641.67 75.1C2641.67 69.5 2640.53 64.6333 2638.27 60.5C2636.07 56.3 2633.03 53.0667 2629.17 50.8C2625.3 48.5333 2620.9 47.4 2615.97 47.4C2611.03 47.4 2606.63 48.5333 2602.77 50.8C2598.9 53.0667 2595.83 56.3 2593.57 60.5C2591.37 64.6333 2590.27 69.5 2590.27 75.1C2590.27 80.6333 2591.37 85.5 2593.57 89.7C2595.83 93.9 2598.9 97.1333 2602.77 99.4C2606.7 101.667 2611.1 102.8 2615.97 102.8ZM2749.58 60.7C2749.58 66.5 2747.58 71.3333 2743.58 75.2C2739.65 79 2733.61 80.9 2725.48 80.9H2712.08V110H2702.98V40.3H2725.48C2733.35 40.3 2739.31 42.2 2743.38 46C2747.51 49.8 2749.58 54.7 2749.58 60.7ZM2725.48 73.4C2730.55 73.4 2734.28 72.3 2736.68 70.1C2739.08 67.9 2740.28 64.7667 2740.28 60.7C2740.28 52.1 2735.35 47.8 2725.48 47.8H2712.08V73.4H2725.48ZM2809.99 47.7V71H2835.39V78.5H2809.99V102.5H2838.39V110H2800.89V40.2H2838.39V47.7H2809.99ZM2913.86 40.3C2921.46 40.3 2928.03 41.7333 2933.56 44.6C2939.16 47.4 2943.43 51.4333 2946.36 56.7C2949.36 61.9667 2950.86 68.1667 2950.86 75.3C2950.86 82.4333 2949.36 88.6333 2946.36 93.9C2943.43 99.1 2939.16 103.1 2933.56 105.9C2928.03 108.633 2921.46 110 2913.86 110H2892.16V40.3H2913.86ZM2913.86 102.5C2922.86 102.5 2929.73 100.133 2934.46 95.4C2939.19 90.6 2941.56 83.9 2941.56 75.3C2941.56 66.6333 2939.16 59.8667 2934.36 55C2929.63 50.1333 2922.79 47.7 2913.86 47.7H2901.26V102.5H2913.86ZM3190.98 110H3181.88L3145.28 54.5V110H3136.18V40.2H3145.28L3181.88 95.6V40.2H3190.98V110ZM3287.7 94.5H3257.3L3251.7 110H3242.1L3267.3 40.7H3277.8L3302.9 110H3293.3L3287.7 94.5ZM3285.1 87.1L3272.5 51.9L3259.9 87.1H3285.1ZM3396.78 40.3V47.7H3377.78V110H3368.68V47.7H3349.58V40.3H3396.78ZM3457.08 40.3V110H3447.98V40.3H3457.08ZM3544.19 110.7C3537.72 110.7 3531.82 109.2 3526.49 106.2C3521.16 103.133 3516.92 98.9 3513.79 93.5C3510.72 88.0333 3509.19 81.9 3509.19 75.1C3509.19 68.3 3510.72 62.2 3513.79 56.8C3516.92 51.3333 3521.16 47.1 3526.49 44.1C3531.82 41.0333 3537.72 39.5 3544.19 39.5C3550.72 39.5 3556.66 41.0333 3561.99 44.1C3567.32 47.1 3571.52 51.3 3574.59 56.7C3577.66 62.1 3579.19 68.2333 3579.19 75.1C3579.19 81.9667 3577.66 88.1 3574.59 93.5C3571.52 98.9 3567.32 103.133 3561.99 106.2C3556.66 109.2 3550.72 110.7 3544.19 110.7ZM3544.19 102.8C3549.06 102.8 3553.42 101.667 3557.29 99.4C3561.22 97.1333 3564.29 93.9 3566.49 89.7C3568.76 85.5 3569.89 80.6333 3569.89 75.1C3569.89 69.5 3568.76 64.6333 3566.49 60.5C3564.29 56.3 3561.26 53.0667 3557.39 50.8C3553.52 48.5333 3549.12 47.4 3544.19 47.4C3539.26 47.4 3534.86 48.5333 3530.99 50.8C3527.12 53.0667 3524.06 56.3 3521.79 60.5C3519.59 64.6333 3518.49 69.5 3518.49 75.1C3518.49 80.6333 3519.59 85.5 3521.79 89.7C3524.06 93.9 3527.12 97.1333 3530.99 99.4C3534.92 101.667 3539.32 102.8 3544.19 102.8ZM3686 110H3676.9L3640.3 54.5V110H3631.2V40.2H3640.3L3676.9 95.6V40.2H3686V110Z" fill="white"/>
<path d="M1646.92 430.259C1642.5 430.259 1638.41 428.657 1634.66 425.454C1630.9 422.25 1628.08 417.777 1626.21 412.033L1598.7 328.858C1596.93 323.224 1597.21 318.861 1599.53 315.768C1601.96 312.675 1605.16 311.129 1609.14 311.129C1613.01 311.129 1615.93 312.399 1617.92 314.94C1620.02 317.37 1621.95 321.457 1623.72 327.201L1647.75 402.423C1650.73 393.807 1653.66 386.13 1656.53 379.392C1659.51 372.544 1661.99 366.248 1663.98 360.504C1665.97 354.65 1667.02 349.016 1667.13 343.604C1667.24 340.842 1667.02 338.357 1666.47 336.148C1666.03 333.939 1665.53 331.729 1664.98 329.52C1664.54 327.201 1664.31 324.66 1664.31 321.899C1664.31 319.248 1665.31 316.818 1667.3 314.608C1669.29 312.289 1672.71 311.129 1677.57 311.129C1681.21 311.129 1684.03 312.51 1686.02 315.271C1688.01 317.922 1689.33 321.236 1690 325.212C1690.77 329.078 1691.16 332.945 1691.16 336.811C1691.16 345.979 1690.05 354.76 1687.84 363.155C1685.63 371.439 1682.65 379.558 1678.9 387.511C1675.25 395.464 1671.22 403.638 1666.8 412.033C1664.81 416.341 1662.93 419.876 1661.17 422.637C1659.4 425.288 1657.41 427.221 1655.2 428.436C1653.1 429.651 1650.34 430.259 1646.92 430.259Z" fill="#E03C1F"/>
<path d="M1719.23 430.259C1711.06 430.259 1706.97 426.558 1706.97 419.158V322.23C1706.97 318.364 1707.91 315.547 1709.79 313.78C1711.66 312.013 1714.65 311.129 1718.73 311.129C1726.8 311.129 1730.83 314.829 1730.83 322.23V419.158C1730.83 422.913 1729.89 425.73 1728.01 427.608C1726.25 429.375 1723.32 430.259 1719.23 430.259Z" fill="#E03C1F"/>
<path d="M1821.81 430.259C1813.52 430.259 1809.38 426.393 1809.38 418.661V392.979C1809.38 387.677 1808.28 383.7 1806.07 381.049C1803.97 378.288 1800.32 376.907 1795.13 376.907C1789.5 376.907 1785.3 378.067 1782.54 380.387C1779.89 382.706 1778.56 386.738 1778.56 392.482V417.335C1778.56 425.951 1774.59 430.259 1766.63 430.259C1758.68 430.259 1754.7 425.951 1754.7 417.335V324.053C1754.7 315.437 1758.68 311.129 1766.63 311.129C1774.59 311.129 1778.56 315.437 1778.56 324.053V362.989C1780.11 361.443 1781.71 360.228 1783.37 359.344C1785.02 358.46 1787.78 357.466 1791.65 356.362C1797.17 354.815 1800.98 351.557 1803.08 346.586C1805.18 341.616 1806.23 333.662 1806.23 322.727C1806.23 318.64 1807.12 315.713 1808.88 313.946C1810.65 312.068 1813.47 311.129 1817.33 311.129C1825.51 311.129 1829.59 315.271 1829.59 323.556C1829.59 334.601 1828.43 343.604 1826.11 350.563C1823.79 357.411 1820.2 362.713 1815.34 366.469C1827.16 371.55 1833.07 380.497 1833.07 393.31V418.661C1833.07 426.393 1829.32 430.259 1821.81 430.259Z" fill="#E03C1F"/>
<path d="M1880.75 430.259C1876.55 430.259 1872.13 429.927 1867.49 429.265C1862.85 428.602 1859.1 427.718 1856.22 426.614C1851.58 424.736 1849.27 421.588 1849.27 417.169C1849.27 413.966 1850.2 411.425 1852.08 409.548C1854.07 407.559 1857.16 406.565 1861.36 406.565C1864.23 406.565 1867.71 406.952 1871.8 407.725C1875.89 408.498 1879.48 408.885 1882.57 408.885C1889.42 408.885 1894.33 408.001 1897.31 406.234C1900.3 404.467 1901.79 400.877 1901.79 395.464C1901.79 392.261 1900.63 389.555 1898.31 387.345C1896.1 385.136 1891.63 383.038 1884.89 381.049C1872.63 377.404 1863.74 372.875 1858.21 367.463C1852.8 362.05 1850.09 355.036 1850.09 346.42C1850.09 338.909 1851.75 332.558 1855.06 327.366C1858.49 322.064 1863.18 318.033 1869.15 315.271C1875.11 312.51 1881.91 311.129 1889.53 311.129C1898.47 311.129 1905.88 312.344 1911.73 314.774C1916.37 316.541 1918.69 319.689 1918.69 324.218C1918.69 327.422 1917.69 330.017 1915.71 332.006C1913.83 333.883 1910.79 334.822 1906.59 334.822C1903.83 334.822 1900.85 334.546 1897.65 333.994C1894.44 333.331 1891.29 333 1888.2 333C1883.45 333 1879.86 333.828 1877.43 335.485C1875 337.142 1873.79 339.903 1873.79 343.769C1873.79 347.304 1875.5 350.507 1878.92 353.379C1882.35 356.251 1888.64 359.068 1897.81 361.829C1908.31 364.922 1915.54 369.12 1919.52 374.422C1923.49 379.613 1925.48 386.241 1925.48 394.304C1925.48 406.013 1921.56 414.96 1913.72 421.146C1905.99 427.221 1895 430.259 1880.75 430.259Z" fill="#E03C1F"/>
<path d="M1955.3 430.259C1947.13 430.259 1943.04 426.558 1943.04 419.158V322.23C1943.04 318.364 1943.98 315.547 1945.86 313.78C1947.74 312.013 1950.72 311.129 1954.81 311.129C1962.87 311.129 1966.9 314.829 1966.9 322.23V419.158C1966.9 422.913 1965.96 425.73 1964.09 427.608C1962.32 429.375 1959.39 430.259 1955.3 430.259Z" fill="#E03C1F"/>
<path d="M2022.97 430.259C2020.2 430.259 2017.39 429.651 2014.52 428.436C2011.75 427.111 2010.37 425.012 2010.37 422.14V344.598C2010.37 341.063 2011.26 338.633 2013.02 337.308C2014.79 335.982 2016.23 335.154 2017.33 334.822H1985.35C1982.7 334.822 1980.72 333.662 1979.39 331.343C1978.17 328.913 1977.57 326.427 1977.57 323.887C1977.57 321.125 1978.23 318.64 1979.56 316.431C1980.88 314.111 1982.81 312.951 1985.35 312.951H2059.42C2061.96 312.951 2063.89 314.111 2065.22 316.431C2066.54 318.64 2067.2 321.125 2067.2 323.887C2067.2 326.427 2066.54 328.913 2065.22 331.343C2064 333.662 2062.07 334.822 2059.42 334.822H2034.23V422.14C2034.23 424.901 2033.07 426.945 2030.75 428.27C2028.54 429.596 2025.95 430.259 2022.97 430.259Z" fill="#E03C1F"/>
<path d="M1553.82 589.675C1551.72 589.675 1549.95 588.847 1548.51 587.19C1547.08 585.533 1546.36 583.434 1546.36 580.894V506.334C1546.36 502.689 1546.86 498.878 1547.85 494.902C1548.96 490.925 1550.94 487.225 1553.82 483.801C1556.8 480.266 1561 477.394 1566.41 475.185C1571.82 472.976 1578.89 471.871 1587.62 471.871C1599.21 471.871 1608.22 474.743 1614.62 480.487C1621.03 486.231 1624.23 494.847 1624.23 506.334C1624.23 510.974 1623.35 515.226 1621.58 519.092C1619.92 522.958 1617.38 525.885 1613.96 527.874C1619.37 530.304 1623.24 533.673 1625.56 537.981C1627.99 542.289 1629.2 548.253 1629.2 555.875C1629.2 566.921 1625.78 575.316 1618.93 581.06C1612.19 586.803 1601.75 589.675 1587.62 589.675H1553.82ZM1569.06 524.891C1570.49 523.124 1572.81 521.743 1576.02 520.749C1579.33 519.755 1583.2 519.258 1587.62 519.258C1592.81 519.258 1596.34 518.319 1598.22 516.441C1600.21 514.453 1601.2 511.084 1601.2 506.334C1601.2 500.811 1600.04 496.89 1597.72 494.57C1595.51 492.14 1592.14 490.925 1587.62 490.925C1581.21 490.925 1576.68 492.085 1574.03 494.405C1571.49 496.724 1570.22 500.701 1570.22 506.334C1570.22 509.758 1570.16 512.52 1570.05 514.619C1570.05 516.607 1569.94 518.374 1569.72 519.921C1569.61 521.467 1569.39 523.124 1569.06 524.891ZM1570.22 570.456H1587.62C1594.24 570.456 1598.83 569.296 1601.37 566.976C1604.02 564.656 1605.34 560.956 1605.34 555.875C1605.34 548.695 1603.96 543.559 1601.2 540.466C1598.55 537.373 1594.02 535.827 1587.62 535.827C1583.09 535.827 1579.55 536.434 1577.01 537.649C1574.47 538.754 1572.7 540.742 1571.71 543.614C1570.72 546.486 1570.22 550.573 1570.22 555.875V570.456Z" fill="#09A270"/>
<path d="M1660.09 591.001C1651.92 591.001 1647.83 587.301 1647.83 579.9V482.972C1647.83 479.106 1648.77 476.289 1650.65 474.522C1652.52 472.755 1655.51 471.871 1659.59 471.871C1667.66 471.871 1671.69 475.572 1671.69 482.972V499.541C1671.69 513.238 1671.3 521.412 1670.53 524.063C1673.4 521.191 1676.49 519.203 1679.81 518.098C1683.12 516.994 1687.49 516.441 1692.9 516.441H1709.14V482.972C1709.14 479.106 1710.07 476.289 1711.95 474.522C1713.83 472.755 1716.81 471.871 1720.9 471.871C1728.96 471.871 1732.99 475.572 1732.99 482.972V579.9C1732.99 583.655 1732.06 586.472 1730.18 588.35C1728.41 590.117 1725.48 591.001 1721.4 591.001C1713.22 591.001 1709.14 587.301 1709.14 579.9V530.856C1708.47 532.844 1706.32 534.501 1702.67 535.827C1699.03 537.042 1694.78 537.649 1689.92 537.649C1682.96 537.649 1678.15 539.085 1675.5 541.957C1672.96 544.719 1671.69 549.855 1671.69 557.366V579.9C1671.69 583.655 1670.75 586.472 1668.87 588.35C1667.11 590.117 1664.18 591.001 1660.09 591.001Z" fill="#09A270"/>
<path d="M1779.59 579.9C1779.59 587.301 1775.73 591.001 1768 591.001C1764.24 591.001 1761.26 590.062 1759.05 588.184C1756.84 586.306 1755.73 583.545 1755.73 579.9V514.287C1755.73 499.044 1758.83 488.164 1765.01 481.647C1771.2 475.13 1780.86 471.871 1794.01 471.871C1807.48 471.871 1817.43 475.185 1823.83 481.812C1830.24 488.44 1833.44 499.265 1833.44 514.287V579.9C1833.44 587.301 1829.58 591.001 1821.84 591.001C1818.09 591.001 1815.11 590.062 1812.9 588.184C1810.69 586.306 1809.58 583.545 1809.58 579.9V539.969C1807.48 541.847 1805.17 543.448 1802.62 544.774C1800.19 546.099 1797.32 546.762 1794.01 546.762C1789.15 546.762 1785.5 547.646 1783.07 549.413C1780.75 551.181 1779.59 554.329 1779.59 558.857V579.9ZM1778.6 531.353C1780.37 529.586 1782.47 528.205 1784.9 527.211C1787.44 526.217 1790.47 525.72 1794.01 525.72C1798.21 525.72 1801.41 525.388 1803.62 524.726C1805.94 524.063 1807.54 522.793 1808.42 520.915C1809.31 519.037 1809.75 516.276 1809.75 512.63C1809.75 504.456 1808.59 498.878 1806.27 495.896C1803.95 492.803 1799.81 491.257 1793.84 491.257C1788.32 491.257 1784.51 492.858 1782.41 496.062C1780.42 499.154 1779.43 504.898 1779.43 513.293C1779.43 517.601 1779.37 521.246 1779.26 524.229C1779.15 527.211 1778.93 529.586 1778.6 531.353Z" fill="#09A270"/>
<path d="M1867.83 590.67C1864.07 590.67 1861.09 589.841 1858.88 588.184C1856.67 586.417 1855.57 583.932 1855.57 580.728V509.151C1855.57 496.338 1858.94 486.949 1865.68 480.984C1872.52 474.909 1883.18 471.871 1897.65 471.871C1909.47 471.871 1918.47 474.854 1924.66 480.818C1930.96 486.673 1934.1 495.178 1934.1 506.334C1934.1 510.2 1933.99 513.956 1933.77 517.601C1933.55 521.136 1933.22 523.621 1932.78 525.057C1931.12 531.132 1928.08 535.772 1923.67 538.975C1929.63 543.945 1932.61 549.689 1932.61 556.206V580.728C1932.61 587.577 1928.8 591.001 1921.18 591.001C1917.43 591.001 1914.44 590.172 1912.23 588.516C1910.02 586.748 1908.92 584.152 1908.92 580.728V558.857C1908.92 552.893 1907.98 548.695 1906.1 546.265C1904.34 543.835 1900.69 542.62 1895.17 542.62C1889.2 542.62 1885.06 543.945 1882.74 546.596C1880.53 549.137 1879.43 553.887 1879.43 560.846V580.728C1879.43 587.356 1875.56 590.67 1867.83 590.67ZM1878.1 529.034C1880.86 526.714 1883.29 525.223 1885.39 524.56C1887.6 523.787 1890.75 523.4 1894.84 523.4C1900.36 523.4 1904.39 523.124 1906.93 522.572C1909.58 522.019 1911.29 520.86 1912.07 519.092C1912.84 517.325 1913.23 514.563 1913.23 510.808C1913.23 503.297 1912.07 498.105 1909.75 495.233C1907.54 492.251 1903.51 490.76 1897.65 490.76C1891.14 490.76 1886.5 492.251 1883.74 495.233C1881.08 498.216 1879.76 503.407 1879.76 510.808C1879.76 514.453 1879.59 517.712 1879.26 520.583C1879.04 523.345 1878.65 526.162 1878.1 529.034Z" fill="#09A270"/>
<path d="M1978.13 579.9C1978.13 587.301 1974.26 591.001 1966.53 591.001C1962.77 591.001 1959.79 590.062 1957.58 588.184C1955.37 586.306 1954.27 583.545 1954.27 579.9V514.287C1954.27 499.044 1957.36 488.164 1963.55 481.647C1969.73 475.13 1979.4 471.871 1992.54 471.871C2006.02 471.871 2015.96 475.185 2022.37 481.812C2028.77 488.44 2031.98 499.265 2031.98 514.287V579.9C2031.98 587.301 2028.11 591.001 2020.38 591.001C2016.62 591.001 2013.64 590.062 2011.43 588.184C2009.22 586.306 2008.12 583.545 2008.12 579.9V539.969C2006.02 541.847 2003.7 543.448 2001.16 544.774C1998.73 546.099 1995.86 546.762 1992.54 546.762C1987.68 546.762 1984.04 547.646 1981.61 549.413C1979.29 551.181 1978.13 554.329 1978.13 558.857V579.9ZM1977.13 531.353C1978.9 529.586 1981 528.205 1983.43 527.211C1985.97 526.217 1989.01 525.72 1992.54 525.72C1996.74 525.72 1999.94 525.388 2002.15 524.726C2004.47 524.063 2006.07 522.793 2006.96 520.915C2007.84 519.037 2008.28 516.276 2008.28 512.63C2008.28 504.456 2007.12 498.878 2004.8 495.896C2002.48 492.803 1998.34 491.257 1992.38 491.257C1986.85 491.257 1983.04 492.858 1980.95 496.062C1978.96 499.154 1977.96 504.898 1977.96 513.293C1977.96 517.601 1977.91 521.246 1977.8 524.229C1977.69 527.211 1977.47 529.586 1977.13 531.353Z" fill="#09A270"/>
<path d="M2082.27 591.001C2079.51 591.001 2076.69 590.393 2073.82 589.178C2071.06 587.853 2069.67 585.754 2069.67 582.882V505.34C2069.67 501.805 2070.56 499.375 2072.33 498.05C2074.09 496.724 2075.53 495.896 2076.63 495.565H2044.66C2042.01 495.565 2040.02 494.405 2038.69 492.085C2037.48 489.655 2036.87 487.17 2036.87 484.629C2036.87 481.868 2037.53 479.382 2038.86 477.173C2040.18 474.854 2042.12 473.694 2044.66 473.694H2118.72C2121.26 473.694 2123.19 474.854 2124.52 477.173C2125.84 479.382 2126.51 481.868 2126.51 484.629C2126.51 487.17 2125.84 489.655 2124.52 492.085C2123.3 494.405 2121.37 495.565 2118.72 495.565H2093.53V582.882C2093.53 585.644 2092.37 587.687 2090.05 589.013C2087.85 590.338 2085.25 591.001 2082.27 591.001Z" fill="#09A270"/>
<g filter="url(#filter0_g_338_96)">
<path d="M2169.03 303.229C2171.49 302.331 2174.08 304.19 2174.01 306.805L2172.16 381.834C2172.08 384.812 2168.71 386.492 2166.29 384.755L2141.29 366.815C2140.11 368.297 2138.92 369.775 2137.7 371.249C2070.01 464.992 1939.68 488.061 1835.69 461.284C1735.16 441.422 1604 398.55 1538.9 500.816C1531.56 511.226 1526.1 520.384 1520.17 531.837C1520.09 531.98 1519.96 532.089 1519.81 532.14C1519.65 532.19 1519.49 532.179 1519.34 532.108C1519.2 532.036 1519.09 531.909 1519.03 531.755C1518.98 531.601 1518.99 531.432 1519.06 531.286C1524.69 519.62 1529.85 510.217 1536.97 499.483C1599.54 392.991 1738.81 432.514 1837.83 449.106C1942.79 471.664 2058.95 446.572 2120.21 357.291C2121.14 356.084 2122.06 354.875 2122.97 353.663L2097.65 335.488C2095.23 333.751 2095.74 330.013 2098.54 328.991L2169.03 303.229Z" fill="white"/>
</g>
<defs>
<filter id="filter0_g_338_96" x="1505.4" y="289.4" width="682.216" height="256.372" filterUnits="userSpaceOnUse" color-interpolation-filters="sRGB">
<feFlood flood-opacity="0" result="BackgroundImageFix"/>
<feBlend mode="normal" in="SourceGraphic" in2="BackgroundImageFix" result="shape"/>
<feTurbulence type="fractalNoise" baseFrequency="0.66666668653488159 0.66666668653488159" numOctaves="3" seed="7656" />
<feDisplacementMap in="shape" scale="27.200000762939453" xChannelSelector="R" yChannelSelector="G" result="displacedImage" width="100%" height="100%" />
<feMerge result="effect1_texture_338_96">
<feMergeNode in="displacedImage"/>
</feMerge>
</filter>
</defs>
</svg>
