<svg width="2737" height="74" viewBox="0 0 2737 74" fill="none" xmlns="http://www.w3.org/2000/svg">
<path d="M58.0984 2.50312L55.6984 16.0031H27.0984L24.4984 31.1031H45.8984L43.4984 44.1031H22.0984L17.0984 72.7031H-0.00156241L12.3984 2.50312H58.0984ZM88.0859 73.4031C82.1526 73.4031 76.9193 72.1698 72.3859 69.7031C67.9193 67.2365 64.4526 63.7698 61.9859 59.3031C59.5193 54.8365 58.2859 49.7031 58.2859 43.9031C58.2859 35.7031 60.0526 28.4031 63.5859 22.0031C67.1193 15.5365 72.0193 10.5031 78.2859 6.90312C84.6193 3.30312 91.7859 1.50312 99.7859 1.50312C105.786 1.50312 111.053 2.73646 115.586 5.20312C120.119 7.60312 123.619 11.0365 126.086 15.5031C128.553 19.9031 129.786 24.9698 129.786 30.7031C129.786 38.9031 128.019 46.2698 124.486 52.8031C120.953 59.2698 116.019 64.3365 109.686 68.0031C103.353 71.6031 96.1526 73.4031 88.0859 73.4031ZM90.6859 57.6031C95.0859 57.6031 98.9526 56.4698 102.286 54.2031C105.619 51.9365 108.186 48.9031 109.986 45.1031C111.853 41.2365 112.786 37.0698 112.786 32.6031C112.786 27.8031 111.453 24.0365 108.786 21.3031C106.119 18.5698 102.386 17.2031 97.5859 17.2031C93.1859 17.2031 89.2859 18.3365 85.8859 20.6031C82.5526 22.8698 79.9526 25.9031 78.0859 29.7031C76.2859 33.4365 75.3859 37.5698 75.3859 42.1031C75.3859 46.9031 76.7193 50.7031 79.3859 53.5031C82.0526 56.2365 85.8193 57.6031 90.6859 57.6031ZM174.399 2.50312C181.666 2.50312 187.199 4.16979 190.999 7.50312C194.799 10.7698 196.699 15.0365 196.699 20.3031C196.699 21.8365 196.566 23.2698 196.299 24.6031C195.499 29.2698 193.466 33.4365 190.199 37.1031C186.933 40.7698 182.566 43.3698 177.099 44.9031L188.399 72.7031H169.099L159.199 46.2031H155.099L150.399 72.7031H133.299L145.699 2.50312H174.399ZM178.799 25.3031C178.933 24.2365 178.999 23.5365 178.999 23.2031C178.999 21.0698 178.299 19.4365 176.899 18.3031C175.566 17.1031 173.566 16.5031 170.899 16.5031H160.299L157.199 34.1031H167.799C170.933 34.1031 173.399 33.3365 175.199 31.8031C177.066 30.2698 178.266 28.1031 178.799 25.3031ZM313.578 2.50312L301.178 72.7031H284.078L291.578 30.6031L268.378 72.7031H254.578L246.178 30.4031L238.778 72.7031H221.678L234.078 2.50312H254.278L265.478 51.1031L293.478 2.50312H313.578ZM346.875 73.4031C340.942 73.4031 335.708 72.1698 331.175 69.7031C326.708 67.2365 323.242 63.7698 320.775 59.3031C318.308 54.8365 317.075 49.7031 317.075 43.9031C317.075 35.7031 318.842 28.4031 322.375 22.0031C325.908 15.5365 330.808 10.5031 337.075 6.90312C343.408 3.30312 350.575 1.50312 358.575 1.50312C364.575 1.50312 369.842 2.73646 374.375 5.20312C378.908 7.60312 382.408 11.0365 384.875 15.5031C387.342 19.9031 388.575 24.9698 388.575 30.7031C388.575 38.9031 386.808 46.2698 383.275 52.8031C379.742 59.2698 374.808 64.3365 368.475 68.0031C362.142 71.6031 354.942 73.4031 346.875 73.4031ZM349.475 57.6031C353.875 57.6031 357.742 56.4698 361.075 54.2031C364.408 51.9365 366.975 48.9031 368.775 45.1031C370.642 41.2365 371.575 37.0698 371.575 32.6031C371.575 27.8031 370.242 24.0365 367.575 21.3031C364.908 18.5698 361.175 17.2031 356.375 17.2031C351.975 17.2031 348.075 18.3365 344.675 20.6031C341.342 22.8698 338.742 25.9031 336.875 29.7031C335.075 33.4365 334.175 37.5698 334.175 42.1031C334.175 46.9031 335.508 50.7031 338.175 53.5031C340.842 56.2365 344.608 57.6031 349.475 57.6031ZM433.188 2.50312C440.455 2.50312 445.988 4.16979 449.788 7.50312C453.588 10.7698 455.488 15.0365 455.488 20.3031C455.488 21.8365 455.355 23.2698 455.088 24.6031C454.288 29.2698 452.255 33.4365 448.988 37.1031C445.722 40.7698 441.355 43.3698 435.888 44.9031L447.188 72.7031H427.888L417.988 46.2031H413.888L409.188 72.7031H392.088L404.488 2.50312H433.188ZM437.588 25.3031C437.722 24.2365 437.788 23.5365 437.788 23.2031C437.788 21.0698 437.088 19.4365 435.688 18.3031C434.355 17.1031 432.355 16.5031 429.688 16.5031H419.088L415.988 34.1031H426.588C429.722 34.1031 432.188 33.3365 433.988 31.8031C435.855 30.2698 437.055 28.1031 437.588 25.3031ZM484.423 16.0031L481.923 30.6031H504.823L502.523 43.5031H479.623L476.823 59.2031H502.723L500.323 72.7031H457.323L469.723 2.50312H512.723L510.323 16.0031H484.423ZM562.469 73.4031C554.869 73.4031 548.669 71.7698 543.869 68.5031C539.135 65.1698 536.769 60.4698 536.769 54.4031C536.769 53.8031 536.835 52.9031 536.969 51.7031H554.769C554.569 54.2365 555.169 56.2365 556.569 57.7031C557.969 59.1698 560.102 59.9031 562.969 59.9031C565.569 59.9031 567.602 59.3365 569.069 58.2031C570.602 57.0698 571.369 55.4698 571.369 53.4031C571.369 51.2698 570.402 49.5365 568.469 48.2031C566.602 46.8698 563.669 45.3698 559.669 43.7031C555.802 42.1031 552.635 40.6031 550.169 39.2031C547.769 37.7365 545.669 35.7698 543.869 33.3031C542.069 30.8365 541.169 27.7365 541.169 24.0031C541.102 19.4031 542.235 15.4031 544.569 12.0031C546.902 8.60312 550.135 6.00312 554.269 4.20312C558.402 2.40312 563.135 1.50312 568.469 1.50312C573.269 1.50312 577.535 2.26979 581.269 3.80312C585.002 5.26979 587.902 7.43645 589.969 10.3031C592.035 13.1031 593.069 16.4365 593.069 20.3031C593.069 21.3031 593.035 22.0365 592.969 22.5031H574.769C574.835 22.2365 574.869 21.8365 574.869 21.3031C574.869 19.4365 574.202 17.9365 572.869 16.8031C571.602 15.6031 569.835 15.0031 567.569 15.0031C565.169 15.0031 563.202 15.6031 561.669 16.8031C560.202 17.9365 559.469 19.5031 559.469 21.5031C559.469 23.5031 560.402 25.2031 562.269 26.6031C564.135 27.9365 567.035 29.5031 570.969 31.3031C574.902 33.1031 578.102 34.7698 580.569 36.3031C583.102 37.8365 585.269 39.9031 587.069 42.5031C588.869 45.0365 589.769 48.1698 589.769 51.9031C589.769 56.0365 588.669 59.7365 586.469 63.0031C584.269 66.2698 581.102 68.8365 576.969 70.7031C572.835 72.5031 568.002 73.4031 562.469 73.4031ZM625.976 2.50312L618.576 44.4031C618.309 46.1365 618.176 47.3365 618.176 48.0031C618.176 51.0698 619.042 53.4365 620.776 55.1031C622.509 56.7031 625.076 57.5031 628.476 57.5031C632.476 57.5031 635.742 56.3698 638.276 54.1031C640.809 51.8365 642.442 48.6031 643.176 44.4031L650.576 2.50312H667.676L660.276 44.4031C659.142 50.7365 656.876 56.1031 653.476 60.5031C650.142 64.8365 646.042 68.0698 641.176 70.2031C636.376 72.3365 631.142 73.4031 625.476 73.4031C618.142 73.4031 612.209 71.5031 607.676 67.7031C603.209 63.9031 600.976 58.4031 600.976 51.2031C600.976 49.0698 601.176 46.8031 601.576 44.4031L608.876 2.50312H625.976ZM670.684 37.5031C671.884 30.5698 674.45 24.4031 678.384 19.0031C682.384 13.5365 687.317 9.30312 693.184 6.30312C699.05 3.23645 705.384 1.70312 712.184 1.70312C720.517 1.70312 727.25 3.90312 732.384 8.30312C737.584 12.7031 740.517 18.7031 741.184 26.3031H722.384C721.517 23.4365 719.917 21.2698 717.584 19.8031C715.317 18.2698 712.517 17.5031 709.184 17.5031C703.917 17.5031 699.35 19.3365 695.484 23.0031C691.617 26.6031 689.15 31.4365 688.084 37.5031C687.75 39.3698 687.584 41.0031 687.584 42.4031C687.584 47.0698 688.884 50.7698 691.484 53.5031C694.084 56.2365 697.65 57.6031 702.184 57.6031C705.45 57.6031 708.484 56.8365 711.284 55.3031C714.15 53.7698 716.55 51.5698 718.484 48.7031H737.284C733.95 56.3031 728.917 62.3031 722.184 66.7031C715.45 71.0365 707.917 73.2031 699.584 73.2031C693.584 73.2031 688.35 72.0365 683.884 69.7031C679.417 67.3698 675.984 64.0698 673.584 59.8031C671.184 55.5365 669.984 50.5698 669.984 44.9031C669.984 42.3698 670.217 39.9031 670.684 37.5031ZM816.655 2.50312L804.255 72.7031H787.155L792.255 43.6031H765.655L760.555 72.7031H743.455L755.855 2.50312H772.955L768.055 30.1031H794.655L799.555 2.50312H816.655ZM948.745 2.50312L918.045 72.7031H897.345L894.245 26.6031L874.545 72.7031H853.845L848.445 2.50312H866.745L867.845 53.6031L889.345 2.50312H908.245L911.245 53.3031L930.345 2.50312H948.745ZM972.02 16.0031L969.52 30.6031H992.42L990.12 43.5031H967.22L964.42 59.2031H990.32L987.92 72.7031H944.92L957.32 2.50312H1000.32L997.92 16.0031H972.02ZM1062.62 20.7031C1061.89 24.8365 1060.19 28.2698 1057.52 31.0031C1054.86 33.7365 1051.66 35.6365 1047.92 36.7031C1051.26 37.4365 1053.89 39.0698 1055.82 41.6031C1057.76 44.1365 1058.72 47.1031 1058.72 50.5031C1058.72 51.5698 1058.62 52.6031 1058.42 53.6031C1057.42 59.4698 1054.56 64.1365 1049.82 67.6031C1045.09 71.0031 1039.06 72.7031 1031.72 72.7031H999.022L1011.42 2.50312H1043.02C1049.36 2.50312 1054.26 3.80312 1057.72 6.40312C1061.19 9.00312 1062.92 12.6031 1062.92 17.2031C1062.92 18.3365 1062.82 19.5031 1062.62 20.7031ZM1034.62 31.0031C1037.49 31.0031 1039.79 30.3698 1041.52 29.1031C1043.26 27.8365 1044.32 26.0031 1044.72 23.6031C1044.79 23.2031 1044.82 22.6698 1044.82 22.0031C1044.82 20.0698 1044.19 18.6031 1042.92 17.6031C1041.66 16.5365 1039.79 16.0031 1037.32 16.0031H1026.12L1023.52 31.0031H1034.62ZM1041.42 51.3031C1041.56 50.5031 1041.62 49.9031 1041.62 49.5031C1041.62 47.5698 1040.92 46.0698 1039.52 45.0031C1038.12 43.8698 1036.19 43.3031 1033.72 43.3031H1021.32L1018.52 59.1031H1031.12C1034.06 59.1031 1036.39 58.4365 1038.12 57.1031C1039.86 55.7698 1040.96 53.8365 1041.42 51.3031ZM1126.84 25.1031C1126.17 29.1698 1124.61 32.9031 1122.14 36.3031C1119.67 39.6365 1116.31 42.3365 1112.04 44.4031C1107.84 46.4698 1102.87 47.5031 1097.14 47.5031H1086.54L1082.04 72.7031H1064.94L1077.34 2.50312H1105.04C1112.37 2.50312 1117.91 4.13645 1121.64 7.40312C1125.37 10.6031 1127.24 14.9698 1127.24 20.5031C1127.24 22.1698 1127.11 23.7031 1126.84 25.1031ZM1098.14 34.1031C1104.54 34.1031 1108.31 31.1031 1109.44 25.1031C1109.57 24.0365 1109.64 23.2698 1109.64 22.8031C1109.64 20.6698 1108.94 19.0365 1107.54 17.9031C1106.21 16.7031 1104.14 16.1031 1101.34 16.1031H1092.04L1088.94 34.1031H1098.14ZM1173.24 60.3031H1147.04L1140.64 72.7031H1122.74L1160.54 2.50312H1180.34L1193.34 72.7031H1175.24L1173.24 60.3031ZM1171.24 47.3031L1167.14 21.3031L1153.74 47.3031H1171.24ZM1204.47 37.5031C1205.67 30.5698 1208.24 24.4031 1212.17 19.0031C1216.17 13.5365 1221.14 9.30312 1227.07 6.30312C1233.01 3.23645 1239.44 1.70312 1246.37 1.70312C1254.77 1.70312 1261.51 3.73645 1266.57 7.80312C1271.71 11.8698 1274.51 17.5031 1274.97 24.7031H1256.17C1255.31 22.3698 1253.77 20.6031 1251.57 19.4031C1249.44 18.1365 1246.81 17.5031 1243.67 17.5031C1238.14 17.5031 1233.37 19.3365 1229.37 23.0031C1225.44 26.6031 1222.94 31.4365 1221.87 37.5031C1221.54 39.5031 1221.37 41.2365 1221.37 42.7031C1221.37 47.6365 1222.81 51.4365 1225.67 54.1031C1228.54 56.7698 1232.61 58.1031 1237.87 58.1031C1242.14 58.1031 1245.91 57.0365 1249.17 54.9031C1252.44 52.7031 1255.07 49.6031 1257.07 45.6031H1235.47L1237.57 33.1031H1274.77L1271.97 49.0031C1269.97 53.2698 1267.11 57.2365 1263.37 60.9031C1259.71 64.5698 1255.34 67.5365 1250.27 69.8031C1245.21 72.0698 1239.74 73.2031 1233.87 73.2031C1227.81 73.2031 1222.47 72.0365 1217.87 69.7031C1213.34 67.3031 1209.84 63.9698 1207.37 59.7031C1204.97 55.4365 1203.77 50.4698 1203.77 44.8031C1203.77 42.8698 1204.01 40.4365 1204.47 37.5031ZM1304.34 16.0031L1301.84 30.6031H1324.74L1322.44 43.5031H1299.54L1296.74 59.2031H1322.64L1320.24 72.7031H1277.24L1289.64 2.50312H1332.64L1330.24 16.0031H1304.34ZM1393.19 2.50312C1399.66 2.50312 1405.22 3.66979 1409.89 6.00312C1414.62 8.26979 1418.22 11.5031 1420.69 15.7031C1423.22 19.8365 1424.49 24.7031 1424.49 30.3031C1424.49 32.2365 1424.26 34.6698 1423.79 37.6031C1422.59 44.4698 1419.99 50.5698 1415.99 55.9031C1412.06 61.2365 1407.02 65.3698 1400.89 68.3031C1394.82 71.2365 1388.12 72.7031 1380.79 72.7031H1354.49L1366.89 2.50312H1393.19ZM1382.29 58.1031C1388.76 58.1031 1394.12 56.3031 1398.39 52.7031C1402.66 49.1031 1405.32 44.0698 1406.39 37.6031C1406.72 35.6031 1406.89 33.9365 1406.89 32.6031C1406.89 27.6698 1405.39 23.8698 1402.39 21.2031C1399.39 18.4698 1395.12 17.1031 1389.59 17.1031H1381.39L1374.19 58.1031H1382.29ZM1454.25 16.0031L1451.75 30.6031H1474.65L1472.35 43.5031H1449.45L1446.65 59.2031H1472.55L1470.15 72.7031H1427.15L1439.55 2.50312H1482.55L1480.15 16.0031H1454.25ZM1509.15 73.4031C1501.55 73.4031 1495.35 71.7698 1490.55 68.5031C1485.82 65.1698 1483.45 60.4698 1483.45 54.4031C1483.45 53.8031 1483.52 52.9031 1483.65 51.7031H1501.45C1501.25 54.2365 1501.85 56.2365 1503.25 57.7031C1504.65 59.1698 1506.78 59.9031 1509.65 59.9031C1512.25 59.9031 1514.28 59.3365 1515.75 58.2031C1517.28 57.0698 1518.05 55.4698 1518.05 53.4031C1518.05 51.2698 1517.08 49.5365 1515.15 48.2031C1513.28 46.8698 1510.35 45.3698 1506.35 43.7031C1502.48 42.1031 1499.32 40.6031 1496.85 39.2031C1494.45 37.7365 1492.35 35.7698 1490.55 33.3031C1488.75 30.8365 1487.85 27.7365 1487.85 24.0031C1487.78 19.4031 1488.92 15.4031 1491.25 12.0031C1493.58 8.60312 1496.82 6.00312 1500.95 4.20312C1505.08 2.40312 1509.82 1.50312 1515.15 1.50312C1519.95 1.50312 1524.22 2.26979 1527.95 3.80312C1531.68 5.26979 1534.58 7.43645 1536.65 10.3031C1538.72 13.1031 1539.75 16.4365 1539.75 20.3031C1539.75 21.3031 1539.72 22.0365 1539.65 22.5031H1521.45C1521.52 22.2365 1521.55 21.8365 1521.55 21.3031C1521.55 19.4365 1520.88 17.9365 1519.55 16.8031C1518.28 15.6031 1516.52 15.0031 1514.25 15.0031C1511.85 15.0031 1509.88 15.6031 1508.35 16.8031C1506.88 17.9365 1506.15 19.5031 1506.15 21.5031C1506.15 23.5031 1507.08 25.2031 1508.95 26.6031C1510.82 27.9365 1513.72 29.5031 1517.65 31.3031C1521.58 33.1031 1524.78 34.7698 1527.25 36.3031C1529.78 37.8365 1531.95 39.9031 1533.75 42.5031C1535.55 45.0365 1536.45 48.1698 1536.45 51.9031C1536.45 56.0365 1535.35 59.7365 1533.15 63.0031C1530.95 66.2698 1527.78 68.8365 1523.65 70.7031C1519.52 72.5031 1514.68 73.4031 1509.15 73.4031ZM1572.96 2.50312L1560.56 72.7031H1543.46L1555.86 2.50312H1572.96ZM1576.35 37.5031C1577.55 30.5698 1580.11 24.4031 1584.05 19.0031C1588.05 13.5365 1593.01 9.30312 1598.95 6.30312C1604.88 3.23645 1611.31 1.70312 1618.25 1.70312C1626.65 1.70312 1633.38 3.73645 1638.45 7.80312C1643.58 11.8698 1646.38 17.5031 1646.85 24.7031H1628.05C1627.18 22.3698 1625.65 20.6031 1623.45 19.4031C1621.31 18.1365 1618.68 17.5031 1615.55 17.5031C1610.01 17.5031 1605.25 19.3365 1601.25 23.0031C1597.31 26.6031 1594.81 31.4365 1593.75 37.5031C1593.41 39.5031 1593.25 41.2365 1593.25 42.7031C1593.25 47.6365 1594.68 51.4365 1597.55 54.1031C1600.41 56.7698 1604.48 58.1031 1609.75 58.1031C1614.01 58.1031 1617.78 57.0365 1621.05 54.9031C1624.31 52.7031 1626.95 49.6031 1628.95 45.6031H1607.35L1609.45 33.1031H1646.65L1643.85 49.0031C1641.85 53.2698 1638.98 57.2365 1635.25 60.9031C1631.58 64.5698 1627.21 67.5365 1622.15 69.8031C1617.08 72.0698 1611.61 73.2031 1605.75 73.2031C1599.68 73.2031 1594.35 72.0365 1589.75 69.7031C1585.21 67.3031 1581.71 63.9698 1579.25 59.7031C1576.85 55.4365 1575.65 50.4698 1575.65 44.8031C1575.65 42.8698 1575.88 40.4365 1576.35 37.5031ZM1711.92 72.7031H1694.82L1673.92 29.4031L1666.22 72.7031H1649.12L1661.52 2.50312H1678.62L1699.52 46.0031L1707.22 2.50312H1724.32L1711.92 72.7031ZM1750.86 37.5031C1752.06 30.5698 1754.63 24.4031 1758.56 19.0031C1762.56 13.5365 1767.49 9.30312 1773.36 6.30312C1779.23 3.23645 1785.56 1.70312 1792.36 1.70312C1800.69 1.70312 1807.43 3.90312 1812.56 8.30312C1817.76 12.7031 1820.69 18.7031 1821.36 26.3031H1802.56C1801.69 23.4365 1800.09 21.2698 1797.76 19.8031C1795.49 18.2698 1792.69 17.5031 1789.36 17.5031C1784.09 17.5031 1779.53 19.3365 1775.66 23.0031C1771.79 26.6031 1769.33 31.4365 1768.26 37.5031C1767.93 39.3698 1767.76 41.0031 1767.76 42.4031C1767.76 47.0698 1769.06 50.7698 1771.66 53.5031C1774.26 56.2365 1777.83 57.6031 1782.36 57.6031C1785.63 57.6031 1788.66 56.8365 1791.46 55.3031C1794.33 53.7698 1796.73 51.5698 1798.66 48.7031H1817.46C1814.13 56.3031 1809.09 62.3031 1802.36 66.7031C1795.63 71.0365 1788.09 73.2031 1779.76 73.2031C1773.76 73.2031 1768.53 72.0365 1764.06 69.7031C1759.59 67.3698 1756.16 64.0698 1753.76 59.8031C1751.36 55.5365 1750.16 50.5698 1750.16 44.9031C1750.16 42.3698 1750.39 39.9031 1750.86 37.5031ZM1857.03 73.4031C1851.1 73.4031 1845.86 72.1698 1841.33 69.7031C1836.86 67.2365 1833.4 63.7698 1830.93 59.3031C1828.46 54.8365 1827.23 49.7031 1827.23 43.9031C1827.23 35.7031 1829 28.4031 1832.53 22.0031C1836.06 15.5365 1840.96 10.5031 1847.23 6.90312C1853.56 3.30312 1860.73 1.50312 1868.73 1.50312C1874.73 1.50312 1880 2.73646 1884.53 5.20312C1889.06 7.60312 1892.56 11.0365 1895.03 15.5031C1897.5 19.9031 1898.73 24.9698 1898.73 30.7031C1898.73 38.9031 1896.96 46.2698 1893.43 52.8031C1889.9 59.2698 1884.96 64.3365 1878.63 68.0031C1872.3 71.6031 1865.1 73.4031 1857.03 73.4031ZM1859.63 57.6031C1864.03 57.6031 1867.9 56.4698 1871.23 54.2031C1874.56 51.9365 1877.13 48.9031 1878.93 45.1031C1880.8 41.2365 1881.73 37.0698 1881.73 32.6031C1881.73 27.8031 1880.4 24.0365 1877.73 21.3031C1875.06 18.5698 1871.33 17.2031 1866.53 17.2031C1862.13 17.2031 1858.23 18.3365 1854.83 20.6031C1851.5 22.8698 1848.9 25.9031 1847.03 29.7031C1845.23 33.4365 1844.33 37.5698 1844.33 42.1031C1844.33 46.9031 1845.66 50.7031 1848.33 53.5031C1851 56.2365 1854.76 57.6031 1859.63 57.6031ZM1965.04 72.7031H1947.94L1927.04 29.4031L1919.34 72.7031H1902.24L1914.64 2.50312H1931.74L1952.64 46.0031L1960.34 2.50312H1977.44L1965.04 72.7031ZM2040.24 72.7031H2023.14L2002.24 29.4031L1994.54 72.7031H1977.44L1989.84 2.50312H2006.94L2027.84 46.0031L2035.54 2.50312H2052.64L2040.24 72.7031ZM2079.74 16.0031L2077.24 30.6031H2100.14L2097.84 43.5031H2074.94L2072.14 59.2031H2098.04L2095.64 72.7031H2052.64L2065.04 2.50312H2108.04L2105.64 16.0031H2079.74ZM2110.14 37.5031C2111.34 30.5698 2113.9 24.4031 2117.84 19.0031C2121.84 13.5365 2126.77 9.30312 2132.64 6.30312C2138.5 3.23645 2144.84 1.70312 2151.64 1.70312C2159.97 1.70312 2166.7 3.90312 2171.84 8.30312C2177.04 12.7031 2179.97 18.7031 2180.64 26.3031H2161.84C2160.97 23.4365 2159.37 21.2698 2157.04 19.8031C2154.77 18.2698 2151.97 17.5031 2148.64 17.5031C2143.37 17.5031 2138.8 19.3365 2134.94 23.0031C2131.07 26.6031 2128.6 31.4365 2127.54 37.5031C2127.2 39.3698 2127.04 41.0031 2127.04 42.4031C2127.04 47.0698 2128.34 50.7698 2130.94 53.5031C2133.54 56.2365 2137.1 57.6031 2141.64 57.6031C2144.9 57.6031 2147.94 56.8365 2150.74 55.3031C2153.6 53.7698 2156 51.5698 2157.94 48.7031H2176.74C2173.4 56.3031 2168.37 62.3031 2161.64 66.7031C2154.9 71.0365 2147.37 73.2031 2139.04 73.2031C2133.04 73.2031 2127.8 72.0365 2123.34 69.7031C2118.87 67.3698 2115.44 64.0698 2113.04 59.8031C2110.64 55.5365 2109.44 50.5698 2109.44 44.9031C2109.44 42.3698 2109.67 39.9031 2110.14 37.5031ZM2245.81 2.50312L2243.51 16.0031H2224.81L2214.81 72.7031H2197.71L2207.71 16.0031H2189.11L2191.51 2.50312H2245.81ZM2374.14 2.50312L2343.44 72.7031H2322.74L2319.64 26.6031L2299.94 72.7031H2279.24L2273.84 2.50312H2292.14L2293.24 53.6031L2314.74 2.50312H2333.64L2336.64 53.3031L2355.74 2.50312H2374.14ZM2399.81 2.50312L2387.41 72.7031H2370.31L2382.71 2.50312H2399.81ZM2462.7 2.50312L2460.4 16.0031H2441.7L2431.7 72.7031H2414.6L2424.6 16.0031H2406L2408.4 2.50312H2462.7ZM2532.09 2.50312L2519.69 72.7031H2502.59L2507.69 43.6031H2481.09L2475.99 72.7031H2458.89L2471.29 2.50312H2488.39L2483.49 30.1031H2510.09L2514.99 2.50312H2532.09ZM2647.07 2.50312L2634.67 72.7031H2617.57L2625.07 30.6031L2601.87 72.7031H2588.07L2579.67 30.4031L2572.27 72.7031H2555.17L2567.57 2.50312H2587.77L2598.97 51.1031L2626.97 2.50312H2647.07ZM2674.07 16.0031L2671.57 30.6031H2694.47L2692.17 43.5031H2669.27L2666.47 59.2031H2692.37L2689.97 72.7031H2646.97L2659.37 2.50312H2702.37L2699.97 16.0031H2674.07ZM2736.47 0.00311923L2725.97 47.9031H2711.47L2717.97 0.00311923H2736.47ZM2714.47 73.5031C2711.81 73.5031 2709.67 72.8031 2708.07 71.4031C2706.54 69.9365 2705.77 68.1031 2705.77 65.9031C2705.77 62.8365 2706.91 60.2365 2709.17 58.1031C2711.51 55.9698 2714.37 54.9031 2717.77 54.9031C2720.37 54.9031 2722.44 55.6365 2723.97 57.1031C2725.51 58.5031 2726.27 60.3365 2726.27 62.6031C2726.27 65.6031 2725.11 68.1698 2722.77 70.3031C2720.51 72.4365 2717.74 73.5031 2714.47 73.5031Z" fill="white"/>
</svg>
