<svg width="3367" height="1299" viewBox="0 0 3367 1299" fill="none" xmlns="http://www.w3.org/2000/svg">
<path d="M1278.54 311.702C1269.58 311.702 1261.29 308.452 1253.67 301.953C1246.05 295.454 1240.33 286.377 1236.52 274.723L1180.72 105.963C1177.13 94.533 1177.69 85.6804 1182.4 79.4051C1187.33 73.1298 1193.83 69.9922 1201.9 69.9922C1209.74 69.9922 1215.68 72.5695 1219.71 77.7242C1223.97 82.6548 1227.89 90.9471 1231.48 102.601L1280.22 255.225C1286.28 237.744 1292.21 222.167 1298.04 208.496C1304.09 194.601 1309.14 181.826 1313.17 170.172C1317.2 158.294 1319.33 146.864 1319.56 135.882C1319.78 130.28 1319.33 125.237 1318.21 120.755C1317.32 116.272 1316.31 111.79 1315.19 107.308C1314.29 102.601 1313.84 97.4465 1313.84 91.8436C1313.84 86.4648 1315.86 81.5342 1319.89 77.0519C1323.93 72.3454 1330.87 69.9922 1340.74 69.9922C1348.13 69.9922 1353.85 72.7936 1357.88 78.3966C1361.92 83.7754 1364.6 90.4989 1365.95 98.5671C1367.52 106.411 1368.3 114.255 1368.3 122.099C1368.3 140.701 1366.06 158.518 1361.58 175.551C1357.1 192.36 1351.05 208.832 1343.43 224.969C1336.03 241.105 1327.85 257.69 1318.88 274.723C1314.85 283.463 1311.04 290.635 1307.45 296.238C1303.87 301.617 1299.83 305.539 1295.35 308.004C1291.09 310.469 1285.49 311.702 1278.54 311.702Z" fill="#E03C1F"/>
<path d="M1425.27 311.702C1408.68 311.702 1400.39 304.194 1400.39 289.178V92.5159C1400.39 84.6718 1402.29 78.9569 1406.1 75.371C1409.91 71.7851 1415.96 69.9922 1424.26 69.9922C1440.62 69.9922 1448.8 77.5001 1448.8 92.5159V289.178C1448.8 296.798 1446.89 302.513 1443.08 306.323C1439.5 309.909 1433.56 311.702 1425.27 311.702Z" fill="#E03C1F"/>
<path d="M1633.39 311.702C1616.58 311.702 1608.17 303.858 1608.17 288.17V236.063C1608.17 225.305 1605.93 217.237 1601.45 211.858C1597.19 206.255 1589.8 203.454 1579.26 203.454C1567.83 203.454 1559.32 205.807 1553.71 210.513C1548.33 215.22 1545.65 223.4 1545.65 235.054V285.48C1545.65 302.962 1537.58 311.702 1521.44 311.702C1505.3 311.702 1497.24 302.962 1497.24 285.48V96.2138C1497.24 78.7327 1505.3 69.9922 1521.44 69.9922C1537.58 69.9922 1545.65 78.7327 1545.65 96.2138V175.215C1548.78 172.077 1552.03 169.612 1555.39 167.819C1558.76 166.026 1564.36 164.009 1572.2 161.768C1583.41 158.63 1591.14 152.019 1595.4 141.934C1599.66 131.848 1601.79 115.712 1601.79 93.5244C1601.79 85.2321 1603.58 79.293 1607.17 75.7072C1610.75 71.8972 1616.47 69.9922 1624.31 69.9922C1640.89 69.9922 1649.19 78.3966 1649.19 95.2053C1649.19 117.617 1646.83 135.883 1642.13 150.002C1637.42 163.897 1630.14 174.655 1620.28 182.275C1644.26 192.584 1656.25 210.737 1656.25 236.735V288.17C1656.25 303.858 1648.63 311.702 1633.39 311.702Z" fill="#E03C1F"/>
<path d="M1752.97 311.702C1744.46 311.702 1735.49 311.03 1726.08 309.685C1716.67 308.34 1709.05 306.547 1703.22 304.306C1693.81 300.496 1689.1 294.109 1689.1 285.144C1689.1 278.645 1691.01 273.49 1694.82 269.68C1698.85 265.646 1705.12 263.629 1713.64 263.629C1719.47 263.629 1726.53 264.413 1734.82 265.982C1743.11 267.551 1750.4 268.335 1756.67 268.335C1770.57 268.335 1780.54 266.543 1786.59 262.957C1792.64 259.371 1795.67 252.087 1795.67 241.105C1795.67 234.606 1793.31 229.115 1788.61 224.633C1784.13 220.15 1775.05 215.892 1761.38 211.858C1736.5 204.462 1718.46 195.273 1707.25 184.292C1696.27 173.31 1690.78 159.079 1690.78 141.597C1690.78 126.358 1694.14 113.471 1700.87 102.937C1707.81 92.1797 1717.34 83.9995 1729.44 78.3966C1741.54 72.7936 1755.33 69.9922 1770.79 69.9922C1788.94 69.9922 1803.96 72.4575 1815.84 77.388C1825.25 80.9739 1829.96 87.3612 1829.96 96.55C1829.96 103.049 1827.94 108.316 1823.91 112.35C1820.1 116.16 1813.93 118.065 1805.42 118.065C1799.81 118.065 1793.76 117.505 1787.26 116.384C1780.76 115.04 1774.38 114.367 1768.1 114.367C1758.46 114.367 1751.18 116.048 1746.25 119.41C1741.32 122.772 1738.85 128.375 1738.85 136.219C1738.85 143.39 1742.33 149.89 1749.28 155.717C1756.22 161.544 1769 167.259 1787.6 172.862C1808.89 179.137 1823.57 187.653 1831.64 198.411C1839.71 208.945 1843.74 222.392 1843.74 238.752C1843.74 262.508 1835.78 280.662 1819.87 293.212C1804.18 305.539 1781.88 311.702 1752.97 311.702Z" fill="#E03C1F"/>
<path d="M1904.25 311.702C1887.66 311.702 1879.37 304.194 1879.37 289.178V92.5159C1879.37 84.6718 1881.28 78.9569 1885.09 75.371C1888.9 71.7851 1894.95 69.9922 1903.24 69.9922C1919.6 69.9922 1927.78 77.5001 1927.78 92.5159V289.178C1927.78 296.798 1925.88 302.513 1922.07 306.323C1918.48 309.909 1912.54 311.702 1904.25 311.702Z" fill="#E03C1F"/>
<path d="M2041.53 311.702C2035.93 311.702 2030.21 310.469 2024.39 308.004C2018.78 305.315 2015.98 301.057 2015.98 295.23V137.9C2015.98 130.728 2017.78 125.797 2021.36 123.108C2024.95 120.418 2027.86 118.738 2030.1 118.065H1965.22C1959.84 118.065 1955.81 115.712 1953.12 111.006C1950.65 106.075 1949.42 101.032 1949.42 95.8777C1949.42 90.2747 1950.77 85.2321 1953.45 80.7498C1956.14 76.0433 1960.07 73.6901 1965.22 73.6901H2115.49C2120.65 73.6901 2124.57 76.0433 2127.26 80.7498C2129.95 85.2321 2131.29 90.2747 2131.29 95.8777C2131.29 101.032 2129.95 106.075 2127.26 111.006C2124.79 115.712 2120.87 118.065 2115.49 118.065H2064.39V295.23C2064.39 300.832 2062.04 304.979 2057.33 307.668C2052.85 310.357 2047.58 311.702 2041.53 311.702Z" fill="#E03C1F"/>
<path d="M1089.64 635.153C1085.39 635.153 1081.8 633.472 1078.89 630.11C1075.97 626.748 1074.52 622.49 1074.52 617.335V466.057C1074.52 458.661 1075.52 450.929 1077.54 442.861C1079.78 434.792 1083.82 427.284 1089.64 420.337C1095.69 413.165 1104.21 407.338 1115.19 402.856C1126.17 398.373 1140.52 396.132 1158.22 396.132C1181.76 396.132 1200.02 401.959 1213.02 413.613C1226.02 425.267 1232.52 442.748 1232.52 466.057C1232.52 475.469 1230.72 484.098 1227.14 491.942C1223.78 499.786 1218.62 505.725 1211.68 509.759C1222.66 514.69 1230.5 521.526 1235.21 530.266C1240.14 539.007 1242.6 551.109 1242.6 566.573C1242.6 588.985 1235.66 606.018 1221.76 617.672C1208.09 629.326 1186.91 635.153 1158.22 635.153H1089.64ZM1120.57 503.708C1123.49 500.122 1128.19 497.321 1134.69 495.304C1141.41 493.287 1149.26 492.278 1158.22 492.278C1168.76 492.278 1175.93 490.373 1179.74 486.563C1183.77 482.529 1185.79 475.694 1185.79 466.057C1185.79 454.851 1183.44 446.895 1178.73 442.188C1174.25 437.258 1167.41 434.792 1158.22 434.792C1145.22 434.792 1136.04 437.146 1130.66 441.852C1125.5 446.558 1122.92 454.627 1122.92 466.057C1122.92 473.004 1122.81 478.607 1122.59 482.865C1122.59 486.899 1122.36 490.485 1121.92 493.623C1121.69 496.761 1121.24 500.122 1120.57 503.708ZM1122.92 596.156H1158.22C1171.67 596.156 1180.97 593.803 1186.13 589.097C1191.5 584.39 1194.19 576.882 1194.19 566.573C1194.19 552.005 1191.39 541.584 1185.79 535.309C1180.41 529.033 1171.22 525.896 1158.22 525.896C1149.03 525.896 1141.86 527.128 1136.71 529.594C1131.55 531.835 1127.97 535.869 1125.95 541.696C1123.93 547.523 1122.92 555.815 1122.92 566.573V596.156Z" fill="#09A270"/>
<path d="M1305.27 637.842C1288.69 637.842 1280.4 630.334 1280.4 615.318V418.656C1280.4 410.812 1282.3 405.097 1286.11 401.511C1289.92 397.925 1295.97 396.132 1304.27 396.132C1320.63 396.132 1328.81 403.64 1328.81 418.656V452.273C1328.81 480.064 1328.02 496.649 1326.45 502.027C1332.28 496.2 1338.55 492.166 1345.28 489.925C1352 487.684 1360.85 486.563 1371.84 486.563H1404.78V418.656C1404.78 410.812 1406.69 405.097 1410.5 401.511C1414.31 397.925 1420.36 396.132 1428.65 396.132C1445.01 396.132 1453.19 403.64 1453.19 418.656V615.318C1453.19 622.938 1451.29 628.653 1447.48 632.463C1443.89 636.049 1437.95 637.842 1429.66 637.842C1413.07 637.842 1404.78 630.334 1404.78 615.318V515.811C1403.44 519.845 1399.07 523.206 1391.67 525.896C1384.27 528.361 1375.65 529.594 1365.79 529.594C1351.67 529.594 1341.92 532.507 1336.54 538.334C1331.38 543.937 1328.81 554.359 1328.81 569.599V615.318C1328.81 622.938 1326.9 628.653 1323.09 632.463C1319.5 636.049 1313.57 637.842 1305.27 637.842Z" fill="#09A270"/>
<path d="M1547.74 615.318C1547.74 630.334 1539.9 637.842 1524.21 637.842C1516.59 637.842 1510.54 635.937 1506.05 632.127C1501.57 628.317 1499.33 622.714 1499.33 615.318V482.193C1499.33 451.265 1505.61 429.189 1518.16 415.967C1530.71 402.744 1550.32 396.132 1576.99 396.132C1604.33 396.132 1624.5 402.856 1637.5 416.303C1650.5 429.75 1657 451.713 1657 482.193V615.318C1657 630.334 1649.15 637.842 1633.46 637.842C1625.84 637.842 1619.79 635.937 1615.31 632.127C1610.83 628.317 1608.59 622.714 1608.59 615.318V534.3C1604.33 538.11 1599.62 541.36 1594.47 544.049C1589.54 546.739 1583.71 548.083 1576.99 548.083C1567.13 548.083 1559.73 549.876 1554.8 553.462C1550.09 557.048 1547.74 563.435 1547.74 572.624V615.318ZM1545.72 516.819C1549.31 513.233 1553.57 510.432 1558.5 508.415C1563.65 506.398 1569.82 505.389 1576.99 505.389C1585.5 505.389 1592 504.717 1596.49 503.372C1601.19 502.027 1604.44 499.45 1606.23 495.64C1608.03 491.83 1608.92 486.227 1608.92 478.831C1608.92 462.247 1606.57 450.929 1601.86 444.878C1597.16 438.602 1588.75 435.465 1576.65 435.465C1565.45 435.465 1557.71 438.714 1553.45 445.214C1549.42 451.489 1547.4 463.143 1547.4 480.176C1547.4 488.917 1547.29 496.312 1547.07 502.364C1546.84 508.415 1546.4 513.233 1545.72 516.819Z" fill="#09A270"/>
<path d="M1726.77 637.17C1719.15 637.17 1713.1 635.489 1708.61 632.127C1704.13 628.541 1701.89 623.499 1701.89 616.999V471.772C1701.89 445.774 1708.72 426.724 1722.4 414.622C1736.29 402.295 1757.92 396.132 1787.28 396.132C1811.26 396.132 1829.52 402.183 1842.07 414.286C1854.85 426.164 1861.24 443.421 1861.24 466.057C1861.24 473.901 1861.01 481.521 1860.56 488.917C1860.12 496.088 1859.44 501.131 1858.55 504.044C1855.19 516.371 1849.02 525.784 1840.06 532.283C1852.16 542.368 1858.21 554.022 1858.21 567.245V616.999C1858.21 630.894 1850.48 637.842 1835.01 637.842C1827.39 637.842 1821.34 636.161 1816.86 632.799C1812.38 629.214 1810.14 623.947 1810.14 616.999V572.624C1810.14 560.522 1808.23 552.005 1804.42 547.075C1800.84 542.144 1793.44 539.679 1782.24 539.679C1770.13 539.679 1761.73 542.368 1757.02 547.747C1752.54 552.902 1750.3 562.539 1750.3 576.658V616.999C1750.3 630.446 1742.45 637.17 1726.77 637.17ZM1747.61 512.113C1753.21 507.406 1758.14 504.381 1762.4 503.036C1766.88 501.467 1773.27 500.683 1781.56 500.683C1792.77 500.683 1800.95 500.122 1806.1 499.002C1811.48 497.881 1814.96 495.528 1816.52 491.942C1818.09 488.356 1818.88 482.753 1818.88 475.133C1818.88 459.893 1816.52 449.36 1811.82 443.533C1807.34 437.482 1799.16 434.456 1787.28 434.456C1774.05 434.456 1764.64 437.482 1759.04 443.533C1753.66 449.584 1750.97 460.118 1750.97 475.133C1750.97 482.529 1750.63 489.141 1749.96 494.968C1749.51 500.571 1748.73 506.286 1747.61 512.113Z" fill="#09A270"/>
<path d="M1950.56 615.318C1950.56 630.334 1942.71 637.842 1927.03 637.842C1919.41 637.842 1913.36 635.937 1908.87 632.127C1904.39 628.317 1902.15 622.714 1902.15 615.318V482.193C1902.15 451.265 1908.43 429.189 1920.98 415.967C1933.53 402.744 1953.14 396.132 1979.81 396.132C2007.15 396.132 2027.32 402.856 2040.32 416.303C2053.32 429.75 2059.82 451.713 2059.82 482.193V615.318C2059.82 630.334 2051.97 637.842 2036.28 637.842C2028.66 637.842 2022.61 635.937 2018.13 632.127C2013.65 628.317 2011.41 622.714 2011.41 615.318V534.3C2007.15 538.11 2002.44 541.36 1997.29 544.049C1992.36 546.739 1986.53 548.083 1979.81 548.083C1969.95 548.083 1962.55 549.876 1957.62 553.462C1952.91 557.048 1950.56 563.435 1950.56 572.624V615.318ZM1948.54 516.819C1952.13 513.233 1956.39 510.432 1961.32 508.415C1966.47 506.398 1972.63 505.389 1979.81 505.389C1988.32 505.389 1994.82 504.717 1999.3 503.372C2004.01 502.027 2007.26 499.45 2009.05 495.64C2010.85 491.83 2011.74 486.227 2011.74 478.831C2011.74 462.247 2009.39 450.929 2004.68 444.878C1999.98 438.602 1991.57 435.465 1979.47 435.465C1968.26 435.465 1960.53 438.714 1956.27 445.214C1952.24 451.489 1950.22 463.143 1950.22 480.176C1950.22 488.917 1950.11 496.312 1949.89 502.364C1949.66 508.415 1949.21 513.233 1948.54 516.819Z" fill="#09A270"/>
<path d="M2161.85 637.842C2156.25 637.842 2150.54 636.609 2144.71 634.144C2139.11 631.455 2136.3 627.197 2136.3 621.37V464.04C2136.3 456.868 2138.1 451.937 2141.68 449.248C2145.27 446.558 2148.18 444.878 2150.42 444.205H2085.54C2080.16 444.205 2076.13 441.852 2073.44 437.146C2070.97 432.215 2069.74 427.172 2069.74 422.018C2069.74 416.415 2071.09 411.372 2073.78 406.89C2076.46 402.183 2080.39 399.83 2085.54 399.83H2235.81C2240.97 399.83 2244.89 402.183 2247.58 406.89C2250.27 411.372 2251.61 416.415 2251.61 422.018C2251.61 427.172 2250.27 432.215 2247.58 437.146C2245.11 441.852 2241.19 444.205 2235.81 444.205H2184.71V621.37C2184.71 626.972 2182.36 631.119 2177.65 633.808C2173.17 636.497 2167.9 637.842 2161.85 637.842Z" fill="#09A270"/>
<g filter="url(#filter0_g_334_45)">
<path d="M2337.89 53.9638C2342.88 52.1432 2348.13 55.9154 2348 61.2206L2344.23 213.452C2344.08 219.494 2337.23 222.903 2332.32 219.378L2281.61 182.979C2279.21 185.986 2276.79 188.984 2274.33 191.975C2136.98 382.175 1872.55 428.982 1661.56 374.653C1457.59 334.354 1191.45 247.368 1059.38 454.862C1044.48 475.983 1033.41 494.563 1021.37 517.802C1021.22 518.093 1020.95 518.314 1020.64 518.417C1020.33 518.519 1019.99 518.496 1019.69 518.351C1019.4 518.205 1019.18 517.947 1019.07 517.635C1018.96 517.323 1018.98 516.98 1019.12 516.685C1030.54 493.014 1041.01 473.935 1055.45 452.157C1182.41 236.088 1464.98 316.28 1665.9 349.945C1878.85 395.712 2114.53 344.803 2238.83 163.654C2240.72 161.206 2242.58 158.753 2244.43 156.294L2193.06 119.417C2188.15 115.892 2189.19 108.309 2194.86 106.234L2337.89 53.9638Z" fill="white"/>
</g>
<path d="M151.566 1023.26L125.248 1026.68L123.539 980.535L95.1699 981.561L93.4609 1161.35L117.387 1160.66L115.678 1191.42L45.2676 1193.13L44.2422 1161.35H64.4082L64.0664 983.27L33.3047 985.32L35.0137 1028.39H6.64453L8.35352 954.217L148.148 949.09L151.566 1023.26ZM348.441 983.953L330.668 983.27L327.25 1165.11H347.074L348.1 1196.55L272.221 1194.84V1164.08L296.488 1165.11L297.514 1100.51H219.584V1161.35H239.75L240.434 1193.13L166.264 1191.42V1160.66L190.531 1161.35L188.822 988.396L165.58 986.688L166.264 955.926H237.699V989.08L219.584 988.396V1073.85L297.172 1071.11L297.855 983.27L274.955 981.561L275.639 950.799H348.441V983.953ZM515.751 1017.11L490.458 1018.82L487.04 983.611L424.833 984.979L424.149 1061.2H476.103V1085.81L423.808 1088.88L423.124 1165.11L487.04 1162.71V1125.12H512.333L514.042 1193.13L374.931 1196.55L373.905 1165.11H394.071L393.729 984.979L372.538 985.662L374.247 952.508L514.042 950.799L515.751 1017.11ZM751.762 979.852L730.57 981.561L686.479 1197.58L647.855 1195.53L605.473 984.979L584.281 985.662L585.99 952.508H655.375L658.109 983.27L638.285 984.979L667.338 1159.64L699.467 981.561L678.275 982.244L679.984 949.09L749.369 947.381L751.762 979.852ZM834.989 1160.66L833.28 1191.42L762.87 1193.13L761.845 1161.35H782.011L781.669 986.688L760.478 987.371L762.187 954.217H829.862L832.597 984.979L812.772 986.688L811.063 1161.35L834.989 1160.66ZM994.096 1129.56C994.096 1138.79 992.899 1147.5 990.507 1155.71C988.228 1163.8 984.696 1170.86 979.911 1176.9C975.126 1182.94 969.031 1187.72 961.625 1191.25C954.333 1194.78 945.674 1196.55 935.648 1196.55C929.61 1196.55 924.198 1195.98 919.413 1194.84C914.628 1193.82 910.242 1192.16 906.254 1189.89C902.38 1187.49 898.734 1184.47 895.316 1180.83C892.012 1177.18 888.822 1172.85 885.746 1167.84L885.404 1194.16L855.326 1190.06L860.795 1111.79L886.088 1112.81C887.113 1118.85 888.708 1125.17 890.873 1131.78C893.038 1138.27 895.886 1144.26 899.418 1149.72C903.064 1155.19 907.507 1159.69 912.748 1163.23C918.103 1166.76 924.483 1168.52 931.889 1168.52C937.813 1168.52 942.769 1167.56 946.757 1165.62C950.858 1163.68 954.162 1161 956.669 1157.59C959.175 1154.17 960.941 1150.12 961.967 1145.45C963.106 1140.78 963.676 1135.71 963.676 1130.24C963.676 1124.09 962.65 1118.62 960.6 1113.84C958.663 1108.94 955.928 1104.66 952.396 1101.02C948.865 1097.26 944.706 1094.07 939.921 1091.45C935.25 1088.71 930.18 1086.38 924.711 1084.44C918.445 1082.28 912.406 1080 906.596 1077.61C900.899 1075.21 895.544 1072.59 890.531 1069.74C885.518 1066.78 880.904 1063.53 876.688 1060C872.587 1056.36 869.055 1052.2 866.093 1047.53C863.131 1042.86 860.795 1037.56 859.086 1031.63C857.491 1025.71 856.693 1018.93 856.693 1011.3C856.693 1001.84 858.118 993.125 860.966 985.149C863.814 977.174 867.916 970.338 873.271 964.642C878.625 958.831 885.119 954.331 892.753 951.141C900.386 947.951 908.988 946.355 918.559 946.355C924.597 946.355 929.781 946.925 934.11 948.064C938.554 949.204 942.484 950.97 945.902 953.362C949.32 955.755 952.453 958.774 955.302 962.42C958.15 965.952 961.055 970.167 964.018 975.066L964.359 947.039L994.096 947.723L990.336 1034.88L963.676 1033.86C962.878 1029.64 961.967 1025.31 960.941 1020.87C960.03 1016.31 958.777 1011.92 957.182 1007.71C955.587 1003.49 953.707 999.505 951.542 995.745C949.377 991.871 946.757 988.51 943.681 985.662C940.718 982.814 937.243 980.592 933.256 978.997C929.268 977.288 924.711 976.434 919.584 976.434C914.343 976.434 909.786 977.459 905.912 979.51C902.152 981.447 899.019 984.124 896.513 987.542C894.006 990.846 892.126 994.72 890.873 999.163C889.734 1003.49 889.164 1007.99 889.164 1012.66C889.164 1019.27 890.246 1024.91 892.411 1029.58C894.576 1034.25 897.481 1038.3 901.127 1041.72C904.887 1045.02 909.216 1047.87 914.115 1050.26C919.014 1052.65 924.255 1054.82 929.838 1056.76C938.383 1059.83 946.529 1063.48 954.276 1067.69C962.024 1071.91 968.86 1076.92 974.784 1082.73C980.709 1088.54 985.38 1095.32 988.798 1103.07C992.33 1110.7 994.096 1119.53 994.096 1129.56ZM1092.7 1160.66L1091 1191.42L1020.58 1193.13L1019.56 1161.35H1039.73L1039.38 986.688L1018.19 987.371L1019.9 954.217H1087.58L1090.31 984.979L1070.49 986.688L1068.78 1161.35L1092.7 1160.66ZM1262.41 1061.54C1262.41 1070.77 1262.12 1080.62 1261.55 1091.11C1260.98 1101.59 1259.73 1111.96 1257.79 1122.21C1255.97 1132.46 1253.23 1142.38 1249.59 1151.95C1246.06 1161.4 1241.27 1169.72 1235.23 1176.9C1229.31 1184.08 1221.96 1189.83 1213.19 1194.16C1204.41 1198.49 1193.93 1200.65 1181.74 1200.65C1172.17 1200.65 1163.85 1198.89 1156.79 1195.35C1149.73 1191.94 1143.63 1187.32 1138.5 1181.51C1133.49 1175.7 1129.33 1168.98 1126.03 1161.35C1122.73 1153.71 1120.1 1145.79 1118.17 1137.59C1116.23 1129.27 1114.86 1120.9 1114.07 1112.47C1113.38 1104.04 1113.04 1096.18 1113.04 1088.88C1113.04 1079.66 1113.38 1069.69 1114.07 1058.98C1114.75 1048.27 1116.12 1037.62 1118.17 1027.02C1120.22 1016.42 1123.07 1006.23 1126.71 996.429C1130.47 986.631 1135.37 977.972 1141.41 970.452C1147.56 962.933 1155.03 956.951 1163.8 952.508C1172.57 947.951 1183 945.672 1195.07 945.672C1204.64 945.672 1212.96 947.552 1220.02 951.312C1227.2 954.957 1233.24 959.913 1238.14 966.18C1243.15 972.332 1247.2 979.396 1250.27 987.371C1253.46 995.346 1255.97 1003.66 1257.79 1012.32C1259.61 1020.87 1260.81 1029.41 1261.38 1037.96C1262.06 1046.39 1262.41 1054.25 1262.41 1061.54ZM1228.91 1063.59C1228.91 1059.72 1228.8 1054.93 1228.57 1049.24C1228.34 1043.43 1227.83 1037.39 1227.03 1031.12C1226.23 1024.74 1225.04 1018.36 1223.44 1011.98C1221.85 1005.6 1219.62 999.904 1216.78 994.891C1214.04 989.764 1210.57 985.662 1206.35 982.586C1202.25 979.396 1197.24 977.801 1191.31 977.801C1183.79 977.801 1177.41 979.852 1172.17 983.953C1167.04 987.941 1162.77 993.239 1159.35 999.847C1155.94 1006.45 1153.26 1013.92 1151.32 1022.23C1149.39 1030.44 1147.96 1038.75 1147.05 1047.19C1146.14 1055.62 1145.57 1063.76 1145.34 1071.62C1145.23 1079.37 1145.17 1086.04 1145.17 1091.62C1145.17 1095.83 1145.28 1100.68 1145.51 1106.15C1145.74 1111.5 1146.25 1117.03 1147.05 1122.72C1147.96 1128.31 1149.27 1133.83 1150.98 1139.3C1152.69 1144.65 1154.91 1149.44 1157.65 1153.66C1160.49 1157.87 1164.03 1161.29 1168.24 1163.91C1172.46 1166.53 1177.53 1167.84 1183.45 1167.84C1190.86 1167.84 1197.12 1165.96 1202.25 1162.2C1207.38 1158.44 1211.59 1153.54 1214.9 1147.5C1218.31 1141.35 1220.93 1134.46 1222.76 1126.82C1224.69 1119.19 1226.12 1111.56 1227.03 1103.92C1227.94 1096.18 1228.45 1088.77 1228.57 1081.71C1228.8 1074.64 1228.91 1068.6 1228.91 1063.59ZM1467.31 981.561L1447.49 983.27L1442.36 1195.87L1412.63 1196.55L1335.72 1010.61L1337.43 1161.35L1360.67 1160.66V1191.42L1287.53 1193.13L1286.5 1161.35H1306.67L1304.62 986.688L1283.43 987.371L1285.14 954.217H1342.56L1415.02 1135.71V983.27L1393.49 983.953L1395.19 950.799H1464.92L1467.31 981.561ZM1592.75 1051.29L1591.04 1082.05L1486.45 1083.76L1485.43 1051.97L1592.75 1051.29ZM1832.52 1125.46C1832.52 1136.17 1830.59 1145.91 1826.71 1154.68C1822.84 1163.45 1817.48 1171.03 1810.65 1177.41C1803.93 1183.68 1796.01 1188.58 1786.89 1192.11C1777.78 1195.53 1768.04 1197.23 1757.67 1197.23C1744.23 1197.23 1730.84 1197.01 1717.51 1196.55C1704.18 1196.1 1690.91 1195.53 1677.69 1194.84L1679.74 1161.69L1699.22 1162.37L1698.88 981.561L1679.4 982.586L1677.01 949.432C1688.51 948.178 1700.08 947.381 1711.7 947.039C1723.32 946.583 1735 946.355 1746.73 946.355C1757.44 946.355 1767.3 948.007 1776.3 951.312C1785.3 954.616 1792.99 959.401 1799.37 965.667C1805.86 971.819 1810.88 979.339 1814.41 988.226C1818.05 997.112 1819.88 1007.08 1819.88 1018.13C1819.88 1028.61 1817.54 1037.79 1812.87 1045.65C1808.2 1053.39 1801.42 1059.95 1792.53 1065.3C1805.41 1071 1815.26 1078.92 1822.1 1089.06C1829.05 1099.08 1832.52 1111.22 1832.52 1125.46ZM1788.43 1017.11C1788.43 1004.92 1785.01 995.46 1778.18 988.738C1771.46 981.902 1762 978.484 1749.81 978.484C1748.9 978.484 1747.42 978.484 1745.37 978.484C1743.31 978.484 1741.21 978.541 1739.04 978.655C1736.88 978.655 1734.88 978.712 1733.06 978.826C1731.35 978.94 1730.33 979.054 1729.98 979.168L1729.3 1053C1731.24 1053.22 1733.12 1053.34 1734.94 1053.34C1736.76 1053.34 1738.64 1053.34 1740.58 1053.34H1752.54C1763.71 1053.11 1772.48 1049.86 1778.86 1043.6C1785.24 1037.33 1788.43 1028.5 1788.43 1017.11ZM1800.74 1124.77C1800.74 1117.82 1799.82 1112.01 1798 1107.34C1796.29 1102.56 1793.9 1098.68 1790.82 1095.72C1787.75 1092.64 1784.1 1090.31 1779.89 1088.71C1775.67 1087.12 1771.11 1085.98 1766.21 1085.3C1761.43 1084.5 1756.42 1084.1 1751.18 1084.1C1745.93 1083.99 1740.69 1083.99 1735.45 1084.1H1729.64L1730.33 1164.76C1735.11 1164.76 1739.95 1164.82 1744.85 1164.93C1749.75 1165.05 1754.59 1165.11 1759.38 1165.11C1765.08 1165.11 1770.43 1164.14 1775.44 1162.2C1780.46 1160.15 1784.84 1157.36 1788.6 1153.83C1792.36 1150.18 1795.32 1145.91 1797.49 1141.01C1799.65 1136 1800.74 1130.58 1800.74 1124.77ZM2029.74 983.953L2011.97 983.27L2008.55 1165.11H2028.37L2029.4 1196.55L1953.52 1194.84V1164.08L1977.79 1165.11L1978.81 1100.51H1900.88V1161.35H1921.05L1921.73 1193.13L1847.56 1191.42V1160.66L1871.83 1161.35L1870.12 988.396L1846.88 986.688L1847.56 955.926H1919V989.08L1900.88 988.396V1073.85L1978.47 1071.11L1979.15 983.27L1956.25 981.561L1956.94 950.799H2029.74V983.953ZM2209.01 1166.81L2206.62 1199.29L2137.24 1197.58L2135.53 1164.42L2156.72 1165.11L2147.83 1115.2L2102.71 1117.25L2095.54 1161.69L2115.36 1163.4L2112.63 1194.16H2043.24L2041.53 1161L2062.72 1161.69L2099.98 979.168L2082.55 979.852L2080.84 950.799L2168 949.09L2166.29 976.434L2149.2 977.117L2187.82 1165.11L2209.01 1166.81ZM2143.05 1088.54L2124.59 983.611L2107.5 1088.54H2143.05ZM2370.17 1158.95L2368.46 1191.42L2306.6 1196.55L2302.49 1165.11H2315.48L2292.24 1085.12H2269L2268.31 1165.11L2288.82 1164.08L2287.11 1196.55H2221.83L2219.1 1165.11H2239.26L2238.92 982.244L2219.44 982.928L2217.73 949.773C2230.49 949.204 2243.19 948.862 2255.84 948.748C2268.6 948.52 2281.42 948.406 2294.29 948.406C2304.43 948.406 2314 949.83 2323 952.679C2332 955.413 2339.81 959.572 2346.42 965.154C2353.14 970.737 2358.43 977.687 2362.31 986.004C2366.18 994.321 2368.12 1004.01 2368.12 1015.06C2368.12 1022.35 2367.09 1029.58 2365.04 1036.76C2362.99 1043.94 2359.97 1050.6 2355.99 1056.76C2352 1062.79 2347.1 1068.04 2341.29 1072.48C2335.48 1076.92 2328.81 1080 2321.29 1081.71L2346.24 1159.64L2370.17 1158.95ZM2336.67 1016.42C2336.67 1010.61 2335.65 1005.49 2333.6 1001.04C2331.66 996.6 2328.93 992.84 2325.39 989.764C2321.86 986.688 2317.7 984.409 2312.92 982.928C2308.13 981.333 2302.95 980.535 2297.37 980.535H2284.72H2270.02L2269.34 1056.07H2277.54C2285.06 1056.07 2292.35 1055.79 2299.42 1055.22C2306.6 1054.53 2312.92 1052.88 2318.39 1050.26C2323.86 1047.64 2328.24 1043.71 2331.55 1038.47C2334.96 1033.11 2336.67 1025.77 2336.67 1016.42ZM2543.97 1166.81L2541.58 1199.29L2472.2 1197.58L2470.49 1164.42L2491.68 1165.11L2482.79 1115.2L2437.67 1117.25L2430.5 1161.69L2450.32 1163.4L2447.59 1194.16H2378.2L2376.49 1161L2397.68 1161.69L2434.94 979.168L2417.51 979.852L2415.8 950.799L2502.96 949.09L2501.25 976.434L2484.16 977.117L2522.78 1165.11L2543.97 1166.81ZM2478.01 1088.54L2459.55 983.611L2442.46 1088.54H2478.01ZM2684.28 1023.26L2657.96 1026.68L2656.25 980.535L2627.88 981.561L2626.18 1161.35L2650.1 1160.66L2648.39 1191.42L2577.98 1193.13L2576.96 1161.35H2597.12L2596.78 983.27L2566.02 985.32L2567.73 1028.39H2539.36L2541.07 954.217L2680.86 949.09L2684.28 1023.26ZM2898.93 1020.53C2898.93 1030.78 2897.56 1039.84 2894.83 1047.7C2892.21 1055.45 2888.68 1062.4 2884.23 1068.55C2879.9 1074.59 2874.89 1080 2869.19 1084.78C2863.61 1089.45 2857.8 1093.9 2851.76 1098.11C2845.72 1102.33 2839.74 1106.49 2833.82 1110.59C2828.01 1114.58 2822.65 1118.91 2817.75 1123.58C2812.85 1128.25 2808.7 1133.43 2805.28 1139.13C2801.97 1144.71 2799.81 1151.21 2798.78 1158.61L2866.46 1160.32L2868.17 1126.82L2895.17 1128.53L2893.46 1193.13L2765.97 1191.42C2765.97 1176.16 2767.39 1163 2770.24 1151.95C2773.21 1140.78 2777.02 1131.15 2781.69 1123.06C2786.48 1114.86 2791.89 1107.85 2797.93 1102.04C2803.97 1096.23 2810.12 1091.05 2816.39 1086.49C2822.65 1081.82 2828.8 1077.49 2834.84 1073.5C2840.88 1069.52 2846.24 1065.24 2850.91 1060.69C2855.69 1056.02 2859.51 1050.83 2862.36 1045.13C2865.32 1039.32 2866.8 1032.37 2866.8 1024.29C2866.8 1019.04 2866.4 1013.92 2865.6 1008.9C2864.81 1003.78 2863.27 999.22 2860.99 995.232C2858.83 991.131 2855.75 987.827 2851.76 985.32C2847.77 982.814 2842.65 981.561 2836.38 981.561C2828.75 981.561 2822.25 983.156 2816.9 986.346C2811.54 989.422 2807.1 993.523 2803.57 998.65C2800.15 1003.66 2797.53 1009.42 2795.71 1015.91C2794 1022.41 2792.97 1028.96 2792.63 1035.56L2765.63 1036.59L2761.87 949.432L2791.95 948.748L2792.29 977.117C2795.14 972.218 2798.21 968.06 2801.52 964.642C2804.82 961.224 2808.41 958.432 2812.28 956.268C2816.27 953.989 2820.54 952.337 2825.1 951.312C2829.77 950.286 2834.9 949.773 2840.48 949.773C2850.62 949.773 2859.34 951.767 2866.63 955.755C2874.04 959.629 2880.13 964.869 2884.92 971.478C2889.7 977.972 2893.23 985.491 2895.51 994.036C2897.79 1002.58 2898.93 1011.41 2898.93 1020.53ZM3072.05 1074.19C3072.05 1082.05 3071.54 1090.54 3070.51 1099.65C3069.6 1108.77 3068.01 1117.88 3065.73 1127C3063.45 1136.11 3060.43 1144.94 3056.67 1153.48C3052.91 1161.92 3048.18 1169.38 3042.48 1175.87C3036.9 1182.37 3030.29 1187.55 3022.66 1191.42C3015.03 1195.3 3006.2 1197.23 2996.17 1197.23C2985.8 1197.23 2976.8 1195.3 2969.17 1191.42C2961.54 1187.55 2954.93 1182.37 2949.34 1175.87C2943.88 1169.38 2939.32 1161.92 2935.67 1153.48C2932.14 1145.05 2929.29 1136.28 2927.13 1127.17C2925.08 1118.05 2923.65 1108.94 2922.86 1099.82C2922.06 1090.71 2921.66 1082.16 2921.66 1074.19C2921.66 1065.64 2922.06 1056.64 2922.86 1047.19C2923.77 1037.62 2925.31 1028.22 2927.47 1018.99C2929.75 1009.76 2932.77 1000.93 2936.53 992.498C2940.4 983.953 2945.24 976.491 2951.05 970.11C2956.98 963.73 2963.99 958.66 2972.07 954.9C2980.28 951.027 2989.79 949.09 3000.61 949.09C3010.07 949.09 3018.39 951.198 3025.57 955.413C3032.74 959.515 3038.95 965.04 3044.19 971.99C3049.55 978.826 3053.99 986.688 3057.52 995.574C3061.17 1004.35 3064.02 1013.4 3066.07 1022.75C3068.23 1031.98 3069.77 1041.09 3070.68 1050.09C3071.59 1058.98 3072.05 1067.01 3072.05 1074.19ZM3044.02 1074.19C3044.02 1069.63 3043.74 1064.16 3043.17 1057.78C3042.71 1051.29 3041.86 1044.57 3040.6 1037.62C3039.35 1030.55 3037.59 1023.54 3035.31 1016.59C3033.14 1009.64 3030.35 1003.44 3026.93 997.967C3023.51 992.498 3019.41 988.055 3014.63 984.637C3009.84 981.219 3004.26 979.51 2997.88 979.51C2990.93 979.51 2984.95 981.162 2979.94 984.466C2974.92 987.77 2970.65 992.156 2967.12 997.625C2963.59 1002.98 2960.74 1009.08 2958.57 1015.91C2956.52 1022.75 2954.87 1029.7 2953.62 1036.76C2952.48 1043.71 2951.68 1050.49 2951.22 1057.1C2950.88 1063.71 2950.71 1069.4 2950.71 1074.19C2950.71 1078.86 2950.88 1084.38 2951.22 1090.76C2951.68 1097.14 2952.48 1103.75 2953.62 1110.59C2954.76 1117.31 2956.35 1124.03 2958.4 1130.75C2960.57 1137.36 2963.36 1143.29 2966.78 1148.53C2970.19 1153.77 2974.35 1158.04 2979.25 1161.35C2984.26 1164.54 2990.13 1166.13 2996.85 1166.13C3003.01 1166.13 3008.42 1164.48 3013.09 1161.17C3017.88 1157.87 3021.98 1153.54 3025.39 1148.19C3028.93 1142.83 3031.89 1136.79 3034.28 1130.07C3036.67 1123.35 3038.55 1116.57 3039.92 1109.73C3041.4 1102.9 3042.43 1096.4 3043 1090.25C3043.68 1083.99 3044.02 1078.63 3044.02 1074.19ZM3224.32 1091.96L3222.61 1122.72L3194.24 1123.06L3193.9 1161.35L3217.83 1160.66L3216.12 1191.42L3145.71 1193.13L3144.68 1161.35H3164.85V1123.41L3084.53 1124.43L3083.5 1092.99L3155.62 953.875H3195.61L3194.58 1092.3L3224.32 1091.96ZM3164.85 1092.3L3164.51 992.498L3112.55 1092.99L3164.85 1092.3ZM3363.77 986.688L3305.33 1161.35L3329.59 1160.66L3327.54 1191.42L3257.13 1193.13L3256.11 1161.35H3276.27L3332.67 986.688L3262.94 987.029L3261.92 1018.13H3235.94L3239.02 954.217H3239.36L3361.38 955.926L3363.77 986.688Z" fill="white"/>
<defs>
<filter id="filter0_g_334_45" x="965.5" y="0" width="1436" height="571.98" filterUnits="userSpaceOnUse" color-interpolation-filters="sRGB">
<feFlood flood-opacity="0" result="BackgroundImageFix"/>
<feBlend mode="normal" in="SourceGraphic" in2="BackgroundImageFix" result="shape"/>
<feTurbulence type="fractalNoise" baseFrequency="0.21276596188545227 0.21276596188545227" numOctaves="3" seed="7656" />
<feDisplacementMap in="shape" scale="107" xChannelSelector="R" yChannelSelector="G" result="displacedImage" width="100%" height="100%" />
<feMerge result="effect1_texture_334_45">
<feMergeNode in="displacedImage"/>
</feMerge>
</filter>
</defs>
</svg>
