<svg width="4991" height="574" viewBox="0 0 4991 574" fill="none" xmlns="http://www.w3.org/2000/svg">
<g filter="url(#filter0_d_293_1134)">
<path d="M1549.11 130.752L1548.14 148.33L1503.02 149.307L1502.43 131.143H1516.89L1516.69 31.3379L1501.65 31.7285L1502.63 12.7832L1534.07 13.7598L1533.49 131.143L1549.11 130.752ZM1631.44 83.877C1631.44 88.1738 1631.24 92.7962 1630.85 97.7441C1630.53 102.692 1629.88 107.673 1628.9 112.686C1627.92 117.633 1626.52 122.419 1624.7 127.041C1622.94 131.663 1620.63 135.765 1617.77 139.346C1614.9 142.861 1611.42 145.693 1607.32 147.842C1603.21 149.99 1598.36 151.064 1592.77 151.064C1587.82 151.064 1583.33 150.12 1579.29 148.232C1575.25 146.279 1571.7 143.675 1568.64 140.42C1565.65 137.165 1563.21 133.421 1561.32 129.189C1559.5 124.893 1558.33 120.4 1557.8 115.713L1574.99 113.76C1575.19 116.234 1575.71 118.675 1576.55 121.084C1577.4 123.428 1578.54 125.544 1579.97 127.432C1581.47 129.255 1583.26 130.752 1585.34 131.924C1587.49 133.096 1589.9 133.682 1592.57 133.682C1595.7 133.682 1598.4 133.031 1600.68 131.729C1602.95 130.361 1604.91 128.604 1606.54 126.455C1608.16 124.242 1609.46 121.735 1610.44 118.936C1611.42 116.071 1612.2 113.174 1612.79 110.244C1613.37 107.249 1613.76 104.32 1613.96 101.455C1614.15 98.5254 1614.25 95.9212 1614.25 93.6426C1614.25 92.5358 1614.25 91.4616 1614.25 90.4199C1614.25 89.3783 1614.18 88.3691 1614.05 87.3926C1610.99 90.5176 1607.51 92.9915 1603.61 94.8145C1599.7 96.6374 1595.5 97.5488 1591.01 97.5488C1585.54 97.5488 1580.59 96.3444 1576.16 93.9355C1571.8 91.4616 1568.06 88.2715 1564.93 84.3652C1561.81 80.459 1559.4 76.0319 1557.71 71.084C1556.08 66.1361 1555.27 61.1556 1555.27 56.1426C1555.27 50.2181 1556.01 44.4238 1557.51 38.7598C1559.01 33.0957 1561.32 28.0827 1564.45 23.7207C1567.57 19.2936 1571.54 15.7454 1576.36 13.0762C1581.24 10.4069 1587.04 9.07227 1593.74 9.07227C1600.06 9.07227 1605.36 10.3092 1609.66 12.7832C1614.02 15.1921 1617.57 18.4147 1620.3 22.4512C1623.1 26.4225 1625.25 31.0124 1626.75 36.2207C1628.31 41.429 1629.42 46.8001 1630.07 52.334C1630.79 57.8678 1631.18 63.3691 1631.24 68.8379C1631.37 74.3066 1631.44 79.3197 1631.44 83.877ZM1613.27 55.166C1613.27 52.2363 1612.92 49.0462 1612.2 45.5957C1611.48 42.0801 1610.34 38.8249 1608.78 35.8301C1607.22 32.7702 1605.17 30.2311 1602.63 28.2129C1600.09 26.1296 1597 25.0879 1593.35 25.0879C1589.64 25.0879 1586.45 26.0319 1583.78 27.9199C1581.18 29.8079 1579.03 32.2168 1577.34 35.1465C1575.71 38.0111 1574.5 41.1686 1573.72 44.6191C1573.01 48.0697 1572.65 51.3249 1572.65 54.3848C1572.65 57.7702 1573.04 61.0254 1573.82 64.1504C1574.67 67.2754 1575.94 70.0749 1577.63 72.5488C1579.39 74.9577 1581.6 76.9108 1584.27 78.4082C1586.94 79.8405 1590.16 80.5566 1593.94 80.5566C1596.93 80.5566 1599.63 79.7428 1602.04 78.1152C1604.45 76.4225 1606.47 74.3392 1608.1 71.8652C1609.79 69.3262 1611.06 66.5918 1611.91 63.6621C1612.82 60.6673 1613.27 57.8353 1613.27 55.166ZM1719.43 91.4941L1718.45 109.072L1702.24 109.268L1702.04 131.143L1715.71 130.752L1714.74 148.33L1674.5 149.307L1673.92 131.143H1685.44V109.463L1639.54 110.049L1638.96 92.0801L1680.17 12.5879H1703.02L1702.43 91.6895L1719.43 91.4941ZM1685.44 91.6895L1685.25 34.6582L1655.56 92.0801L1685.44 91.6895ZM1799.11 31.3379L1765.71 131.143L1779.58 130.752L1778.41 148.33L1738.18 149.307L1737.59 131.143H1749.11L1781.34 31.3379L1741.5 31.5332L1740.91 49.3066H1726.07L1727.82 12.7832H1728.02L1797.75 13.7598L1799.11 31.3379ZM1869.13 68.252L1868.16 85.8301L1808.39 86.8066L1807.8 68.6426L1869.13 68.252ZM2036.32 27.8223L2024.21 27.4316L2009.76 150.674L1984.76 151.846L1973.62 56.5332L1961.32 148.916L1934.56 149.697L1924.02 30.3613L1911.91 30.752L1912.88 11.8066H1948.62L1950.19 29.3848L1942.77 30.3613L1948.62 129.189L1963.86 31.7285L1957.8 30.752L1958.78 13.7598L1988.66 12.7832L1989.84 28.7988L1983.2 30.752L1997.65 126.26L2005.46 27.4316L1998.04 26.4551L1999.6 8.87695H2035.34L2036.32 27.8223ZM2125.19 48.7207L2110.73 49.6973L2108.78 29.5801L2073.23 30.3613L2072.84 73.916H2102.53V87.9785L2072.65 89.7363L2072.26 133.291L2108.78 131.924V110.439H2123.23L2124.21 149.307L2044.72 151.26L2044.13 133.291H2055.66L2055.46 30.3613L2043.35 30.752L2044.33 11.8066L2124.21 10.8301L2125.19 48.7207ZM2260.44 110.635C2260.44 116.755 2259.33 122.321 2257.12 127.334C2254.91 132.347 2251.85 136.676 2247.94 140.322C2244.1 143.903 2239.58 146.702 2234.37 148.721C2229.16 150.674 2223.59 151.65 2217.67 151.65C2209.99 151.65 2202.34 151.52 2194.72 151.26C2187.1 150.999 2179.52 150.674 2171.96 150.283L2173.14 131.338L2184.27 131.729L2184.07 28.4082L2172.94 28.9941L2171.57 10.0488C2178.15 9.33268 2184.76 8.87695 2191.4 8.68164C2198.04 8.42122 2204.71 8.29102 2211.42 8.29102C2217.54 8.29102 2223.17 9.23503 2228.31 11.123C2233.46 13.0111 2237.85 15.7454 2241.5 19.3262C2245.21 22.8418 2248.07 27.1387 2250.09 32.2168C2252.17 37.2949 2253.21 42.9915 2253.21 49.3066C2253.21 55.2962 2251.88 60.5371 2249.21 65.0293C2246.54 69.4564 2242.67 73.1999 2237.59 76.2598C2244.95 79.515 2250.58 84.0397 2254.48 89.834C2258.46 95.5632 2260.44 102.497 2260.44 110.635ZM2235.25 48.7207C2235.25 41.7546 2233.29 36.3509 2229.39 32.5098C2225.55 28.6035 2220.14 26.6504 2213.18 26.6504C2212.65 26.6504 2211.81 26.6504 2210.64 26.6504C2209.46 26.6504 2208.26 26.6829 2207.02 26.748C2205.79 26.748 2204.65 26.7806 2203.61 26.8457C2202.63 26.9108 2202.04 26.9759 2201.85 27.041L2201.46 69.2285C2202.56 69.3587 2203.64 69.4238 2204.68 69.4238C2205.72 69.4238 2206.8 69.4238 2207.9 69.4238H2214.74C2221.12 69.2936 2226.13 67.4382 2229.78 63.8574C2233.42 60.2767 2235.25 55.2311 2235.25 48.7207ZM2242.28 110.244C2242.28 106.273 2241.76 102.952 2240.71 100.283C2239.74 97.5488 2238.37 95.3353 2236.61 93.6426C2234.86 91.8848 2232.77 90.5501 2230.36 89.6387C2227.95 88.7272 2225.35 88.0762 2222.55 87.6855C2219.82 87.2298 2216.95 87.002 2213.96 87.002C2210.96 86.9368 2207.97 86.9368 2204.97 87.002H2201.65L2202.04 133.096C2204.78 133.096 2207.54 133.128 2210.34 133.193C2213.14 133.258 2215.91 133.291 2218.64 133.291C2221.9 133.291 2224.96 132.738 2227.82 131.631C2230.69 130.459 2233.2 128.864 2235.34 126.846C2237.49 124.762 2239.18 122.321 2240.42 119.521C2241.66 116.657 2242.28 113.564 2242.28 110.244ZM2357.32 129.775L2356.34 148.33L2320.99 151.26L2318.64 133.291H2326.07L2312.79 87.5879H2299.5L2299.11 133.291L2310.83 132.705L2309.86 151.26H2272.55L2270.99 133.291H2282.51L2282.32 28.7988L2271.18 29.1895L2270.21 10.2441C2277.5 9.91862 2284.76 9.72331 2291.98 9.6582C2299.28 9.52799 2306.6 9.46289 2313.96 9.46289C2319.75 9.46289 2325.22 10.2767 2330.36 11.9043C2335.51 13.4668 2339.97 15.8431 2343.74 19.0332C2347.58 22.2233 2350.61 26.1947 2352.82 30.9473C2355.04 35.6999 2356.14 41.2337 2356.14 47.5488C2356.14 51.7155 2355.56 55.8496 2354.39 59.9512C2353.21 64.0527 2351.49 67.8613 2349.21 71.377C2346.93 74.8275 2344.13 77.8223 2340.81 80.3613C2337.49 82.9004 2333.68 84.6582 2329.39 85.6348L2343.64 130.166L2357.32 129.775ZM2338.18 48.3301C2338.18 45.0098 2337.59 42.0801 2336.42 39.541C2335.31 37.002 2333.75 34.8535 2331.73 33.0957C2329.71 31.3379 2327.34 30.0358 2324.6 29.1895C2321.87 28.278 2318.9 27.8223 2315.71 27.8223H2308.49H2300.09L2299.7 70.9863H2304.39C2308.68 70.9863 2312.85 70.8236 2316.89 70.498C2320.99 70.1074 2324.6 69.1634 2327.73 67.666C2330.85 66.1686 2333.36 63.9225 2335.25 60.9277C2337.2 57.8678 2338.18 53.6686 2338.18 48.3301ZM2449.8 48.7207L2435.34 49.6973L2433.39 29.5801L2397.84 30.3613L2397.45 73.916H2427.14V87.9785L2397.26 89.7363L2396.87 133.291L2433.39 131.924V110.439H2447.84L2448.82 149.307L2369.33 151.26L2368.74 133.291H2380.27L2380.07 30.3613L2367.96 30.752L2368.94 11.8066L2448.82 10.8301L2449.8 48.7207ZM2549.8 134.268L2548.43 152.822L2508.78 151.846L2507.8 132.9L2519.91 133.291L2514.84 104.775L2489.05 105.947L2484.95 131.338L2496.28 132.314L2494.72 149.893H2455.07L2454.09 130.947L2466.2 131.338L2487.49 27.041L2477.53 27.4316L2476.55 10.8301L2526.36 9.85352L2525.38 25.4785L2515.62 25.8691L2537.69 133.291L2549.8 134.268ZM2512.1 89.541L2501.55 29.5801L2491.79 89.541H2512.1ZM2629.97 52.2363L2614.93 54.1895L2613.96 27.8223L2597.75 28.4082L2596.77 131.143L2610.44 130.752L2609.46 148.33L2569.23 149.307L2568.64 131.143H2580.17L2579.97 29.3848L2562.39 30.5566L2563.37 55.166H2547.16L2548.14 12.7832L2628.02 9.85352L2629.97 52.2363ZM2742.47 29.7754L2732.32 29.3848L2730.36 133.291H2741.69L2742.28 151.26L2698.92 150.283V132.705L2712.79 133.291L2713.37 96.377H2668.84V131.143H2680.36L2680.75 149.307L2638.37 148.33V130.752L2652.24 131.143L2651.26 32.3145L2637.98 31.3379L2638.37 13.7598H2679.19V32.7051L2668.84 32.3145V81.1426L2713.18 79.5801L2713.57 29.3848L2700.48 28.4082L2700.87 10.8301H2742.47V29.7754ZM2872.36 52.627L2855.95 53.6035L2854.97 31.5332L2820.4 32.3145L2820.79 76.8457H2849.89V90.9082L2820.99 92.666L2821.38 132.119L2835.25 132.9V150.283L2792.86 151.26L2792.28 132.119H2803.8L2803.61 32.3145L2791.5 32.7051L2792.47 13.7598L2871.38 12.7832L2872.36 52.627ZM2967.28 129.775L2966.3 148.33L2930.95 151.26L2928.61 133.291H2936.03L2922.75 87.5879H2909.46L2909.07 133.291L2920.79 132.705L2919.82 151.26H2882.51L2880.95 133.291H2892.47L2892.28 28.7988L2881.14 29.1895L2880.17 10.2441C2887.46 9.91862 2894.72 9.72331 2901.95 9.6582C2909.24 9.52799 2916.56 9.46289 2923.92 9.46289C2929.71 9.46289 2935.18 10.2767 2940.32 11.9043C2945.47 13.4668 2949.93 15.8431 2953.7 19.0332C2957.54 22.2233 2960.57 26.1947 2962.79 30.9473C2965 35.6999 2966.11 41.2337 2966.11 47.5488C2966.11 51.7155 2965.52 55.8496 2964.35 59.9512C2963.18 64.0527 2961.45 67.8613 2959.17 71.377C2956.89 74.8275 2954.09 77.8223 2950.77 80.3613C2947.45 82.9004 2943.64 84.6582 2939.35 85.6348L2953.61 130.166L2967.28 129.775ZM2948.14 48.3301C2948.14 45.0098 2947.55 42.0801 2946.38 39.541C2945.27 37.002 2943.71 34.8535 2941.69 33.0957C2939.67 31.3379 2937.3 30.0358 2934.56 29.1895C2931.83 28.278 2928.87 27.8223 2925.68 27.8223H2918.45H2910.05L2909.66 70.9863H2914.35C2918.64 70.9863 2922.81 70.8236 2926.85 70.498C2930.95 70.1074 2934.56 69.1634 2937.69 67.666C2940.81 66.1686 2943.32 63.9225 2945.21 60.9277C2947.16 57.8678 2948.14 53.6686 2948.14 48.3301ZM3059.76 48.7207L3045.3 49.6973L3043.35 29.5801L3007.8 30.3613L3007.41 73.916H3037.1V87.9785L3007.22 89.7363L3006.83 133.291L3043.35 131.924V110.439H3057.8L3058.78 149.307L2979.29 151.26L2978.7 133.291H2990.23L2990.03 30.3613L2977.92 30.752L2978.9 11.8066L3058.78 10.8301L3059.76 48.7207ZM3152.92 48.7207L3138.47 49.6973L3136.52 29.5801L3100.97 30.3613L3100.58 73.916H3130.27V87.9785L3100.38 89.7363L3099.99 133.291L3136.52 131.924V110.439H3150.97L3151.95 149.307L3072.45 151.26L3071.87 133.291H3083.39L3083.2 30.3613L3071.09 30.752L3072.06 11.8066L3151.95 10.8301L3152.92 48.7207ZM3252.24 81.3379C3252.24 87.002 3251.85 92.9264 3251.07 99.1113C3250.35 105.231 3249.02 111.188 3247.06 116.982C3245.17 122.712 3242.57 128.05 3239.25 132.998C3235.99 137.946 3231.8 142.08 3226.65 145.4C3223.53 147.484 3220.14 149.079 3216.5 150.186C3212.92 151.292 3209.27 151.846 3205.56 151.846H3204.97L3165.71 151.26L3165.13 133.291H3176.65L3176.46 30.3613L3165.32 30.752L3164.35 11.8066C3170.08 11.416 3175.74 11.1556 3181.34 11.0254C3187 10.8952 3192.73 10.8301 3198.53 10.8301H3209.66C3215.58 10.8301 3220.76 11.9368 3225.19 14.1504C3229.61 16.3639 3233.39 19.3262 3236.52 23.0371C3239.71 26.748 3242.31 31.0124 3244.33 35.8301C3246.35 40.6478 3247.94 45.6934 3249.11 50.9668C3250.29 56.1751 3251.1 61.416 3251.55 66.6895C3252.01 71.8978 3252.24 76.7806 3252.24 81.3379ZM3234.27 78.9941V77.2363C3234.27 75.0228 3234.11 72.321 3233.78 69.1309C3233.52 65.8757 3233.07 62.4577 3232.41 58.877C3231.76 55.2962 3230.85 51.748 3229.68 48.2324C3228.51 44.7168 3227.08 41.5592 3225.38 38.7598C3223.69 35.8952 3221.64 33.584 3219.23 31.8262C3216.89 30.0684 3214.15 29.1895 3211.03 29.1895H3204.78C3203.02 29.1895 3201.26 29.1895 3199.5 29.1895C3197.75 29.1895 3195.99 29.2546 3194.23 29.3848L3193.25 134.268C3194.56 134.398 3195.83 134.495 3197.06 134.561C3198.3 134.626 3199.57 134.658 3200.87 134.658C3204.32 134.658 3207.71 134.463 3211.03 134.072C3214.67 133.486 3217.77 132.119 3220.3 129.971C3222.91 127.757 3225.06 125.088 3226.75 121.963C3228.51 118.773 3229.88 115.257 3230.85 111.416C3231.83 107.575 3232.58 103.734 3233.1 99.8926C3233.62 95.9863 3233.94 92.2103 3234.07 88.5645C3234.2 84.9186 3234.27 81.7285 3234.27 78.9941ZM3350.09 74.1113C3350.09 79.3848 3349.93 85.0163 3349.6 91.0059C3349.28 96.9954 3348.56 102.92 3347.45 108.779C3346.41 114.639 3344.85 120.303 3342.77 125.771C3340.75 131.175 3338.01 135.928 3334.56 140.029C3331.18 144.131 3326.98 147.419 3321.96 149.893C3316.95 152.367 3310.96 153.604 3304 153.604C3298.53 153.604 3293.77 152.594 3289.74 150.576C3285.7 148.623 3282.22 145.986 3279.29 142.666C3276.42 139.346 3274.05 135.505 3272.16 131.143C3270.27 126.781 3268.77 122.256 3267.67 117.568C3266.56 112.816 3265.78 108.031 3265.32 103.213C3264.93 98.3952 3264.74 93.903 3264.74 89.7363C3264.74 84.4629 3264.93 78.7663 3265.32 72.6465C3265.71 66.5267 3266.5 60.4395 3267.67 54.3848C3268.84 48.3301 3270.47 42.5033 3272.55 36.9043C3274.7 31.3053 3277.5 26.3574 3280.95 22.0605C3284.46 17.7637 3288.73 14.3457 3293.74 11.8066C3298.76 9.20247 3304.71 7.90039 3311.61 7.90039C3317.08 7.90039 3321.83 8.97461 3325.87 11.123C3329.97 13.2064 3333.42 16.0384 3336.22 19.6191C3339.09 23.1348 3341.4 27.1712 3343.16 31.7285C3344.98 36.2858 3346.41 41.0384 3347.45 45.9863C3348.49 50.8691 3349.18 55.752 3349.5 60.6348C3349.89 65.4525 3350.09 69.9447 3350.09 74.1113ZM3330.95 75.2832C3330.95 73.0697 3330.88 70.3353 3330.75 67.0801C3330.62 63.7598 3330.33 60.3092 3329.88 56.7285C3329.42 53.0827 3328.74 49.4368 3327.82 45.791C3326.91 42.1452 3325.64 38.89 3324.02 36.0254C3322.45 33.0957 3320.47 30.752 3318.06 28.9941C3315.71 27.1712 3312.85 26.2598 3309.46 26.2598C3305.17 26.2598 3301.52 27.4316 3298.53 29.7754C3295.6 32.054 3293.16 35.0814 3291.2 38.8574C3289.25 42.6335 3287.72 46.8978 3286.61 51.6504C3285.51 56.3379 3284.69 61.0905 3284.17 65.9082C3283.65 70.7259 3283.33 75.3809 3283.2 79.873C3283.13 84.3001 3283.1 88.1087 3283.1 91.2988C3283.1 93.7077 3283.16 96.4746 3283.29 99.5996C3283.42 102.66 3283.72 105.817 3284.17 109.072C3284.69 112.262 3285.44 115.42 3286.42 118.545C3287.39 121.605 3288.66 124.339 3290.23 126.748C3291.85 129.157 3293.87 131.11 3296.28 132.607C3298.69 134.105 3301.59 134.854 3304.97 134.854C3309.2 134.854 3312.79 133.779 3315.71 131.631C3318.64 129.482 3321.05 126.683 3322.94 123.232C3324.89 119.717 3326.39 115.778 3327.43 111.416C3328.54 107.054 3329.35 102.692 3329.88 98.3301C3330.4 93.903 3330.69 89.6712 3330.75 85.6348C3330.88 81.5983 3330.95 78.1478 3330.95 75.2832ZM3490.03 11.2207L3489.45 29.9707L3476.75 29.3848L3474.8 132.705H3484.76L3485.15 151.26H3445.3L3445.7 132.705H3457.61L3458 39.9316L3433.39 140.713L3414.25 141.299L3395.11 40.127L3393.74 131.143H3405.27L3405.66 149.307L3360.34 148.33V130.752L3376.16 131.143L3377.14 32.3145L3359.95 31.3379L3360.34 13.7598H3408L3424.21 110.83L3447.65 11.8066L3490.03 11.2207Z" fill="white"/>
<path d="M988.688 295.113C988.688 305.367 987.321 314.425 984.587 322.286C981.966 330.034 978.435 336.983 973.991 343.136C969.662 349.174 964.649 354.586 958.952 359.371C953.369 364.042 947.559 368.486 941.521 372.701C935.482 376.917 929.501 381.075 923.576 385.177C917.766 389.164 912.411 393.494 907.512 398.165C902.613 402.836 898.454 408.02 895.036 413.717C891.732 419.299 889.567 425.794 888.542 433.199L956.218 434.908L957.927 401.412L984.929 403.121L983.22 467.721L855.729 466.012C855.729 450.745 857.154 437.586 860.002 426.534C862.964 415.369 866.781 405.742 871.452 397.652C876.237 389.449 881.649 382.442 887.688 376.632C893.726 370.821 899.878 365.637 906.145 361.08C912.411 356.409 918.563 352.079 924.602 348.092C930.64 344.104 935.995 339.832 940.666 335.274C945.451 330.603 949.268 325.419 952.116 319.723C955.078 313.912 956.56 306.962 956.56 298.873C956.56 293.632 956.161 288.505 955.363 283.492C954.566 278.365 953.028 273.808 950.749 269.82C948.584 265.719 945.508 262.415 941.521 259.908C937.533 257.402 932.406 256.148 926.14 256.148C918.506 256.148 912.012 257.743 906.657 260.934C901.302 264.01 896.859 268.111 893.327 273.238C889.909 278.251 887.289 284.005 885.466 290.499C883.757 296.993 882.731 303.544 882.39 310.152L855.388 311.178L851.628 224.02L881.706 223.336L882.048 251.705C884.896 246.806 887.972 242.647 891.276 239.229C894.58 235.812 898.169 233.02 902.043 230.855C906.031 228.577 910.303 226.925 914.86 225.899C919.532 224.874 924.659 224.361 930.241 224.361C940.381 224.361 949.097 226.355 956.389 230.343C963.794 234.216 969.89 239.457 974.675 246.065C979.46 252.56 982.992 260.079 985.271 268.624C987.549 277.169 988.688 285.999 988.688 295.113ZM1161.81 348.775C1161.81 356.637 1161.3 365.125 1160.27 374.239C1159.36 383.354 1157.76 392.468 1155.49 401.583C1153.21 410.698 1150.19 419.527 1146.43 428.072C1142.67 436.503 1137.94 443.966 1132.24 450.46C1126.66 456.954 1120.05 462.138 1112.42 466.012C1104.79 469.885 1095.96 471.822 1085.93 471.822C1075.56 471.822 1066.56 469.885 1058.93 466.012C1051.29 462.138 1044.69 456.954 1039.1 450.46C1033.63 443.966 1029.08 436.503 1025.43 428.072C1021.9 419.641 1019.05 410.868 1016.89 401.754C1014.84 392.639 1013.41 383.525 1012.61 374.41C1011.82 365.296 1011.42 356.751 1011.42 348.775C1011.42 340.23 1011.82 331.23 1012.61 321.773C1013.53 312.203 1015.06 302.804 1017.23 293.575C1019.51 284.347 1022.53 275.517 1026.29 267.086C1030.16 258.541 1035 251.078 1040.81 244.698C1046.74 238.318 1053.74 233.248 1061.83 229.488C1070.04 225.615 1079.55 223.678 1090.37 223.678C1099.83 223.678 1108.15 225.785 1115.32 230.001C1122.5 234.103 1128.71 239.628 1133.95 246.578C1139.31 253.414 1143.75 261.275 1147.28 270.162C1150.93 278.935 1153.78 287.993 1155.83 297.335C1157.99 306.563 1159.53 315.678 1160.44 324.679C1161.35 333.565 1161.81 341.598 1161.81 348.775ZM1133.78 348.775C1133.78 344.218 1133.5 338.749 1132.93 332.369C1132.47 325.875 1131.62 319.153 1130.36 312.203C1129.11 305.139 1127.34 298.132 1125.07 291.183C1122.9 284.233 1120.11 278.023 1116.69 272.555C1113.27 267.086 1109.17 262.643 1104.39 259.225C1099.6 255.807 1094.02 254.098 1087.64 254.098C1080.69 254.098 1074.71 255.75 1069.69 259.054C1064.68 262.358 1060.41 266.744 1056.88 272.213C1053.35 277.568 1050.5 283.663 1048.33 290.499C1046.28 297.335 1044.63 304.285 1043.38 311.349C1042.24 318.299 1041.44 325.077 1040.98 331.686C1040.64 338.294 1040.47 343.99 1040.47 348.775C1040.47 353.447 1040.64 358.972 1040.98 365.353C1041.44 371.733 1042.24 378.341 1043.38 385.177C1044.52 391.899 1046.11 398.621 1048.16 405.343C1050.33 411.951 1053.12 417.875 1056.54 423.116C1059.95 428.357 1064.11 432.63 1069.01 435.934C1074.02 439.124 1079.89 440.719 1086.61 440.719C1092.77 440.719 1098.18 439.067 1102.85 435.763C1107.63 432.459 1111.74 428.129 1115.15 422.774C1118.69 417.42 1121.65 411.381 1124.04 404.659C1126.43 397.937 1128.31 391.158 1129.68 384.322C1131.16 377.486 1132.19 370.992 1132.76 364.84C1133.44 358.574 1133.78 353.219 1133.78 348.775ZM1314.08 366.549L1312.37 397.311L1284 397.652L1283.66 435.934L1307.58 435.25L1305.88 466.012L1235.47 467.721L1234.44 435.934H1254.61V397.994L1174.28 399.02L1173.26 367.574L1245.38 228.463H1285.37L1284.34 366.891L1314.08 366.549ZM1254.61 366.891L1254.26 267.086L1202.31 367.574L1254.61 366.891ZM1453.53 261.275L1395.08 435.934L1419.35 435.25L1417.3 466.012L1346.89 467.721L1345.87 435.934H1366.03L1422.43 261.275L1352.7 261.617L1351.68 292.721H1325.7L1328.78 228.805H1329.12L1451.14 230.514L1453.53 261.275ZM1576.07 325.875L1574.36 356.637L1469.77 358.346L1468.74 326.559L1576.07 325.875ZM1868.64 255.123L1847.45 254.439L1822.16 470.113L1778.41 472.164L1758.93 305.367L1737.39 467.037L1690.57 468.404L1672.11 259.566L1650.92 260.25L1652.63 227.096H1715.18L1717.91 257.857L1704.92 259.566L1715.18 432.516L1741.84 261.959L1731.24 260.25L1732.95 230.514L1785.25 228.805L1787.3 256.832L1775.68 260.25L1800.97 427.389L1814.64 254.439L1801.65 252.73L1804.39 221.969H1866.94L1868.64 255.123ZM2024.16 291.695L1998.87 293.404L1995.45 258.199L1933.24 259.566L1932.56 335.787H1984.51V360.396L1932.22 363.473L1931.54 439.693L1995.45 437.301V399.703H2020.74L2022.45 467.721L1883.34 471.139L1882.32 439.693H1902.48L1902.14 259.566L1880.95 260.25L1882.66 227.096L2022.45 225.387L2024.16 291.695ZM2257.78 433.541L2256.07 466.012L2194.21 471.139L2190.1 439.693H2203.09L2179.85 359.713H2156.61L2155.92 439.693L2176.43 438.668L2174.72 471.139H2109.44L2106.71 439.693H2126.87L2126.53 256.832L2107.05 257.516L2105.34 224.361C2118.1 223.792 2130.8 223.45 2143.45 223.336C2156.21 223.108 2169.03 222.994 2181.9 222.994C2192.04 222.994 2201.61 224.418 2210.61 227.267C2219.61 230.001 2227.42 234.16 2234.03 239.742C2240.75 245.325 2246.05 252.275 2249.92 260.592C2253.79 268.909 2255.73 278.593 2255.73 289.645C2255.73 296.936 2254.7 304.171 2252.65 311.349C2250.6 318.526 2247.58 325.191 2243.6 331.344C2239.61 337.382 2234.71 342.623 2228.9 347.066C2223.09 351.51 2216.42 354.586 2208.9 356.295L2233.85 434.225L2257.78 433.541ZM2224.28 291.012C2224.28 285.201 2223.26 280.074 2221.21 275.631C2219.27 271.188 2216.54 267.428 2213 264.352C2209.47 261.275 2205.31 258.997 2200.53 257.516C2195.74 255.921 2190.56 255.123 2184.98 255.123H2172.33H2157.63L2156.95 330.66H2165.15C2172.67 330.66 2179.96 330.375 2187.03 329.806C2194.21 329.122 2200.53 327.47 2206 324.85C2211.47 322.229 2215.85 318.299 2219.16 313.058C2222.58 307.703 2224.28 300.354 2224.28 291.012ZM2350.92 435.25L2349.21 466.012L2278.8 467.721L2277.78 435.934H2297.94L2297.6 261.275L2276.41 261.959L2278.12 228.805H2345.79L2348.53 259.566L2328.7 261.275L2326.99 435.934L2350.92 435.25ZM2510.03 404.146C2510.03 413.375 2508.83 422.091 2506.44 430.294C2504.16 438.383 2500.63 445.447 2495.84 451.485C2491.06 457.524 2484.96 462.309 2477.56 465.841C2470.26 469.373 2461.61 471.139 2451.58 471.139C2445.54 471.139 2440.13 470.569 2435.34 469.43C2430.56 468.404 2426.17 466.752 2422.18 464.474C2418.31 462.081 2414.67 459.062 2411.25 455.416C2407.94 451.77 2404.75 447.441 2401.68 442.428L2401.33 468.746L2371.26 464.645L2376.73 386.373L2402.02 387.398C2403.04 393.437 2404.64 399.76 2406.8 406.368C2408.97 412.862 2411.82 418.844 2415.35 424.312C2418.99 429.781 2423.44 434.282 2428.68 437.813C2434.03 441.345 2440.41 443.111 2447.82 443.111C2453.74 443.111 2458.7 442.143 2462.69 440.206C2466.79 438.269 2470.09 435.592 2472.6 432.174C2475.11 428.756 2476.87 424.711 2477.9 420.04C2479.04 415.369 2479.61 410.299 2479.61 404.83C2479.61 398.678 2478.58 393.209 2476.53 388.424C2474.59 383.525 2471.86 379.252 2468.33 375.606C2464.8 371.847 2460.64 368.657 2455.85 366.036C2451.18 363.302 2446.11 360.966 2440.64 359.029C2434.38 356.865 2428.34 354.586 2422.53 352.193C2416.83 349.801 2411.47 347.18 2406.46 344.332C2401.45 341.37 2396.83 338.123 2392.62 334.591C2388.52 330.945 2384.99 326.786 2382.02 322.115C2379.06 317.444 2376.73 312.146 2375.02 306.222C2373.42 300.297 2372.62 293.518 2372.62 285.885C2372.62 276.428 2374.05 267.713 2376.9 259.737C2379.74 251.762 2383.85 244.926 2389.2 239.229C2394.56 233.419 2401.05 228.919 2408.68 225.729C2416.32 222.538 2424.92 220.943 2434.49 220.943C2440.53 220.943 2445.71 221.513 2450.04 222.652C2454.48 223.792 2458.42 225.558 2461.83 227.95C2465.25 230.343 2468.38 233.362 2471.23 237.008C2474.08 240.54 2476.99 244.755 2479.95 249.654L2480.29 221.627L2510.03 222.311L2506.27 309.469L2479.61 308.443C2478.81 304.228 2477.9 299.898 2476.87 295.455C2475.96 290.898 2474.71 286.511 2473.11 282.296C2471.52 278.08 2469.64 274.093 2467.47 270.333C2465.31 266.459 2462.69 263.098 2459.61 260.25C2456.65 257.402 2453.17 255.18 2449.19 253.585C2445.2 251.876 2440.64 251.021 2435.51 251.021C2430.27 251.021 2425.72 252.047 2421.84 254.098C2418.08 256.035 2414.95 258.712 2412.44 262.13C2409.94 265.434 2408.06 269.308 2406.8 273.751C2405.66 278.08 2405.09 282.581 2405.09 287.252C2405.09 293.86 2406.18 299.5 2408.34 304.171C2410.51 308.842 2413.41 312.887 2417.06 316.305C2420.82 319.609 2425.15 322.457 2430.05 324.85C2434.94 327.242 2440.19 329.407 2445.77 331.344C2454.31 334.42 2462.46 338.066 2470.21 342.281C2477.95 346.497 2484.79 351.51 2490.71 357.32C2496.64 363.131 2501.31 369.91 2504.73 377.657C2508.26 385.291 2510.03 394.12 2510.03 404.146ZM2677.34 291.695L2652.04 293.404L2648.62 258.199L2586.42 259.566L2585.73 335.787H2637.69V360.396L2585.39 363.473L2584.71 439.693L2648.62 437.301V399.703H2673.92L2675.63 467.721L2536.52 471.139L2535.49 439.693H2555.66L2555.31 259.566L2534.12 260.25L2535.83 227.096L2675.63 225.387L2677.34 291.695ZM2913.86 441.402L2911.47 473.873L2842.08 472.164L2840.37 439.01L2861.56 439.693L2852.68 389.791L2807.56 391.842L2800.38 436.275L2820.21 437.984L2817.47 468.746H2748.09L2746.38 435.592L2767.57 436.275L2804.83 253.756L2787.39 254.439L2785.69 225.387L2872.84 223.678L2871.13 251.021L2854.04 251.705L2892.67 439.693L2913.86 441.402ZM2847.89 363.131L2829.44 258.199L2812.35 363.131H2847.89ZM3061.34 404.146C3061.34 413.375 3060.15 422.091 3057.76 430.294C3055.48 438.383 3051.95 445.447 3047.16 451.485C3042.38 457.524 3036.28 462.309 3028.87 465.841C3021.58 469.373 3012.92 471.139 3002.9 471.139C2996.86 471.139 2991.45 470.569 2986.66 469.43C2981.88 468.404 2977.49 466.752 2973.5 464.474C2969.63 462.081 2965.98 459.062 2962.57 455.416C2959.26 451.77 2956.07 447.441 2953 442.428L2952.65 468.746L2922.58 464.645L2928.04 386.373L2953.34 387.398C2954.36 393.437 2955.96 399.76 2958.12 406.368C2960.29 412.862 2963.14 418.844 2966.67 424.312C2970.31 429.781 2974.76 434.282 2980 437.813C2985.35 441.345 2991.73 443.111 2999.14 443.111C3005.06 443.111 3010.02 442.143 3014.01 440.206C3018.11 438.269 3021.41 435.592 3023.92 432.174C3026.42 428.756 3028.19 424.711 3029.22 420.04C3030.36 415.369 3030.92 410.299 3030.92 404.83C3030.92 398.678 3029.9 393.209 3027.85 388.424C3025.91 383.525 3023.18 379.252 3019.65 375.606C3016.11 371.847 3011.96 368.657 3007.17 366.036C3002.5 363.302 2997.43 360.966 2991.96 359.029C2985.69 356.865 2979.66 354.586 2973.84 352.193C2968.15 349.801 2962.79 347.18 2957.78 344.332C2952.77 341.37 2948.15 338.123 2943.94 334.591C2939.84 330.945 2936.3 326.786 2933.34 322.115C2930.38 317.444 2928.04 312.146 2926.33 306.222C2924.74 300.297 2923.94 293.518 2923.94 285.885C2923.94 276.428 2925.37 267.713 2928.21 259.737C2931.06 251.762 2935.16 244.926 2940.52 239.229C2945.87 233.419 2952.37 228.919 2960 225.729C2967.64 222.538 2976.24 220.943 2985.81 220.943C2991.85 220.943 2997.03 221.513 3001.36 222.652C3005.8 223.792 3009.73 225.558 3013.15 227.95C3016.57 230.343 3019.7 233.362 3022.55 237.008C3025.4 240.54 3028.3 244.755 3031.27 249.654L3031.61 221.627L3061.34 222.311L3057.58 309.469L3030.92 308.443C3030.13 304.228 3029.22 299.898 3028.19 295.455C3027.28 290.898 3026.03 286.511 3024.43 282.296C3022.84 278.08 3020.96 274.093 3018.79 270.333C3016.63 266.459 3014.01 263.098 3010.93 260.25C3007.97 257.402 3004.49 255.18 3000.5 253.585C2996.52 251.876 2991.96 251.021 2986.83 251.021C2981.59 251.021 2977.03 252.047 2973.16 254.098C2969.4 256.035 2966.27 258.712 2963.76 262.13C2961.26 265.434 2959.38 269.308 2958.12 273.751C2956.98 278.08 2956.41 282.581 2956.41 287.252C2956.41 293.86 2957.5 299.5 2959.66 304.171C2961.82 308.842 2964.73 312.887 2968.38 316.305C2972.14 319.609 2976.47 322.457 2981.36 324.85C2986.26 327.242 2991.5 329.407 2997.09 331.344C3005.63 334.42 3013.78 338.066 3021.53 342.281C3029.27 346.497 3036.11 351.51 3042.03 357.32C3047.96 363.131 3052.63 369.91 3056.05 377.657C3059.58 385.291 3061.34 394.12 3061.34 404.146ZM3301.63 254.439L3280.44 256.148L3236.34 472.164L3197.72 470.113L3155.34 259.566L3134.15 260.25L3135.86 227.096H3205.24L3207.98 257.857L3188.15 259.566L3217.2 434.225L3249.33 256.148L3228.14 256.832L3229.85 223.678L3299.24 221.969L3301.63 254.439ZM3384.86 435.25L3383.15 466.012L3312.74 467.721L3311.71 435.934H3331.88L3331.54 261.275L3310.34 261.959L3312.05 228.805H3379.73L3382.46 259.566L3362.64 261.275L3360.93 435.934L3384.86 435.25ZM3571.82 225.387L3569.08 257.857H3551.31L3483.29 343.307L3548.23 439.693L3567.03 438.668L3568.74 469.43L3498.33 472.848L3495.6 441.402H3515.76L3456.63 351.51L3455.95 435.934L3479.88 435.25L3478.17 466.012L3407.76 467.721L3406.73 435.934H3426.9L3426.55 261.275L3405.36 261.959L3407.07 228.805H3474.75L3477.48 259.566L3457.66 261.275L3456.97 334.762L3518.5 256.148L3496.96 253.414L3499.02 223.678L3571.82 225.387ZM3736.91 441.402L3734.51 473.873L3665.13 472.164L3663.42 439.01L3684.61 439.693L3675.72 389.791L3630.61 391.842L3623.43 436.275L3643.25 437.984L3640.52 468.746H3571.13L3569.43 435.592L3590.62 436.275L3627.87 253.756L3610.44 254.439L3608.73 225.387L3695.89 223.678L3694.18 251.021L3677.09 251.705L3715.71 439.693L3736.91 441.402ZM3670.94 363.131L3652.48 258.199L3635.39 363.131H3670.94ZM3884.39 404.146C3884.39 413.375 3883.2 422.091 3880.8 430.294C3878.52 438.383 3874.99 445.447 3870.21 451.485C3865.42 457.524 3859.33 462.309 3851.92 465.841C3844.63 469.373 3835.97 471.139 3825.94 471.139C3819.91 471.139 3814.49 470.569 3809.71 469.43C3804.92 468.404 3800.54 466.752 3796.55 464.474C3792.68 462.081 3789.03 459.062 3785.61 455.416C3782.31 451.77 3779.12 447.441 3776.04 442.428L3775.7 468.746L3745.62 464.645L3751.09 386.373L3776.38 387.398C3777.41 393.437 3779 399.76 3781.17 406.368C3783.33 412.862 3786.18 418.844 3789.71 424.312C3793.36 429.781 3797.8 434.282 3803.04 437.813C3808.4 441.345 3814.78 443.111 3822.18 443.111C3828.11 443.111 3833.07 442.143 3837.05 440.206C3841.15 438.269 3844.46 435.592 3846.96 432.174C3849.47 428.756 3851.24 424.711 3852.26 420.04C3853.4 415.369 3853.97 410.299 3853.97 404.83C3853.97 398.678 3852.95 393.209 3850.9 388.424C3848.96 383.525 3846.22 379.252 3842.69 375.606C3839.16 371.847 3835 368.657 3830.22 366.036C3825.55 363.302 3820.48 360.966 3815.01 359.029C3808.74 356.865 3802.7 354.586 3796.89 352.193C3791.19 349.801 3785.84 347.18 3780.83 344.332C3775.81 341.37 3771.2 338.123 3766.98 334.591C3762.88 330.945 3759.35 326.786 3756.39 322.115C3753.43 317.444 3751.09 312.146 3749.38 306.222C3747.79 300.297 3746.99 293.518 3746.99 285.885C3746.99 276.428 3748.41 267.713 3751.26 259.737C3754.11 251.762 3758.21 244.926 3763.57 239.229C3768.92 233.419 3775.42 228.919 3783.05 225.729C3790.68 222.538 3799.28 220.943 3808.85 220.943C3814.89 220.943 3820.08 221.513 3824.41 222.652C3828.85 223.792 3832.78 225.558 3836.2 227.95C3839.62 230.343 3842.75 233.362 3845.6 237.008C3848.45 240.54 3851.35 244.755 3854.31 249.654L3854.66 221.627L3884.39 222.311L3880.63 309.469L3853.97 308.443C3853.17 304.228 3852.26 299.898 3851.24 295.455C3850.33 290.898 3849.07 286.511 3847.48 282.296C3845.88 278.08 3844 274.093 3841.84 270.333C3839.67 266.459 3837.05 263.098 3833.98 260.25C3831.01 257.402 3827.54 255.18 3823.55 253.585C3819.56 251.876 3815.01 251.021 3809.88 251.021C3804.64 251.021 3800.08 252.047 3796.21 254.098C3792.45 256.035 3789.32 258.712 3786.81 262.13C3784.3 265.434 3782.42 269.308 3781.17 273.751C3780.03 278.08 3779.46 282.581 3779.46 287.252C3779.46 293.86 3780.54 299.5 3782.71 304.171C3784.87 308.842 3787.78 312.887 3791.42 316.305C3795.18 319.609 3799.51 322.457 3804.41 324.85C3809.31 327.242 3814.55 329.407 3820.13 331.344C3828.68 334.42 3836.82 338.066 3844.57 342.281C3852.32 346.497 3859.16 351.51 3865.08 357.32C3871 363.131 3875.68 369.91 3879.09 377.657C3882.63 385.291 3884.39 394.12 3884.39 404.146ZM3983 435.25L3981.29 466.012L3910.88 467.721L3909.86 435.934H3930.02L3929.68 261.275L3908.49 261.959L3910.2 228.805H3977.87L3980.61 259.566L3960.78 261.275L3959.07 435.934L3983 435.25ZM4143.82 297.848L4117.5 301.266L4115.79 255.123L4087.42 256.148L4085.71 435.934L4109.64 435.25L4107.93 466.012L4037.52 467.721L4036.49 435.934H4056.66L4056.32 257.857L4025.55 259.908L4027.26 302.975H3998.89L4000.6 228.805L4140.4 223.678L4143.82 297.848Z" fill="white"/>
</g>
<defs>
<filter id="filter0_d_293_1134" x="821.725" y="0.000391006" width="3351.99" height="525.773" filterUnits="userSpaceOnUse" color-interpolation-filters="sRGB">
<feFlood flood-opacity="0" result="BackgroundImageFix"/>
<feColorMatrix in="SourceAlpha" type="matrix" values="0 0 0 0 0 0 0 0 0 0 0 0 0 0 0 0 0 0 127 0" result="hardAlpha"/>
<feOffset dy="22"/>
<feGaussianBlur stdDeviation="14.95"/>
<feComposite in2="hardAlpha" operator="out"/>
<feColorMatrix type="matrix" values="0 0 0 0 0 0 0 0 0 0 0 0 0 0 0 0 0 0 0.67 0"/>
<feBlend mode="normal" in2="BackgroundImageFix" result="effect1_dropShadow_293_1134"/>
<feBlend mode="normal" in="SourceGraphic" in2="effect1_dropShadow_293_1134" result="shape"/>
</filter>
</defs>
</svg>
