<svg width="328" height="146" viewBox="0 0 328 146" fill="none" xmlns="http://www.w3.org/2000/svg">
<path d="M72.1888 71.8863C70.1652 71.8863 68.2933 71.1527 66.5732 69.6856C64.8532 68.2185 63.5631 66.1695 62.7031 63.5388L50.106 25.444C49.2965 22.8639 49.423 20.8656 50.4854 19.449C51.5984 18.0325 53.0655 17.3242 54.8868 17.3242C56.6575 17.3242 57.9981 17.906 58.9088 19.0696C59.87 20.1826 60.7553 22.0544 61.5648 24.6852L72.5682 59.1374C73.9342 55.1913 75.2748 51.6753 76.5902 48.5893C77.9562 45.4526 79.0944 42.569 80.0051 39.9383C80.9157 37.2569 81.3963 34.6768 81.4469 32.1979C81.4975 30.9331 81.3963 29.7948 81.1434 28.783C80.941 27.7712 80.7133 26.7594 80.4604 25.7476C80.258 24.6852 80.1568 23.5216 80.1568 22.2568C80.1568 21.0426 80.6122 19.9296 81.5228 18.9178C82.4334 17.8554 84.0017 17.3242 86.2277 17.3242C87.8972 17.3242 89.1873 17.9566 90.0979 19.2214C91.0086 20.4355 91.6156 21.9533 91.9192 23.7745C92.2733 25.5452 92.4504 27.3159 92.4504 29.0866C92.4504 33.2856 91.9445 37.3075 90.9327 41.1524C89.9209 44.9467 88.5549 48.6651 86.8348 52.3077C85.1653 55.9502 83.3188 59.6939 81.2951 63.5388C80.3845 65.5118 79.5245 67.1308 78.715 68.3955C77.9056 69.6097 76.9949 70.495 75.9831 71.0515C75.0219 71.608 73.7571 71.8863 72.1888 71.8863Z" fill="#E03C1F"/>
<path d="M105.309 71.8863C101.565 71.8863 99.6933 70.1915 99.6933 66.8019V22.4086C99.6933 20.6379 100.123 19.3478 100.983 18.5384C101.843 17.7289 103.209 17.3242 105.081 17.3242C108.774 17.3242 110.621 19.019 110.621 22.4086V66.8019C110.621 68.522 110.191 69.8121 109.331 70.6721C108.521 71.4815 107.181 71.8863 105.309 71.8863Z" fill="#E03C1F"/>
<path d="M152.289 71.8863C148.495 71.8863 146.597 70.1156 146.597 66.5743V54.8119C146.597 52.3836 146.092 50.5623 145.08 49.3481C144.118 48.0834 142.449 47.451 140.071 47.451C137.491 47.451 135.569 47.9822 134.304 49.0446C133.09 50.107 132.483 51.9535 132.483 54.5843V65.9672C132.483 69.9132 130.661 71.8863 127.019 71.8863C123.376 71.8863 121.555 69.9132 121.555 65.9672V23.2433C121.555 19.2973 123.376 17.3242 127.019 17.3242C130.661 17.3242 132.483 19.2973 132.483 23.2433V41.0765C133.191 40.3683 133.924 39.8118 134.683 39.4071C135.442 39.0023 136.707 38.547 138.478 38.0411C141.007 37.3328 142.753 35.8404 143.714 33.5638C144.675 31.2872 145.156 27.6447 145.156 22.6362C145.156 20.7644 145.56 19.4237 146.37 18.6143C147.179 17.7542 148.469 17.3242 150.24 17.3242C153.984 17.3242 155.856 19.2214 155.856 23.0157C155.856 28.0747 155.324 32.1979 154.262 35.3851C153.2 38.5217 151.555 40.9501 149.329 42.6702C154.743 44.9973 157.449 49.0952 157.449 54.9637V66.5743C157.449 70.1156 155.729 71.8863 152.289 71.8863Z" fill="#E03C1F"/>
<path d="M179.284 71.8863C177.361 71.8863 175.337 71.7345 173.213 71.431C171.088 71.1274 169.368 70.7227 168.052 70.2168C165.928 69.3567 164.865 67.9149 164.865 65.8913C164.865 64.4241 165.295 63.2606 166.155 62.4005C167.066 61.4899 168.482 61.0346 170.405 61.0346C171.72 61.0346 173.314 61.2116 175.186 61.5658C177.058 61.9199 178.702 62.097 180.118 62.097C183.255 62.097 185.506 61.6922 186.872 60.8828C188.238 60.0733 188.921 58.4291 188.921 55.9502C188.921 54.4831 188.39 53.2436 187.327 52.2318C186.316 51.22 184.267 50.2588 181.181 49.3481C175.565 47.6786 171.493 45.6044 168.963 43.1255C166.484 40.6465 165.245 37.434 165.245 33.4879C165.245 30.0478 166.004 27.1388 167.521 24.761C169.09 22.3327 171.24 20.4861 173.972 19.2214C176.703 17.9566 179.815 17.3242 183.306 17.3242C187.403 17.3242 190.793 17.8807 193.474 18.9937C195.599 19.8032 196.661 21.245 196.661 23.3192C196.661 24.7863 196.206 25.9752 195.296 26.8859C194.435 27.7459 193.044 28.1759 191.122 28.1759C189.857 28.1759 188.491 28.0494 187.024 27.7965C185.557 27.4929 184.115 27.3412 182.698 27.3412C180.523 27.3412 178.879 27.7206 177.766 28.4795C176.653 29.2383 176.096 30.5031 176.096 32.2738C176.096 33.8927 176.881 35.3598 178.449 36.6752C180.017 37.9905 182.901 39.2806 187.1 40.5453C191.906 41.9619 195.22 43.8843 197.041 46.3127C198.862 48.6904 199.773 51.7259 199.773 55.419C199.773 60.7816 197.977 64.8795 194.385 67.7125C190.844 70.495 185.81 71.8863 179.284 71.8863Z" fill="#E03C1F"/>
<path d="M213.432 71.8863C209.688 71.8863 207.816 70.1915 207.816 66.8019V22.4086C207.816 20.6379 208.246 19.3478 209.106 18.5384C209.966 17.7289 211.332 17.3242 213.204 17.3242C216.897 17.3242 218.744 19.019 218.744 22.4086V66.8019C218.744 68.522 218.314 69.8121 217.454 70.6721C216.644 71.4815 215.304 71.8863 213.432 71.8863Z" fill="#E03C1F"/>
<path d="M244.421 71.8863C243.156 71.8863 241.866 71.608 240.551 71.0515C239.286 70.4444 238.654 69.4832 238.654 68.1679V32.6532C238.654 31.0343 239.058 29.9213 239.868 29.3142C240.677 28.7071 241.335 28.3277 241.841 28.1759H227.195C225.981 28.1759 225.07 27.6447 224.463 26.5823C223.907 25.4693 223.628 24.331 223.628 23.1674C223.628 21.9027 223.932 20.7644 224.539 19.7526C225.146 18.6902 226.031 18.159 227.195 18.159H261.116C262.28 18.159 263.165 18.6902 263.772 19.7526C264.379 20.7644 264.683 21.9027 264.683 23.1674C264.683 24.331 264.379 25.4693 263.772 26.5823C263.215 27.6447 262.33 28.1759 261.116 28.1759H249.581V68.1679C249.581 69.4326 249.05 70.3686 247.988 70.9756C246.976 71.5827 245.787 71.8863 244.421 71.8863Z" fill="#E03C1F"/>
<path d="M29.5477 144.9C28.5865 144.9 27.777 144.521 27.1193 143.762C26.4617 143.003 26.1328 142.042 26.1328 140.878V106.729C26.1328 105.06 26.3605 103.314 26.8158 101.493C27.3217 99.6719 28.2323 97.9771 29.5477 96.4088C30.9136 94.7899 32.8361 93.4745 35.315 92.4627C37.794 91.4509 41.0318 90.945 45.0284 90.945C50.3405 90.945 54.4636 92.2603 57.3979 94.8911C60.3321 97.5218 61.7992 101.468 61.7992 106.729C61.7992 108.854 61.3945 110.802 60.5851 112.573C59.8262 114.343 58.6626 115.684 57.0943 116.594C59.5733 117.707 61.3439 119.25 62.4063 121.224C63.5193 123.197 64.0758 125.928 64.0758 129.419C64.0758 134.478 62.5075 138.323 59.3709 140.954C56.2849 143.585 51.504 144.9 45.0284 144.9H29.5477ZM36.5292 115.229C37.1869 114.419 38.2493 113.787 39.7164 113.331C41.2341 112.876 43.0048 112.648 45.0284 112.648C47.4062 112.648 49.0251 112.218 49.8851 111.358C50.7958 110.448 51.2511 108.905 51.2511 106.729C51.2511 104.2 50.7199 102.404 49.6575 101.341C48.6457 100.228 47.1027 99.6719 45.0284 99.6719C42.0942 99.6719 40.02 100.203 38.8058 101.265C37.6422 102.328 37.0604 104.149 37.0604 106.729C37.0604 108.298 37.0351 109.562 36.9845 110.524C36.9845 111.434 36.9339 112.244 36.8327 112.952C36.7822 113.66 36.681 114.419 36.5292 115.229ZM37.0604 136.097H45.0284C48.0639 136.097 50.1634 135.566 51.327 134.504C52.5412 133.441 53.1482 131.746 53.1482 129.419C53.1482 126.131 52.5159 123.778 51.2511 122.362C50.0369 120.945 47.9627 120.237 45.0284 120.237C42.9542 120.237 41.3353 120.515 40.1717 121.072C39.0081 121.578 38.1987 122.488 37.7434 123.804C37.2881 125.119 37.0604 126.991 37.0604 129.419V136.097Z" fill="#09A270"/>
<path d="M78.2226 145.507C74.4789 145.507 72.6071 143.812 72.6071 140.423V96.0294C72.6071 94.2587 73.0371 92.9686 73.8971 92.1592C74.7572 91.3497 76.1231 90.945 77.995 90.945C81.6881 90.945 83.5347 92.6398 83.5347 96.0294V103.618C83.5347 109.891 83.3576 113.635 83.0035 114.849C84.3188 113.534 85.7354 112.623 87.2531 112.117C88.7708 111.611 90.7691 111.358 93.2481 111.358H100.685V96.0294C100.685 94.2587 101.115 92.9686 101.975 92.1592C102.835 91.3497 104.201 90.945 106.073 90.945C109.766 90.945 111.612 92.6398 111.612 96.0294V140.423C111.612 142.143 111.182 143.433 110.322 144.293C109.513 145.102 108.172 145.507 106.3 145.507C102.557 145.507 100.685 143.812 100.685 140.423V117.96C100.381 118.871 99.3948 119.63 97.7254 120.237C96.0559 120.793 94.1081 121.072 91.8821 121.072C88.6949 121.072 86.4942 121.729 85.28 123.045C84.1165 124.31 83.5347 126.662 83.5347 130.102V140.423C83.5347 142.143 83.1046 143.433 82.2446 144.293C81.4352 145.102 80.0945 145.507 78.2226 145.507Z" fill="#09A270"/>
<path d="M132.955 140.423C132.955 143.812 131.185 145.507 127.643 145.507C125.923 145.507 124.557 145.077 123.546 144.217C122.534 143.357 122.028 142.092 122.028 140.423V110.372C122.028 103.39 123.444 98.4071 126.277 95.4223C129.111 92.4374 133.537 90.945 139.558 90.945C145.73 90.945 150.283 92.4627 153.217 95.4981C156.151 98.5336 157.618 103.491 157.618 110.372V140.423C157.618 143.812 155.848 145.507 152.306 145.507C150.586 145.507 149.22 145.077 148.209 144.217C147.197 143.357 146.691 142.092 146.691 140.423V122.134C145.73 122.994 144.667 123.728 143.504 124.335C142.391 124.942 141.075 125.245 139.558 125.245C137.332 125.245 135.662 125.65 134.549 126.46C133.487 127.269 132.955 128.711 132.955 130.785V140.423ZM132.5 118.188C133.31 117.379 134.271 116.746 135.384 116.291C136.547 115.836 137.939 115.608 139.558 115.608C141.48 115.608 142.947 115.456 143.959 115.153C145.021 114.849 145.755 114.267 146.16 113.407C146.564 112.547 146.767 111.282 146.767 109.613C146.767 105.869 146.235 103.314 145.173 101.948C144.111 100.532 142.214 99.8237 139.482 99.8237C136.952 99.8237 135.207 100.557 134.246 102.024C133.335 103.441 132.88 106.072 132.88 109.916C132.88 111.89 132.854 113.559 132.804 114.925C132.753 116.291 132.652 117.379 132.5 118.188Z" fill="#09A270"/>
<path d="M173.368 145.355C171.648 145.355 170.282 144.976 169.27 144.217C168.258 143.408 167.752 142.269 167.752 140.802V108.019C167.752 102.151 169.295 97.8506 172.381 95.1187C175.518 92.3362 180.4 90.945 187.027 90.945C192.44 90.945 196.564 92.3109 199.397 95.0428C202.28 97.7241 203.722 101.62 203.722 106.729C203.722 108.5 203.672 110.22 203.57 111.89C203.469 113.508 203.317 114.647 203.115 115.304C202.356 118.087 200.965 120.212 198.941 121.679C201.673 123.955 203.039 126.586 203.039 129.571V140.802C203.039 143.939 201.294 145.507 197.803 145.507C196.083 145.507 194.717 145.128 193.705 144.369C192.693 143.559 192.187 142.37 192.187 140.802V130.785C192.187 128.053 191.757 126.131 190.897 125.018C190.088 123.905 188.418 123.348 185.889 123.348C183.157 123.348 181.26 123.955 180.197 125.17C179.186 126.333 178.68 128.509 178.68 131.696V140.802C178.68 143.838 176.909 145.355 173.368 145.355ZM178.073 117.126C179.337 116.063 180.45 115.38 181.412 115.077C182.423 114.723 183.865 114.546 185.737 114.546C188.267 114.546 190.113 114.419 191.277 114.166C192.491 113.913 193.275 113.382 193.629 112.573C193.983 111.763 194.16 110.498 194.16 108.778C194.16 105.338 193.629 102.96 192.567 101.645C191.555 100.279 189.709 99.596 187.027 99.596C184.042 99.596 181.918 100.279 180.653 101.645C179.439 103.011 178.832 105.389 178.832 108.778C178.832 110.448 178.756 111.94 178.604 113.255C178.503 114.52 178.326 115.81 178.073 117.126Z" fill="#09A270"/>
<path d="M223.885 140.423C223.885 143.812 222.115 145.507 218.573 145.507C216.853 145.507 215.487 145.077 214.475 144.217C213.464 143.357 212.958 142.092 212.958 140.423V110.372C212.958 103.39 214.374 98.4071 217.207 95.4223C220.04 92.4374 224.467 90.945 230.487 90.945C236.659 90.945 241.213 92.4627 244.147 95.4981C247.081 98.5336 248.548 103.491 248.548 110.372V140.423C248.548 143.812 246.778 145.507 243.236 145.507C241.516 145.507 240.15 145.077 239.138 144.217C238.127 143.357 237.621 142.092 237.621 140.423V122.134C236.659 122.994 235.597 123.728 234.433 124.335C233.32 124.942 232.005 125.245 230.487 125.245C228.261 125.245 226.592 125.65 225.479 126.46C224.416 127.269 223.885 128.711 223.885 130.785V140.423ZM223.43 118.188C224.239 117.379 225.201 116.746 226.314 116.291C227.477 115.836 228.868 115.608 230.487 115.608C232.41 115.608 233.877 115.456 234.889 115.153C235.951 114.849 236.685 114.267 237.089 113.407C237.494 112.547 237.697 111.282 237.697 109.613C237.697 105.869 237.165 103.314 236.103 101.948C235.041 100.532 233.143 99.8237 230.411 99.8237C227.882 99.8237 226.137 100.557 225.175 102.024C224.265 103.441 223.809 106.072 223.809 109.916C223.809 111.89 223.784 113.559 223.734 114.925C223.683 116.291 223.582 117.379 223.43 118.188Z" fill="#09A270"/>
<path d="M271.581 145.507C270.317 145.507 269.027 145.229 267.711 144.672C266.446 144.065 265.814 143.104 265.814 141.789V106.274C265.814 104.655 266.219 103.542 267.028 102.935C267.838 102.328 268.495 101.948 269.001 101.797H254.355C253.141 101.797 252.23 101.265 251.623 100.203C251.067 99.0901 250.789 97.9518 250.789 96.7882C250.789 95.5234 251.092 94.3852 251.699 93.3733C252.306 92.3109 253.192 91.7797 254.355 91.7797H288.276C289.44 91.7797 290.325 92.3109 290.932 93.3733C291.539 94.3852 291.843 95.5234 291.843 96.7882C291.843 97.9518 291.539 99.0901 290.932 100.203C290.376 101.265 289.491 101.797 288.276 101.797H276.742V141.789C276.742 143.053 276.21 143.989 275.148 144.596C274.136 145.204 272.947 145.507 271.581 145.507Z" fill="#09A270"/>
<g filter="url(#filter0_g_282_1011)">
<path d="M311.32 13.7043C312.445 13.2933 313.631 14.1448 313.601 15.3424L312.751 49.7061C312.717 51.0701 311.17 51.8396 310.062 51.0439L298.615 42.8274C298.073 43.5061 297.526 44.1829 296.971 44.8582C265.968 87.7927 206.277 98.3585 158.649 86.0946C112.606 76.9977 52.5302 57.3621 22.7166 104.201C19.3523 108.968 16.8544 113.162 14.1362 118.408C14.1022 118.474 14.0427 118.524 13.9719 118.547C13.9013 118.57 13.8245 118.565 13.7584 118.532C13.6923 118.499 13.6417 118.441 13.6174 118.371C13.5931 118.3 13.5967 118.223 13.6285 118.156C16.2058 112.813 18.5709 108.506 21.8306 103.59C50.4896 54.8158 114.274 72.9178 159.63 80.5171C207.699 90.8484 260.899 79.3565 288.959 38.465C289.385 37.9125 289.805 37.3587 290.223 36.8037L278.626 28.4793C277.518 27.6836 277.752 25.9718 279.034 25.5034L311.32 13.7043Z" fill="white"/>
</g>
<defs>
<filter id="filter0_g_282_1011" x="0.00156212" y="-0.000391006" width="327.2" height="132.161" filterUnits="userSpaceOnUse" color-interpolation-filters="sRGB">
<feFlood flood-opacity="0" result="BackgroundImageFix"/>
<feBlend mode="normal" in="SourceGraphic" in2="BackgroundImageFix" result="shape"/>
<feTurbulence type="fractalNoise" baseFrequency="0.66666668653488159 0.66666668653488159" numOctaves="3" seed="7656" />
<feDisplacementMap in="shape" scale="27.200000762939453" xChannelSelector="R" yChannelSelector="G" result="displacedImage" width="100%" height="100%" />
<feMerge result="effect1_texture_282_1011">
<feMergeNode in="displacedImage"/>
</feMerge>
</filter>
</defs>
</svg>
