<svg width="1771" height="1084" viewBox="0 0 1771 1084" fill="none" xmlns="http://www.w3.org/2000/svg">
<path d="M154.057 76.9043L127.738 80.3223L126.029 34.1797L97.6602 35.2051L95.9512 214.99L119.877 214.307L118.168 245.068L47.7578 246.777L46.7324 214.99H66.8984L66.5566 36.9141L35.7949 38.9648L37.5039 82.0312H9.13477L10.8438 7.86133L150.639 2.73438L154.057 76.9043ZM350.932 37.5977L333.158 36.9141L329.74 218.75H349.564L350.59 250.195L274.711 248.486V217.725L298.979 218.75L300.004 154.15H222.074V214.99H242.24L242.924 246.777L168.754 245.068V214.307L193.021 214.99L191.312 42.041L168.07 40.332L168.754 9.57031H240.189V42.7246L222.074 42.041V127.49L299.662 124.756L300.346 36.9141L277.445 35.2051L278.129 4.44336H350.932V37.5977ZM518.241 70.752L492.948 72.4609L489.53 37.2559L427.323 38.623L426.64 114.844H478.593V139.453L426.298 142.529L425.614 218.75L489.53 216.357V178.76H514.823L516.532 246.777L377.421 250.195L376.396 218.75H396.562L396.22 38.623L375.028 39.3066L376.737 6.15234L516.532 4.44336L518.241 70.752ZM750.15 73.8281C750.15 87.9557 747.872 99.8047 743.314 109.375C738.757 118.945 732.434 126.636 724.345 132.446C716.369 138.257 706.913 142.472 695.976 145.093C685.152 147.599 673.36 148.91 660.6 149.023H651.029L650.346 214.99L674.271 214.307L672.562 245.068L602.152 246.777L601.127 214.99H621.293L620.951 35.8887L601.469 36.5723L599.76 3.41797C612.52 2.84831 625.167 2.50651 637.699 2.39258C650.232 2.16471 662.878 2.05078 675.639 2.05078C686.007 2.05078 695.748 3.81673 704.862 7.34863C713.977 10.7666 721.838 15.6657 728.446 22.0459C735.168 28.3122 740.466 35.8317 744.34 44.6045C748.214 53.3773 750.15 63.1185 750.15 73.8281ZM718.705 75.1953C718.705 69.3848 717.623 63.973 715.458 58.96C713.407 53.9469 710.559 49.6175 706.913 45.9717C703.267 42.3258 698.938 39.4775 693.925 37.4268C688.912 35.262 683.5 34.1797 677.689 34.1797H666.752H652.055L651.371 119.971H659.574C667.436 119.971 674.898 119.515 681.962 118.604C689.14 117.578 695.463 115.527 700.932 112.451C706.4 109.375 710.73 104.875 713.92 98.9502C717.11 93.0257 718.705 85.1074 718.705 75.1953ZM916.947 212.598L915.238 245.068L853.373 250.195L849.271 218.75H862.26L839.018 138.77H815.775L815.092 218.75L835.6 217.725L833.891 250.195H768.607L765.873 218.75H786.039L785.697 35.8887L766.215 36.5723L764.506 3.41797C777.266 2.84831 789.97 2.50651 802.616 2.39258C815.377 2.16471 828.194 2.05078 841.068 2.05078C851.208 2.05078 860.779 3.47493 869.779 6.32324C878.78 9.05762 886.584 13.2161 893.192 18.7988C899.914 24.3815 905.212 31.3314 909.086 39.6484C912.96 47.9655 914.896 57.6497 914.896 68.7012C914.896 75.9928 913.871 83.2275 911.82 90.4053C909.77 97.583 906.75 104.248 902.763 110.4C898.775 116.439 893.876 121.68 888.065 126.123C882.255 130.566 875.59 133.643 868.07 135.352L893.021 213.281L916.947 212.598ZM883.451 70.0684C883.451 64.2578 882.426 59.1309 880.375 54.6875C878.438 50.2441 875.704 46.4844 872.172 43.4082C868.64 40.332 864.481 38.0534 859.696 36.5723C854.911 34.9772 849.727 34.1797 844.145 34.1797H831.498H816.801L816.117 109.717H824.32C831.84 109.717 839.132 109.432 846.195 108.862C853.373 108.179 859.696 106.527 865.165 103.906C870.634 101.286 875.02 97.3551 878.324 92.1143C881.742 86.7594 883.451 79.4108 883.451 70.0684ZM1078.79 70.752L1053.5 72.4609L1050.08 37.2559L987.87 38.623L987.187 114.844H1039.14V139.453L986.845 142.529L986.161 218.75L1050.08 216.357V178.76H1075.37L1077.08 246.777L937.968 250.195L936.942 218.75H957.108L956.767 38.623L935.575 39.3066L937.284 6.15234L1077.08 4.44336L1078.79 70.752ZM1237.21 183.203C1237.21 192.432 1236.01 201.147 1233.62 209.351C1231.34 217.44 1227.81 224.504 1223.03 230.542C1218.24 236.58 1212.15 241.366 1204.74 244.897C1197.45 248.429 1188.79 250.195 1178.76 250.195C1172.73 250.195 1167.31 249.626 1162.53 248.486C1157.74 247.461 1153.36 245.809 1149.37 243.53C1145.5 241.138 1141.85 238.118 1138.43 234.473C1135.13 230.827 1131.94 226.497 1128.86 221.484L1128.52 247.803L1098.44 243.701L1103.91 165.43L1129.2 166.455C1130.23 172.493 1131.82 178.817 1133.99 185.425C1136.15 191.919 1139 197.9 1142.53 203.369C1146.18 208.838 1150.62 213.338 1155.86 216.87C1161.22 220.402 1167.6 222.168 1175 222.168C1180.93 222.168 1185.88 221.2 1189.87 219.263C1193.97 217.326 1197.28 214.648 1199.78 211.23C1202.29 207.812 1204.06 203.768 1205.08 199.097C1206.22 194.425 1206.79 189.355 1206.79 183.887C1206.79 177.734 1205.77 172.266 1203.71 167.48C1201.78 162.581 1199.04 158.309 1195.51 154.663C1191.98 150.903 1187.82 147.713 1183.04 145.093C1178.36 142.358 1173.29 140.023 1167.83 138.086C1161.56 135.921 1155.52 133.643 1149.71 131.25C1144.01 128.857 1138.66 126.237 1133.65 123.389C1128.63 120.426 1124.02 117.179 1119.8 113.647C1115.7 110.002 1112.17 105.843 1109.21 101.172C1106.25 96.5007 1103.91 91.2028 1102.2 85.2783C1100.61 79.3538 1099.81 72.5749 1099.81 64.9414C1099.81 55.485 1101.23 46.7692 1104.08 38.7939C1106.93 30.8187 1111.03 23.9827 1116.39 18.2861C1121.74 12.4756 1128.23 7.97526 1135.87 4.78516C1143.5 1.59505 1152.1 0 1161.67 0C1167.71 0 1172.9 0.569661 1177.23 1.70898C1181.67 2.84831 1185.6 4.61426 1189.02 7.00684C1192.44 9.39941 1195.57 12.4186 1198.42 16.0645C1201.27 19.5964 1204.17 23.8118 1207.13 28.7109L1207.47 0.683594L1237.21 1.36719L1233.45 88.5254L1206.79 87.5C1205.99 83.2845 1205.08 78.9551 1204.06 74.5117C1203.15 69.9544 1201.89 65.568 1200.3 61.3525C1198.7 57.137 1196.82 53.1494 1194.66 49.3896C1192.49 45.516 1189.87 42.1549 1186.8 39.3066C1183.83 36.4583 1180.36 34.2367 1176.37 32.6416C1172.38 30.9326 1167.83 30.0781 1162.7 30.0781C1157.46 30.0781 1152.9 31.1035 1149.03 33.1543C1145.27 35.0911 1142.13 37.7686 1139.63 41.1865C1137.12 44.4906 1135.24 48.3643 1133.99 52.8076C1132.85 57.137 1132.28 61.6374 1132.28 66.3086C1132.28 72.9167 1133.36 78.5563 1135.53 83.2275C1137.69 87.8988 1140.6 91.9434 1144.24 95.3613C1148 98.6654 1152.33 101.514 1157.23 103.906C1162.13 106.299 1167.37 108.464 1172.95 110.4C1181.5 113.477 1189.64 117.122 1197.39 121.338C1205.14 125.553 1211.97 130.566 1217.9 136.377C1223.82 142.188 1228.5 148.966 1231.91 156.714C1235.44 164.347 1237.21 173.177 1237.21 183.203ZM1404.52 70.752L1379.23 72.4609L1375.81 37.2559L1313.6 38.623L1312.92 114.844H1364.87V139.453L1312.58 142.529L1311.89 218.75L1375.81 216.357V178.76H1401.1L1402.81 246.777L1263.7 250.195L1262.67 218.75H1282.84L1282.5 38.623L1261.31 39.3066L1263.02 6.15234L1402.81 4.44336L1404.52 70.752ZM1606.86 35.2051L1587.04 36.9141L1581.91 249.512L1552.18 250.195L1475.27 64.2578L1476.98 214.99L1500.22 214.307V245.068L1427.08 246.777L1426.05 214.99H1446.22L1444.17 40.332L1422.98 41.0156L1424.69 7.86133H1482.11L1554.57 189.355V36.9141L1533.04 37.5977L1534.75 4.44336H1604.47L1606.86 35.2051ZM1764.26 76.9043L1737.94 80.3223L1736.23 34.1797L1707.87 35.2051L1706.16 214.99L1730.08 214.307L1728.37 245.068L1657.96 246.777L1656.94 214.99H1677.1L1676.76 36.9141L1646 38.9648L1647.71 82.0312H1619.34L1621.05 7.86133L1760.84 2.73438L1764.26 76.9043Z" fill="white"/>
<path d="M27.0906 399.395H11.8906L9.09063 407.145H4.29062L16.8906 372.495H22.1406L34.6906 407.145H29.8906L27.0906 399.395ZM25.7906 395.695L19.4906 378.095L13.1906 395.695H25.7906ZM80.9121 407.145H76.3621L58.0621 379.395V407.145H53.5121V372.245H58.0621L76.3621 399.945V372.245H80.9121V407.145ZM109.268 399.395H94.0684L91.2684 407.145H86.4684L99.0684 372.495H104.318L116.868 407.145H112.068L109.268 399.395ZM107.968 395.695L101.668 378.095L95.3684 395.695H107.968ZM143.81 372.295V375.995H134.31V407.145H129.76V375.995H120.21V372.295H143.81ZM153.961 372.295V407.145H149.411V372.295H153.961ZM177.515 407.495C174.282 407.495 171.332 406.745 168.665 405.245C165.999 403.711 163.882 401.595 162.315 398.895C160.782 396.161 160.015 393.095 160.015 389.695C160.015 386.295 160.782 383.245 162.315 380.545C163.882 377.811 165.999 375.695 168.665 374.195C171.332 372.661 174.282 371.895 177.515 371.895C180.782 371.895 183.749 372.661 186.415 374.195C189.082 375.695 191.182 377.795 192.715 380.495C194.249 383.195 195.015 386.261 195.015 389.695C195.015 393.128 194.249 396.195 192.715 398.895C191.182 401.595 189.082 403.711 186.415 405.245C183.749 406.745 180.782 407.495 177.515 407.495ZM177.515 403.545C179.949 403.545 182.132 402.978 184.065 401.845C186.032 400.711 187.565 399.095 188.665 396.995C189.799 394.895 190.365 392.461 190.365 389.695C190.365 386.895 189.799 384.461 188.665 382.395C187.565 380.295 186.049 378.678 184.115 377.545C182.182 376.411 179.982 375.845 177.515 375.845C175.049 375.845 172.849 376.411 170.915 377.545C168.982 378.678 167.449 380.295 166.315 382.395C165.215 384.461 164.665 386.895 164.665 389.695C164.665 392.461 165.215 394.895 166.315 396.995C167.449 399.095 168.982 400.711 170.915 401.845C172.882 402.978 175.082 403.545 177.515 403.545ZM228.422 407.145H223.872L205.572 379.395V407.145H201.022V372.245H205.572L223.872 399.945V372.245H228.422V407.145ZM270.108 399.395H254.908L252.108 407.145H247.308L259.908 372.495H265.158L277.708 407.145H272.908L270.108 399.395ZM268.808 395.695L262.508 378.095L256.208 395.695H268.808ZM327 372.295L316.9 407.145H311.8L303.7 379.095L295.3 407.145L290.25 407.195L280.5 372.295H285.35L292.95 401.845L301.35 372.295H306.45L314.45 401.745L322.1 372.295H327ZM352.579 399.395H337.379L334.579 407.145H329.779L342.379 372.495H347.629L360.179 407.145H355.379L352.579 399.395ZM351.279 395.695L344.979 378.095L338.679 395.695H351.279ZM384.57 407.145L370.22 391.245V407.145H365.67V372.295H370.22V388.445L384.62 372.295H390.37L374.57 389.745L390.52 407.145H384.57ZM400.152 375.995V387.645H412.852V391.395H400.152V403.395H414.352V407.145H395.602V372.245H414.352V375.995H400.152ZM448.637 407.145H444.087L425.787 379.395V407.145H421.237V372.245H425.787L444.087 399.945V372.245H448.637V407.145ZM460.943 372.295V407.145H456.393V372.295H460.943ZM496.098 407.145H491.548L473.248 379.395V407.145H468.698V372.245H473.248L491.548 399.945V372.245H496.098V407.145ZM530.254 382.395C529.287 380.361 527.887 378.795 526.054 377.695C524.221 376.561 522.087 375.995 519.654 375.995C517.221 375.995 515.021 376.561 513.054 377.695C511.121 378.795 509.587 380.395 508.454 382.495C507.354 384.561 506.804 386.961 506.804 389.695C506.804 392.428 507.354 394.828 508.454 396.895C509.587 398.961 511.121 400.561 513.054 401.695C515.021 402.795 517.221 403.345 519.654 403.345C523.054 403.345 525.854 402.328 528.054 400.295C530.254 398.261 531.537 395.511 531.904 392.045H518.004V388.345H536.754V391.845C536.487 394.711 535.587 397.345 534.054 399.745C532.521 402.111 530.504 403.995 528.004 405.395C525.504 406.761 522.721 407.445 519.654 407.445C516.421 407.445 513.471 406.695 510.804 405.195C508.137 403.661 506.021 401.545 504.454 398.845C502.921 396.145 502.154 393.095 502.154 389.695C502.154 386.295 502.921 383.245 504.454 380.545C506.021 377.811 508.137 375.695 510.804 374.195C513.471 372.661 516.421 371.895 519.654 371.895C523.354 371.895 526.621 372.811 529.454 374.645C532.321 376.478 534.404 379.061 535.704 382.395H530.254ZM576.7 399.395H561.5L558.7 407.145H553.9L566.5 372.495H571.75L584.3 407.145H579.5L576.7 399.395ZM575.4 395.695L569.1 378.095L562.8 395.695H575.4ZM617.191 407.145H612.641L594.341 379.395V407.145H589.791V372.245H594.341L612.641 399.945V372.245H617.191V407.145ZM635.798 372.295C639.598 372.295 642.881 373.011 645.648 374.445C648.448 375.845 650.581 377.861 652.048 380.495C653.548 383.128 654.298 386.228 654.298 389.795C654.298 393.361 653.548 396.461 652.048 399.095C650.581 401.695 648.448 403.695 645.648 405.095C642.881 406.461 639.598 407.145 635.798 407.145H624.948V372.295H635.798ZM635.798 403.395C640.298 403.395 643.731 402.211 646.098 399.845C648.464 397.445 649.648 394.095 649.648 389.795C649.648 385.461 648.448 382.078 646.048 379.645C643.681 377.211 640.264 375.995 635.798 375.995H629.498V403.395H635.798ZM691.979 407.145L683.679 392.895H678.179V407.145H673.629V372.295H684.879C687.513 372.295 689.729 372.745 691.529 373.645C693.363 374.545 694.729 375.761 695.629 377.295C696.529 378.828 696.979 380.578 696.979 382.545C696.979 384.945 696.279 387.061 694.879 388.895C693.513 390.728 691.446 391.945 688.679 392.545L697.429 407.145H691.979ZM678.179 389.245H684.879C687.346 389.245 689.196 388.645 690.429 387.445C691.663 386.211 692.279 384.578 692.279 382.545C692.279 380.478 691.663 378.878 690.429 377.745C689.229 376.611 687.379 376.045 684.879 376.045H678.179V389.245ZM708.599 372.295V407.145H704.049V372.295H708.599ZM727.404 407.495C725.104 407.495 723.037 407.095 721.204 406.295C719.404 405.461 717.987 404.328 716.954 402.895C715.921 401.428 715.387 399.745 715.354 397.845H720.204C720.371 399.478 721.037 400.861 722.204 401.995C723.404 403.095 725.137 403.645 727.404 403.645C729.571 403.645 731.271 403.111 732.504 402.045C733.771 400.945 734.404 399.545 734.404 397.845C734.404 396.511 734.037 395.428 733.304 394.595C732.571 393.761 731.654 393.128 730.554 392.695C729.454 392.261 727.971 391.795 726.104 391.295C723.804 390.695 721.954 390.095 720.554 389.495C719.187 388.895 718.004 387.961 717.004 386.695C716.037 385.395 715.554 383.661 715.554 381.495C715.554 379.595 716.037 377.911 717.004 376.445C717.971 374.978 719.321 373.845 721.054 373.045C722.821 372.245 724.837 371.845 727.104 371.845C730.371 371.845 733.037 372.661 735.104 374.295C737.204 375.928 738.387 378.095 738.654 380.795H733.654C733.487 379.461 732.787 378.295 731.554 377.295C730.321 376.261 728.687 375.745 726.654 375.745C724.754 375.745 723.204 376.245 722.004 377.245C720.804 378.211 720.204 379.578 720.204 381.345C720.204 382.611 720.554 383.645 721.254 384.445C721.987 385.245 722.871 385.861 723.904 386.295C724.971 386.695 726.454 387.161 728.354 387.695C730.654 388.328 732.504 388.961 733.904 389.595C735.304 390.195 736.504 391.145 737.504 392.445C738.504 393.711 739.004 395.445 739.004 397.645C739.004 399.345 738.554 400.945 737.654 402.445C736.754 403.945 735.421 405.161 733.654 406.095C731.887 407.028 729.804 407.495 727.404 407.495ZM750.25 372.295V407.145H745.7V372.295H750.25ZM785.404 407.145H780.854L762.554 379.395V407.145H758.004V372.245H762.554L780.854 399.945V372.245H785.404V407.145ZM819.561 382.395C818.594 380.361 817.194 378.795 815.361 377.695C813.527 376.561 811.394 375.995 808.961 375.995C806.527 375.995 804.327 376.561 802.361 377.695C800.427 378.795 798.894 380.395 797.761 382.495C796.661 384.561 796.111 386.961 796.111 389.695C796.111 392.428 796.661 394.828 797.761 396.895C798.894 398.961 800.427 400.561 802.361 401.695C804.327 402.795 806.527 403.345 808.961 403.345C812.361 403.345 815.161 402.328 817.361 400.295C819.561 398.261 820.844 395.511 821.211 392.045H807.311V388.345H826.061V391.845C825.794 394.711 824.894 397.345 823.361 399.745C821.827 402.111 819.811 403.995 817.311 405.395C814.811 406.761 812.027 407.445 808.961 407.445C805.727 407.445 802.777 406.695 800.111 405.195C797.444 403.661 795.327 401.545 793.761 398.845C792.227 396.145 791.461 393.095 791.461 389.695C791.461 386.295 792.227 383.245 793.761 380.545C795.327 377.811 797.444 375.695 800.111 374.195C802.777 372.661 805.727 371.895 808.961 371.895C812.661 371.895 815.927 372.811 818.761 374.645C821.627 376.478 823.711 379.061 825.011 382.395H819.561ZM866.857 372.295V375.995H857.357V407.145H852.807V375.995H843.257V372.295H866.857ZM899.307 372.295V407.145H894.757V391.345H877.007V407.145H872.457V372.295H877.007V387.595H894.757V372.295H899.307ZM911.627 375.995V387.645H924.327V391.395H911.627V403.395H925.827V407.145H907.077V372.245H925.827V375.995H911.627ZM972.891 372.295V407.145H968.341V391.345H950.591V407.145H946.041V372.295H950.591V387.595H968.341V372.295H972.891ZM985.211 372.295V407.145H980.661V372.295H985.211ZM1019.37 382.395C1018.4 380.361 1017 378.795 1015.17 377.695C1013.33 376.561 1011.2 375.995 1008.77 375.995C1006.33 375.995 1004.13 376.561 1002.17 377.695C1000.23 378.795 998.699 380.395 997.565 382.495C996.465 384.561 995.915 386.961 995.915 389.695C995.915 392.428 996.465 394.828 997.565 396.895C998.699 398.961 1000.23 400.561 1002.17 401.695C1004.13 402.795 1006.33 403.345 1008.77 403.345C1012.17 403.345 1014.97 402.328 1017.17 400.295C1019.37 398.261 1020.65 395.511 1021.02 392.045H1007.12V388.345H1025.87V391.845C1025.6 394.711 1024.7 397.345 1023.17 399.745C1021.63 402.111 1019.62 403.995 1017.12 405.395C1014.62 406.761 1011.83 407.445 1008.77 407.445C1005.53 407.445 1002.58 406.695 999.915 405.195C997.249 403.661 995.132 401.545 993.565 398.845C992.032 396.145 991.265 393.095 991.265 389.695C991.265 386.295 992.032 383.245 993.565 380.545C995.132 377.811 997.249 375.695 999.915 374.195C1002.58 372.661 1005.53 371.895 1008.77 371.895C1012.47 371.895 1015.73 372.811 1018.57 374.645C1021.43 376.478 1023.52 379.061 1024.82 382.395H1019.37ZM1058.73 372.295V407.145H1054.18V391.345H1036.43V407.145H1031.88V372.295H1036.43V387.595H1054.18V372.295H1058.73ZM1087.95 372.295V375.995H1078.45V407.145H1073.9V375.995H1064.35V372.295H1087.95ZM1104.6 407.495C1102.3 407.495 1100.23 407.095 1098.4 406.295C1096.6 405.461 1095.18 404.328 1094.15 402.895C1093.12 401.428 1092.58 399.745 1092.55 397.845H1097.4C1097.57 399.478 1098.23 400.861 1099.4 401.995C1100.6 403.095 1102.33 403.645 1104.6 403.645C1106.77 403.645 1108.47 403.111 1109.7 402.045C1110.97 400.945 1111.6 399.545 1111.6 397.845C1111.6 396.511 1111.23 395.428 1110.5 394.595C1109.77 393.761 1108.85 393.128 1107.75 392.695C1106.65 392.261 1105.17 391.795 1103.3 391.295C1101 390.695 1099.15 390.095 1097.75 389.495C1096.38 388.895 1095.2 387.961 1094.2 386.695C1093.23 385.395 1092.75 383.661 1092.75 381.495C1092.75 379.595 1093.23 377.911 1094.2 376.445C1095.17 374.978 1096.52 373.845 1098.25 373.045C1100.02 372.245 1102.03 371.845 1104.3 371.845C1107.57 371.845 1110.23 372.661 1112.3 374.295C1114.4 375.928 1115.58 378.095 1115.85 380.795H1110.85C1110.68 379.461 1109.98 378.295 1108.75 377.295C1107.52 376.261 1105.88 375.745 1103.85 375.745C1101.95 375.745 1100.4 376.245 1099.2 377.245C1098 378.211 1097.4 379.578 1097.4 381.345C1097.4 382.611 1097.75 383.645 1098.45 384.445C1099.18 385.245 1100.07 385.861 1101.1 386.295C1102.17 386.695 1103.65 387.161 1105.55 387.695C1107.85 388.328 1109.7 388.961 1111.1 389.595C1112.5 390.195 1113.7 391.145 1114.7 392.445C1115.7 393.711 1116.2 395.445 1116.2 397.645C1116.2 399.345 1115.75 400.945 1114.85 402.445C1113.95 403.945 1112.62 405.161 1110.85 406.095C1109.08 407.028 1107 407.495 1104.6 407.495Z" fill="white"/>
<path d="M89.2406 673.145H79.0406L88.6406 650.445H95.1406L89.2406 673.145ZM105.441 673.145H95.2406L104.841 650.445H111.341L105.441 673.145ZM165.229 650.445V657.845H146.229V720.145H137.129V657.845H118.029V650.445H165.229ZM203.63 664.345C207.764 664.345 211.497 665.245 214.83 667.045C218.164 668.778 220.764 671.411 222.63 674.945C224.564 678.478 225.53 682.778 225.53 687.845V720.145H216.53V689.145C216.53 683.678 215.164 679.511 212.43 676.645C209.697 673.711 205.964 672.245 201.23 672.245C196.43 672.245 192.597 673.745 189.73 676.745C186.93 679.745 185.53 684.111 185.53 689.845V720.145H176.43V646.145H185.53V673.145C187.33 670.345 189.797 668.178 192.93 666.645C196.13 665.111 199.697 664.345 203.63 664.345ZM290.395 690.645C290.395 692.378 290.295 694.211 290.095 696.145H246.295C246.629 701.545 248.462 705.778 251.795 708.845C255.195 711.845 259.295 713.345 264.095 713.345C268.029 713.345 271.295 712.445 273.895 710.645C276.562 708.778 278.429 706.311 279.495 703.245H289.295C287.829 708.511 284.895 712.811 280.495 716.145C276.095 719.411 270.629 721.045 264.095 721.045C258.895 721.045 254.229 719.878 250.095 717.545C246.029 715.211 242.829 711.911 240.495 707.645C238.162 703.311 236.995 698.311 236.995 692.645C236.995 686.978 238.129 682.011 240.395 677.745C242.662 673.478 245.829 670.211 249.895 667.945C254.029 665.611 258.762 664.445 264.095 664.445C269.295 664.445 273.895 665.578 277.895 667.845C281.895 670.111 284.962 673.245 287.095 677.245C289.295 681.178 290.395 685.645 290.395 690.645ZM280.995 688.745C280.995 685.278 280.229 682.311 278.695 679.845C277.162 677.311 275.062 675.411 272.395 674.145C269.795 672.811 266.895 672.145 263.695 672.145C259.095 672.145 255.162 673.611 251.895 676.545C248.695 679.478 246.862 683.545 246.395 688.745H280.995ZM402.067 665.345L384.967 720.145H375.567L362.367 676.645L349.167 720.145H339.767L322.567 665.345H331.867L344.467 711.345L358.067 665.345H367.367L380.667 711.445L393.067 665.345H402.067ZM434.998 721.045C429.865 721.045 425.198 719.878 420.998 717.545C416.865 715.211 413.598 711.911 411.198 707.645C408.865 703.311 407.698 698.311 407.698 692.645C407.698 687.045 408.898 682.111 411.298 677.845C413.765 673.511 417.098 670.211 421.298 667.945C425.498 665.611 430.198 664.445 435.398 664.445C440.598 664.445 445.298 665.611 449.498 667.945C453.698 670.211 456.998 673.478 459.398 677.745C461.865 682.011 463.098 686.978 463.098 692.645C463.098 698.311 461.832 703.311 459.298 707.645C456.832 711.911 453.465 715.211 449.198 717.545C444.932 719.878 440.198 721.045 434.998 721.045ZM434.998 713.045C438.265 713.045 441.332 712.278 444.198 710.745C447.065 709.211 449.365 706.911 451.098 703.845C452.898 700.778 453.798 697.045 453.798 692.645C453.798 688.245 452.932 684.511 451.198 681.445C449.465 678.378 447.198 676.111 444.398 674.645C441.598 673.111 438.565 672.345 435.298 672.345C431.965 672.345 428.898 673.111 426.098 674.645C423.365 676.111 421.165 678.378 419.498 681.445C417.832 684.511 416.998 688.245 416.998 692.645C416.998 697.111 417.798 700.878 419.398 703.945C421.065 707.011 423.265 709.311 425.998 710.845C428.732 712.311 431.732 713.045 434.998 713.045ZM484.163 674.245C485.763 671.111 488.03 668.678 490.963 666.945C493.963 665.211 497.597 664.345 501.863 664.345V673.745H499.463C489.263 673.745 484.163 679.278 484.163 690.345V720.145H475.063V665.345H484.163V674.245ZM521.468 646.145V720.145H512.368V646.145H521.468ZM533.577 692.545C533.577 686.945 534.711 682.045 536.977 677.845C539.244 673.578 542.344 670.278 546.277 667.945C550.277 665.611 554.744 664.445 559.677 664.445C563.944 664.445 567.911 665.445 571.577 667.445C575.244 669.378 578.044 671.945 579.977 675.145V646.145H589.177V720.145H579.977V709.845C578.177 713.111 575.511 715.811 571.977 717.945C568.444 720.011 564.311 721.045 559.577 721.045C554.711 721.045 550.277 719.845 546.277 717.445C542.344 715.045 539.244 711.678 536.977 707.345C534.711 703.011 533.577 698.078 533.577 692.545ZM579.977 692.645C579.977 688.511 579.144 684.911 577.477 681.845C575.811 678.778 573.544 676.445 570.677 674.845C567.877 673.178 564.777 672.345 561.377 672.345C557.977 672.345 554.877 673.145 552.077 674.745C549.277 676.345 547.044 678.678 545.377 681.745C543.711 684.811 542.877 688.411 542.877 692.545C542.877 696.745 543.711 700.411 545.377 703.545C547.044 706.611 549.277 708.978 552.077 710.645C554.877 712.245 557.977 713.045 561.377 713.045C564.777 713.045 567.877 712.245 570.677 710.645C573.544 708.978 575.811 706.611 577.477 703.545C579.144 700.411 579.977 696.778 579.977 692.645ZM655.116 721.045C649.982 721.045 645.316 719.878 641.116 717.545C636.982 715.211 633.716 711.911 631.316 707.645C628.982 703.311 627.816 698.311 627.816 692.645C627.816 687.045 629.016 682.111 631.416 677.845C633.882 673.511 637.216 670.211 641.416 667.945C645.616 665.611 650.316 664.445 655.516 664.445C660.716 664.445 665.416 665.611 669.616 667.945C673.816 670.211 677.116 673.478 679.516 677.745C681.982 682.011 683.216 686.978 683.216 692.645C683.216 698.311 681.949 703.311 679.416 707.645C676.949 711.911 673.582 715.211 669.316 717.545C665.049 719.878 660.316 721.045 655.116 721.045ZM655.116 713.045C658.382 713.045 661.449 712.278 664.316 710.745C667.182 709.211 669.482 706.911 671.216 703.845C673.016 700.778 673.916 697.045 673.916 692.645C673.916 688.245 673.049 684.511 671.316 681.445C669.582 678.378 667.316 676.111 664.516 674.645C661.716 673.111 658.682 672.345 655.416 672.345C652.082 672.345 649.016 673.111 646.216 674.645C643.482 676.111 641.282 678.378 639.616 681.445C637.949 684.511 637.116 688.245 637.116 692.645C637.116 697.111 637.916 700.878 639.516 703.945C641.182 707.011 643.382 709.311 646.116 710.845C648.849 712.311 651.849 713.045 655.116 713.045ZM721.88 664.345C728.547 664.345 733.947 666.378 738.08 670.445C742.214 674.445 744.28 680.245 744.28 687.845V720.145H735.28V689.145C735.28 683.678 733.914 679.511 731.18 676.645C728.447 673.711 724.714 672.245 719.98 672.245C715.18 672.245 711.347 673.745 708.48 676.745C705.68 679.745 704.28 684.111 704.28 689.845V720.145H695.18V665.345H704.28V673.145C706.08 670.345 708.514 668.178 711.58 666.645C714.714 665.111 718.147 664.345 721.88 664.345ZM755.745 692.645C755.745 686.978 756.879 682.045 759.145 677.845C761.412 673.578 764.545 670.278 768.545 667.945C772.612 665.611 777.245 664.445 782.445 664.445C789.179 664.445 794.712 666.078 799.045 669.345C803.445 672.611 806.345 677.145 807.745 682.945H797.945C797.012 679.611 795.179 676.978 792.445 675.045C789.779 673.111 786.445 672.145 782.445 672.145C777.245 672.145 773.045 673.945 769.845 677.545C766.645 681.078 765.045 686.111 765.045 692.645C765.045 699.245 766.645 704.345 769.845 707.945C773.045 711.545 777.245 713.345 782.445 713.345C786.445 713.345 789.779 712.411 792.445 710.545C795.112 708.678 796.945 706.011 797.945 702.545H807.745C806.279 708.145 803.345 712.645 798.945 716.045C794.545 719.378 789.045 721.045 782.445 721.045C777.245 721.045 772.612 719.878 768.545 717.545C764.545 715.211 761.412 711.911 759.145 707.645C756.879 703.378 755.745 698.378 755.745 692.645ZM869.888 690.645C869.888 692.378 869.788 694.211 869.588 696.145H825.788C826.121 701.545 827.954 705.778 831.288 708.845C834.688 711.845 838.788 713.345 843.588 713.345C847.521 713.345 850.788 712.445 853.388 710.645C856.054 708.778 857.921 706.311 858.988 703.245H868.788C867.321 708.511 864.388 712.811 859.988 716.145C855.588 719.411 850.121 721.045 843.588 721.045C838.388 721.045 833.721 719.878 829.588 717.545C825.521 715.211 822.321 711.911 819.988 707.645C817.654 703.311 816.488 698.311 816.488 692.645C816.488 686.978 817.621 682.011 819.888 677.745C822.154 673.478 825.321 670.211 829.388 667.945C833.521 665.611 838.254 664.445 843.588 664.445C848.788 664.445 853.388 665.578 857.388 667.845C861.388 670.111 864.454 673.245 866.588 677.245C868.788 681.178 869.888 685.645 869.888 690.645ZM860.488 688.745C860.488 685.278 859.721 682.311 858.188 679.845C856.654 677.311 854.554 675.411 851.888 674.145C849.288 672.811 846.388 672.145 843.188 672.145C838.588 672.145 834.654 673.611 831.388 676.545C828.188 679.478 826.354 683.545 825.888 688.745H860.488ZM157.341 815.345L140.241 870.145H130.841L117.641 826.645L104.441 870.145H95.0406L77.8406 815.345H87.1406L99.7406 861.345L113.341 815.345H122.641L135.941 861.445L148.341 815.345H157.341ZM162.972 842.545C162.972 836.945 164.105 832.045 166.372 827.845C168.639 823.578 171.739 820.278 175.672 817.945C179.672 815.611 184.105 814.445 188.972 814.445C193.772 814.445 197.939 815.478 201.472 817.545C205.005 819.611 207.639 822.211 209.372 825.345V815.345H218.572V870.145H209.372V859.945C207.572 863.145 204.872 865.811 201.272 867.945C197.739 870.011 193.605 871.045 188.872 871.045C184.005 871.045 179.605 869.845 175.672 867.445C171.739 865.045 168.639 861.678 166.372 857.345C164.105 853.011 162.972 848.078 162.972 842.545ZM209.372 842.645C209.372 838.511 208.539 834.911 206.872 831.845C205.205 828.778 202.939 826.445 200.072 824.845C197.272 823.178 194.172 822.345 190.772 822.345C187.372 822.345 184.272 823.145 181.472 824.745C178.672 826.345 176.439 828.678 174.772 831.745C173.105 834.811 172.272 838.411 172.272 842.545C172.272 846.745 173.105 850.411 174.772 853.545C176.439 856.611 178.672 858.978 181.472 860.645C184.272 862.245 187.372 863.045 190.772 863.045C194.172 863.045 197.272 862.245 200.072 860.645C202.939 858.978 205.205 856.611 206.872 853.545C208.539 850.411 209.372 846.778 209.372 842.645ZM245.05 822.845V855.145C245.05 857.811 245.617 859.711 246.75 860.845C247.883 861.911 249.85 862.445 252.65 862.445H259.35V870.145H251.15C246.083 870.145 242.283 868.978 239.75 866.645C237.217 864.311 235.95 860.478 235.95 855.145V822.845H228.85V815.345H235.95V801.545H245.05V815.345H259.35V822.845H245.05ZM266.976 842.645C266.976 836.978 268.109 832.045 270.376 827.845C272.642 823.578 275.776 820.278 279.776 817.945C283.842 815.611 288.476 814.445 293.676 814.445C300.409 814.445 305.942 816.078 310.276 819.345C314.676 822.611 317.576 827.145 318.976 832.945H309.176C308.242 829.611 306.409 826.978 303.676 825.045C301.009 823.111 297.676 822.145 293.676 822.145C288.476 822.145 284.276 823.945 281.076 827.545C277.876 831.078 276.276 836.111 276.276 842.645C276.276 849.245 277.876 854.345 281.076 857.945C284.276 861.545 288.476 863.345 293.676 863.345C297.676 863.345 301.009 862.411 303.676 860.545C306.342 858.678 308.176 856.011 309.176 852.545H318.976C317.509 858.145 314.576 862.645 310.176 866.045C305.776 869.378 300.276 871.045 293.676 871.045C288.476 871.045 283.842 869.878 279.776 867.545C275.776 865.211 272.642 861.911 270.376 857.645C268.109 853.378 266.976 848.378 266.976 842.645ZM358.318 814.345C362.451 814.345 366.185 815.245 369.518 817.045C372.851 818.778 375.451 821.411 377.318 824.945C379.251 828.478 380.218 832.778 380.218 837.845V870.145H371.218V839.145C371.218 833.678 369.851 829.511 367.118 826.645C364.385 823.711 360.651 822.245 355.918 822.245C351.118 822.245 347.285 823.745 344.418 826.745C341.618 829.745 340.218 834.111 340.218 839.845V870.145H331.118V796.145H340.218V823.145C342.018 820.345 344.485 818.178 347.618 816.645C350.818 815.111 354.385 814.345 358.318 814.345ZM445.083 840.645C445.083 842.378 444.983 844.211 444.783 846.145H400.983C401.316 851.545 403.149 855.778 406.483 858.845C409.883 861.845 413.983 863.345 418.783 863.345C422.716 863.345 425.983 862.445 428.583 860.645C431.249 858.778 433.116 856.311 434.183 853.245H443.983C442.516 858.511 439.583 862.811 435.183 866.145C430.783 869.411 425.316 871.045 418.783 871.045C413.583 871.045 408.916 869.878 404.783 867.545C400.716 865.211 397.516 861.911 395.183 857.645C392.849 853.311 391.683 848.311 391.683 842.645C391.683 836.978 392.816 832.011 395.083 827.745C397.349 823.478 400.516 820.211 404.583 817.945C408.716 815.611 413.449 814.445 418.783 814.445C423.983 814.445 428.583 815.578 432.583 817.845C436.583 820.111 439.649 823.245 441.783 827.245C443.983 831.178 445.083 835.645 445.083 840.645ZM435.683 838.745C435.683 835.278 434.916 832.311 433.383 829.845C431.849 827.311 429.749 825.411 427.083 824.145C424.483 822.811 421.583 822.145 418.383 822.145C413.783 822.145 409.849 823.611 406.583 826.545C403.383 829.478 401.549 833.545 401.083 838.745H435.683ZM453.695 842.545C453.695 836.945 454.828 832.045 457.095 827.845C459.361 823.578 462.461 820.278 466.395 817.945C470.395 815.611 474.861 814.445 479.795 814.445C484.061 814.445 488.028 815.445 491.695 817.445C495.361 819.378 498.161 821.945 500.095 825.145V796.145H509.295V870.145H500.095V859.845C498.295 863.111 495.628 865.811 492.095 867.945C488.561 870.011 484.428 871.045 479.695 871.045C474.828 871.045 470.395 869.845 466.395 867.445C462.461 865.045 459.361 861.678 457.095 857.345C454.828 853.011 453.695 848.078 453.695 842.545ZM500.095 842.645C500.095 838.511 499.261 834.911 497.595 831.845C495.928 828.778 493.661 826.445 490.795 824.845C487.995 823.178 484.895 822.345 481.495 822.345C478.095 822.345 474.995 823.145 472.195 824.745C469.395 826.345 467.161 828.678 465.495 831.745C463.828 834.811 462.995 838.411 462.995 842.545C462.995 846.745 463.828 850.411 465.495 853.545C467.161 856.611 469.395 858.978 472.195 860.645C474.995 862.245 478.095 863.045 481.495 863.045C484.895 863.045 487.995 862.245 490.795 860.645C493.661 858.978 495.928 856.611 497.595 853.545C499.261 850.411 500.095 846.778 500.095 842.645ZM575.233 871.045C570.099 871.045 565.433 869.878 561.233 867.545C557.099 865.211 553.833 861.911 551.433 857.645C549.099 853.311 547.933 848.311 547.933 842.645C547.933 837.045 549.133 832.111 551.533 827.845C553.999 823.511 557.333 820.211 561.533 817.945C565.733 815.611 570.433 814.445 575.633 814.445C580.833 814.445 585.533 815.611 589.733 817.945C593.933 820.211 597.233 823.478 599.633 827.745C602.099 832.011 603.333 836.978 603.333 842.645C603.333 848.311 602.066 853.311 599.533 857.645C597.066 861.911 593.699 865.211 589.433 867.545C585.166 869.878 580.433 871.045 575.233 871.045ZM575.233 863.045C578.499 863.045 581.566 862.278 584.433 860.745C587.299 859.211 589.599 856.911 591.333 853.845C593.133 850.778 594.033 847.045 594.033 842.645C594.033 838.245 593.166 834.511 591.433 831.445C589.699 828.378 587.433 826.111 584.633 824.645C581.833 823.111 578.799 822.345 575.533 822.345C572.199 822.345 569.133 823.111 566.333 824.645C563.599 826.111 561.399 828.378 559.733 831.445C558.066 834.511 557.233 838.245 557.233 842.645C557.233 847.111 558.033 850.878 559.633 853.945C561.299 857.011 563.499 859.311 566.233 860.845C568.966 862.311 571.966 863.045 575.233 863.045ZM663.898 815.345V870.145H654.798V862.045C653.064 864.845 650.631 867.045 647.498 868.645C644.431 870.178 641.031 870.945 637.298 870.945C633.031 870.945 629.198 870.078 625.798 868.345C622.398 866.545 619.698 863.878 617.698 860.345C615.764 856.811 614.798 852.511 614.798 847.445V815.345H623.798V846.245C623.798 851.645 625.164 855.811 627.898 858.745C630.631 861.611 634.364 863.045 639.098 863.045C643.964 863.045 647.798 861.545 650.598 858.545C653.398 855.545 654.798 851.178 654.798 845.445V815.345H663.898ZM688.363 824.245C689.963 821.111 692.229 818.678 695.163 816.945C698.163 815.211 701.796 814.345 706.063 814.345V823.745H703.663C693.463 823.745 688.363 829.278 688.363 840.345V870.145H679.263V815.345H688.363V824.245ZM762.627 871.045C758.427 871.045 754.661 870.345 751.327 868.945C747.994 867.478 745.361 865.478 743.427 862.945C741.494 860.345 740.427 857.378 740.227 854.045H749.627C749.894 856.778 751.161 859.011 753.427 860.745C755.761 862.478 758.794 863.345 762.527 863.345C765.994 863.345 768.727 862.578 770.727 861.045C772.727 859.511 773.727 857.578 773.727 855.245C773.727 852.845 772.661 851.078 770.527 849.945C768.394 848.745 765.094 847.578 760.627 846.445C756.561 845.378 753.227 844.311 750.627 843.245C748.094 842.111 745.894 840.478 744.027 838.345C742.227 836.145 741.327 833.278 741.327 829.745C741.327 826.945 742.161 824.378 743.827 822.045C745.494 819.711 747.861 817.878 750.927 816.545C753.994 815.145 757.494 814.445 761.427 814.445C767.494 814.445 772.394 815.978 776.127 819.045C779.861 822.111 781.861 826.311 782.127 831.645H773.027C772.827 828.778 771.661 826.478 769.527 824.745C767.461 823.011 764.661 822.145 761.127 822.145C757.861 822.145 755.261 822.845 753.327 824.245C751.394 825.645 750.427 827.478 750.427 829.745C750.427 831.545 750.994 833.045 752.127 834.245C753.327 835.378 754.794 836.311 756.527 837.045C758.327 837.711 760.794 838.478 763.927 839.345C767.861 840.411 771.061 841.478 773.527 842.545C775.994 843.545 778.094 845.078 779.827 847.145C781.627 849.211 782.561 851.911 782.627 855.245C782.627 858.245 781.794 860.945 780.127 863.345C778.461 865.745 776.094 867.645 773.027 869.045C770.027 870.378 766.561 871.045 762.627 871.045ZM806.573 822.845V855.145C806.573 857.811 807.14 859.711 808.273 860.845C809.407 861.911 811.373 862.445 814.173 862.445H820.873V870.145H812.673C807.607 870.145 803.807 868.978 801.273 866.645C798.74 864.311 797.473 860.478 797.473 855.145V822.845H790.373V815.345H797.473V801.545H806.573V815.345H820.873V822.845H806.573ZM840.999 824.245C842.599 821.111 844.866 818.678 847.799 816.945C850.799 815.211 854.433 814.345 858.699 814.345V823.745H856.299C846.099 823.745 840.999 829.278 840.999 840.345V870.145H831.899V815.345H840.999V824.245ZM917.804 815.345V870.145H908.704V862.045C906.971 864.845 904.537 867.045 901.404 868.645C898.337 870.178 894.937 870.945 891.204 870.945C886.937 870.945 883.104 870.078 879.704 868.345C876.304 866.545 873.604 863.878 871.604 860.345C869.671 856.811 868.704 852.511 868.704 847.445V815.345H877.704V846.245C877.704 851.645 879.071 855.811 881.804 858.745C884.537 861.611 888.271 863.045 893.004 863.045C897.871 863.045 901.704 861.545 904.504 858.545C907.304 855.545 908.704 851.178 908.704 845.445V815.345H917.804ZM955.769 814.445C960.502 814.445 964.635 815.478 968.169 817.545C971.769 819.611 974.435 822.211 976.169 825.345V815.345H985.369V871.345C985.369 876.345 984.302 880.778 982.169 884.645C980.035 888.578 976.969 891.645 972.969 893.845C969.035 896.045 964.435 897.145 959.169 897.145C951.969 897.145 945.969 895.445 941.169 892.045C936.369 888.645 933.535 884.011 932.669 878.145H941.669C942.669 881.478 944.735 884.145 947.869 886.145C951.002 888.211 954.769 889.245 959.169 889.245C964.169 889.245 968.235 887.678 971.369 884.545C974.569 881.411 976.169 877.011 976.169 871.345V859.845C974.369 863.045 971.702 865.711 968.169 867.845C964.635 869.978 960.502 871.045 955.769 871.045C950.902 871.045 946.469 869.845 942.469 867.445C938.535 865.045 935.435 861.678 933.169 857.345C930.902 853.011 929.769 848.078 929.769 842.545C929.769 836.945 930.902 832.045 933.169 827.845C935.435 823.578 938.535 820.278 942.469 817.945C946.469 815.611 950.902 814.445 955.769 814.445ZM976.169 842.645C976.169 838.511 975.335 834.911 973.669 831.845C972.002 828.778 969.735 826.445 966.869 824.845C964.069 823.178 960.969 822.345 957.569 822.345C954.169 822.345 951.069 823.145 948.269 824.745C945.469 826.345 943.235 828.678 941.569 831.745C939.902 834.811 939.069 838.411 939.069 842.545C939.069 846.745 939.902 850.411 941.569 853.545C943.235 856.611 945.469 858.978 948.269 860.645C951.069 862.245 954.169 863.045 957.569 863.045C960.969 863.045 964.069 862.245 966.869 860.645C969.735 858.978 972.002 856.611 973.669 853.545C975.335 850.411 976.169 846.778 976.169 842.645ZM1023.35 814.445C1028.08 814.445 1032.21 815.478 1035.75 817.545C1039.35 819.611 1042.01 822.211 1043.75 825.345V815.345H1052.95V871.345C1052.95 876.345 1051.88 880.778 1049.75 884.645C1047.61 888.578 1044.55 891.645 1040.55 893.845C1036.61 896.045 1032.01 897.145 1026.75 897.145C1019.55 897.145 1013.55 895.445 1008.75 892.045C1003.95 888.645 1001.11 884.011 1000.25 878.145H1009.25C1010.25 881.478 1012.31 884.145 1015.45 886.145C1018.58 888.211 1022.35 889.245 1026.75 889.245C1031.75 889.245 1035.81 887.678 1038.95 884.545C1042.15 881.411 1043.75 877.011 1043.75 871.345V859.845C1041.95 863.045 1039.28 865.711 1035.75 867.845C1032.21 869.978 1028.08 871.045 1023.35 871.045C1018.48 871.045 1014.05 869.845 1010.05 867.445C1006.11 865.045 1003.01 861.678 1000.75 857.345C998.48 853.011 997.347 848.078 997.347 842.545C997.347 836.945 998.48 832.045 1000.75 827.845C1003.01 823.578 1006.11 820.278 1010.05 817.945C1014.05 815.611 1018.48 814.445 1023.35 814.445ZM1043.75 842.645C1043.75 838.511 1042.91 834.911 1041.25 831.845C1039.58 828.778 1037.31 826.445 1034.45 824.845C1031.65 823.178 1028.55 822.345 1025.15 822.345C1021.75 822.345 1018.65 823.145 1015.85 824.745C1013.05 826.345 1010.81 828.678 1009.15 831.745C1007.48 834.811 1006.65 838.411 1006.65 842.545C1006.65 846.745 1007.48 850.411 1009.15 853.545C1010.81 856.611 1013.05 858.978 1015.85 860.645C1018.65 862.245 1021.75 863.045 1025.15 863.045C1028.55 863.045 1031.65 862.245 1034.45 860.645C1037.31 858.978 1039.58 856.611 1041.25 853.545C1042.91 850.411 1043.75 846.778 1043.75 842.645ZM1077.43 796.145V870.145H1068.33V796.145H1077.43ZM1142.93 840.645C1142.93 842.378 1142.83 844.211 1142.63 846.145H1098.83C1099.17 851.545 1101 855.778 1104.33 858.845C1107.73 861.845 1111.83 863.345 1116.63 863.345C1120.57 863.345 1123.83 862.445 1126.43 860.645C1129.1 858.778 1130.97 856.311 1132.03 853.245H1141.83C1140.37 858.511 1137.43 862.811 1133.03 866.145C1128.63 869.411 1123.17 871.045 1116.63 871.045C1111.43 871.045 1106.77 869.878 1102.63 867.545C1098.57 865.211 1095.37 861.911 1093.03 857.645C1090.7 853.311 1089.53 848.311 1089.53 842.645C1089.53 836.978 1090.67 832.011 1092.93 827.745C1095.2 823.478 1098.37 820.211 1102.43 817.945C1106.57 815.611 1111.3 814.445 1116.63 814.445C1121.83 814.445 1126.43 815.578 1130.43 817.845C1134.43 820.111 1137.5 823.245 1139.63 827.245C1141.83 831.178 1142.93 835.645 1142.93 840.645ZM1133.53 838.745C1133.53 835.278 1132.77 832.311 1131.23 829.845C1129.7 827.311 1127.6 825.411 1124.93 824.145C1122.33 822.811 1119.43 822.145 1116.23 822.145C1111.63 822.145 1107.7 823.611 1104.43 826.545C1101.23 829.478 1099.4 833.545 1098.93 838.745H1133.53ZM1157.85 870.745C1156.11 870.745 1154.65 870.145 1153.45 868.945C1152.25 867.745 1151.65 866.278 1151.65 864.545C1151.65 862.811 1152.25 861.345 1153.45 860.145C1154.65 858.945 1156.11 858.345 1157.85 858.345C1159.51 858.345 1160.91 858.945 1162.05 860.145C1163.25 861.345 1163.85 862.811 1163.85 864.545C1163.85 866.278 1163.25 867.745 1162.05 868.945C1160.91 870.145 1159.51 870.745 1157.85 870.745ZM127.241 950.445V957.845H108.241V1020.14H99.1406V957.845H80.0406V950.445H127.241ZM162.342 1021.04C157.209 1021.04 152.542 1019.88 148.342 1017.54C144.209 1015.21 140.942 1011.91 138.542 1007.64C136.209 1003.31 135.042 998.311 135.042 992.645C135.042 987.045 136.242 982.111 138.642 977.845C141.109 973.511 144.442 970.211 148.642 967.945C152.842 965.611 157.542 964.445 162.742 964.445C167.942 964.445 172.642 965.611 176.842 967.945C181.042 970.211 184.342 973.478 186.742 977.745C189.209 982.011 190.442 986.978 190.442 992.645C190.442 998.311 189.176 1003.31 186.642 1007.64C184.176 1011.91 180.809 1015.21 176.542 1017.54C172.276 1019.88 167.542 1021.04 162.342 1021.04ZM162.342 1013.04C165.609 1013.04 168.676 1012.28 171.542 1010.74C174.409 1009.21 176.709 1006.91 178.442 1003.84C180.242 1000.78 181.142 997.045 181.142 992.645C181.142 988.245 180.276 984.511 178.542 981.445C176.809 978.378 174.542 976.111 171.742 974.645C168.942 973.111 165.909 972.345 162.642 972.345C159.309 972.345 156.242 973.111 153.442 974.645C150.709 976.111 148.509 978.378 146.842 981.445C145.176 984.511 144.342 988.245 144.342 992.645C144.342 997.111 145.142 1000.88 146.742 1003.94C148.409 1007.01 150.609 1009.31 153.342 1010.84C156.076 1012.31 159.076 1013.04 162.342 1013.04ZM199.007 992.545C199.007 986.945 200.14 982.045 202.407 977.845C204.674 973.578 207.774 970.278 211.707 967.945C215.707 965.611 220.174 964.445 225.107 964.445C229.374 964.445 233.34 965.445 237.007 967.445C240.674 969.378 243.474 971.945 245.407 975.145V946.145H254.607V1020.14H245.407V1009.84C243.607 1013.11 240.94 1015.81 237.407 1017.94C233.874 1020.01 229.74 1021.04 225.007 1021.04C220.14 1021.04 215.707 1019.84 211.707 1017.44C207.774 1015.04 204.674 1011.68 202.407 1007.34C200.14 1003.01 199.007 998.078 199.007 992.545ZM245.407 992.645C245.407 988.511 244.574 984.911 242.907 981.845C241.24 978.778 238.974 976.445 236.107 974.845C233.307 973.178 230.207 972.345 226.807 972.345C223.407 972.345 220.307 973.145 217.507 974.745C214.707 976.345 212.474 978.678 210.807 981.745C209.14 984.811 208.307 988.411 208.307 992.545C208.307 996.745 209.14 1000.41 210.807 1003.54C212.474 1006.61 214.707 1008.98 217.507 1010.64C220.307 1012.24 223.407 1013.04 226.807 1013.04C230.207 1013.04 233.307 1012.24 236.107 1010.64C238.974 1008.98 241.24 1006.61 242.907 1003.54C244.574 1000.41 245.407 996.778 245.407 992.645ZM266.585 992.545C266.585 986.945 267.718 982.045 269.985 977.845C272.252 973.578 275.352 970.278 279.285 967.945C283.285 965.611 287.718 964.445 292.585 964.445C297.385 964.445 301.552 965.478 305.085 967.545C308.618 969.611 311.252 972.211 312.985 975.345V965.345H322.185V1020.14H312.985V1009.94C311.185 1013.14 308.485 1015.81 304.885 1017.94C301.352 1020.01 297.218 1021.04 292.485 1021.04C287.618 1021.04 283.218 1019.84 279.285 1017.44C275.352 1015.04 272.252 1011.68 269.985 1007.34C267.718 1003.01 266.585 998.078 266.585 992.545ZM312.985 992.645C312.985 988.511 312.152 984.911 310.485 981.845C308.818 978.778 306.552 976.445 303.685 974.845C300.885 973.178 297.785 972.345 294.385 972.345C290.985 972.345 287.885 973.145 285.085 974.745C282.285 976.345 280.052 978.678 278.385 981.745C276.718 984.811 275.885 988.411 275.885 992.545C275.885 996.745 276.718 1000.41 278.385 1003.54C280.052 1006.61 282.285 1008.98 285.085 1010.64C287.885 1012.24 290.985 1013.04 294.385 1013.04C297.785 1013.04 300.885 1012.24 303.685 1010.64C306.552 1008.98 308.818 1006.61 310.485 1003.54C312.152 1000.41 312.985 996.778 312.985 992.645ZM384.763 965.345L351.763 1045.94H342.363L353.163 1019.54L331.063 965.345H341.163L358.363 1009.74L375.363 965.345H384.763ZM403.311 1007.54L392.111 1034.44H386.011L393.311 1007.54H403.311ZM445.095 956.445C443.362 956.445 441.895 955.845 440.695 954.645C439.495 953.445 438.895 951.978 438.895 950.245C438.895 948.511 439.495 947.045 440.695 945.845C441.895 944.645 443.362 944.045 445.095 944.045C446.762 944.045 448.162 944.645 449.295 945.845C450.495 947.045 451.095 948.511 451.095 950.245C451.095 951.978 450.495 953.445 449.295 954.645C448.162 955.845 446.762 956.445 445.095 956.445ZM449.495 965.345V1020.14H440.395V965.345H449.495ZM476.105 972.845V1005.14C476.105 1007.81 476.671 1009.71 477.805 1010.84C478.938 1011.91 480.905 1012.44 483.705 1012.44H490.405V1020.14H482.205C477.138 1020.14 473.338 1018.98 470.805 1016.64C468.271 1014.31 467.005 1010.48 467.005 1005.14V972.845H459.905V965.345H467.005V951.545H476.105V965.345H490.405V972.845H476.105ZM547.491 1021.04C543.291 1021.04 539.524 1020.34 536.191 1018.94C532.857 1017.48 530.224 1015.48 528.291 1012.94C526.357 1010.34 525.291 1007.38 525.091 1004.04H534.491C534.757 1006.78 536.024 1009.01 538.291 1010.74C540.624 1012.48 543.657 1013.34 547.391 1013.34C550.857 1013.34 553.591 1012.58 555.591 1011.04C557.591 1009.51 558.591 1007.58 558.591 1005.24C558.591 1002.84 557.524 1001.08 555.391 999.945C553.257 998.745 549.957 997.578 545.491 996.445C541.424 995.378 538.091 994.311 535.491 993.245C532.957 992.111 530.757 990.478 528.891 988.345C527.091 986.145 526.191 983.278 526.191 979.745C526.191 976.945 527.024 974.378 528.691 972.045C530.357 969.711 532.724 967.878 535.791 966.545C538.857 965.145 542.357 964.445 546.291 964.445C552.357 964.445 557.257 965.978 560.991 969.045C564.724 972.111 566.724 976.311 566.991 981.645H557.891C557.691 978.778 556.524 976.478 554.391 974.745C552.324 973.011 549.524 972.145 545.991 972.145C542.724 972.145 540.124 972.845 538.191 974.245C536.257 975.645 535.291 977.478 535.291 979.745C535.291 981.545 535.857 983.045 536.991 984.245C538.191 985.378 539.657 986.311 541.391 987.045C543.191 987.711 545.657 988.478 548.791 989.345C552.724 990.411 555.924 991.478 558.391 992.545C560.857 993.545 562.957 995.078 564.691 997.145C566.491 999.211 567.424 1001.91 567.491 1005.24C567.491 1008.24 566.657 1010.94 564.991 1013.34C563.324 1015.74 560.957 1017.64 557.891 1019.04C554.891 1020.38 551.424 1021.04 547.491 1021.04ZM591.437 972.845V1005.14C591.437 1007.81 592.003 1009.71 593.137 1010.84C594.27 1011.91 596.237 1012.44 599.037 1012.44H605.737V1020.14H597.537C592.47 1020.14 588.67 1018.98 586.137 1016.64C583.603 1014.31 582.337 1010.48 582.337 1005.14V972.845H575.237V965.345H582.337V951.545H591.437V965.345H605.737V972.845H591.437ZM665.363 965.345V1020.14H656.263V1012.04C654.529 1014.84 652.096 1017.04 648.963 1018.64C645.896 1020.18 642.496 1020.94 638.763 1020.94C634.496 1020.94 630.663 1020.08 627.263 1018.34C623.863 1016.54 621.163 1013.88 619.163 1010.34C617.229 1006.81 616.263 1002.51 616.263 997.445V965.345H625.263V996.245C625.263 1001.64 626.629 1005.81 629.363 1008.74C632.096 1011.61 635.829 1013.04 640.563 1013.04C645.429 1013.04 649.263 1011.54 652.063 1008.54C654.863 1005.54 656.263 1001.18 656.263 995.445V965.345H665.363ZM677.327 992.545C677.327 986.945 678.461 982.045 680.727 977.845C682.994 973.578 686.094 970.278 690.027 967.945C694.027 965.611 698.494 964.445 703.427 964.445C707.694 964.445 711.661 965.445 715.327 967.445C718.994 969.378 721.794 971.945 723.727 975.145V946.145H732.927V1020.14H723.727V1009.84C721.927 1013.11 719.261 1015.81 715.727 1017.94C712.194 1020.01 708.061 1021.04 703.327 1021.04C698.461 1021.04 694.027 1019.84 690.027 1017.44C686.094 1015.04 682.994 1011.68 680.727 1007.34C678.461 1003.01 677.327 998.078 677.327 992.545ZM723.727 992.645C723.727 988.511 722.894 984.911 721.227 981.845C719.561 978.778 717.294 976.445 714.427 974.845C711.627 973.178 708.527 972.345 705.127 972.345C701.727 972.345 698.627 973.145 695.827 974.745C693.027 976.345 690.794 978.678 689.127 981.745C687.461 984.811 686.627 988.411 686.627 992.545C686.627 996.745 687.461 1000.41 689.127 1003.54C690.794 1006.61 693.027 1008.98 695.827 1010.64C698.627 1012.24 701.727 1013.04 705.127 1013.04C708.527 1013.04 711.627 1012.24 714.427 1010.64C717.294 1008.98 719.561 1006.61 721.227 1003.54C722.894 1000.41 723.727 996.778 723.727 992.645ZM753.005 956.445C751.272 956.445 749.805 955.845 748.605 954.645C747.405 953.445 746.805 951.978 746.805 950.245C746.805 948.511 747.405 947.045 748.605 945.845C749.805 944.645 751.272 944.045 753.005 944.045C754.672 944.045 756.072 944.645 757.205 945.845C758.405 947.045 759.005 948.511 759.005 950.245C759.005 951.978 758.405 953.445 757.205 954.645C756.072 955.845 754.672 956.445 753.005 956.445ZM757.405 965.345V1020.14H748.305V965.345H757.405ZM822.915 990.645C822.915 992.378 822.815 994.211 822.615 996.145H778.815C779.148 1001.54 780.982 1005.78 784.315 1008.84C787.715 1011.84 791.815 1013.34 796.615 1013.34C800.548 1013.34 803.815 1012.44 806.415 1010.64C809.082 1008.78 810.948 1006.31 812.015 1003.24H821.815C820.348 1008.51 817.415 1012.81 813.015 1016.14C808.615 1019.41 803.148 1021.04 796.615 1021.04C791.415 1021.04 786.748 1019.88 782.615 1017.54C778.548 1015.21 775.348 1011.91 773.015 1007.64C770.682 1003.31 769.515 998.311 769.515 992.645C769.515 986.978 770.648 982.011 772.915 977.745C775.182 973.478 778.348 970.211 782.415 967.945C786.548 965.611 791.282 964.445 796.615 964.445C801.815 964.445 806.415 965.578 810.415 967.845C814.415 970.111 817.482 973.245 819.615 977.245C821.815 981.178 822.915 985.645 822.915 990.645ZM813.515 988.745C813.515 985.278 812.748 982.311 811.215 979.845C809.682 977.311 807.582 975.411 804.915 974.145C802.315 972.811 799.415 972.145 796.215 972.145C791.615 972.145 787.682 973.611 784.415 976.545C781.215 979.478 779.382 983.545 778.915 988.745H813.515ZM854.327 1021.04C850.127 1021.04 846.36 1020.34 843.027 1018.94C839.693 1017.48 837.06 1015.48 835.127 1012.94C833.193 1010.34 832.127 1007.38 831.927 1004.04H841.327C841.593 1006.78 842.86 1009.01 845.127 1010.74C847.46 1012.48 850.493 1013.34 854.227 1013.34C857.693 1013.34 860.427 1012.58 862.427 1011.04C864.427 1009.51 865.427 1007.58 865.427 1005.24C865.427 1002.84 864.36 1001.08 862.227 999.945C860.093 998.745 856.793 997.578 852.327 996.445C848.26 995.378 844.927 994.311 842.327 993.245C839.793 992.111 837.593 990.478 835.727 988.345C833.927 986.145 833.027 983.278 833.027 979.745C833.027 976.945 833.86 974.378 835.527 972.045C837.193 969.711 839.56 967.878 842.627 966.545C845.693 965.145 849.193 964.445 853.127 964.445C859.193 964.445 864.093 965.978 867.827 969.045C871.56 972.111 873.56 976.311 873.827 981.645H864.727C864.527 978.778 863.36 976.478 861.227 974.745C859.16 973.011 856.36 972.145 852.827 972.145C849.56 972.145 846.96 972.845 845.027 974.245C843.093 975.645 842.127 977.478 842.127 979.745C842.127 981.545 842.693 983.045 843.827 984.245C845.027 985.378 846.493 986.311 848.227 987.045C850.027 987.711 852.493 988.478 855.627 989.345C859.56 990.411 862.76 991.478 865.227 992.545C867.693 993.545 869.793 995.078 871.527 997.145C873.327 999.211 874.26 1001.91 874.327 1005.24C874.327 1008.24 873.493 1010.94 871.827 1013.34C870.16 1015.74 867.793 1017.64 864.727 1019.04C861.727 1020.38 858.26 1021.04 854.327 1021.04ZM937.733 1021.04C932.599 1021.04 927.933 1019.88 923.733 1017.54C919.599 1015.21 916.333 1011.91 913.933 1007.64C911.599 1003.31 910.433 998.311 910.433 992.645C910.433 987.045 911.633 982.111 914.033 977.845C916.499 973.511 919.833 970.211 924.033 967.945C928.233 965.611 932.933 964.445 938.133 964.445C943.333 964.445 948.033 965.611 952.233 967.945C956.433 970.211 959.733 973.478 962.133 977.745C964.599 982.011 965.833 986.978 965.833 992.645C965.833 998.311 964.566 1003.31 962.033 1007.64C959.566 1011.91 956.199 1015.21 951.933 1017.54C947.666 1019.88 942.933 1021.04 937.733 1021.04ZM937.733 1013.04C940.999 1013.04 944.066 1012.28 946.933 1010.74C949.799 1009.21 952.099 1006.91 953.833 1003.84C955.633 1000.78 956.533 997.045 956.533 992.645C956.533 988.245 955.666 984.511 953.933 981.445C952.199 978.378 949.933 976.111 947.133 974.645C944.333 973.111 941.299 972.345 938.033 972.345C934.699 972.345 931.633 973.111 928.833 974.645C926.099 976.111 923.899 978.378 922.233 981.445C920.566 984.511 919.733 988.245 919.733 992.645C919.733 997.111 920.533 1000.88 922.133 1003.94C923.799 1007.01 925.999 1009.31 928.733 1010.84C931.466 1012.31 934.466 1013.04 937.733 1013.04ZM1026.4 965.345V1020.14H1017.3V1012.04C1015.56 1014.84 1013.13 1017.04 1010 1018.64C1006.93 1020.18 1003.53 1020.94 999.798 1020.94C995.531 1020.94 991.698 1020.08 988.298 1018.34C984.898 1016.54 982.198 1013.88 980.198 1010.34C978.264 1006.81 977.298 1002.51 977.298 997.445V965.345H986.298V996.245C986.298 1001.64 987.664 1005.81 990.398 1008.74C993.131 1011.61 996.864 1013.04 1001.6 1013.04C1006.46 1013.04 1010.3 1011.54 1013.1 1008.54C1015.9 1005.54 1017.3 1001.18 1017.3 995.445V965.345H1026.4ZM1050.86 974.245C1052.46 971.111 1054.73 968.678 1057.66 966.945C1060.66 965.211 1064.3 964.345 1068.56 964.345V973.745H1066.16C1055.96 973.745 1050.86 979.278 1050.86 990.345V1020.14H1041.76V965.345H1050.86V974.245ZM1125.13 1021.04C1120.93 1021.04 1117.16 1020.34 1113.83 1018.94C1110.49 1017.48 1107.86 1015.48 1105.93 1012.94C1103.99 1010.34 1102.93 1007.38 1102.73 1004.04H1112.13C1112.39 1006.78 1113.66 1009.01 1115.93 1010.74C1118.26 1012.48 1121.29 1013.34 1125.03 1013.34C1128.49 1013.34 1131.23 1012.58 1133.23 1011.04C1135.23 1009.51 1136.23 1007.58 1136.23 1005.24C1136.23 1002.84 1135.16 1001.08 1133.03 999.945C1130.89 998.745 1127.59 997.578 1123.13 996.445C1119.06 995.378 1115.73 994.311 1113.13 993.245C1110.59 992.111 1108.39 990.478 1106.53 988.345C1104.73 986.145 1103.83 983.278 1103.83 979.745C1103.83 976.945 1104.66 974.378 1106.33 972.045C1107.99 969.711 1110.36 967.878 1113.43 966.545C1116.49 965.145 1119.99 964.445 1123.93 964.445C1129.99 964.445 1134.89 965.978 1138.63 969.045C1142.36 972.111 1144.36 976.311 1144.63 981.645H1135.53C1135.33 978.778 1134.16 976.478 1132.03 974.745C1129.96 973.011 1127.16 972.145 1123.63 972.145C1120.36 972.145 1117.76 972.845 1115.83 974.245C1113.89 975.645 1112.93 977.478 1112.93 979.745C1112.93 981.545 1113.49 983.045 1114.63 984.245C1115.83 985.378 1117.29 986.311 1119.03 987.045C1120.83 987.711 1123.29 988.478 1126.43 989.345C1130.36 990.411 1133.56 991.478 1136.03 992.545C1138.49 993.545 1140.59 995.078 1142.33 997.145C1144.13 999.211 1145.06 1001.91 1145.13 1005.24C1145.13 1008.24 1144.29 1010.94 1142.63 1013.34C1140.96 1015.74 1138.59 1017.64 1135.53 1019.04C1132.53 1020.38 1129.06 1021.04 1125.13 1021.04ZM1169.07 972.845V1005.14C1169.07 1007.81 1169.64 1009.71 1170.77 1010.84C1171.91 1011.91 1173.87 1012.44 1176.67 1012.44H1183.37V1020.14H1175.17C1170.11 1020.14 1166.31 1018.98 1163.77 1016.64C1161.24 1014.31 1159.97 1010.48 1159.97 1005.14V972.845H1152.87V965.345H1159.97V951.545H1169.07V965.345H1183.37V972.845H1169.07ZM1203.5 974.245C1205.1 971.111 1207.37 968.678 1210.3 966.945C1213.3 965.211 1216.93 964.345 1221.2 964.345V973.745H1218.8C1208.6 973.745 1203.5 979.278 1203.5 990.345V1020.14H1194.4V965.345H1203.5V974.245ZM1236.4 956.445C1234.67 956.445 1233.2 955.845 1232 954.645C1230.8 953.445 1230.2 951.978 1230.2 950.245C1230.2 948.511 1230.8 947.045 1232 945.845C1233.2 944.645 1234.67 944.045 1236.4 944.045C1238.07 944.045 1239.47 944.645 1240.6 945.845C1241.8 947.045 1242.4 948.511 1242.4 950.245C1242.4 951.978 1241.8 953.445 1240.6 954.645C1239.47 955.845 1238.07 956.445 1236.4 956.445ZM1240.8 965.345V1020.14H1231.7V965.345H1240.8ZM1252.91 992.545C1252.91 986.945 1254.05 982.045 1256.31 977.845C1258.58 973.578 1261.68 970.278 1265.61 967.945C1269.61 965.611 1274.08 964.445 1279.01 964.445C1283.28 964.445 1287.25 965.445 1290.91 967.445C1294.58 969.378 1297.38 971.945 1299.31 975.145V946.145H1308.51V1020.14H1299.31V1009.84C1297.51 1013.11 1294.85 1015.81 1291.31 1017.94C1287.78 1020.01 1283.65 1021.04 1278.91 1021.04C1274.05 1021.04 1269.61 1019.84 1265.61 1017.44C1261.68 1015.04 1258.58 1011.68 1256.31 1007.34C1254.05 1003.01 1252.91 998.078 1252.91 992.545ZM1299.31 992.645C1299.31 988.511 1298.48 984.911 1296.81 981.845C1295.15 978.778 1292.88 976.445 1290.01 974.845C1287.21 973.178 1284.11 972.345 1280.71 972.345C1277.31 972.345 1274.21 973.145 1271.41 974.745C1268.61 976.345 1266.38 978.678 1264.71 981.745C1263.05 984.811 1262.21 988.411 1262.21 992.545C1262.21 996.745 1263.05 1000.41 1264.71 1003.54C1266.38 1006.61 1268.61 1008.98 1271.41 1010.64C1274.21 1012.24 1277.31 1013.04 1280.71 1013.04C1284.11 1013.04 1287.21 1012.24 1290.01 1010.64C1292.88 1008.98 1295.15 1006.61 1296.81 1003.54C1298.48 1000.41 1299.31 996.778 1299.31 992.645ZM1373.89 990.645C1373.89 992.378 1373.79 994.211 1373.59 996.145H1329.79C1330.12 1001.54 1331.96 1005.78 1335.29 1008.84C1338.69 1011.84 1342.79 1013.34 1347.59 1013.34C1351.52 1013.34 1354.79 1012.44 1357.39 1010.64C1360.06 1008.78 1361.92 1006.31 1362.99 1003.24H1372.79C1371.32 1008.51 1368.39 1012.81 1363.99 1016.14C1359.59 1019.41 1354.12 1021.04 1347.59 1021.04C1342.39 1021.04 1337.72 1019.88 1333.59 1017.54C1329.52 1015.21 1326.32 1011.91 1323.99 1007.64C1321.66 1003.31 1320.49 998.311 1320.49 992.645C1320.49 986.978 1321.62 982.011 1323.89 977.745C1326.16 973.478 1329.32 970.211 1333.39 967.945C1337.52 965.611 1342.26 964.445 1347.59 964.445C1352.79 964.445 1357.39 965.578 1361.39 967.845C1365.39 970.111 1368.46 973.245 1370.59 977.245C1372.79 981.178 1373.89 985.645 1373.89 990.645ZM1364.49 988.745C1364.49 985.278 1363.72 982.311 1362.19 979.845C1360.66 977.311 1358.56 975.411 1355.89 974.145C1353.29 972.811 1350.39 972.145 1347.19 972.145C1342.59 972.145 1338.66 973.611 1335.39 976.545C1332.19 979.478 1330.36 983.545 1329.89 988.745H1364.49ZM1388.8 1020.74C1387.07 1020.74 1385.6 1020.14 1384.4 1018.94C1383.2 1017.74 1382.6 1016.28 1382.6 1014.54C1382.6 1012.81 1383.2 1011.34 1384.4 1010.14C1385.6 1008.94 1387.07 1008.34 1388.8 1008.34C1390.47 1008.34 1391.87 1008.94 1393 1010.14C1394.2 1011.34 1394.8 1012.81 1394.8 1014.54C1394.8 1016.28 1394.2 1017.74 1393 1018.94C1391.87 1020.14 1390.47 1020.74 1388.8 1020.74ZM1408.3 950.445H1418.4L1408.8 973.145H1402.4L1408.3 950.445ZM1424.5 950.445H1434.6L1425 973.145H1418.5L1424.5 950.445Z" fill="white"/>
<path d="M37.14 602.286C37.1873 596.787 37.2346 591.287 37.2819 585.787C26.2824 585.692 15.2828 585.598 4.28317 585.503C4.23586 591.003 4.18855 596.503 4.14124 602.003C4.07457 609.753 4.0079 617.503 3.94124 625.253C2.74124 764.753 1.54123 904.253 0.341236 1043.75C0.274569 1051.5 0.207903 1059.25 0.141235 1067C0.0939255 1072.5 0.0466156 1078 -0.000694275 1083.5C10.9989 1083.6 21.9985 1083.69 32.9981 1083.79C33.0454 1078.29 33.0927 1072.79 33.14 1067.29C33.2067 1059.54 33.2733 1051.79 33.34 1044.04C34.54 904.536 35.74 765.036 36.94 625.536C37.0067 617.786 37.0733 610.036 37.14 602.286Z" fill="#E03C1F"/>
</svg>
