<svg width="5503" height="344" viewBox="0 0 5503 344" fill="none" xmlns="http://www.w3.org/2000/svg">
<path d="M534.17 64.3H521.77L536.47 40.5H544.47L534.17 64.3ZM552.17 64.3H539.77L554.47 40.5H562.47L552.17 64.3ZM605.357 49.3L601.657 70.4H625.657L624.157 79.2H600.157L596.257 101.1H623.257L621.657 110H583.257L595.557 40.4H633.957L632.357 49.3H605.357ZM679.798 99.8L703.298 54.9H715.598L684.898 110H671.098L659.898 54.9H672.098L679.798 99.8ZM768.916 54C775.782 54 781.249 55.9333 785.316 59.8C789.449 63.6667 791.516 68.8667 791.516 75.4C791.516 76.9333 791.349 78.7667 791.016 80.9C790.749 82.3667 790.282 84.1667 789.616 86.3H747.516C747.449 86.7667 747.416 87.4667 747.416 88.4C747.416 92.3333 748.616 95.4667 751.016 97.8C753.482 100.133 756.682 101.3 760.616 101.3C766.816 101.3 771.582 98.7333 774.916 93.6H787.216C784.682 98.6667 780.949 102.833 776.016 106.1C771.082 109.3 765.382 110.9 758.916 110.9C754.316 110.9 750.282 110 746.816 108.2C743.349 106.4 740.649 103.833 738.716 100.5C736.782 97.1 735.816 93.1333 735.816 88.6C735.816 86.6667 736.016 84.6 736.416 82.4C737.416 76.7333 739.449 71.7667 742.516 67.5C745.582 63.1667 749.382 59.8333 753.916 57.5C758.516 55.1667 763.516 54 768.916 54ZM779.616 78.1C779.749 76.9 779.816 76.0333 779.816 75.5C779.816 71.8333 778.582 68.9333 776.116 66.8C773.716 64.6667 770.582 63.6 766.716 63.6C762.649 63.6 758.982 64.9 755.716 67.5C752.449 70.1 750.216 73.6333 749.016 78.1H779.616ZM837.434 64.6C839.701 61.2667 842.368 58.6667 845.434 56.8C848.568 54.9333 852.034 54 855.834 54L853.734 65.8H850.834C846.434 65.8 842.901 66.9 840.234 69.1C837.568 71.3 835.701 75.1 834.634 80.5L829.434 110H818.034L827.734 54.9H839.134L837.434 64.6ZM893.313 54.9L901.413 96.9L924.913 54.9H936.713L888.713 135.9H876.913L892.813 109.1L880.613 54.9H893.313ZM1078.88 110.9C1075.08 110.9 1071.61 110.267 1068.48 109C1065.34 107.667 1062.88 105.833 1061.08 103.5C1059.28 101.1 1058.38 98.3667 1058.38 95.3C1058.38 94.7667 1058.44 94.0333 1058.58 93.1H1069.68C1069.41 95.6333 1070.18 97.7333 1071.98 99.4C1073.78 101.067 1076.31 101.9 1079.58 101.9C1082.78 101.9 1085.41 101.333 1087.48 100.2C1089.54 99.0667 1090.58 97.4 1090.58 95.2C1090.58 93.3333 1089.71 91.8333 1087.98 90.7C1086.31 89.5667 1083.61 88.3 1079.88 86.9C1076.34 85.5 1073.48 84.2 1071.28 83C1069.08 81.8 1067.18 80.1667 1065.58 78.1C1063.98 75.9667 1063.18 73.3333 1063.18 70.2C1063.18 67 1064.08 64.2 1065.88 61.8C1067.74 59.3333 1070.31 57.4333 1073.58 56.1C1076.91 54.7 1080.71 54 1084.98 54C1088.84 54 1092.28 54.6667 1095.28 56C1098.34 57.2667 1100.71 59.1 1102.38 61.5C1104.11 63.8333 1104.98 66.5333 1104.98 69.6C1104.98 70.5333 1104.94 71.2333 1104.88 71.7H1094.08C1094.34 69.1 1093.58 67 1091.78 65.4C1090.04 63.8 1087.54 63 1084.28 63C1081.41 63 1079.08 63.6 1077.28 64.8C1075.54 66 1074.68 67.6333 1074.68 69.7C1074.68 71.7667 1075.58 73.4333 1077.38 74.7C1079.18 75.9 1081.94 77.2333 1085.68 78.7C1089.08 80.0333 1091.84 81.3 1093.98 82.5C1096.11 83.7 1097.94 85.3 1099.48 87.3C1101.01 89.3 1101.78 91.8 1101.78 94.8C1101.78 98.0667 1100.78 100.933 1098.78 103.4C1096.84 105.8 1094.14 107.667 1090.68 109C1087.21 110.267 1083.28 110.9 1078.88 110.9ZM1192.6 54.9L1182.9 110H1171.5L1172.6 103.5C1170.4 105.767 1167.73 107.567 1164.6 108.9C1161.53 110.167 1158.36 110.8 1155.1 110.8C1149.3 110.8 1144.66 109.233 1141.2 106.1C1137.73 102.967 1136 98.5333 1136 92.8C1136 91.2667 1136.16 89.4333 1136.5 87.3L1142.2 54.9H1153.5L1148.1 85.6C1147.83 87.4667 1147.7 88.8 1147.7 89.6C1147.7 93.2667 1148.7 96.0667 1150.7 98C1152.76 99.9333 1155.6 100.9 1159.2 100.9C1163.4 100.9 1166.96 99.6667 1169.9 97.2C1172.83 94.6667 1174.76 91.0333 1175.7 86.3L1181.2 54.9H1192.6ZM1256.64 54C1262.44 54 1267.04 55.5667 1270.44 58.7C1273.9 61.7667 1275.64 66.2 1275.64 72C1275.64 73.4667 1275.47 75.3 1275.14 77.5L1269.34 110H1258.04L1263.54 79.2C1263.8 77.3333 1263.94 76 1263.94 75.2C1263.94 71.5333 1262.9 68.7333 1260.84 66.8C1258.84 64.8667 1256.04 63.9 1252.44 63.9C1248.1 63.9 1244.44 65.2333 1241.44 67.9C1238.5 70.5 1236.64 74.2667 1235.84 79.2V78.9L1230.34 110H1218.94L1228.64 54.9H1240.04L1238.94 61.3C1241.2 59.0333 1243.87 57.2667 1246.94 56C1250.07 54.6667 1253.3 54 1256.64 54ZM1324.28 64.6C1326.54 61.2667 1329.21 58.6667 1332.28 56.8C1335.41 54.9333 1338.88 54 1342.68 54L1340.58 65.8H1337.68C1333.28 65.8 1329.74 66.9 1327.08 69.1C1324.41 71.3 1322.54 75.1 1321.48 80.5L1316.28 110H1304.88L1314.58 54.9H1325.98L1324.28 64.6ZM1381.06 47.6C1379.26 47.6 1377.79 47.0333 1376.66 45.9C1375.52 44.7667 1374.96 43.3333 1374.96 41.6C1374.96 39.2667 1375.82 37.2667 1377.56 35.6C1379.36 33.8667 1381.39 33 1383.66 33C1385.46 33 1386.89 33.5667 1387.96 34.7C1389.09 35.8333 1389.66 37.2667 1389.66 39C1389.66 41.3333 1388.79 43.3667 1387.06 45.1C1385.32 46.7667 1383.32 47.6 1381.06 47.6ZM1385.36 54.9L1375.66 110H1364.26L1373.96 54.9H1385.36ZM1431.92 110.9C1428.12 110.9 1424.66 110.267 1421.52 109C1418.39 107.667 1415.92 105.833 1414.12 103.5C1412.32 101.1 1411.42 98.3667 1411.42 95.3C1411.42 94.7667 1411.49 94.0333 1411.62 93.1H1422.72C1422.46 95.6333 1423.22 97.7333 1425.02 99.4C1426.82 101.067 1429.36 101.9 1432.62 101.9C1435.82 101.9 1438.46 101.333 1440.52 100.2C1442.59 99.0667 1443.62 97.4 1443.62 95.2C1443.62 93.3333 1442.76 91.8333 1441.02 90.7C1439.36 89.5667 1436.66 88.3 1432.92 86.9C1429.39 85.5 1426.52 84.2 1424.32 83C1422.12 81.8 1420.22 80.1667 1418.62 78.1C1417.02 75.9667 1416.22 73.3333 1416.22 70.2C1416.22 67 1417.12 64.2 1418.92 61.8C1420.79 59.3333 1423.36 57.4333 1426.62 56.1C1429.96 54.7 1433.76 54 1438.02 54C1441.89 54 1445.32 54.6667 1448.32 56C1451.39 57.2667 1453.76 59.1 1455.42 61.5C1457.16 63.8333 1458.02 66.5333 1458.02 69.6C1458.02 70.5333 1457.99 71.2333 1457.92 71.7H1447.12C1447.39 69.1 1446.62 67 1444.82 65.4C1443.09 63.8 1440.59 63 1437.32 63C1434.46 63 1432.12 63.6 1430.32 64.8C1428.59 66 1427.72 67.6333 1427.72 69.7C1427.72 71.7667 1428.62 73.4333 1430.42 74.7C1432.22 75.9 1434.99 77.2333 1438.72 78.7C1442.12 80.0333 1444.89 81.3 1447.02 82.5C1449.16 83.7 1450.99 85.3 1452.52 87.3C1454.06 89.3 1454.82 91.8 1454.82 94.8C1454.82 98.0667 1453.82 100.933 1451.82 103.4C1449.89 105.8 1447.19 107.667 1443.72 109C1440.26 110.267 1436.32 110.9 1431.92 110.9ZM1519.64 54C1526.51 54 1531.98 55.9333 1536.04 59.8C1540.18 63.6667 1542.24 68.8667 1542.24 75.4C1542.24 76.9333 1542.08 78.7667 1541.74 80.9C1541.48 82.3667 1541.01 84.1667 1540.34 86.3H1498.24C1498.18 86.7667 1498.14 87.4667 1498.14 88.4C1498.14 92.3333 1499.34 95.4667 1501.74 97.8C1504.21 100.133 1507.41 101.3 1511.34 101.3C1517.54 101.3 1522.31 98.7333 1525.64 93.6H1537.94C1535.41 98.6667 1531.68 102.833 1526.74 106.1C1521.81 109.3 1516.11 110.9 1509.64 110.9C1505.04 110.9 1501.01 110 1497.54 108.2C1494.08 106.4 1491.38 103.833 1489.44 100.5C1487.51 97.1 1486.54 93.1333 1486.54 88.6C1486.54 86.6667 1486.74 84.6 1487.14 82.4C1488.14 76.7333 1490.18 71.7667 1493.24 67.5C1496.31 63.1667 1500.11 59.8333 1504.64 57.5C1509.24 55.1667 1514.24 54 1519.64 54ZM1530.34 78.1C1530.48 76.9 1530.54 76.0333 1530.54 75.5C1530.54 71.8333 1529.31 68.9333 1526.84 66.8C1524.44 64.6667 1521.31 63.6 1517.44 63.6C1513.38 63.6 1509.71 64.9 1506.44 67.5C1503.18 70.1 1500.94 73.6333 1499.74 78.1H1530.34ZM1694.82 110.9C1690.16 110.9 1686.06 109.933 1682.52 108C1678.99 106.067 1676.22 103.333 1674.22 99.8C1672.29 96.2667 1671.32 92.2333 1671.32 87.7C1671.32 81.5 1672.76 75.8333 1675.62 70.7C1678.56 65.5667 1682.56 61.5 1687.62 58.5C1692.76 55.5 1698.46 54 1704.72 54C1709.39 54 1713.52 55 1717.12 57C1720.72 58.9333 1723.52 61.6667 1725.52 65.2C1727.59 68.6667 1728.62 72.7 1728.62 77.3C1728.62 83.5 1727.12 89.1667 1724.12 94.3C1721.12 99.4333 1717.06 103.5 1711.92 106.5C1706.79 109.433 1701.09 110.9 1694.82 110.9ZM1696.22 101.3C1700.02 101.3 1703.49 100.233 1706.62 98.1C1709.82 95.9 1712.32 93.0333 1714.12 89.5C1715.92 85.9 1716.82 82.0667 1716.82 78C1716.82 73.4 1715.52 69.8667 1712.92 67.4C1710.32 64.8667 1707.06 63.6 1703.12 63.6C1699.26 63.6 1695.79 64.7 1692.72 66.9C1689.72 69.0333 1687.36 71.9333 1685.62 75.6C1683.96 79.2 1683.12 83.0667 1683.12 87.2C1683.12 91.6667 1684.32 95.1333 1686.72 97.6C1689.19 100.067 1692.36 101.3 1696.22 101.3ZM1789.79 42.3C1786.32 42.3 1783.76 42.9667 1782.09 44.3C1780.42 45.6333 1779.32 47.8667 1778.79 51L1778.09 54.9H1788.29L1786.69 64.2H1776.49L1768.39 110H1756.89L1764.99 64.2H1758.49L1760.09 54.9H1766.59L1767.29 51C1768.42 44.6667 1770.92 40.0667 1774.79 37.2C1778.66 34.2667 1784.19 32.8 1791.39 32.8L1789.79 42.3ZM1914.46 93.5C1921.72 88.3 1927.52 84 1931.86 80.6C1936.19 77.2 1939.92 73.7333 1943.06 70.2C1946.26 66.6 1948.12 63.1667 1948.66 59.9C1948.86 58.9667 1948.96 58.1 1948.96 57.3C1948.96 55.3667 1948.42 53.9 1947.36 52.9C1946.36 51.9 1944.82 51.4 1942.76 51.4C1937.62 51.4 1934.36 55.0333 1932.96 62.3H1916.36C1918.09 53.9 1921.69 47.6 1927.16 43.4C1932.69 39.1333 1939.02 37 1946.16 37C1953.09 37 1958.22 38.5667 1961.56 41.7C1964.96 44.8333 1966.66 48.9667 1966.66 54.1C1966.66 55.7 1966.52 57.1667 1966.26 58.5C1965.06 65.3 1961.52 71.6333 1955.66 77.5C1949.86 83.3667 1942.66 89.2333 1934.06 95.1H1961.06L1958.56 109H1908.36L1910.56 96.3L1914.46 93.5ZM1993.38 73.6C1995.32 62.5333 1999.05 53.7667 2004.58 47.3C2010.18 40.7667 2017.92 37.5 2027.78 37.5C2035.72 37.5 2041.52 39.6667 2045.18 44C2048.92 48.2667 2050.78 54.2333 2050.78 61.9C2050.78 65.0333 2050.38 68.9333 2049.58 73.6C2047.65 84.6667 2043.88 93.4667 2038.28 100C2032.68 106.467 2024.95 109.7 2015.08 109.7C2007.15 109.7 2001.35 107.567 1997.68 103.3C1994.08 98.9667 1992.28 92.9667 1992.28 85.3C1992.28 81.7667 1992.65 77.8667 1993.38 73.6ZM2032.68 73.6C2033.42 69.4667 2033.78 66.2333 2033.78 63.9C2033.78 60.5667 2033.12 58 2031.78 56.2C2030.45 54.4 2028.18 53.5 2024.98 53.5C2020.38 53.5 2017.02 55.2667 2014.88 58.8C2012.82 62.3333 2011.25 67.2667 2010.18 73.6C2009.45 77.7333 2009.08 80.9667 2009.08 83.3C2009.08 86.6333 2009.75 89.2 2011.08 91C2012.42 92.8 2014.68 93.7 2017.88 93.7C2022.48 93.7 2025.82 91.9333 2027.88 88.4C2030.02 84.8667 2031.62 79.9333 2032.68 73.6ZM2075.92 97L2078.32 83.2L2117.82 38H2137.02L2129.22 82.2H2137.42L2134.82 97H2126.62L2124.32 110H2107.12L2109.52 97H2075.92ZM2117.82 56.8L2096.52 82.2H2113.32L2117.82 56.8ZM2218.99 50.5L2182.39 110H2164.49L2201.39 52.4H2170.39L2172.99 37.9H2221.19L2218.99 50.5ZM2361.47 110.9C2357.67 110.9 2354.2 110.267 2351.07 109C2347.94 107.667 2345.47 105.833 2343.67 103.5C2341.87 101.1 2340.97 98.3667 2340.97 95.3C2340.97 94.7667 2341.04 94.0333 2341.17 93.1H2352.27C2352 95.6333 2352.77 97.7333 2354.57 99.4C2356.37 101.067 2358.9 101.9 2362.17 101.9C2365.37 101.9 2368 101.333 2370.07 100.2C2372.14 99.0667 2373.17 97.4 2373.17 95.2C2373.17 93.3333 2372.3 91.8333 2370.57 90.7C2368.9 89.5667 2366.2 88.3 2362.47 86.9C2358.94 85.5 2356.07 84.2 2353.87 83C2351.67 81.8 2349.77 80.1667 2348.17 78.1C2346.57 75.9667 2345.77 73.3333 2345.77 70.2C2345.77 67 2346.67 64.2 2348.47 61.8C2350.34 59.3333 2352.9 57.4333 2356.17 56.1C2359.5 54.7 2363.3 54 2367.57 54C2371.44 54 2374.87 54.6667 2377.87 56C2380.94 57.2667 2383.3 59.1 2384.97 61.5C2386.7 63.8333 2387.57 66.5333 2387.57 69.6C2387.57 70.5333 2387.54 71.2333 2387.47 71.7H2376.67C2376.94 69.1 2376.17 67 2374.37 65.4C2372.64 63.8 2370.14 63 2366.87 63C2364 63 2361.67 63.6 2359.87 64.8C2358.14 66 2357.27 67.6333 2357.27 69.7C2357.27 71.7667 2358.17 73.4333 2359.97 74.7C2361.77 75.9 2364.54 77.2333 2368.27 78.7C2371.67 80.0333 2374.44 81.3 2376.57 82.5C2378.7 83.7 2380.54 85.3 2382.07 87.3C2383.6 89.3 2384.37 91.8 2384.37 94.8C2384.37 98.0667 2383.37 100.933 2381.37 103.4C2379.44 105.8 2376.74 107.667 2373.27 109C2369.8 110.267 2365.87 110.9 2361.47 110.9ZM2431.59 94.7C2431.46 95.6333 2431.39 96.2333 2431.39 96.5C2431.39 97.9 2431.82 98.9333 2432.69 99.6C2433.56 100.2 2434.99 100.5 2436.99 100.5H2443.99L2442.29 110H2433.29C2428.89 110 2425.52 109.133 2423.19 107.4C2420.86 105.6 2419.69 102.767 2419.69 98.9C2419.69 97.4333 2419.82 96.0333 2420.09 94.7L2425.49 64.2H2418.99L2420.59 54.9H2427.19L2429.59 41.2H2441.09L2438.69 54.9H2451.99L2450.39 64.2H2436.99L2431.59 94.7ZM2474.9 82.2C2475.9 76.6667 2477.9 71.7667 2480.9 67.5C2483.96 63.2333 2487.7 59.9333 2492.1 57.6C2496.5 55.2 2501.1 54 2505.9 54C2510.23 54 2513.86 54.8667 2516.8 56.6C2519.73 58.2667 2521.93 60.3667 2523.4 62.9L2524.8 54.9H2536.3L2526.6 110H2515.1L2516.6 101.8C2514.2 104.4 2511.16 106.567 2507.5 108.3C2503.9 110.033 2499.96 110.9 2495.7 110.9C2491.56 110.9 2487.86 109.967 2484.6 108.1C2481.4 106.233 2478.86 103.6 2477 100.2C2475.2 96.7333 2474.3 92.7667 2474.3 88.3C2474.3 86.3 2474.5 84.2667 2474.9 82.2ZM2520 82.4C2520.26 81.1333 2520.4 79.7667 2520.4 78.3C2520.4 73.8333 2519.06 70.3333 2516.4 67.8C2513.8 65.2 2510.53 63.9 2506.6 63.9C2503.66 63.9 2500.8 64.6333 2498 66.1C2495.2 67.5 2492.76 69.6 2490.7 72.4C2488.63 75.1333 2487.26 78.4 2486.6 82.2C2486.33 83.4667 2486.2 84.8333 2486.2 86.3C2486.2 90.8333 2487.5 94.4333 2490.1 97.1C2492.76 99.7 2496.06 101 2500 101C2502.93 101 2505.8 100.267 2508.6 98.8C2511.4 97.3333 2513.83 95.2 2515.9 92.4C2517.96 89.5333 2519.33 86.2 2520 82.4ZM2600.27 54C2606.07 54 2610.67 55.5667 2614.07 58.7C2617.54 61.7667 2619.27 66.2 2619.27 72C2619.27 73.4667 2619.1 75.3 2618.77 77.5L2612.97 110H2601.67L2607.17 79.2C2607.44 77.3333 2607.57 76 2607.57 75.2C2607.57 71.5333 2606.54 68.7333 2604.47 66.8C2602.47 64.8667 2599.67 63.9 2596.07 63.9C2591.74 63.9 2588.07 65.2333 2585.07 67.9C2582.14 70.5 2580.27 74.2667 2579.47 79.2V78.9L2573.97 110H2562.57L2572.27 54.9H2583.67L2582.57 61.3C2584.84 59.0333 2587.5 57.2667 2590.57 56C2593.7 54.6667 2596.94 54 2600.27 54ZM2649.61 82.2C2650.61 76.6667 2652.61 71.7667 2655.61 67.5C2658.68 63.2333 2662.41 59.9333 2666.81 57.6C2671.21 55.2 2675.84 54 2680.71 54C2684.31 54 2687.71 54.8 2690.91 56.4C2694.11 57.9333 2696.54 60 2698.21 62.6L2702.91 36H2714.41L2701.31 110H2689.81L2691.31 101.7C2688.91 104.433 2685.91 106.667 2682.31 108.4C2678.78 110.067 2674.88 110.9 2670.61 110.9C2666.41 110.9 2662.68 109.967 2659.41 108.1C2656.14 106.233 2653.58 103.6 2651.71 100.2C2649.91 96.7333 2649.01 92.7667 2649.01 88.3C2649.01 86.3 2649.21 84.2667 2649.61 82.2ZM2694.71 82.4C2694.98 81.1333 2695.11 79.7667 2695.11 78.3C2695.11 73.8333 2693.78 70.3333 2691.11 67.8C2688.51 65.2 2685.24 63.9 2681.31 63.9C2678.38 63.9 2675.51 64.6333 2672.71 66.1C2669.91 67.5 2667.48 69.6 2665.41 72.4C2663.34 75.1333 2661.98 78.4 2661.31 82.2C2661.04 83.4667 2660.91 84.8333 2660.91 86.3C2660.91 90.8333 2662.21 94.4333 2664.81 97.1C2667.48 99.7 2670.78 101 2674.71 101C2677.64 101 2680.51 100.267 2683.31 98.8C2686.11 97.3333 2688.54 95.2 2690.61 92.4C2692.68 89.5333 2694.04 86.2 2694.71 82.4ZM2757.58 110.9C2753.78 110.9 2750.32 110.267 2747.18 109C2744.05 107.667 2741.58 105.833 2739.78 103.5C2737.98 101.1 2737.08 98.3667 2737.08 95.3C2737.08 94.7667 2737.15 94.0333 2737.28 93.1H2748.38C2748.12 95.6333 2748.88 97.7333 2750.68 99.4C2752.48 101.067 2755.02 101.9 2758.28 101.9C2761.48 101.9 2764.12 101.333 2766.18 100.2C2768.25 99.0667 2769.28 97.4 2769.28 95.2C2769.28 93.3333 2768.42 91.8333 2766.68 90.7C2765.02 89.5667 2762.32 88.3 2758.58 86.9C2755.05 85.5 2752.18 84.2 2749.98 83C2747.78 81.8 2745.88 80.1667 2744.28 78.1C2742.68 75.9667 2741.88 73.3333 2741.88 70.2C2741.88 67 2742.78 64.2 2744.58 61.8C2746.45 59.3333 2749.02 57.4333 2752.28 56.1C2755.62 54.7 2759.42 54 2763.68 54C2767.55 54 2770.98 54.6667 2773.98 56C2777.05 57.2667 2779.42 59.1 2781.08 61.5C2782.82 63.8333 2783.68 66.5333 2783.68 69.6C2783.68 70.5333 2783.65 71.2333 2783.58 71.7H2772.78C2773.05 69.1 2772.28 67 2770.48 65.4C2768.75 63.8 2766.25 63 2762.98 63C2760.12 63 2757.78 63.6 2755.98 64.8C2754.25 66 2753.38 67.6333 2753.38 69.7C2753.38 71.7667 2754.28 73.4333 2756.08 74.7C2757.88 75.9 2760.65 77.2333 2764.38 78.7C2767.78 80.0333 2770.55 81.3 2772.68 82.5C2774.82 83.7 2776.65 85.3 2778.18 87.3C2779.72 89.3 2780.48 91.8 2780.48 94.8C2780.48 98.0667 2779.48 100.933 2777.48 103.4C2775.55 105.8 2772.85 107.667 2769.38 109C2765.92 110.267 2761.98 110.9 2757.58 110.9ZM2937.76 110.9C2933.1 110.9 2929 109.933 2925.46 108C2921.93 106.067 2919.16 103.333 2917.16 99.8C2915.23 96.2667 2914.26 92.2333 2914.26 87.7C2914.26 81.5 2915.7 75.8333 2918.56 70.7C2921.5 65.5667 2925.5 61.5 2930.56 58.5C2935.7 55.5 2941.4 54 2947.66 54C2952.33 54 2956.46 55 2960.06 57C2963.66 58.9333 2966.46 61.6667 2968.46 65.2C2970.53 68.6667 2971.56 72.7 2971.56 77.3C2971.56 83.5 2970.06 89.1667 2967.06 94.3C2964.06 99.4333 2960 103.5 2954.86 106.5C2949.73 109.433 2944.03 110.9 2937.76 110.9ZM2939.16 101.3C2942.96 101.3 2946.43 100.233 2949.56 98.1C2952.76 95.9 2955.26 93.0333 2957.06 89.5C2958.86 85.9 2959.76 82.0667 2959.76 78C2959.76 73.4 2958.46 69.8667 2955.86 67.4C2953.26 64.8667 2950 63.6 2946.06 63.6C2942.2 63.6 2938.73 64.7 2935.66 66.9C2932.66 69.0333 2930.3 71.9333 2928.56 75.6C2926.9 79.2 2926.06 83.0667 2926.06 87.2C2926.06 91.6667 2927.26 95.1333 2929.66 97.6C2932.13 100.067 2935.3 101.3 2939.16 101.3ZM3036.13 54C3041.93 54 3046.53 55.5667 3049.93 58.7C3053.4 61.7667 3055.13 66.2 3055.13 72C3055.13 73.4667 3054.97 75.3 3054.63 77.5L3048.83 110H3037.53L3043.03 79.2C3043.3 77.3333 3043.43 76 3043.43 75.2C3043.43 71.5333 3042.4 68.7333 3040.33 66.8C3038.33 64.8667 3035.53 63.9 3031.93 63.9C3027.6 63.9 3023.93 65.2333 3020.93 67.9C3018 70.5 3016.13 74.2667 3015.33 79.2V78.9L3009.83 110H2998.43L3008.13 54.9H3019.53L3018.43 61.3C3020.7 59.0333 3023.37 57.2667 3026.43 56C3029.57 54.6667 3032.8 54 3036.13 54ZM3206.64 110.9C3202.84 110.9 3199.37 110.267 3196.24 109C3193.1 107.667 3190.64 105.833 3188.84 103.5C3187.04 101.1 3186.14 98.3667 3186.14 95.3C3186.14 94.7667 3186.2 94.0333 3186.34 93.1H3197.44C3197.17 95.6333 3197.94 97.7333 3199.74 99.4C3201.54 101.067 3204.07 101.9 3207.34 101.9C3210.54 101.9 3213.17 101.333 3215.24 100.2C3217.3 99.0667 3218.34 97.4 3218.34 95.2C3218.34 93.3333 3217.47 91.8333 3215.74 90.7C3214.07 89.5667 3211.37 88.3 3207.64 86.9C3204.1 85.5 3201.24 84.2 3199.04 83C3196.84 81.8 3194.94 80.1667 3193.34 78.1C3191.74 75.9667 3190.94 73.3333 3190.94 70.2C3190.94 67 3191.84 64.2 3193.64 61.8C3195.5 59.3333 3198.07 57.4333 3201.34 56.1C3204.67 54.7 3208.47 54 3212.74 54C3216.6 54 3220.04 54.6667 3223.04 56C3226.1 57.2667 3228.47 59.1 3230.14 61.5C3231.87 63.8333 3232.74 66.5333 3232.74 69.6C3232.74 70.5333 3232.7 71.2333 3232.64 71.7H3221.84C3222.1 69.1 3221.34 67 3219.54 65.4C3217.8 63.8 3215.3 63 3212.04 63C3209.17 63 3206.84 63.6 3205.04 64.8C3203.3 66 3202.44 67.6333 3202.44 69.7C3202.44 71.7667 3203.34 73.4333 3205.14 74.7C3206.94 75.9 3209.7 77.2333 3213.44 78.7C3216.84 80.0333 3219.6 81.3 3221.74 82.5C3223.87 83.7 3225.7 85.3 3227.24 87.3C3228.77 89.3 3229.54 91.8 3229.54 94.8C3229.54 98.0667 3228.54 100.933 3226.54 103.4C3224.6 105.8 3221.9 107.667 3218.44 109C3214.97 110.267 3211.04 110.9 3206.64 110.9ZM3299.15 54C3304.69 54 3309.12 55.5667 3312.45 58.7C3315.79 61.7667 3317.45 66.1667 3317.45 71.9C3317.45 73.4333 3317.29 75.3 3316.95 77.5L3311.15 110H3299.85L3305.35 79.2C3305.62 77.3333 3305.75 76 3305.75 75.2C3305.75 71.5333 3304.72 68.7333 3302.65 66.8C3300.65 64.8667 3297.85 63.9 3294.25 63.9C3289.92 63.9 3286.25 65.2333 3283.25 67.9C3280.32 70.5 3278.45 74.2667 3277.65 79.2V79L3272.15 110H3260.75L3273.85 36H3285.25L3280.75 61.3C3283.09 58.9667 3285.85 57.1667 3289.05 55.9C3292.25 54.6333 3295.62 54 3299.15 54ZM3347.79 82.2C3348.79 76.6667 3350.79 71.7667 3353.79 67.5C3356.86 63.2333 3360.59 59.9333 3364.99 57.6C3369.39 55.2 3373.99 54 3378.79 54C3383.13 54 3386.76 54.8667 3389.69 56.6C3392.63 58.2667 3394.83 60.3667 3396.29 62.9L3397.69 54.9H3409.19L3399.49 110H3387.99L3389.49 101.8C3387.09 104.4 3384.06 106.567 3380.39 108.3C3376.79 110.033 3372.86 110.9 3368.59 110.9C3364.46 110.9 3360.76 109.967 3357.49 108.1C3354.29 106.233 3351.76 103.6 3349.89 100.2C3348.09 96.7333 3347.19 92.7667 3347.19 88.3C3347.19 86.3 3347.39 84.2667 3347.79 82.2ZM3392.89 82.4C3393.16 81.1333 3393.29 79.7667 3393.29 78.3C3393.29 73.8333 3391.96 70.3333 3389.29 67.8C3386.69 65.2 3383.43 63.9 3379.49 63.9C3376.56 63.9 3373.69 64.6333 3370.89 66.1C3368.09 67.5 3365.66 69.6 3363.59 72.4C3361.53 75.1333 3360.16 78.4 3359.49 82.2C3359.23 83.4667 3359.09 84.8333 3359.09 86.3C3359.09 90.8333 3360.39 94.4333 3362.99 97.1C3365.66 99.7 3368.96 101 3372.89 101C3375.83 101 3378.69 100.267 3381.49 98.8C3384.29 97.3333 3386.73 95.2 3388.79 92.4C3390.86 89.5333 3392.23 86.2 3392.89 82.4ZM3436.57 82.2C3437.57 76.6667 3439.57 71.7667 3442.57 67.5C3445.63 63.2333 3449.37 59.9333 3453.77 57.6C3458.17 55.2 3462.8 54 3467.67 54C3471.27 54 3474.67 54.8 3477.87 56.4C3481.07 57.9333 3483.5 60 3485.17 62.6L3489.87 36H3501.37L3488.27 110H3476.77L3478.27 101.7C3475.87 104.433 3472.87 106.667 3469.27 108.4C3465.73 110.067 3461.83 110.9 3457.57 110.9C3453.37 110.9 3449.63 109.967 3446.37 108.1C3443.1 106.233 3440.53 103.6 3438.67 100.2C3436.87 96.7333 3435.97 92.7667 3435.97 88.3C3435.97 86.3 3436.17 84.2667 3436.57 82.2ZM3481.67 82.4C3481.93 81.1333 3482.07 79.7667 3482.07 78.3C3482.07 73.8333 3480.73 70.3333 3478.07 67.8C3475.47 65.2 3472.2 63.9 3468.27 63.9C3465.33 63.9 3462.47 64.6333 3459.67 66.1C3456.87 67.5 3454.43 69.6 3452.37 72.4C3450.3 75.1333 3448.93 78.4 3448.27 82.2C3448 83.4667 3447.87 84.8333 3447.87 86.3C3447.87 90.8333 3449.17 94.4333 3451.77 97.1C3454.43 99.7 3457.73 101 3461.67 101C3464.6 101 3467.47 100.267 3470.27 98.8C3473.07 97.3333 3475.5 95.2 3477.57 92.4C3479.63 89.5333 3481 86.2 3481.67 82.4ZM3548.34 110.9C3543.67 110.9 3539.57 109.933 3536.04 108C3532.51 106.067 3529.74 103.333 3527.74 99.8C3525.81 96.2667 3524.84 92.2333 3524.84 87.7C3524.84 81.5 3526.27 75.8333 3529.14 70.7C3532.07 65.5667 3536.07 61.5 3541.14 58.5C3546.27 55.5 3551.97 54 3558.24 54C3562.91 54 3567.04 55 3570.64 57C3574.24 58.9333 3577.04 61.6667 3579.04 65.2C3581.11 68.6667 3582.14 72.7 3582.14 77.3C3582.14 83.5 3580.64 89.1667 3577.64 94.3C3574.64 99.4333 3570.57 103.5 3565.44 106.5C3560.31 109.433 3554.61 110.9 3548.34 110.9ZM3549.74 101.3C3553.54 101.3 3557.01 100.233 3560.14 98.1C3563.34 95.9 3565.84 93.0333 3567.64 89.5C3569.44 85.9 3570.34 82.0667 3570.34 78C3570.34 73.4 3569.04 69.8667 3566.44 67.4C3563.84 64.8667 3560.57 63.6 3556.64 63.6C3552.77 63.6 3549.31 64.7 3546.24 66.9C3543.24 69.0333 3540.87 71.9333 3539.14 75.6C3537.47 79.2 3536.64 83.0667 3536.64 87.2C3536.64 91.6667 3537.84 95.1333 3540.24 97.6C3542.71 100.067 3545.87 101.3 3549.74 101.3ZM3692.71 54.9L3665.91 110H3653.91L3650.11 69.3L3631.71 110H3619.71L3612.21 54.9H3623.81L3627.61 99.2L3647.01 54.9H3658.91L3662.41 99L3681.51 54.9H3692.71ZM3732.83 110.9C3729.03 110.9 3725.56 110.267 3722.43 109C3719.3 107.667 3716.83 105.833 3715.03 103.5C3713.23 101.1 3712.33 98.3667 3712.33 95.3C3712.33 94.7667 3712.4 94.0333 3712.53 93.1H3723.63C3723.36 95.6333 3724.13 97.7333 3725.93 99.4C3727.73 101.067 3730.26 101.9 3733.53 101.9C3736.73 101.9 3739.36 101.333 3741.43 100.2C3743.5 99.0667 3744.53 97.4 3744.53 95.2C3744.53 93.3333 3743.66 91.8333 3741.93 90.7C3740.26 89.5667 3737.56 88.3 3733.83 86.9C3730.3 85.5 3727.43 84.2 3725.23 83C3723.03 81.8 3721.13 80.1667 3719.53 78.1C3717.93 75.9667 3717.13 73.3333 3717.13 70.2C3717.13 67 3718.03 64.2 3719.83 61.8C3721.7 59.3333 3724.26 57.4333 3727.53 56.1C3730.86 54.7 3734.66 54 3738.93 54C3742.8 54 3746.23 54.6667 3749.23 56C3752.3 57.2667 3754.66 59.1 3756.33 61.5C3758.06 63.8333 3758.93 66.5333 3758.93 69.6C3758.93 70.5333 3758.9 71.2333 3758.83 71.7H3748.03C3748.3 69.1 3747.53 67 3745.73 65.4C3744 63.8 3741.5 63 3738.23 63C3735.36 63 3733.03 63.6 3731.23 64.8C3729.5 66 3728.63 67.6333 3728.63 69.7C3728.63 71.7667 3729.53 73.4333 3731.33 74.7C3733.13 75.9 3735.9 77.2333 3739.63 78.7C3743.03 80.0333 3745.8 81.3 3747.93 82.5C3750.06 83.7 3751.9 85.3 3753.43 87.3C3754.96 89.3 3755.73 91.8 3755.73 94.8C3755.73 98.0667 3754.73 100.933 3752.73 103.4C3750.8 105.8 3748.1 107.667 3744.63 109C3741.16 110.267 3737.23 110.9 3732.83 110.9ZM3913.01 110.9C3908.34 110.9 3904.24 109.933 3900.71 108C3897.18 106.067 3894.41 103.333 3892.41 99.8C3890.48 96.2667 3889.51 92.2333 3889.51 87.7C3889.51 81.5 3890.94 75.8333 3893.81 70.7C3896.74 65.5667 3900.74 61.5 3905.81 58.5C3910.94 55.5 3916.64 54 3922.91 54C3927.58 54 3931.71 55 3935.31 57C3938.91 58.9333 3941.71 61.6667 3943.71 65.2C3945.78 68.6667 3946.81 72.7 3946.81 77.3C3946.81 83.5 3945.31 89.1667 3942.31 94.3C3939.31 99.4333 3935.24 103.5 3930.11 106.5C3924.98 109.433 3919.28 110.9 3913.01 110.9ZM3914.41 101.3C3918.21 101.3 3921.68 100.233 3924.81 98.1C3928.01 95.9 3930.51 93.0333 3932.31 89.5C3934.11 85.9 3935.01 82.0667 3935.01 78C3935.01 73.4 3933.71 69.8667 3931.11 67.4C3928.51 64.8667 3925.24 63.6 3921.31 63.6C3917.44 63.6 3913.98 64.7 3910.91 66.9C3907.91 69.0333 3905.54 71.9333 3903.81 75.6C3902.14 79.2 3901.31 83.0667 3901.31 87.2C3901.31 91.6667 3902.51 95.1333 3904.91 97.6C3907.38 100.067 3910.54 101.3 3914.41 101.3ZM4007.98 42.3C4004.51 42.3 4001.95 42.9667 4000.28 44.3C3998.61 45.6333 3997.51 47.8667 3996.98 51L3996.28 54.9H4006.48L4004.88 64.2H3994.68L3986.58 110H3975.08L3983.18 64.2H3976.68L3978.28 54.9H3984.78L3985.48 51C3986.61 44.6667 3989.11 40.0667 3992.98 37.2C3996.85 34.2667 4002.38 32.8 4009.58 32.8L4007.98 42.3ZM4150.14 110.9C4146.34 110.9 4142.88 110.267 4139.74 109C4136.61 107.667 4134.14 105.833 4132.34 103.5C4130.54 101.1 4129.64 98.3667 4129.64 95.3C4129.64 94.7667 4129.71 94.0333 4129.84 93.1H4140.94C4140.68 95.6333 4141.44 97.7333 4143.24 99.4C4145.04 101.067 4147.58 101.9 4150.84 101.9C4154.04 101.9 4156.68 101.333 4158.74 100.2C4160.81 99.0667 4161.84 97.4 4161.84 95.2C4161.84 93.3333 4160.98 91.8333 4159.24 90.7C4157.58 89.5667 4154.88 88.3 4151.14 86.9C4147.61 85.5 4144.74 84.2 4142.54 83C4140.34 81.8 4138.44 80.1667 4136.84 78.1C4135.24 75.9667 4134.44 73.3333 4134.44 70.2C4134.44 67 4135.34 64.2 4137.14 61.8C4139.01 59.3333 4141.58 57.4333 4144.84 56.1C4148.18 54.7 4151.98 54 4156.24 54C4160.11 54 4163.54 54.6667 4166.54 56C4169.61 57.2667 4171.98 59.1 4173.64 61.5C4175.38 63.8333 4176.24 66.5333 4176.24 69.6C4176.24 70.5333 4176.21 71.2333 4176.14 71.7H4165.34C4165.61 69.1 4164.84 67 4163.04 65.4C4161.31 63.8 4158.81 63 4155.54 63C4152.68 63 4150.34 63.6 4148.54 64.8C4146.81 66 4145.94 67.6333 4145.94 69.7C4145.94 71.7667 4146.84 73.4333 4148.64 74.7C4150.44 75.9 4153.21 77.2333 4156.94 78.7C4160.34 80.0333 4163.11 81.3 4165.24 82.5C4167.38 83.7 4169.21 85.3 4170.74 87.3C4172.28 89.3 4173.04 91.8 4173.04 94.8C4173.04 98.0667 4172.04 100.933 4170.04 103.4C4168.11 105.8 4165.41 107.667 4161.94 109C4158.48 110.267 4154.54 110.9 4150.14 110.9ZM4205.36 82.2C4206.36 76.6667 4208.36 71.7667 4211.36 67.5C4214.43 63.2333 4218.16 59.9333 4222.56 57.6C4226.96 55.2 4231.56 54 4236.36 54C4240.69 54 4244.33 54.8667 4247.26 56.6C4250.19 58.2667 4252.39 60.3667 4253.86 62.9L4255.26 54.9H4266.76L4257.06 110H4245.56L4247.06 101.8C4244.66 104.4 4241.63 106.567 4237.96 108.3C4234.36 110.033 4230.43 110.9 4226.16 110.9C4222.03 110.9 4218.33 109.967 4215.06 108.1C4211.86 106.233 4209.33 103.6 4207.46 100.2C4205.66 96.7333 4204.76 92.7667 4204.76 88.3C4204.76 86.3 4204.96 84.2667 4205.36 82.2ZM4250.46 82.4C4250.73 81.1333 4250.86 79.7667 4250.86 78.3C4250.86 73.8333 4249.53 70.3333 4246.86 67.8C4244.26 65.2 4240.99 63.9 4237.06 63.9C4234.13 63.9 4231.26 64.6333 4228.46 66.1C4225.66 67.5 4223.23 69.6 4221.16 72.4C4219.09 75.1333 4217.73 78.4 4217.06 82.2C4216.79 83.4667 4216.66 84.8333 4216.66 86.3C4216.66 90.8333 4217.96 94.4333 4220.56 97.1C4223.23 99.7 4226.53 101 4230.46 101C4233.39 101 4236.26 100.267 4239.06 98.8C4241.86 97.3333 4244.29 95.2 4246.36 92.4C4248.43 89.5333 4249.79 86.2 4250.46 82.4ZM4294.13 82.4C4295.13 76.7333 4297.13 71.7667 4300.13 67.5C4303.2 63.1667 4306.97 59.8333 4311.43 57.5C4315.97 55.1667 4320.87 54 4326.13 54C4332.8 54 4338.03 55.6 4341.83 58.8C4345.63 61.9333 4347.8 66.4333 4348.33 72.3H4336.03C4335.5 69.5667 4334.27 67.4333 4332.33 65.9C4330.4 64.3667 4327.77 63.6 4324.43 63.6C4319.77 63.6 4315.77 65.2667 4312.43 68.6C4309.1 71.8667 4306.9 76.4667 4305.83 82.4C4305.5 84.5333 4305.33 86.2667 4305.33 87.6C4305.33 92 4306.43 95.4 4308.63 97.8C4310.83 100.133 4313.9 101.3 4317.83 101.3C4324.43 101.3 4329.3 98.4 4332.43 92.6H4344.73C4342.13 98.2 4338.33 102.667 4333.33 106C4328.4 109.267 4322.67 110.9 4316.13 110.9C4309.2 110.9 4303.7 108.933 4299.63 105C4295.57 101 4293.53 95.6 4293.53 88.8C4293.53 86.7333 4293.73 84.6 4294.13 82.4ZM4393.4 64.6C4395.66 61.2667 4398.33 58.6667 4401.4 56.8C4404.53 54.9333 4408 54 4411.8 54L4409.7 65.8H4406.8C4402.4 65.8 4398.86 66.9 4396.2 69.1C4393.53 71.3 4391.66 75.1 4390.6 80.5L4385.4 110H4374L4383.7 54.9H4395.1L4393.4 64.6ZM4450.17 47.6C4448.37 47.6 4446.91 47.0333 4445.77 45.9C4444.64 44.7667 4444.07 43.3333 4444.07 41.6C4444.07 39.2667 4444.94 37.2667 4446.67 35.6C4448.47 33.8667 4450.51 33 4452.77 33C4454.57 33 4456.01 33.5667 4457.07 34.7C4458.21 35.8333 4458.77 37.2667 4458.77 39C4458.77 41.3333 4457.91 43.3667 4456.17 45.1C4454.44 46.7667 4452.44 47.6 4450.17 47.6ZM4454.47 54.9L4444.77 110H4433.37L4443.07 54.9H4454.47ZM4515.04 42.3C4511.57 42.3 4509.01 42.9667 4507.34 44.3C4505.67 45.6333 4504.57 47.8667 4504.04 51L4503.34 54.9H4513.54L4511.94 64.2H4501.74L4493.64 110H4482.14L4490.24 64.2H4483.74L4485.34 54.9H4491.84L4492.54 51C4493.67 44.6667 4496.17 40.0667 4500.04 37.2C4503.91 34.2667 4509.44 32.8 4516.64 32.8L4515.04 42.3ZM4551.74 47.6C4549.94 47.6 4548.48 47.0333 4547.34 45.9C4546.21 44.7667 4545.64 43.3333 4545.64 41.6C4545.64 39.2667 4546.51 37.2667 4548.24 35.6C4550.04 33.8667 4552.08 33 4554.34 33C4556.14 33 4557.58 33.5667 4558.64 34.7C4559.78 35.8333 4560.34 37.2667 4560.34 39C4560.34 41.3333 4559.48 43.3667 4557.74 45.1C4556.01 46.7667 4554.01 47.6 4551.74 47.6ZM4556.04 54.9L4546.34 110H4534.94L4544.64 54.9H4556.04ZM4583.41 82.4C4584.41 76.7333 4586.41 71.7667 4589.41 67.5C4592.48 63.1667 4596.25 59.8333 4600.71 57.5C4605.25 55.1667 4610.15 54 4615.41 54C4622.08 54 4627.31 55.6 4631.11 58.8C4634.91 61.9333 4637.08 66.4333 4637.61 72.3H4625.31C4624.78 69.5667 4623.55 67.4333 4621.61 65.9C4619.68 64.3667 4617.05 63.6 4613.71 63.6C4609.05 63.6 4605.05 65.2667 4601.71 68.6C4598.38 71.8667 4596.18 76.4667 4595.11 82.4C4594.78 84.5333 4594.61 86.2667 4594.61 87.6C4594.61 92 4595.71 95.4 4597.91 97.8C4600.11 100.133 4603.18 101.3 4607.11 101.3C4613.71 101.3 4618.58 98.4 4621.71 92.6H4634.01C4631.41 98.2 4627.61 102.667 4622.61 106C4617.68 109.267 4611.95 110.9 4605.41 110.9C4598.48 110.9 4592.98 108.933 4588.91 105C4584.85 101 4582.81 95.6 4582.81 88.8C4582.81 86.7333 4583.01 84.6 4583.41 82.4ZM4696.87 54C4703.74 54 4709.21 55.9333 4713.27 59.8C4717.41 63.6667 4719.47 68.8667 4719.47 75.4C4719.47 76.9333 4719.31 78.7667 4718.97 80.9C4718.71 82.3667 4718.24 84.1667 4717.57 86.3H4675.47C4675.41 86.7667 4675.37 87.4667 4675.37 88.4C4675.37 92.3333 4676.57 95.4667 4678.97 97.8C4681.44 100.133 4684.64 101.3 4688.57 101.3C4694.77 101.3 4699.54 98.7333 4702.87 93.6H4715.17C4712.64 98.6667 4708.91 102.833 4703.97 106.1C4699.04 109.3 4693.34 110.9 4686.87 110.9C4682.27 110.9 4678.24 110 4674.77 108.2C4671.31 106.4 4668.61 103.833 4666.67 100.5C4664.74 97.1 4663.77 93.1333 4663.77 88.6C4663.77 86.6667 4663.97 84.6 4664.37 82.4C4665.37 76.7333 4667.41 71.7667 4670.47 67.5C4673.54 63.1667 4677.34 59.8333 4681.87 57.5C4686.47 55.1667 4691.47 54 4696.87 54ZM4707.57 78.1C4707.71 76.9 4707.77 76.0333 4707.77 75.5C4707.77 71.8333 4706.54 68.9333 4704.07 66.8C4701.67 64.6667 4698.54 63.6 4694.67 63.6C4690.61 63.6 4686.94 64.9 4683.67 67.5C4680.41 70.1 4678.17 73.6333 4676.97 78.1H4707.57ZM4750.49 110.7C4748.69 110.7 4747.22 110.133 4746.09 109C4744.96 107.867 4744.39 106.433 4744.39 104.7C4744.39 102.367 4745.26 100.367 4746.99 98.7C4748.79 96.9667 4750.82 96.1 4753.09 96.1C4754.89 96.1 4756.32 96.6667 4757.39 97.8C4758.52 98.9333 4759.09 100.367 4759.09 102.1C4759.09 104.433 4758.22 106.467 4756.49 108.2C4754.76 109.867 4752.76 110.7 4750.49 110.7ZM4807.21 40.5H4819.61L4804.91 64.3H4796.91L4807.21 40.5ZM4825.21 40.5H4837.61L4822.91 64.3H4814.91L4825.21 40.5Z" fill="white"/>
<path d="M2420.55 327.669C2299.08 321.951 2203.47 347.225 2055.42 343.652C1907.38 340.08 1885.2 326.674 1715.65 329.69C1546.11 332.706 1376.48 323.536 1300.99 329.044C1225.5 334.554 1217.53 317.896 1110.33 321.596C1003.14 325.295 938.168 323.121 844.417 317.707C750.66 312.292 462.628 307.669 357.891 314.321C253.154 320.972 133.695 309.431 61.8524 306.694C39.4755 305.841 21.8644 304.675 8.36313 303.461C2.64379 302.946 0.00244181 301.869 0 300.806C0 300.806 0 300.805 0 300.804C0.0028427 299.481 4.09801 298.179 11.4493 298.012C47.1309 297.2 100.458 295.059 163.457 290.259C280.923 281.31 293.759 291.199 452.379 286.601C610.998 282.002 706.296 272.808 892.931 278.754C1079.56 284.698 1122.43 259.82 1385.88 273.919C1649.32 288.017 1677.05 261.999 1939.58 258.54C2202.12 255.08 2533.51 269.435 2691.77 268.245C2850.03 267.055 3062.58 264.024 3286.93 267.458C3511.29 270.891 3788.24 262.224 4035.89 268.35C4283.53 274.476 4633.65 282.214 4795.4 287.399C4957.15 292.583 4996.57 293.753 5152.26 290.585C5241.75 288.764 5365.03 290.48 5469.16 297.178C5521.57 300.548 5509.69 305.241 5456.94 307.487C5379.81 310.77 5316.49 308.577 5276.74 314.442C5197.33 326.163 5163.57 330.66 5063.31 323.837C4963.06 317.016 4915.82 332.519 4857.37 330.735C4798.93 328.949 4799.89 319.805 4502.72 326.85C4205.55 333.896 4042.64 335.694 3930.11 337.385C3817.57 339.077 3582.59 331.14 3399.18 334.005C3215.77 336.869 2842.92 334.244 2692.61 338.934C2542.31 343.623 2542 333.387 2420.55 327.669Z" fill="white" fill-opacity="0.7"/>
</svg>
