<svg width="1863" height="3862" viewBox="0 0 1863 3862" fill="none" xmlns="http://www.w3.org/2000/svg">
<foreignObject x="-0.00312805" y="0.000778198" width="1862.6" height="3861.6"><div xmlns="http://www.w3.org/1999/xhtml" style="backdrop-filter:blur(39.15px);clip-path:url(#bgblur_1_312_1325_clip_path);height:100%;width:100%"></div></foreignObject><g filter="url(#filter0_d_312_1325)" data-figma-bg-blur-radius="78.3">
<g clip-path="url(#clip0_312_1325)">
<rect x="131.797" y="84.8008" width="1599" height="3598" rx="450" fill="#111827" fill-opacity="0.23" shape-rendering="crispEdges"/>
<foreignObject x="507.997" y="2021" width="487.6" height="1027.6"><div xmlns="http://www.w3.org/1999/xhtml" style="backdrop-filter:blur(39.15px);clip-path:url(#bgblur_2_312_1325_clip_path);height:100%;width:100%"></div></foreignObject><g filter="url(#filter1_d_312_1325)" data-figma-bg-blur-radius="78.3">
<path d="M639.797 2217.8C639.797 2155.94 689.941 2105.8 751.797 2105.8C813.653 2105.8 863.797 2155.94 863.797 2217.8V2819.8C863.797 2847.42 841.411 2869.8 813.797 2869.8H689.797C662.183 2869.8 639.797 2847.42 639.797 2819.8V2217.8Z" fill="#722800" fill-opacity="0.45" shape-rendering="crispEdges"/>
<path d="M751.797 2106.8C813.1 2106.8 862.797 2156.5 862.797 2217.8V2819.8C862.797 2846.86 840.859 2868.8 813.797 2868.8H689.797C662.735 2868.8 640.797 2846.86 640.797 2819.8V2217.8C640.797 2156.5 690.493 2106.8 751.797 2106.8Z" stroke="url(#paint0_linear_312_1325)" stroke-width="2" shape-rendering="crispEdges"/>
</g>
<foreignObject x="867.997" y="868.001" width="487.6" height="2180.6"><div xmlns="http://www.w3.org/1999/xhtml" style="backdrop-filter:blur(39.15px);clip-path:url(#bgblur_3_312_1325_clip_path);height:100%;width:100%"></div></foreignObject><g filter="url(#filter2_d_312_1325)" data-figma-bg-blur-radius="78.3">
<path d="M999.797 1064.8C999.797 1002.94 1049.94 952.801 1111.8 952.801C1173.65 952.801 1223.8 1002.94 1223.8 1064.8V2819.8C1223.8 2847.42 1201.41 2869.8 1173.8 2869.8H1049.8C1022.18 2869.8 999.797 2847.42 999.797 2819.8V1064.8Z" fill="#FF5A00"/>
<path d="M1111.8 953.801C1173.1 953.801 1222.8 1003.5 1222.8 1064.8V2819.8C1222.8 2846.86 1200.86 2868.8 1173.8 2868.8H1049.8C1022.73 2868.8 1000.8 2846.86 1000.8 2819.8V1064.8C1000.8 1003.5 1050.49 953.801 1111.8 953.801Z" stroke="url(#paint1_linear_312_1325)" stroke-width="2"/>
</g>
<line x1="131.797" y1="2927.3" x2="5274.8" y2="2927.3" stroke="url(#paint2_linear_312_1325)" stroke-width="3"/>
<path d="M585.161 3053.2V3097.15H627.161V3102.85H585.161V3147.1H631.661V3152.8H578.411V3047.5H631.661V3053.2H585.161ZM647.893 3100.3C647.893 3089.9 650.043 3080.65 654.343 3072.55C658.743 3064.35 664.743 3057.95 672.343 3053.35C680.043 3048.75 688.643 3046.45 698.143 3046.45C710.143 3046.45 720.243 3049.25 728.443 3054.85C736.643 3060.45 742.643 3068.3 746.443 3078.4H738.643C735.643 3070.4 730.643 3064.1 723.643 3059.5C716.743 3054.8 708.243 3052.45 698.143 3052.45C690.043 3052.45 682.693 3054.4 676.093 3058.3C669.493 3062.1 664.293 3067.65 660.493 3074.95C656.693 3082.15 654.793 3090.6 654.793 3100.3C654.793 3109.9 656.693 3118.3 660.493 3125.5C664.293 3132.6 669.493 3138.1 676.093 3142C682.693 3145.9 690.043 3147.85 698.143 3147.85C708.243 3147.85 716.743 3145.55 723.643 3140.95C730.643 3136.25 735.643 3129.9 738.643 3121.9H746.443C742.643 3132 736.643 3139.85 728.443 3145.45C720.243 3151.05 710.143 3153.85 698.143 3153.85C688.643 3153.85 680.043 3151.6 672.343 3147.1C664.743 3142.5 658.743 3136.15 654.343 3128.05C650.043 3119.85 647.893 3110.6 647.893 3100.3ZM814.473 3154C804.773 3154 796.023 3151.75 788.223 3147.25C780.423 3142.65 774.323 3136.25 769.923 3128.05C765.523 3119.85 763.323 3110.6 763.323 3100.3C763.323 3089.9 765.523 3080.65 769.923 3072.55C774.323 3064.35 780.423 3058 788.223 3053.5C796.023 3048.9 804.773 3046.6 814.473 3046.6C824.173 3046.6 832.923 3048.9 840.723 3053.5C848.523 3058 854.623 3064.35 859.023 3072.55C863.423 3080.65 865.623 3089.9 865.623 3100.3C865.623 3110.6 863.423 3119.85 859.023 3128.05C854.623 3136.25 848.523 3142.65 840.723 3147.25C832.923 3151.75 824.173 3154 814.473 3154ZM814.473 3148C822.773 3148 830.273 3146.05 836.973 3142.15C843.673 3138.25 848.923 3132.7 852.723 3125.5C856.623 3118.3 858.573 3109.9 858.573 3100.3C858.573 3090.6 856.623 3082.15 852.723 3074.95C848.923 3067.75 843.673 3062.2 836.973 3058.3C830.273 3054.4 822.773 3052.45 814.473 3052.45C806.173 3052.45 798.673 3054.4 791.973 3058.3C785.273 3062.2 779.973 3067.75 776.073 3074.95C772.173 3082.15 770.223 3090.6 770.223 3100.3C770.223 3109.9 772.173 3118.3 776.073 3125.5C779.973 3132.7 785.273 3138.25 791.973 3142.15C798.673 3146.05 806.173 3148 814.473 3148ZM961.329 3152.8H954.579L892.779 3058.6V3152.8H886.029V3047.65H892.779L954.579 3141.55V3047.65H961.329V3152.8ZM1033.03 3154C1023.33 3154 1014.58 3151.75 1006.78 3147.25C998.977 3142.65 992.877 3136.25 988.477 3128.05C984.077 3119.85 981.877 3110.6 981.877 3100.3C981.877 3089.9 984.077 3080.65 988.477 3072.55C992.877 3064.35 998.977 3058 1006.78 3053.5C1014.58 3048.9 1023.33 3046.6 1033.03 3046.6C1042.73 3046.6 1051.48 3048.9 1059.28 3053.5C1067.08 3058 1073.18 3064.35 1077.58 3072.55C1081.98 3080.65 1084.18 3089.9 1084.18 3100.3C1084.18 3110.6 1081.98 3119.85 1077.58 3128.05C1073.18 3136.25 1067.08 3142.65 1059.28 3147.25C1051.48 3151.75 1042.73 3154 1033.03 3154ZM1033.03 3148C1041.33 3148 1048.83 3146.05 1055.53 3142.15C1062.23 3138.25 1067.48 3132.7 1071.28 3125.5C1075.18 3118.3 1077.13 3109.9 1077.13 3100.3C1077.13 3090.6 1075.18 3082.15 1071.28 3074.95C1067.48 3067.75 1062.23 3062.2 1055.53 3058.3C1048.83 3054.4 1041.33 3052.45 1033.03 3052.45C1024.73 3052.45 1017.23 3054.4 1010.53 3058.3C1003.83 3062.2 998.527 3067.75 994.627 3074.95C990.727 3082.15 988.777 3090.6 988.777 3100.3C988.777 3109.9 990.727 3118.3 994.627 3125.5C998.527 3132.7 1003.83 3138.25 1010.53 3142.15C1017.23 3146.05 1024.73 3148 1033.03 3148ZM1202.83 3049.75V3152.8H1196.08V3063.85L1156.48 3152.8H1151.08L1111.33 3063.85V3152.8H1104.58V3049.75H1111.78L1153.78 3143.95L1195.78 3049.75H1202.83ZM1292.58 3047.5L1259.43 3110.2V3152.8H1252.68V3110.2L1219.23 3047.5H1226.88L1255.98 3103.9L1284.93 3047.5H1292.58Z" fill="white"/>
<path d="M645.062 2006.25C645.062 2010.85 643.962 2015.25 641.762 2019.45C639.662 2023.65 636.312 2027.1 631.712 2029.8C627.212 2032.5 621.612 2033.85 614.912 2033.85V2045.85H610.112V2033.7C601.512 2032.9 594.512 2030 589.112 2025C583.712 2019.9 580.762 2013.85 580.262 2006.85H587.312C587.912 2011.65 590.112 2016.15 593.912 2020.35C597.812 2024.55 603.212 2027.05 610.112 2027.85V1981.65C603.512 1979.75 598.212 1977.9 594.212 1976.1C590.212 1974.3 586.812 1971.55 584.012 1967.85C581.312 1964.15 579.962 1959.2 579.962 1953C579.962 1948 581.112 1943.5 583.412 1939.5C585.812 1935.5 589.262 1932.35 593.762 1930.05C598.362 1927.65 603.812 1926.45 610.112 1926.45V1913.4H614.912V1926.6C622.912 1927.4 629.312 1930.05 634.112 1934.55C638.912 1939.05 641.862 1944.4 642.962 1950.6H635.912C635.012 1946.5 632.812 1942.65 629.312 1939.05C625.812 1935.45 621.012 1933.25 614.912 1932.45V1976.7C621.312 1978.5 626.562 1980.35 630.662 1982.25C634.762 1984.15 638.162 1987.05 640.862 1990.95C643.662 1994.75 645.062 1999.85 645.062 2006.25ZM586.862 1952.7C586.862 1957.3 587.862 1961.05 589.862 1963.95C591.962 1966.85 594.612 1969.15 597.812 1970.85C601.112 1972.45 605.212 1973.95 610.112 1975.35V1932.15C603.012 1932.25 597.362 1934.1 593.162 1937.7C588.962 1941.2 586.862 1946.2 586.862 1952.7ZM614.912 2028.15C622.412 2028.05 628.162 2025.95 632.162 2021.85C636.262 2017.75 638.312 2012.65 638.312 2006.55C638.312 1999.75 636.262 1994.7 632.162 1991.4C628.162 1988.1 622.412 1985.35 614.912 1983.15V2028.15ZM665.523 1954.05C666.423 1944.95 669.923 1937.8 676.023 1932.6C682.223 1927.4 690.373 1924.8 700.473 1924.8C706.973 1924.8 712.523 1926 717.123 1928.4C721.723 1930.7 725.223 1933.85 727.623 1937.85C730.023 1941.85 731.223 1946.4 731.223 1951.5C731.223 1957.9 729.273 1963.45 725.373 1968.15C721.473 1972.75 715.523 1975.5 707.523 1976.4V1977.3C715.223 1978.5 721.423 1981.45 726.123 1986.15C730.823 1990.85 733.173 1997.15 733.173 2005.05C733.173 2013.45 730.373 2020.35 724.773 2025.75C719.273 2031.05 711.173 2033.7 700.473 2033.7C690.373 2033.7 682.023 2031 675.423 2025.6C668.923 2020.2 665.023 2012.55 663.723 2002.65H670.323C671.523 2010.05 674.723 2016.1 679.923 2020.8C685.123 2025.4 691.973 2027.7 700.473 2027.7C709.073 2027.7 715.573 2025.55 719.973 2021.25C724.473 2016.95 726.723 2011.4 726.723 2004.6C726.723 1996.4 723.573 1990.25 717.273 1986.15C711.073 1982.05 702.173 1980 690.573 1980H687.723V1974.15H690.723C713.323 1974.05 724.623 1966.65 724.623 1951.95C724.623 1945.55 722.473 1940.4 718.173 1936.5C713.973 1932.6 708.023 1930.65 700.323 1930.65C692.823 1930.65 686.473 1932.65 681.273 1936.65C676.173 1940.55 673.123 1946.35 672.123 1954.05H665.523ZM754.185 2033.25C752.485 2033.25 751.085 2032.7 749.985 2031.6C748.885 2030.5 748.335 2029.1 748.335 2027.4C748.335 2025.7 748.885 2024.3 749.985 2023.2C751.085 2022.1 752.485 2021.55 754.185 2021.55C755.785 2021.55 757.135 2022.1 758.235 2023.2C759.335 2024.3 759.885 2025.7 759.885 2027.4C759.885 2029.1 759.335 2030.5 758.235 2031.6C757.135 2032.7 755.785 2033.25 754.185 2033.25ZM785.447 2004.9C786.447 2012.2 789.097 2017.85 793.397 2021.85C797.797 2025.85 803.697 2027.85 811.097 2027.85C821.197 2027.85 828.847 2024.1 834.047 2016.6C839.347 2009.1 841.997 1996.95 841.997 1980.15L841.847 1974.3C840.347 1980.9 836.597 1986.15 830.597 1990.05C824.697 1993.95 817.797 1995.9 809.897 1995.9C799.097 1995.9 790.597 1992.7 784.397 1986.3C778.197 1979.9 775.097 1971.05 775.097 1959.75C775.097 1949.75 777.947 1941.45 783.647 1934.85C789.447 1928.15 798.147 1924.8 809.747 1924.8C824.347 1924.8 834.347 1929.45 839.747 1938.75C845.247 1948.05 847.997 1961 847.997 1977.6C847.997 1995.9 845.147 2009.85 839.447 2019.45C833.747 2028.95 824.197 2033.7 810.797 2033.7C801.397 2033.7 793.997 2031.1 788.597 2025.9C783.197 2020.6 779.997 2013.6 778.997 2004.9H785.447ZM810.647 1990.2C815.747 1990.2 820.597 1989.15 825.197 1987.05C829.797 1984.85 833.497 1981.65 836.297 1977.45C839.197 1973.25 840.647 1968.15 840.647 1962.15C840.647 1956.45 839.547 1951.2 837.347 1946.4C835.147 1941.6 831.697 1937.75 826.997 1934.85C822.397 1931.95 816.647 1930.5 809.747 1930.5C801.247 1930.5 794.397 1933.15 789.197 1938.45C784.097 1943.65 781.547 1950.75 781.547 1959.75C781.547 1969.45 784.097 1976.95 789.197 1982.25C794.297 1987.55 801.447 1990.2 810.647 1990.2ZM928.864 1927.5V1933.2H898.864V2032.8H892.114V1933.2H862.114V1927.5H928.864Z" fill="white"/>
<path d="M1041.26 866.251C1041.26 870.851 1040.16 875.251 1037.96 879.451C1035.86 883.651 1032.51 887.101 1027.91 889.801C1023.41 892.501 1017.81 893.851 1011.11 893.851V905.851H1006.31V893.701C997.706 892.901 990.706 890.001 985.306 885.001C979.906 879.901 976.956 873.851 976.456 866.851H983.506C984.106 871.651 986.306 876.151 990.106 880.351C994.006 884.551 999.406 887.051 1006.31 887.851V841.651C999.706 839.751 994.406 837.901 990.406 836.101C986.406 834.301 983.006 831.551 980.206 827.851C977.506 824.151 976.156 819.201 976.156 813.001C976.156 808.001 977.306 803.501 979.606 799.501C982.006 795.501 985.456 792.351 989.956 790.051C994.556 787.651 1000.01 786.451 1006.31 786.451V773.401H1011.11V786.601C1019.11 787.401 1025.51 790.051 1030.31 794.551C1035.11 799.051 1038.06 804.401 1039.16 810.601H1032.11C1031.21 806.501 1029.01 802.651 1025.51 799.051C1022.01 795.451 1017.21 793.251 1011.11 792.451V836.701C1017.51 838.501 1022.76 840.351 1026.86 842.251C1030.96 844.151 1034.36 847.051 1037.06 850.951C1039.86 854.751 1041.26 859.851 1041.26 866.251ZM983.056 812.701C983.056 817.301 984.056 821.051 986.056 823.951C988.156 826.851 990.806 829.151 994.006 830.851C997.306 832.451 1001.41 833.951 1006.31 835.351V792.151C999.206 792.251 993.556 794.101 989.356 797.701C985.156 801.201 983.056 806.201 983.056 812.701ZM1011.11 888.151C1018.61 888.051 1024.36 885.951 1028.36 881.851C1032.46 877.751 1034.51 872.651 1034.51 866.551C1034.51 859.751 1032.46 854.701 1028.36 851.401C1024.36 848.101 1018.61 845.351 1011.11 843.151V888.151ZM1055.57 792.301V786.151H1077.77V892.801H1071.02V792.301H1055.57ZM1100.99 838.951C1100.99 821.651 1103.49 808.351 1108.49 799.051C1113.49 789.651 1122.69 784.951 1136.09 784.951C1149.39 784.951 1158.54 789.651 1163.54 799.051C1168.54 808.351 1171.04 821.651 1171.04 838.951C1171.04 856.451 1168.54 869.951 1163.54 879.451C1158.54 888.851 1149.39 893.551 1136.09 893.551C1122.69 893.551 1113.49 888.851 1108.49 879.451C1103.49 869.951 1100.99 856.451 1100.99 838.951ZM1164.44 838.951C1164.44 828.951 1163.69 820.501 1162.19 813.601C1160.79 806.701 1157.99 801.251 1153.79 797.251C1149.69 793.151 1143.79 791.101 1136.09 791.101C1128.39 791.101 1122.44 793.151 1118.24 797.251C1114.14 801.251 1111.34 806.701 1109.84 813.601C1108.44 820.501 1107.74 828.951 1107.74 838.951C1107.74 849.151 1108.44 857.751 1109.84 864.751C1111.34 871.651 1114.14 877.151 1118.24 881.251C1122.44 885.351 1128.39 887.401 1136.09 887.401C1143.79 887.401 1149.69 885.351 1153.79 881.251C1157.99 877.151 1160.79 871.651 1162.19 864.751C1163.69 857.751 1164.44 849.151 1164.44 838.951ZM1251.67 787.501V793.201H1221.67V892.801H1214.92V793.201H1184.92V787.501H1251.67Z" fill="white"/>
</g>
<rect x="132.797" y="85.8008" width="1597" height="3596" rx="449" stroke="url(#paint3_linear_312_1325)" stroke-width="2" shape-rendering="crispEdges"/>
</g>
<defs>
<filter id="filter0_d_312_1325" x="-0.00312805" y="0.000778198" width="1862.6" height="3861.6" filterUnits="userSpaceOnUse" color-interpolation-filters="sRGB">
<feFlood flood-opacity="0" result="BackgroundImageFix"/>
<feColorMatrix in="SourceAlpha" type="matrix" values="0 0 0 0 0 0 0 0 0 0 0 0 0 0 0 0 0 0 127 0" result="hardAlpha"/>
<feMorphology radius="22" operator="dilate" in="SourceAlpha" result="effect1_dropShadow_312_1325"/>
<feOffset dy="47"/>
<feGaussianBlur stdDeviation="54.9"/>
<feComposite in2="hardAlpha" operator="out"/>
<feColorMatrix type="matrix" values="0 0 0 0 0 0 0 0 0 0 0 0 0 0 0 0 0 0 0.85 0"/>
<feBlend mode="normal" in2="BackgroundImageFix" result="effect1_dropShadow_312_1325"/>
<feBlend mode="normal" in="SourceGraphic" in2="effect1_dropShadow_312_1325" result="shape"/>
</filter>
<clipPath id="bgblur_1_312_1325_clip_path" transform="translate(0.00312805 -0.000778198)"><rect x="131.797" y="84.8008" width="1599" height="3598" rx="450"/>
</clipPath><filter id="filter1_d_312_1325" x="507.997" y="2021" width="487.6" height="1027.6" filterUnits="userSpaceOnUse" color-interpolation-filters="sRGB">
<feFlood flood-opacity="0" result="BackgroundImageFix"/>
<feColorMatrix in="SourceAlpha" type="matrix" values="0 0 0 0 0 0 0 0 0 0 0 0 0 0 0 0 0 0 127 0" result="hardAlpha"/>
<feMorphology radius="22" operator="dilate" in="SourceAlpha" result="effect1_dropShadow_312_1325"/>
<feOffset dy="47"/>
<feGaussianBlur stdDeviation="54.9"/>
<feComposite in2="hardAlpha" operator="out"/>
<feColorMatrix type="matrix" values="0 0 0 0 0 0 0 0 0 0 0 0 0 0 0 0 0 0 0.85 0"/>
<feBlend mode="normal" in2="BackgroundImageFix" result="effect1_dropShadow_312_1325"/>
<feBlend mode="normal" in="SourceGraphic" in2="effect1_dropShadow_312_1325" result="shape"/>
</filter>
<clipPath id="bgblur_2_312_1325_clip_path" transform="translate(-507.997 -2021)"><path d="M639.797 2217.8C639.797 2155.94 689.941 2105.8 751.797 2105.8C813.653 2105.8 863.797 2155.94 863.797 2217.8V2819.8C863.797 2847.42 841.411 2869.8 813.797 2869.8H689.797C662.183 2869.8 639.797 2847.42 639.797 2819.8V2217.8Z"/>
</clipPath><filter id="filter2_d_312_1325" x="867.997" y="868.001" width="487.6" height="2180.6" filterUnits="userSpaceOnUse" color-interpolation-filters="sRGB">
<feFlood flood-opacity="0" result="BackgroundImageFix"/>
<feColorMatrix in="SourceAlpha" type="matrix" values="0 0 0 0 0 0 0 0 0 0 0 0 0 0 0 0 0 0 127 0" result="hardAlpha"/>
<feMorphology radius="22" operator="dilate" in="SourceAlpha" result="effect1_dropShadow_312_1325"/>
<feOffset dy="47"/>
<feGaussianBlur stdDeviation="54.9"/>
<feComposite in2="hardAlpha" operator="out"/>
<feColorMatrix type="matrix" values="0 0 0 0 0 0 0 0 0 0 0 0 0 0 0 0 0 0 0.85 0"/>
<feBlend mode="normal" in2="BackgroundImageFix" result="effect1_dropShadow_312_1325"/>
<feBlend mode="normal" in="SourceGraphic" in2="effect1_dropShadow_312_1325" result="shape"/>
</filter>
<clipPath id="bgblur_3_312_1325_clip_path" transform="translate(-867.997 -868.001)"><path d="M999.797 1064.8C999.797 1002.94 1049.94 952.801 1111.8 952.801C1173.65 952.801 1223.8 1002.94 1223.8 1064.8V2819.8C1223.8 2847.42 1201.41 2869.8 1173.8 2869.8H1049.8C1022.18 2869.8 999.797 2847.42 999.797 2819.8V1064.8Z"/>
</clipPath><linearGradient id="paint0_linear_312_1325" x1="751.797" y1="2105.8" x2="751.797" y2="2869.8" gradientUnits="userSpaceOnUse">
<stop stop-color="white"/>
<stop offset="1" stop-color="white" stop-opacity="0.7"/>
</linearGradient>
<linearGradient id="paint1_linear_312_1325" x1="1111.8" y1="952.801" x2="1111.8" y2="2869.8" gradientUnits="userSpaceOnUse">
<stop stop-color="white"/>
<stop offset="1" stop-color="white" stop-opacity="0.7"/>
</linearGradient>
<linearGradient id="paint2_linear_312_1325" x1="131.797" y1="2929.3" x2="5274.8" y2="2929.3" gradientUnits="userSpaceOnUse">
<stop stop-color="white"/>
<stop offset="1" stop-color="#999999"/>
</linearGradient>
<linearGradient id="paint3_linear_312_1325" x1="931.297" y1="84.8008" x2="931.297" y2="3682.8" gradientUnits="userSpaceOnUse">
<stop stop-color="white"/>
<stop offset="1" stop-color="white" stop-opacity="0.7"/>
</linearGradient>
<clipPath id="clip0_312_1325">
<rect x="131.797" y="84.8008" width="1599" height="3598" rx="450" fill="white"/>
</clipPath>
</defs>
</svg>
