<svg width="1125" height="368" viewBox="0 0 1125 368" fill="none" xmlns="http://www.w3.org/2000/svg">
<path d="M774.3 278.7C774.3 284.5 772.3 289.333 768.3 293.2C764.367 297 758.333 298.9 750.2 298.9H736.8V328H727.7V258.3H750.2C758.067 258.3 764.033 260.2 768.1 264C772.233 267.8 774.3 272.7 774.3 278.7ZM750.2 291.4C755.267 291.4 759 290.3 761.4 288.1C763.8 285.9 765 282.767 765 278.7C765 270.1 760.067 265.8 750.2 265.8H736.8V291.4H750.2ZM822.31 328L805.71 299.5H794.71V328H785.61V258.3H808.11C813.377 258.3 817.81 259.2 821.41 261C825.077 262.8 827.81 265.233 829.61 268.3C831.41 271.367 832.31 274.867 832.31 278.8C832.31 283.6 830.91 287.833 828.11 291.5C825.377 295.167 821.243 297.6 815.71 298.8L833.21 328H822.31ZM794.71 292.2H808.11C813.043 292.2 816.743 291 819.21 288.6C821.677 286.133 822.91 282.867 822.91 278.8C822.91 274.667 821.677 271.467 819.21 269.2C816.81 266.933 813.11 265.8 808.11 265.8H794.71V292.2ZM855.55 265.7V289H880.95V296.5H855.55V320.5H883.95V328H846.45V258.2H883.95V265.7H855.55ZM919.82 328.7C915.22 328.7 911.086 327.9 907.42 326.3C903.82 324.633 900.986 322.367 898.92 319.5C896.853 316.567 895.786 313.2 895.72 309.4H905.42C905.753 312.667 907.086 315.433 909.42 317.7C911.82 319.9 915.286 321 919.82 321C924.153 321 927.553 319.933 930.02 317.8C932.553 315.6 933.82 312.8 933.82 309.4C933.82 306.733 933.086 304.567 931.62 302.9C930.153 301.233 928.32 299.967 926.12 299.1C923.92 298.233 920.953 297.3 917.22 296.3C912.62 295.1 908.92 293.9 906.12 292.7C903.386 291.5 901.02 289.633 899.02 287.1C897.086 284.5 896.12 281.033 896.12 276.7C896.12 272.9 897.086 269.533 899.02 266.6C900.953 263.667 903.653 261.4 907.12 259.8C910.653 258.2 914.686 257.4 919.22 257.4C925.753 257.4 931.086 259.033 935.22 262.3C939.42 265.567 941.786 269.9 942.32 275.3H932.32C931.986 272.633 930.586 270.3 928.12 268.3C925.653 266.233 922.386 265.2 918.32 265.2C914.52 265.2 911.42 266.2 909.02 268.2C906.62 270.133 905.42 272.867 905.42 276.4C905.42 278.933 906.12 281 907.52 282.6C908.986 284.2 910.753 285.433 912.82 286.3C914.953 287.1 917.92 288.033 921.72 289.1C926.32 290.367 930.02 291.633 932.82 292.9C935.62 294.1 938.02 296 940.02 298.6C942.02 301.133 943.02 304.6 943.02 309C943.02 312.4 942.12 315.6 940.32 318.6C938.52 321.6 935.853 324.033 932.32 325.9C928.786 327.767 924.62 328.7 919.82 328.7ZM965.511 265.7V289H990.911V296.5H965.511V320.5H993.911V328H956.411V258.2H993.911V265.7H965.511ZM1062.48 328H1053.38L1016.78 272.5V328H1007.68V258.2H1016.78L1053.38 313.6V258.2H1062.48V328ZM1120.89 258.3V265.7H1101.89V328H1092.79V265.7H1073.69V258.3H1120.89Z" fill="white"/>
<path d="M725.1 102.7C733.567 95.9 740.2 90.3333 745 86C749.8 81.6 753.833 77.0333 757.1 72.3C760.433 67.5 762.1 62.8 762.1 58.2C762.1 53.8667 761.033 50.4667 758.9 48C756.833 45.4667 753.467 44.2 748.8 44.2C744.267 44.2 740.733 45.6333 738.2 48.5C735.733 51.3 734.4 55.0667 734.2 59.8H725.4C725.667 52.3333 727.933 46.5667 732.2 42.5C736.467 38.4333 741.967 36.4 748.7 36.4C755.567 36.4 761 38.3 765 42.1C769.067 45.9 771.1 51.1333 771.1 57.8C771.1 63.3333 769.433 68.7333 766.1 74C762.833 79.2 759.1 83.8 754.9 87.8C750.7 91.7333 745.333 96.3333 738.8 101.6H773.2V109.2H725.1V102.7ZM783.72 73.1C783.72 61.6333 785.586 52.7 789.32 46.3C793.053 39.8333 799.586 36.6 808.92 36.6C818.186 36.6 824.686 39.8333 828.42 46.3C832.153 52.7 834.02 61.6333 834.02 73.1C834.02 84.7667 832.153 93.8333 828.42 100.3C824.686 106.767 818.186 110 808.92 110C799.586 110 793.053 106.767 789.32 100.3C785.586 93.8333 783.72 84.7667 783.72 73.1ZM825.02 73.1C825.02 67.3 824.62 62.4 823.82 58.4C823.086 54.3333 821.52 51.0667 819.12 48.6C816.786 46.1333 813.386 44.9 808.92 44.9C804.386 44.9 800.92 46.1333 798.52 48.6C796.186 51.0667 794.62 54.3333 793.82 58.4C793.086 62.4 792.72 67.3 792.72 73.1C792.72 79.1 793.086 84.1333 793.82 88.2C794.62 92.2667 796.186 95.5333 798.52 98C800.92 100.467 804.386 101.7 808.92 101.7C813.386 101.7 816.786 100.467 819.12 98C821.52 95.5333 823.086 92.2667 823.82 88.2C824.62 84.1333 825.02 79.1 825.02 73.1ZM844.313 93.9V87L879.413 38.4H890.312V86H900.313V93.9H890.312V110H881.313V93.9H844.313ZM881.713 47.9L854.813 86H881.713V47.9ZM953.903 44.8L926.103 110H916.903L945.103 45.7H906.503V37.9H953.903V44.8Z" fill="white"/>
<rect x="1" y="1" width="149.256" height="143.854" rx="49" fill="#FF5A00"/>
<rect x="1" y="1" width="149.256" height="143.854" rx="49" stroke="url(#paint0_linear_335_46)" stroke-width="2"/>
<rect x="151.578" y="1" width="149.256" height="143.854" rx="49" fill="#39AA9B"/>
<rect x="151.578" y="1" width="149.256" height="143.854" rx="49" stroke="url(#paint1_linear_335_46)" stroke-width="2"/>
<rect x="302.164" y="1" width="149.256" height="143.854" rx="49" fill="#D74040"/>
<rect x="302.164" y="1" width="149.256" height="143.854" rx="49" stroke="url(#paint2_linear_335_46)" stroke-width="2"/>
<rect x="452.742" y="1" width="149.256" height="143.854" rx="49" fill="#8C60ED"/>
<rect x="452.742" y="1" width="149.256" height="143.854" rx="49" stroke="url(#paint3_linear_335_46)" stroke-width="2"/>
<rect x="1" y="218.855" width="149.256" height="143.854" rx="49" fill="#391B10"/>
<rect x="1" y="218.855" width="149.256" height="143.854" rx="49" stroke="url(#paint4_linear_335_46)" stroke-width="2"/>
<rect x="151.578" y="218.855" width="149.256" height="143.854" rx="49" fill="#071F23"/>
<rect x="151.578" y="218.855" width="149.256" height="143.854" rx="49" stroke="url(#paint5_linear_335_46)" stroke-width="2"/>
<rect x="302.164" y="218.855" width="149.256" height="143.854" rx="49" fill="#3A0A11"/>
<rect x="302.164" y="218.855" width="149.256" height="143.854" rx="49" stroke="url(#paint6_linear_335_46)" stroke-width="2"/>
<rect x="452.742" y="218.855" width="149.256" height="143.854" rx="49" fill="#1C1836"/>
<rect x="452.742" y="218.855" width="149.256" height="143.854" rx="49" stroke="url(#paint7_linear_335_46)" stroke-width="2"/>
<defs>
<linearGradient id="paint0_linear_335_46" x1="75.6282" y1="0" x2="75.6282" y2="145.854" gradientUnits="userSpaceOnUse">
<stop stop-color="white"/>
<stop offset="1" stop-color="white" stop-opacity="0.7"/>
</linearGradient>
<linearGradient id="paint1_linear_335_46" x1="226.206" y1="0" x2="226.206" y2="145.854" gradientUnits="userSpaceOnUse">
<stop stop-color="white"/>
<stop offset="1" stop-color="white" stop-opacity="0.7"/>
</linearGradient>
<linearGradient id="paint2_linear_335_46" x1="376.792" y1="0" x2="376.792" y2="145.854" gradientUnits="userSpaceOnUse">
<stop stop-color="white"/>
<stop offset="1" stop-color="white" stop-opacity="0.7"/>
</linearGradient>
<linearGradient id="paint3_linear_335_46" x1="527.37" y1="0" x2="527.37" y2="145.854" gradientUnits="userSpaceOnUse">
<stop stop-color="white"/>
<stop offset="1" stop-color="white" stop-opacity="0.7"/>
</linearGradient>
<linearGradient id="paint4_linear_335_46" x1="75.6282" y1="217.855" x2="75.6282" y2="363.71" gradientUnits="userSpaceOnUse">
<stop stop-color="white"/>
<stop offset="1" stop-color="white" stop-opacity="0.7"/>
</linearGradient>
<linearGradient id="paint5_linear_335_46" x1="226.206" y1="217.855" x2="226.206" y2="363.71" gradientUnits="userSpaceOnUse">
<stop stop-color="white"/>
<stop offset="1" stop-color="white" stop-opacity="0.7"/>
</linearGradient>
<linearGradient id="paint6_linear_335_46" x1="376.792" y1="217.855" x2="376.792" y2="363.71" gradientUnits="userSpaceOnUse">
<stop stop-color="white"/>
<stop offset="1" stop-color="white" stop-opacity="0.7"/>
</linearGradient>
<linearGradient id="paint7_linear_335_46" x1="527.37" y1="217.855" x2="527.37" y2="363.71" gradientUnits="userSpaceOnUse">
<stop stop-color="white"/>
<stop offset="1" stop-color="white" stop-opacity="0.7"/>
</linearGradient>
</defs>
</svg>
