<svg width="1643" height="146" viewBox="0 0 1643 146" fill="none" xmlns="http://www.w3.org/2000/svg">
<path d="M85.3477 66.2109C85.3477 71.4844 85.1849 77.1159 84.8594 83.1055C84.5339 89.0951 83.8177 95.0195 82.7109 100.879C81.6693 106.738 80.1068 112.402 78.0234 117.871C76.0052 123.275 73.2708 128.027 69.8203 132.129C66.4349 136.23 62.2357 139.518 57.2227 141.992C52.2096 144.466 46.2201 145.703 39.2539 145.703C33.7852 145.703 29.0326 144.694 24.9961 142.676C20.9596 140.723 17.4766 138.086 14.5469 134.766C11.6823 131.445 9.30599 127.604 7.41797 123.242C5.52995 118.88 4.03255 114.355 2.92578 109.668C1.81901 104.915 1.03776 100.13 0.582031 95.3125C0.191406 90.4948 -0.00390625 86.0026 -0.00390625 81.8359C-0.00390625 76.5625 0.191406 70.8659 0.582031 64.7461C0.972656 58.6263 1.75391 52.5391 2.92578 46.4844C4.09766 40.4297 5.72526 34.6029 7.80859 29.0039C9.95703 23.4049 12.7565 18.457 16.207 14.1602C19.7227 9.86328 23.987 6.44531 29 3.90625C34.013 1.30208 39.9701 0 46.8711 0C52.3398 0 57.0924 1.07422 61.1289 3.22266C65.2305 5.30599 68.681 8.13802 71.4805 11.7188C74.3451 15.2344 76.6562 19.2708 78.4141 23.8281C80.237 28.3854 81.6693 33.138 82.7109 38.0859C83.7526 42.9688 84.4362 47.8516 84.7617 52.7344C85.1523 57.5521 85.3477 62.0443 85.3477 66.2109ZM66.207 67.3828C66.207 65.1693 66.1419 62.4349 66.0117 59.1797C65.8815 55.8594 65.5885 52.4089 65.1328 48.8281C64.6771 45.1823 63.9935 41.5365 63.082 37.8906C62.1706 34.2448 60.901 30.9896 59.2734 28.125C57.7109 25.1953 55.7253 22.8516 53.3164 21.0938C50.9727 19.2708 48.1081 18.3594 44.7227 18.3594C40.4258 18.3594 36.7799 19.5312 33.7852 21.875C30.8555 24.1536 28.4141 27.181 26.4609 30.957C24.5078 34.7331 22.9779 38.9974 21.8711 43.75C20.7643 48.4375 19.9505 53.1901 19.4297 58.0078C18.9089 62.8255 18.5833 67.4805 18.4531 71.9727C18.388 76.3997 18.3555 80.2083 18.3555 83.3984C18.3555 85.8073 18.4206 88.5742 18.5508 91.6992C18.681 94.7591 18.974 97.9167 19.4297 101.172C19.9505 104.362 20.6992 107.52 21.6758 110.645C22.6523 113.704 23.9219 116.439 25.4844 118.848C27.112 121.257 29.1302 123.21 31.5391 124.707C33.9479 126.204 36.8451 126.953 40.2305 126.953C44.4622 126.953 48.043 125.879 50.9727 123.73C53.9023 121.582 56.3112 118.783 58.1992 115.332C60.1523 111.816 61.6497 107.878 62.6914 103.516C63.7982 99.1536 64.612 94.7917 65.1328 90.4297C65.6536 86.0026 65.9466 81.7708 66.0117 77.7344C66.1419 73.6979 66.207 70.2474 66.207 67.3828ZM196.188 18.5547L185.055 19.5312V71.6797C184.99 76.5625 184.794 81.8034 184.469 87.4023C184.208 92.9362 183.59 98.4375 182.613 103.906C181.637 109.375 180.237 114.648 178.414 119.727C176.591 124.74 174.117 129.167 170.992 133.008C167.932 136.849 164.124 139.909 159.566 142.188C155.074 144.531 149.638 145.703 143.258 145.703C137.789 145.703 133.069 144.661 129.098 142.578C125.126 140.495 121.741 137.728 118.941 134.277C116.207 130.762 113.993 126.758 112.301 122.266C110.608 117.708 109.273 113.021 108.297 108.203C107.385 103.32 106.767 98.4701 106.441 93.6523C106.116 88.8346 105.953 84.375 105.953 80.2734C105.953 70.638 106.148 61.0352 106.539 51.4648C106.995 41.8294 107.385 32.1615 107.711 22.4609L95.6016 22.8516L96.5781 3.90625H135.25L136.812 21.4844L125.484 22.4609C125.159 32.487 124.736 42.4805 124.215 52.4414C123.759 62.4023 123.531 72.3958 123.531 82.4219C123.531 84.8307 123.564 87.5977 123.629 90.7227C123.694 93.7826 123.922 96.9727 124.312 100.293C124.703 103.613 125.322 106.868 126.168 110.059C127.014 113.249 128.186 116.113 129.684 118.652C131.246 121.126 133.199 123.145 135.543 124.707C137.887 126.204 140.784 126.953 144.234 126.953C148.141 126.953 151.428 125.977 154.098 124.023C156.767 122.07 158.948 119.499 160.641 116.309C162.333 113.118 163.635 109.505 164.547 105.469C165.458 101.432 166.109 97.3633 166.5 93.2617C166.891 89.1602 167.118 85.1888 167.184 81.3477C167.249 77.4414 167.281 74.0885 167.281 71.2891V19.5312L155.172 19.9219L156.148 0.976562H194.82L196.188 18.5547ZM292.965 121.875L291.988 140.43L256.637 143.359L254.293 125.391H261.715L248.434 79.6875H235.152L234.762 125.391L246.48 124.805L245.504 143.359H208.199L206.637 125.391H218.16L217.965 20.8984L206.832 21.2891L205.855 2.34375C213.147 2.01823 220.406 1.82292 227.633 1.75781C234.924 1.6276 242.249 1.5625 249.605 1.5625C255.4 1.5625 260.868 2.3763 266.012 4.00391C271.155 5.56641 275.615 7.94271 279.391 11.1328C283.232 14.3229 286.259 18.2943 288.473 23.0469C290.686 27.7995 291.793 33.3333 291.793 39.6484C291.793 43.8151 291.207 47.9492 290.035 52.0508C288.863 56.1523 287.138 59.9609 284.859 63.4766C282.581 66.9271 279.781 69.9219 276.461 72.4609C273.141 75 269.332 76.7578 265.035 77.7344L279.293 122.266L292.965 121.875ZM273.824 40.4297C273.824 37.1094 273.238 34.1797 272.066 31.6406C270.96 29.1016 269.397 26.9531 267.379 25.1953C265.361 23.4375 262.984 22.1354 260.25 21.2891C257.516 20.3776 254.553 19.9219 251.363 19.9219H244.137H235.738L235.348 63.0859H240.035C244.332 63.0859 248.499 62.9232 252.535 62.5977C256.637 62.207 260.25 61.263 263.375 59.7656C266.5 58.2682 269.007 56.0221 270.895 53.0273C272.848 49.9674 273.824 45.7682 273.824 40.4297ZM427.145 19.5312L415.035 20.5078L389.84 143.945L367.77 142.773L343.551 22.4609L331.441 22.8516L332.418 3.90625H372.066L373.629 21.4844L362.301 22.4609L378.902 122.266L397.262 20.5078L385.152 20.8984L386.129 1.95312L425.777 0.976562L427.145 19.5312ZM474.703 122.852L473.727 140.43L433.492 141.406L432.906 123.242H444.43L444.234 23.4375L432.125 23.8281L433.102 4.88281H471.773L473.336 22.4609L462.008 23.4375L461.031 123.242L474.703 122.852ZM565.621 105.078C565.621 110.352 564.938 115.332 563.57 120.02C562.268 124.642 560.25 128.678 557.516 132.129C554.781 135.579 551.298 138.314 547.066 140.332C542.9 142.35 537.952 143.359 532.223 143.359C528.772 143.359 525.68 143.034 522.945 142.383C520.211 141.797 517.704 140.853 515.426 139.551C513.212 138.184 511.129 136.458 509.176 134.375C507.288 132.292 505.465 129.818 503.707 126.953L503.512 141.992L486.324 139.648L489.449 94.9219L503.902 95.5078C504.488 98.9583 505.4 102.572 506.637 106.348C507.874 110.059 509.501 113.477 511.52 116.602C513.603 119.727 516.142 122.298 519.137 124.316C522.197 126.335 525.842 127.344 530.074 127.344C533.46 127.344 536.292 126.79 538.57 125.684C540.914 124.577 542.802 123.047 544.234 121.094C545.667 119.141 546.676 116.829 547.262 114.16C547.913 111.491 548.238 108.594 548.238 105.469C548.238 101.953 547.652 98.8281 546.48 96.0938C545.374 93.2943 543.811 90.8529 541.793 88.7695C539.775 86.6211 537.398 84.7982 534.664 83.3008C531.995 81.7383 529.098 80.4036 525.973 79.2969C522.392 78.0599 518.941 76.7578 515.621 75.3906C512.366 74.0234 509.306 72.526 506.441 70.8984C503.577 69.2057 500.94 67.3503 498.531 65.332C496.188 63.2487 494.169 60.8724 492.477 58.2031C490.784 55.5339 489.449 52.5065 488.473 49.1211C487.561 45.7357 487.105 41.862 487.105 37.5C487.105 32.0964 487.919 27.1159 489.547 22.5586C491.174 18.0013 493.518 14.0951 496.578 10.8398C499.638 7.51953 503.349 4.94792 507.711 3.125C512.073 1.30208 516.988 0.390625 522.457 0.390625C525.908 0.390625 528.87 0.716146 531.344 1.36719C533.883 2.01823 536.129 3.02734 538.082 4.39453C540.035 5.76172 541.826 7.48698 543.453 9.57031C545.081 11.5885 546.741 13.9974 548.434 16.7969L548.629 0.78125L565.621 1.17188L563.473 50.9766L548.238 50.3906C547.783 47.9818 547.262 45.5078 546.676 42.9688C546.155 40.3646 545.439 37.8581 544.527 35.4492C543.616 33.0404 542.542 30.7617 541.305 28.6133C540.068 26.3997 538.57 24.4792 536.812 22.8516C535.12 21.224 533.134 19.9544 530.855 19.043C528.577 18.0664 525.973 17.5781 523.043 17.5781C520.048 17.5781 517.444 18.1641 515.23 19.3359C513.082 20.4427 511.292 21.9727 509.859 23.9258C508.427 25.8138 507.353 28.0273 506.637 30.5664C505.986 33.0404 505.66 35.612 505.66 38.2812C505.66 42.0573 506.279 45.2799 507.516 47.9492C508.753 50.6185 510.413 52.9297 512.496 54.8828C514.645 56.7708 517.118 58.3984 519.918 59.7656C522.717 61.1328 525.712 62.3698 528.902 63.4766C533.785 65.2344 538.44 67.3177 542.867 69.7266C547.294 72.1354 551.201 75 554.586 78.3203C557.971 81.6406 560.641 85.5143 562.594 89.9414C564.612 94.3034 565.621 99.349 565.621 105.078ZM621.969 122.852L620.992 140.43L580.758 141.406L580.172 123.242H591.695L591.5 23.4375L579.391 23.8281L580.367 4.88281H619.039L620.602 22.4609L609.273 23.4375L608.297 123.242L621.969 122.852ZM718.941 66.2109C718.941 71.4844 718.779 77.1159 718.453 83.1055C718.128 89.0951 717.411 95.0195 716.305 100.879C715.263 106.738 713.701 112.402 711.617 117.871C709.599 123.275 706.865 128.027 703.414 132.129C700.029 136.23 695.829 139.518 690.816 141.992C685.803 144.466 679.814 145.703 672.848 145.703C667.379 145.703 662.626 144.694 658.59 142.676C654.553 140.723 651.07 138.086 648.141 134.766C645.276 131.445 642.9 127.604 641.012 123.242C639.124 118.88 637.626 114.355 636.52 109.668C635.413 104.915 634.632 100.13 634.176 95.3125C633.785 90.4948 633.59 86.0026 633.59 81.8359C633.59 76.5625 633.785 70.8659 634.176 64.7461C634.566 58.6263 635.348 52.5391 636.52 46.4844C637.691 40.4297 639.319 34.6029 641.402 29.0039C643.551 23.4049 646.35 18.457 649.801 14.1602C653.316 9.86328 657.581 6.44531 662.594 3.90625C667.607 1.30208 673.564 0 680.465 0C685.934 0 690.686 1.07422 694.723 3.22266C698.824 5.30599 702.275 8.13802 705.074 11.7188C707.939 15.2344 710.25 19.2708 712.008 23.8281C713.831 28.3854 715.263 33.138 716.305 38.0859C717.346 42.9688 718.03 47.8516 718.355 52.7344C718.746 57.5521 718.941 62.0443 718.941 66.2109ZM699.801 67.3828C699.801 65.1693 699.736 62.4349 699.605 59.1797C699.475 55.8594 699.182 52.4089 698.727 48.8281C698.271 45.1823 697.587 41.5365 696.676 37.8906C695.764 34.2448 694.495 30.9896 692.867 28.125C691.305 25.1953 689.319 22.8516 686.91 21.0938C684.566 19.2708 681.702 18.3594 678.316 18.3594C674.02 18.3594 670.374 19.5312 667.379 21.875C664.449 24.1536 662.008 27.181 660.055 30.957C658.102 34.7331 656.572 38.9974 655.465 43.75C654.358 48.4375 653.544 53.1901 653.023 58.0078C652.503 62.8255 652.177 67.4805 652.047 71.9727C651.982 76.3997 651.949 80.2083 651.949 83.3984C651.949 85.8073 652.014 88.5742 652.145 91.6992C652.275 94.7591 652.568 97.9167 653.023 101.172C653.544 104.362 654.293 107.52 655.27 110.645C656.246 113.704 657.516 116.439 659.078 118.848C660.706 121.257 662.724 123.21 665.133 124.707C667.542 126.204 670.439 126.953 673.824 126.953C678.056 126.953 681.637 125.879 684.566 123.73C687.496 121.582 689.905 118.783 691.793 115.332C693.746 111.816 695.243 107.878 696.285 103.516C697.392 99.1536 698.206 94.7917 698.727 90.4297C699.247 86.0026 699.54 81.7708 699.605 77.7344C699.736 73.6979 699.801 70.2474 699.801 67.3828ZM836.031 20.5078L824.703 21.4844L821.773 142.969L804.781 143.359L760.836 37.1094L761.812 123.242L775.094 122.852V140.43L733.297 141.406L732.711 123.242H744.234L743.062 23.4375L730.953 23.8281L731.93 4.88281H764.742L806.148 108.594V21.4844L793.844 21.875L794.82 2.92969H834.664L836.031 20.5078ZM934.469 126.367L933.102 144.922L893.453 143.945L892.477 125L904.586 125.391L899.508 96.875L873.727 98.0469L869.625 123.438L880.953 124.414L879.391 141.992H839.742L838.766 123.047L850.875 123.438L872.164 19.1406L862.203 19.5312L861.227 2.92969L911.031 1.95312L910.055 17.5781L900.289 17.9688L922.359 125.391L934.469 126.367ZM896.773 81.6406L886.227 21.6797L876.461 81.6406H896.773ZM1026.56 121.875L1025.58 140.43L990.23 143.359L987.887 125.391H995.309L982.027 79.6875H968.746L968.355 125.391L980.074 124.805L979.098 143.359H941.793L940.23 125.391H951.754L951.559 20.8984L940.426 21.2891L939.449 2.34375C946.741 2.01823 954 1.82292 961.227 1.75781C968.518 1.6276 975.842 1.5625 983.199 1.5625C988.993 1.5625 994.462 2.3763 999.605 4.00391C1004.75 5.56641 1009.21 7.94271 1012.98 11.1328C1016.83 14.3229 1019.85 18.2943 1022.07 23.0469C1024.28 27.7995 1025.39 33.3333 1025.39 39.6484C1025.39 43.8151 1024.8 47.9492 1023.63 52.0508C1022.46 56.1523 1020.73 59.9609 1018.45 63.4766C1016.17 66.9271 1013.38 69.9219 1010.05 72.4609C1006.73 75 1002.93 76.7578 998.629 77.7344L1012.89 122.266L1026.56 121.875ZM1007.42 40.4297C1007.42 37.1094 1006.83 34.1797 1005.66 31.6406C1004.55 29.1016 1002.99 26.9531 1000.97 25.1953C998.954 23.4375 996.578 22.1354 993.844 21.2891C991.109 20.3776 988.147 19.9219 984.957 19.9219H977.73H969.332L968.941 63.0859H973.629C977.926 63.0859 982.092 62.9232 986.129 62.5977C990.23 62.207 993.844 61.263 996.969 59.7656C1000.09 58.2682 1002.6 56.0221 1004.49 53.0273C1006.44 49.9674 1007.42 45.7682 1007.42 40.4297ZM1125.58 21.4844L1113.47 22.4609L1085.35 91.0156L1084.96 123.242L1098.63 122.852L1097.65 140.43L1057.42 141.406L1056.83 123.242H1068.36L1068.16 90.625L1041.99 22.4609L1029.88 22.8516L1030.86 3.90625H1070.5L1072.07 21.4844L1060.74 22.4609L1077.34 75.1953L1095.7 22.4609L1083.59 22.8516L1084.57 3.90625L1124.21 2.92969L1125.58 21.4844ZM1245.11 105.078C1245.11 110.352 1244.43 115.332 1243.06 120.02C1241.76 124.642 1239.74 128.678 1237.01 132.129C1234.27 135.579 1230.79 138.314 1226.56 140.332C1222.39 142.35 1217.44 143.359 1211.71 143.359C1208.26 143.359 1205.17 143.034 1202.44 142.383C1199.7 141.797 1197.2 140.853 1194.92 139.551C1192.7 138.184 1190.62 136.458 1188.67 134.375C1186.78 132.292 1184.96 129.818 1183.2 126.953L1183 141.992L1165.82 139.648L1168.94 94.9219L1183.39 95.5078C1183.98 98.9583 1184.89 102.572 1186.13 106.348C1187.37 110.059 1188.99 113.477 1191.01 116.602C1193.1 119.727 1195.63 122.298 1198.63 124.316C1201.69 126.335 1205.33 127.344 1209.57 127.344C1212.95 127.344 1215.78 126.79 1218.06 125.684C1220.41 124.577 1222.29 123.047 1223.73 121.094C1225.16 119.141 1226.17 116.829 1226.75 114.16C1227.4 111.491 1227.73 108.594 1227.73 105.469C1227.73 101.953 1227.14 98.8281 1225.97 96.0938C1224.87 93.2943 1223.3 90.8529 1221.29 88.7695C1219.27 86.6211 1216.89 84.7982 1214.16 83.3008C1211.49 81.7383 1208.59 80.4036 1205.46 79.2969C1201.88 78.0599 1198.43 76.7578 1195.11 75.3906C1191.86 74.0234 1188.8 72.526 1185.93 70.8984C1183.07 69.2057 1180.43 67.3503 1178.02 65.332C1175.68 63.2487 1173.66 60.8724 1171.97 58.2031C1170.28 55.5339 1168.94 52.5065 1167.96 49.1211C1167.05 45.7357 1166.6 41.862 1166.6 37.5C1166.6 32.0964 1167.41 27.1159 1169.04 22.5586C1170.67 18.0013 1173.01 14.0951 1176.07 10.8398C1179.13 7.51953 1182.84 4.94792 1187.2 3.125C1191.57 1.30208 1196.48 0.390625 1201.95 0.390625C1205.4 0.390625 1208.36 0.716146 1210.84 1.36719C1213.38 2.01823 1215.62 3.02734 1217.57 4.39453C1219.53 5.76172 1221.32 7.48698 1222.95 9.57031C1224.57 11.5885 1226.23 13.9974 1227.93 16.7969L1228.12 0.78125L1245.11 1.17188L1242.96 50.9766L1227.73 50.3906C1227.27 47.9818 1226.75 45.5078 1226.17 42.9688C1225.65 40.3646 1224.93 37.8581 1224.02 35.4492C1223.11 33.0404 1222.03 30.7617 1220.8 28.6133C1219.56 26.3997 1218.06 24.4792 1216.3 22.8516C1214.61 21.224 1212.63 19.9544 1210.35 19.043C1208.07 18.0664 1205.46 17.5781 1202.54 17.5781C1199.54 17.5781 1196.94 18.1641 1194.72 19.3359C1192.57 20.4427 1190.78 21.9727 1189.35 23.9258C1187.92 25.8138 1186.85 28.0273 1186.13 30.5664C1185.48 33.0404 1185.15 35.612 1185.15 38.2812C1185.15 42.0573 1185.77 45.2799 1187.01 47.9492C1188.24 50.6185 1189.9 52.9297 1191.99 54.8828C1194.14 56.7708 1196.61 58.3984 1199.41 59.7656C1202.21 61.1328 1205.2 62.3698 1208.39 63.4766C1213.28 65.2344 1217.93 67.3177 1222.36 69.7266C1226.79 72.1354 1230.69 75 1234.08 78.3203C1237.46 81.6406 1240.13 85.5143 1242.09 89.9414C1244.1 94.3034 1245.11 99.349 1245.11 105.078ZM1339.06 44.3359L1324.02 46.2891L1323.04 19.9219L1306.83 20.5078L1305.86 123.242L1319.53 122.852L1318.55 140.43L1278.32 141.406L1277.73 123.242H1289.25L1289.06 21.4844L1271.48 22.6562L1272.46 47.2656H1256.25L1257.22 4.88281L1337.11 1.95312L1339.06 44.3359ZM1432.52 126.367L1431.15 144.922L1391.5 143.945L1390.52 125L1402.63 125.391L1397.55 96.875L1371.77 98.0469L1367.67 123.438L1379 124.414L1377.44 141.992H1337.79L1336.81 123.047L1348.92 123.438L1370.21 19.1406L1360.25 19.5312L1359.27 2.92969L1409.08 1.95312L1408.1 17.5781L1398.34 17.9688L1420.41 125.391L1432.52 126.367ZM1394.82 81.6406L1384.27 21.6797L1374.51 81.6406H1394.82ZM1512.69 44.3359L1497.65 46.2891L1496.68 19.9219L1480.46 20.5078L1479.49 123.242L1493.16 122.852L1492.18 140.43L1451.95 141.406L1451.36 123.242H1462.89L1462.69 21.4844L1445.11 22.6562L1446.09 47.2656H1429.88L1430.86 4.88281L1510.74 1.95312L1512.69 44.3359ZM1601.56 105.078C1601.56 110.352 1600.88 115.332 1599.51 120.02C1598.21 124.642 1596.19 128.678 1593.45 132.129C1590.72 135.579 1587.24 138.314 1583 140.332C1578.84 142.35 1573.89 143.359 1568.16 143.359C1564.71 143.359 1561.62 143.034 1558.88 142.383C1556.15 141.797 1553.64 140.853 1551.36 139.551C1549.15 138.184 1547.07 136.458 1545.11 134.375C1543.23 132.292 1541.4 129.818 1539.64 126.953L1539.45 141.992L1522.26 139.648L1525.39 94.9219L1539.84 95.5078C1540.43 98.9583 1541.34 102.572 1542.57 106.348C1543.81 110.059 1545.44 113.477 1547.46 116.602C1549.54 119.727 1552.08 122.298 1555.07 124.316C1558.13 126.335 1561.78 127.344 1566.01 127.344C1569.4 127.344 1572.23 126.79 1574.51 125.684C1576.85 124.577 1578.74 123.047 1580.17 121.094C1581.6 119.141 1582.61 116.829 1583.2 114.16C1583.85 111.491 1584.18 108.594 1584.18 105.469C1584.18 101.953 1583.59 98.8281 1582.42 96.0938C1581.31 93.2943 1579.75 90.8529 1577.73 88.7695C1575.71 86.6211 1573.34 84.7982 1570.6 83.3008C1567.93 81.7383 1565.04 80.4036 1561.91 79.2969C1558.33 78.0599 1554.88 76.7578 1551.56 75.3906C1548.3 74.0234 1545.24 72.526 1542.38 70.8984C1539.51 69.2057 1536.88 67.3503 1534.47 65.332C1532.12 63.2487 1530.11 60.8724 1528.41 58.2031C1526.72 55.5339 1525.39 52.5065 1524.41 49.1211C1523.5 45.7357 1523.04 41.862 1523.04 37.5C1523.04 32.0964 1523.86 27.1159 1525.48 22.5586C1527.11 18.0013 1529.46 14.0951 1532.52 10.8398C1535.58 7.51953 1539.29 4.94792 1543.65 3.125C1548.01 1.30208 1552.93 0.390625 1558.39 0.390625C1561.85 0.390625 1564.81 0.716146 1567.28 1.36719C1569.82 2.01823 1572.07 3.02734 1574.02 4.39453C1575.97 5.76172 1577.76 7.48698 1579.39 9.57031C1581.02 11.5885 1582.68 13.9974 1584.37 16.7969L1584.57 0.78125L1601.56 1.17188L1599.41 50.9766L1584.18 50.3906C1583.72 47.9818 1583.2 45.5078 1582.61 42.9688C1582.09 40.3646 1581.38 37.8581 1580.46 35.4492C1579.55 33.0404 1578.48 30.7617 1577.24 28.6133C1576.01 26.3997 1574.51 24.4792 1572.75 22.8516C1571.06 21.224 1569.07 19.9544 1566.79 19.043C1564.51 18.0664 1561.91 17.5781 1558.98 17.5781C1555.99 17.5781 1553.38 18.1641 1551.17 19.3359C1549.02 20.4427 1547.23 21.9727 1545.8 23.9258C1544.36 25.8138 1543.29 28.0273 1542.57 30.5664C1541.92 33.0404 1541.6 35.612 1541.6 38.2812C1541.6 42.0573 1542.22 45.2799 1543.45 47.9492C1544.69 50.6185 1546.35 52.9297 1548.43 54.8828C1550.58 56.7708 1553.06 58.3984 1555.86 59.7656C1558.65 61.1328 1561.65 62.3698 1564.84 63.4766C1569.72 65.2344 1574.38 67.3177 1578.8 69.7266C1583.23 72.1354 1587.14 75 1590.52 78.3203C1593.91 81.6406 1596.58 85.5143 1598.53 89.9414C1600.55 94.3034 1601.56 99.349 1601.56 105.078ZM1642.77 66.2109C1642.77 67.9036 1642.44 69.5312 1641.79 71.0938C1641.14 72.5911 1640.23 73.9258 1639.06 75.0977C1637.95 76.2044 1636.62 77.0833 1635.05 77.7344C1633.56 78.3854 1631.96 78.7109 1630.27 78.7109C1628.58 78.7109 1626.98 78.3854 1625.48 77.7344C1623.99 77.0833 1622.68 76.2044 1621.58 75.0977C1620.47 73.9258 1619.59 72.5911 1618.94 71.0938C1618.29 69.5312 1617.96 67.9036 1617.96 66.2109C1617.96 64.5182 1618.29 62.9232 1618.94 61.4258C1619.59 59.9284 1620.47 58.6263 1621.58 57.5195C1622.68 56.4128 1623.99 55.5339 1625.48 54.8828C1626.98 54.2318 1628.58 53.9062 1630.27 53.9062C1631.96 53.9062 1633.56 54.2318 1635.05 54.8828C1636.62 55.5339 1637.95 56.4128 1639.06 57.5195C1640.23 58.6263 1641.14 59.9284 1641.79 61.4258C1642.44 62.9232 1642.77 64.5182 1642.77 66.2109ZM1642.77 131.055C1642.77 132.747 1642.44 134.342 1641.79 135.84C1641.14 137.337 1640.23 138.639 1639.06 139.746C1637.95 140.853 1636.62 141.732 1635.05 142.383C1633.56 143.034 1631.96 143.359 1630.27 143.359C1628.58 143.359 1626.98 143.034 1625.48 142.383C1623.99 141.732 1622.68 140.853 1621.58 139.746C1620.47 138.639 1619.59 137.337 1618.94 135.84C1618.29 134.342 1617.96 132.747 1617.96 131.055C1617.96 129.362 1618.29 127.767 1618.94 126.27C1619.59 124.707 1620.47 123.372 1621.58 122.266C1622.68 121.094 1623.99 120.182 1625.48 119.531C1626.98 118.88 1628.58 118.555 1630.27 118.555C1631.96 118.555 1633.56 118.88 1635.05 119.531C1636.62 120.182 1637.95 121.094 1639.06 122.266C1640.23 123.372 1641.14 124.707 1641.79 126.27C1642.44 127.767 1642.77 129.362 1642.77 131.055Z" fill="white"/>
</svg>
