<svg width="1902" height="129" viewBox="0 0 1902 129" fill="none" xmlns="http://www.w3.org/2000/svg">
<path d="M69.152 106.352L42.152 61.5016H41.552H19.052V106.352H12.302V1.05156H41.252C52.952 1.05156 61.702 3.80156 67.502 9.30156C73.402 14.8016 76.352 22.1016 76.352 31.2016C76.352 39.3016 74.052 46.0016 69.452 51.3016C64.952 56.5016 58.352 59.7016 49.652 60.9016L77.252 106.352H69.152ZM19.052 55.8016H41.552C50.852 55.8016 57.802 53.5516 62.402 49.0516C67.002 44.5516 69.302 38.6016 69.302 31.2016C69.302 15.1016 59.952 7.05155 41.252 7.05155H19.052V55.8016ZM103.134 6.75156V50.7016H145.134V56.4016H103.134V100.652H149.634V106.352H96.384V1.05156H149.634V6.75156H103.134ZM229.766 79.3516H179.816L169.766 106.352H162.416L201.116 3.45156H208.616L247.166 106.352H239.816L229.766 79.3516ZM227.666 73.6516L204.866 12.3016L181.916 73.6516H227.666ZM259.909 53.8516C259.909 43.4516 262.059 34.2016 266.359 26.1016C270.759 17.9016 276.759 11.5016 284.359 6.90156C292.059 2.30156 300.659 0.00155485 310.159 0.00155485C322.159 0.00155485 332.259 2.80155 340.459 8.40155C348.659 14.0016 354.659 21.8516 358.459 31.9516H350.659C347.659 23.9516 342.659 17.6516 335.659 13.0516C328.759 8.35156 320.259 6.00156 310.159 6.00156C302.059 6.00156 294.709 7.95156 288.109 11.8516C281.509 15.6516 276.309 21.2016 272.509 28.5016C268.709 35.7016 266.809 44.1516 266.809 53.8516C266.809 63.4516 268.709 71.8516 272.509 79.0516C276.309 86.1516 281.509 91.6516 288.109 95.5516C294.709 99.4516 302.059 101.402 310.159 101.402C320.259 101.402 328.759 99.1016 335.659 94.5016C342.659 89.8016 347.659 83.4516 350.659 75.4516H358.459C354.659 85.5516 348.659 93.4016 340.459 99.0016C332.259 104.602 322.159 107.402 310.159 107.402C300.659 107.402 292.059 105.152 284.359 100.652C276.759 96.0516 270.759 89.7016 266.359 81.6016C262.059 73.4016 259.909 64.1516 259.909 53.8516ZM454.538 1.05156V106.352H447.788V55.3516H386.288V106.352H379.538V1.05156H386.288V49.6516H447.788V1.05156H454.538ZM486.044 1.05156V106.352H479.294V1.05156H486.044ZM586.088 106.352H579.338L517.538 12.1516V106.352H510.788V1.20156H517.538L579.338 95.1016V1.20156H586.088V106.352ZM697.387 32.1016C694.387 24.2016 689.387 17.9016 682.387 13.2016C675.487 8.50156 667.287 6.15156 657.787 6.15156C649.487 6.15156 641.987 8.10156 635.287 12.0016C628.587 15.9016 623.287 21.4516 619.387 28.6516C615.487 35.8516 613.537 44.2516 613.537 53.8516C613.537 63.4516 615.487 71.8516 619.387 79.0516C623.287 86.2516 628.587 91.8016 635.287 95.7016C641.987 99.5016 649.487 101.402 657.787 101.402C665.787 101.402 673.037 99.6016 679.537 96.0016C686.037 92.4016 691.237 87.3016 695.137 80.7016C699.037 74.0016 701.187 66.2016 701.587 57.3016H654.637V51.6016H708.487V56.1016C708.187 65.9016 705.837 74.7016 701.437 82.5016C697.037 90.3016 691.037 96.4016 683.437 100.802C675.837 105.202 667.287 107.402 657.787 107.402C648.087 107.402 639.337 105.152 631.537 100.652C623.737 96.0516 617.637 89.7016 613.237 81.6016C608.837 73.4016 606.637 64.1516 606.637 53.8516C606.637 43.4516 608.837 34.2016 613.237 26.1016C617.637 17.9016 623.737 11.5516 631.537 7.05155C639.337 2.45156 648.087 0.151562 657.787 0.151562C669.087 0.151562 678.837 3.00156 687.037 8.70156C695.337 14.3016 701.387 22.1016 705.187 32.1016H697.387ZM816.688 51.9016C822.788 53.0016 827.888 56.0016 831.988 60.9016C836.188 65.8016 838.288 71.5516 838.288 78.1516C838.288 83.5516 836.988 88.4016 834.388 92.7016C831.888 96.9016 828.088 100.252 822.988 102.752C817.988 105.152 811.888 106.352 804.688 106.352H771.238V1.05156H804.088C814.588 1.05156 822.488 3.50156 827.788 8.40155C833.188 13.2016 835.888 19.4516 835.888 27.1516C835.888 33.8516 834.088 39.3016 830.488 43.5016C826.888 47.6016 822.288 50.4016 816.688 51.9016ZM777.988 48.9016H804.388C812.288 48.9016 818.338 47.0516 822.538 43.3516C826.838 39.5516 828.988 34.3516 828.988 27.7516C828.988 21.3516 826.888 16.3016 822.688 12.6016C818.488 8.90156 812.138 7.05155 803.638 7.05155H777.988V48.9016ZM804.238 100.502C812.738 100.502 819.388 98.5016 824.188 94.5016C829.088 90.4016 831.538 84.8016 831.538 77.7016C831.538 70.7016 829.038 65.1516 824.038 61.0516C819.138 56.8516 812.388 54.7516 803.788 54.7516H777.988V100.502H804.238ZM864.853 6.75156V50.7016H906.853V56.4016H864.853V100.652H911.353V106.352H858.103V1.05156H911.353V6.75156H864.853ZM996.734 1.05156L963.584 63.7516V106.352H956.834V63.7516L923.384 1.05156H931.034L960.134 57.4516L989.084 1.05156H996.734ZM1059.89 107.552C1050.19 107.552 1041.44 105.302 1033.64 100.802C1025.84 96.2016 1019.74 89.8016 1015.34 81.6016C1010.94 73.4016 1008.74 64.1516 1008.74 53.8516C1008.74 43.4516 1010.94 34.2016 1015.34 26.1016C1019.74 17.9016 1025.84 11.5516 1033.64 7.05155C1041.44 2.45156 1050.19 0.151562 1059.89 0.151562C1069.59 0.151562 1078.34 2.45156 1086.14 7.05155C1093.94 11.5516 1100.04 17.9016 1104.44 26.1016C1108.84 34.2016 1111.04 43.4516 1111.04 53.8516C1111.04 64.1516 1108.84 73.4016 1104.44 81.6016C1100.04 89.8016 1093.94 96.2016 1086.14 100.802C1078.34 105.302 1069.59 107.552 1059.89 107.552ZM1059.89 101.552C1068.19 101.552 1075.69 99.6016 1082.39 95.7016C1089.09 91.8016 1094.34 86.2516 1098.14 79.0516C1102.04 71.8516 1103.99 63.4516 1103.99 53.8516C1103.99 44.1516 1102.04 35.7016 1098.14 28.5016C1094.34 21.3016 1089.09 15.7516 1082.39 11.8516C1075.69 7.95156 1068.19 6.00156 1059.89 6.00156C1051.59 6.00156 1044.09 7.95156 1037.39 11.8516C1030.69 15.7516 1025.39 21.3016 1021.49 28.5016C1017.59 35.7016 1015.64 44.1516 1015.64 53.8516C1015.64 63.4516 1017.59 71.8516 1021.49 79.0516C1025.39 86.2516 1030.69 91.8016 1037.39 95.7016C1044.09 99.6016 1051.59 101.552 1059.89 101.552ZM1206.74 106.352H1199.99L1138.19 12.1516V106.352H1131.44V1.20156H1138.19L1199.99 95.1016V1.20156H1206.74V106.352ZM1261.04 1.05156C1278.84 1.05156 1292.54 5.70156 1302.14 15.0016C1311.84 24.3016 1316.69 37.2516 1316.69 53.8516C1316.69 70.4516 1311.84 83.3516 1302.14 92.5516C1292.54 101.752 1278.84 106.352 1261.04 106.352H1231.49V1.05156H1261.04ZM1261.04 100.652C1276.94 100.652 1289.04 96.5516 1297.34 88.3516C1305.64 80.0516 1309.79 68.5516 1309.79 53.8516C1309.79 39.0516 1305.64 27.5016 1297.34 19.2016C1289.04 10.9016 1276.94 6.75156 1261.04 6.75156H1238.24V100.652H1261.04ZM1437.64 1.05156V6.75156H1407.64V106.352H1400.89V6.75156H1370.89V1.05156H1437.64ZM1528.71 1.05156V106.352H1521.96V55.3516H1460.46V106.352H1453.71V1.05156H1460.46V49.6516H1521.96V1.05156H1528.71ZM1560.21 6.75156V50.7016H1602.21V56.4016H1560.21V100.652H1606.71V106.352H1553.46V1.05156H1606.71V6.75156H1560.21ZM1699.93 107.402C1693.13 107.402 1687.18 106.202 1682.08 103.802C1676.98 101.402 1672.98 98.1516 1670.08 94.0516C1667.28 89.9516 1665.68 85.4016 1665.28 80.4016H1672.33C1673.13 85.9016 1675.68 90.8016 1679.98 95.1016C1684.38 99.4016 1691.03 101.552 1699.93 101.552C1705.13 101.552 1709.63 100.602 1713.43 98.7016C1717.33 96.8016 1720.33 94.2016 1722.43 90.9016C1724.53 87.6016 1725.58 83.9516 1725.58 79.9516C1725.58 74.8516 1724.33 70.8016 1721.83 67.8016C1719.43 64.8016 1716.38 62.5516 1712.68 61.0516C1709.08 59.5516 1704.18 57.9516 1697.98 56.2516C1691.18 54.4516 1685.68 52.6516 1681.48 50.8516C1677.38 49.0516 1673.88 46.3016 1670.98 42.6016C1668.18 38.8016 1666.78 33.6516 1666.78 27.1516C1666.78 22.1516 1668.08 17.6016 1670.68 13.5016C1673.38 9.30156 1677.18 6.00156 1682.08 3.60155C1686.98 1.20155 1692.63 0.00155485 1699.03 0.00155485C1708.33 0.00155485 1715.83 2.30156 1721.53 6.90156C1727.23 11.5016 1730.63 17.1516 1731.73 23.8516H1724.53C1723.93 21.1516 1722.58 18.4016 1720.48 15.6016C1718.48 12.8016 1715.58 10.5016 1711.78 8.70156C1708.08 6.80156 1703.63 5.85156 1698.43 5.85156C1691.43 5.85156 1685.53 7.80156 1680.73 11.7016C1675.93 15.5016 1673.53 20.6016 1673.53 27.0016C1673.53 32.1016 1674.78 36.2016 1677.28 39.3016C1679.78 42.3016 1682.83 44.6016 1686.43 46.2016C1690.13 47.7016 1695.08 49.2516 1701.28 50.8516C1708.18 52.7516 1713.63 54.6016 1717.63 56.4016C1721.73 58.1016 1725.18 60.8516 1727.98 64.6516C1730.88 68.3516 1732.33 73.4016 1732.33 79.8016C1732.33 84.5016 1731.08 88.9516 1728.58 93.1516C1726.08 97.3516 1722.38 100.802 1717.48 103.502C1712.68 106.102 1706.83 107.402 1699.93 107.402ZM1807.74 106.352L1759.29 56.7016V106.352H1752.54V1.05156H1759.29V51.1516L1807.74 1.05156H1816.44L1765.14 53.8516L1816.59 106.352H1807.74ZM1897.17 1.05156L1864.02 63.7516V106.352H1857.27V63.7516L1823.82 1.05156H1831.47L1860.57 57.4516L1889.52 1.05156H1897.17Z" fill="white"/>
<path d="M0.00195312 121.352H1901.07V128.852H0.00195312V121.352Z" fill="white"/>
</svg>
