<svg width="3171" height="129" viewBox="0 0 3171 129" fill="none" xmlns="http://www.w3.org/2000/svg">
<path d="M41.8461 1.05156C59.6461 1.05156 73.3461 5.70156 82.9461 15.0016C92.6461 24.3016 97.4961 37.2516 97.4961 53.8516C97.4961 70.4516 92.6461 83.3516 82.9461 92.5516C73.3461 101.752 59.6461 106.352 41.8461 106.352H12.2961V1.05156H41.8461ZM41.8461 100.652C57.7461 100.652 69.8461 96.5516 78.1461 88.3516C86.4461 80.0516 90.5961 68.5516 90.5961 53.8516C90.5961 39.0516 86.4461 27.5016 78.1461 19.2016C69.8461 10.9016 57.7461 6.75156 41.8461 6.75156H19.0461V100.652H41.8461ZM124.661 1.05156V106.352H117.911V1.05156H124.661ZM235.955 32.1016C232.955 24.2016 227.955 17.9016 220.955 13.2016C214.055 8.50156 205.855 6.15156 196.355 6.15156C188.055 6.15156 180.555 8.10156 173.855 12.0016C167.155 15.9016 161.855 21.4516 157.955 28.6516C154.055 35.8516 152.105 44.2516 152.105 53.8516C152.105 63.4516 154.055 71.8516 157.955 79.0516C161.855 86.2516 167.155 91.8016 173.855 95.7016C180.555 99.5016 188.055 101.402 196.355 101.402C204.355 101.402 211.605 99.6016 218.105 96.0016C224.605 92.4016 229.805 87.3016 233.705 80.7016C237.605 74.0016 239.755 66.2016 240.155 57.3016H193.205V51.6016H247.055V56.1016C246.755 65.9016 244.405 74.7016 240.005 82.5016C235.605 90.3016 229.605 96.4016 222.005 100.802C214.405 105.202 205.855 107.402 196.355 107.402C186.655 107.402 177.905 105.152 170.105 100.652C162.305 96.0516 156.205 89.7016 151.805 81.6016C147.405 73.4016 145.205 64.1516 145.205 53.8516C145.205 43.4516 147.405 34.2016 151.805 26.1016C156.205 17.9016 162.305 11.5516 170.105 7.05155C177.905 2.45156 186.655 0.151562 196.355 0.151562C207.655 0.151562 217.405 3.00156 225.605 8.70156C233.905 14.3016 239.955 22.1016 243.755 32.1016H235.955ZM274.222 1.05156V106.352H267.472V1.05156H274.222ZM357.166 1.05156V6.75156H327.166V106.352H320.416V6.75156H290.416V1.05156H357.166ZM432.934 79.3516H382.984L372.934 106.352H365.584L404.284 3.45156H411.784L450.334 106.352H442.984L432.934 79.3516ZM430.834 73.6516L408.034 12.3016L385.084 73.6516H430.834ZM474.027 100.652H513.177V106.352H467.277V1.05156H474.027V100.652ZM577.591 1.05156V106.352H570.841V1.05156H577.591ZM677.635 106.352H670.885L609.085 12.1516V106.352H602.335V1.20156H609.085L670.885 95.1016V1.20156H677.635V106.352ZM731.934 1.05156C749.734 1.05156 763.434 5.70156 773.034 15.0016C782.734 24.3016 787.584 37.2516 787.584 53.8516C787.584 70.4516 782.734 83.3516 773.034 92.5516C763.434 101.752 749.734 106.352 731.934 106.352H702.384V1.05156H731.934ZM731.934 100.652C747.834 100.652 759.934 96.5516 768.234 88.3516C776.534 80.0516 780.684 68.5516 780.684 53.8516C780.684 39.0516 776.534 27.5016 768.234 19.2016C759.934 10.9016 747.834 6.75156 731.934 6.75156H709.134V100.652H731.934ZM814.749 1.05156V106.352H807.999V1.05156H814.749ZM899.193 79.3516H849.243L839.193 106.352H831.843L870.543 3.45156H878.043L916.593 106.352H909.243L899.193 79.3516ZM897.093 73.6516L874.293 12.3016L851.343 73.6516H897.093ZM977.336 47.1016V52.9516H920.936V47.1016H977.336ZM1044.03 53.8516C1044.03 43.4516 1046.18 34.2016 1050.48 26.1016C1054.88 17.9016 1060.88 11.5016 1068.48 6.90156C1076.18 2.30156 1084.78 0.00155485 1094.28 0.00155485C1106.28 0.00155485 1116.38 2.80155 1124.58 8.40155C1132.78 14.0016 1138.78 21.8516 1142.58 31.9516H1134.78C1131.78 23.9516 1126.78 17.6516 1119.78 13.0516C1112.88 8.35156 1104.38 6.00156 1094.28 6.00156C1086.18 6.00156 1078.83 7.95156 1072.23 11.8516C1065.63 15.6516 1060.43 21.2016 1056.63 28.5016C1052.83 35.7016 1050.93 44.1516 1050.93 53.8516C1050.93 63.4516 1052.83 71.8516 1056.63 79.0516C1060.43 86.1516 1065.63 91.6516 1072.23 95.5516C1078.83 99.4516 1086.18 101.402 1094.28 101.402C1104.38 101.402 1112.88 99.1016 1119.78 94.5016C1126.78 89.8016 1131.78 83.4516 1134.78 75.4516H1142.58C1138.78 85.5516 1132.78 93.4016 1124.58 99.0016C1116.38 104.602 1106.28 107.402 1094.28 107.402C1084.78 107.402 1076.18 105.152 1068.48 100.652C1060.88 96.0516 1054.88 89.7016 1050.48 81.6016C1046.18 73.4016 1044.03 64.1516 1044.03 53.8516ZM1210.61 107.552C1200.91 107.552 1192.16 105.302 1184.36 100.802C1176.56 96.2016 1170.46 89.8016 1166.06 81.6016C1161.66 73.4016 1159.46 64.1516 1159.46 53.8516C1159.46 43.4516 1161.66 34.2016 1166.06 26.1016C1170.46 17.9016 1176.56 11.5516 1184.36 7.05155C1192.16 2.45156 1200.91 0.151562 1210.61 0.151562C1220.31 0.151562 1229.06 2.45156 1236.86 7.05155C1244.66 11.5516 1250.76 17.9016 1255.16 26.1016C1259.56 34.2016 1261.76 43.4516 1261.76 53.8516C1261.76 64.1516 1259.56 73.4016 1255.16 81.6016C1250.76 89.8016 1244.66 96.2016 1236.86 100.802C1229.06 105.302 1220.31 107.552 1210.61 107.552ZM1210.61 101.552C1218.91 101.552 1226.41 99.6016 1233.11 95.7016C1239.81 91.8016 1245.06 86.2516 1248.86 79.0516C1252.76 71.8516 1254.71 63.4516 1254.71 53.8516C1254.71 44.1516 1252.76 35.7016 1248.86 28.5016C1245.06 21.3016 1239.81 15.7516 1233.11 11.8516C1226.41 7.95156 1218.91 6.00156 1210.61 6.00156C1202.31 6.00156 1194.81 7.95156 1188.11 11.8516C1181.41 15.7516 1176.11 21.3016 1172.21 28.5016C1168.31 35.7016 1166.36 44.1516 1166.36 53.8516C1166.36 63.4516 1168.31 71.8516 1172.21 79.0516C1176.11 86.2516 1181.41 91.8016 1188.11 95.7016C1194.81 99.6016 1202.31 101.552 1210.61 101.552ZM1357.47 106.352H1350.72L1288.92 12.1516V106.352H1282.17V1.20156H1288.92L1350.72 95.1016V1.20156H1357.47V106.352ZM1457.52 106.352H1450.77L1388.97 12.1516V106.352H1382.22V1.20156H1388.97L1450.77 95.1016V1.20156H1457.52V106.352ZM1489.02 6.75156V50.7016H1531.02V56.4016H1489.02V100.652H1535.52V106.352H1482.27V1.05156H1535.52V6.75156H1489.02ZM1551.75 53.8516C1551.75 43.4516 1553.9 34.2016 1558.2 26.1016C1562.6 17.9016 1568.6 11.5016 1576.2 6.90156C1583.9 2.30156 1592.5 0.00155485 1602 0.00155485C1614 0.00155485 1624.1 2.80155 1632.3 8.40155C1640.5 14.0016 1646.5 21.8516 1650.3 31.9516H1642.5C1639.5 23.9516 1634.5 17.6516 1627.5 13.0516C1620.6 8.35156 1612.1 6.00156 1602 6.00156C1593.9 6.00156 1586.55 7.95156 1579.95 11.8516C1573.35 15.6516 1568.15 21.2016 1564.35 28.5016C1560.55 35.7016 1558.65 44.1516 1558.65 53.8516C1558.65 63.4516 1560.55 71.8516 1564.35 79.0516C1568.15 86.1516 1573.35 91.6516 1579.95 95.5516C1586.55 99.4516 1593.9 101.402 1602 101.402C1612.1 101.402 1620.6 99.1016 1627.5 94.5016C1634.5 89.8016 1639.5 83.4516 1642.5 75.4516H1650.3C1646.5 85.5516 1640.5 93.4016 1632.3 99.0016C1624.1 104.602 1614 107.402 1602 107.402C1592.5 107.402 1583.9 105.152 1576.2 100.652C1568.6 96.0516 1562.6 89.7016 1558.2 81.6016C1553.9 73.4016 1551.75 64.1516 1551.75 53.8516ZM1729.58 1.05156V6.75156H1699.58V106.352H1692.83V6.75156H1662.83V1.05156H1729.58ZM1752.4 6.75156V50.7016H1794.4V56.4016H1752.4V100.652H1798.9V106.352H1745.65V1.05156H1798.9V6.75156H1752.4ZM1848.88 1.05156C1866.68 1.05156 1880.38 5.70156 1889.98 15.0016C1899.68 24.3016 1904.53 37.2516 1904.53 53.8516C1904.53 70.4516 1899.68 83.3516 1889.98 92.5516C1880.38 101.752 1866.68 106.352 1848.88 106.352H1819.33V1.05156H1848.88ZM1848.88 100.652C1864.78 100.652 1876.88 96.5516 1885.18 88.3516C1893.48 80.0516 1897.63 68.5516 1897.63 53.8516C1897.63 39.0516 1893.48 27.5016 1885.18 19.2016C1876.88 10.9016 1864.78 6.75156 1848.88 6.75156H1826.08V100.652H1848.88ZM2026.98 79.3516H1977.03L1966.98 106.352H1959.63L1998.33 3.45156H2005.83L2044.38 106.352H2037.03L2026.98 79.3516ZM2024.88 73.6516L2002.08 12.3016L1979.13 73.6516H2024.88ZM2136.62 106.352H2129.87L2068.07 12.1516V106.352H2061.32V1.20156H2068.07L2129.87 95.1016V1.20156H2136.62V106.352ZM2190.92 1.05156C2208.72 1.05156 2222.42 5.70156 2232.02 15.0016C2241.72 24.3016 2246.57 37.2516 2246.57 53.8516C2246.57 70.4516 2241.72 83.3516 2232.02 92.5516C2222.42 101.752 2208.72 106.352 2190.92 106.352H2161.37V1.05156H2190.92ZM2190.92 100.652C2206.82 100.652 2218.92 96.5516 2227.22 88.3516C2235.52 80.0516 2239.67 68.5516 2239.67 53.8516C2239.67 39.0516 2235.52 27.5016 2227.22 19.2016C2218.92 10.9016 2206.82 6.75156 2190.92 6.75156H2168.12V100.652H2190.92ZM2316.07 6.75156V50.7016H2358.07V56.4016H2316.07V100.652H2362.57V106.352H2309.32V1.05156H2362.57V6.75156H2316.07ZM2481.25 3.30156V106.352H2474.5V17.4016L2434.9 106.352H2429.5L2389.75 17.4016V106.352H2383V3.30156H2390.2L2432.2 97.5016L2474.2 3.30156H2481.25ZM2569.8 30.7516C2569.8 40.0516 2566.9 47.3016 2561.1 52.5016C2555.3 57.6016 2546.7 60.1516 2535.3 60.1516H2512.8V106.352H2506.05V1.05156H2535.3C2546.9 1.05156 2555.55 3.75156 2561.25 9.15156C2566.95 14.4516 2569.8 21.6516 2569.8 30.7516ZM2535.3 54.1516C2553.8 54.1516 2563.05 46.3516 2563.05 30.7516C2563.05 23.0516 2560.85 17.2016 2556.45 13.2016C2552.05 9.10155 2545 7.05155 2535.3 7.05155H2512.8V54.1516H2535.3ZM2634.88 107.552C2625.18 107.552 2616.43 105.302 2608.63 100.802C2600.83 96.2016 2594.73 89.8016 2590.33 81.6016C2585.93 73.4016 2583.73 64.1516 2583.73 53.8516C2583.73 43.4516 2585.93 34.2016 2590.33 26.1016C2594.73 17.9016 2600.83 11.5516 2608.63 7.05155C2616.43 2.45156 2625.18 0.151562 2634.88 0.151562C2644.58 0.151562 2653.33 2.45156 2661.13 7.05155C2668.93 11.5516 2675.03 17.9016 2679.43 26.1016C2683.83 34.2016 2686.03 43.4516 2686.03 53.8516C2686.03 64.1516 2683.83 73.4016 2679.43 81.6016C2675.03 89.8016 2668.93 96.2016 2661.13 100.802C2653.33 105.302 2644.58 107.552 2634.88 107.552ZM2634.88 101.552C2643.18 101.552 2650.68 99.6016 2657.38 95.7016C2664.08 91.8016 2669.33 86.2516 2673.13 79.0516C2677.03 71.8516 2678.98 63.4516 2678.98 53.8516C2678.98 44.1516 2677.03 35.7016 2673.13 28.5016C2669.33 21.3016 2664.08 15.7516 2657.38 11.8516C2650.68 7.95156 2643.18 6.00156 2634.88 6.00156C2626.58 6.00156 2619.08 7.95156 2612.38 11.8516C2605.68 15.7516 2600.38 21.3016 2596.48 28.5016C2592.58 35.7016 2590.63 44.1516 2590.63 53.8516C2590.63 63.4516 2592.58 71.8516 2596.48 79.0516C2600.38 86.2516 2605.68 91.8016 2612.38 95.7016C2619.08 99.6016 2626.58 101.552 2634.88 101.552ZM2828.99 1.05156L2799.89 106.352H2792.54L2763.74 11.5516L2734.49 106.352H2727.44L2698.79 1.05156H2705.99L2731.19 96.9016L2760.14 1.05156H2767.64L2796.29 97.5016L2821.64 1.05156H2828.99ZM2852.49 6.75156V50.7016H2894.49V56.4016H2852.49V100.652H2898.99V106.352H2845.74V1.05156H2898.99V6.75156H2852.49ZM2976.28 106.352L2949.28 61.5016H2948.68H2926.18V106.352H2919.43V1.05156H2948.38C2960.08 1.05156 2968.83 3.80156 2974.63 9.30156C2980.53 14.8016 2983.48 22.1016 2983.48 31.2016C2983.48 39.3016 2981.18 46.0016 2976.58 51.3016C2972.08 56.5016 2965.48 59.7016 2956.78 60.9016L2984.38 106.352H2976.28ZM2926.18 55.8016H2948.68C2957.98 55.8016 2964.93 53.5516 2969.53 49.0516C2974.13 44.5516 2976.43 38.6016 2976.43 31.2016C2976.43 15.1016 2967.08 7.05155 2948.38 7.05155H2926.18V55.8016ZM3010.26 6.75156V50.7016H3052.26V56.4016H3010.26V100.652H3056.76V106.352H3003.51V1.05156H3056.76V6.75156H3010.26ZM3106.74 1.05156C3124.54 1.05156 3138.24 5.70156 3147.84 15.0016C3157.54 24.3016 3162.39 37.2516 3162.39 53.8516C3162.39 70.4516 3157.54 83.3516 3147.84 92.5516C3138.24 101.752 3124.54 106.352 3106.74 106.352H3077.19V1.05156H3106.74ZM3106.74 100.652C3122.64 100.652 3134.74 96.5516 3143.04 88.3516C3151.34 80.0516 3155.49 68.5516 3155.49 53.8516C3155.49 39.0516 3151.34 27.5016 3143.04 19.2016C3134.74 10.9016 3122.64 6.75156 3106.74 6.75156H3083.94V100.652H3106.74Z" fill="white"/>
<path d="M-0.00390625 121.352H3170.49V128.852H-0.00390625V121.352Z" fill="white"/>
</svg>
