<svg width="3003" height="129" viewBox="0 0 3003 129" fill="none" xmlns="http://www.w3.org/2000/svg">
<path d="M57.7471 51.9016C63.8471 53.0016 68.9471 56.0016 73.0471 60.9016C77.2471 65.8016 79.3471 71.5516 79.3471 78.1516C79.3471 83.5516 78.0471 88.4016 75.4471 92.7016C72.9471 96.9016 69.1471 100.252 64.0471 102.752C59.0471 105.152 52.9471 106.352 45.7471 106.352H12.2971V1.05156H45.1471C55.6471 1.05156 63.5471 3.50156 68.8471 8.40155C74.2471 13.2016 76.9471 19.4516 76.9471 27.1516C76.9471 33.8516 75.1471 39.3016 71.5471 43.5016C67.9471 47.6016 63.3471 50.4016 57.7471 51.9016ZM19.0471 48.9016H45.4471C53.3471 48.9016 59.3971 47.0516 63.5971 43.3516C67.8971 39.5516 70.0471 34.3516 70.0471 27.7516C70.0471 21.3516 67.9471 16.3016 63.7471 12.6016C59.5471 8.90156 53.1971 7.05155 44.6971 7.05155H19.0471V48.9016ZM45.2971 100.502C53.7971 100.502 60.4471 98.5016 65.2471 94.5016C70.1471 90.4016 72.5971 84.8016 72.5971 77.7016C72.5971 70.7016 70.0971 65.1516 65.0971 61.0516C60.1971 56.8516 53.4471 54.7516 44.8471 54.7516H19.0471V100.502H45.2971ZM105.312 1.05156V66.9016C105.312 78.8016 108.012 87.5516 113.412 93.1516C118.812 98.6516 126.162 101.402 135.462 101.402C144.662 101.402 151.912 98.6516 157.212 93.1516C162.512 87.6516 165.162 78.9016 165.162 66.9016V1.05156H171.912V66.7516C171.912 80.4516 168.612 90.6516 162.012 97.3516C155.412 104.052 146.562 107.402 135.462 107.402C124.362 107.402 115.412 104.052 108.612 97.3516C101.912 90.5516 98.5623 80.3516 98.5623 66.7516V1.05156H105.312ZM202.592 1.05156V106.352H195.842V1.05156H202.592ZM234.086 100.652H273.236V106.352H227.336V1.05156H234.086V100.652ZM318.117 1.05156C335.917 1.05156 349.617 5.70156 359.217 15.0016C368.917 24.3016 373.767 37.2516 373.767 53.8516C373.767 70.4516 368.917 83.3516 359.217 92.5516C349.617 101.752 335.917 106.352 318.117 106.352H288.567V1.05156H318.117ZM318.117 100.652C334.017 100.652 346.117 96.5516 354.417 88.3516C362.717 80.0516 366.867 68.5516 366.867 53.8516C366.867 39.0516 362.717 27.5016 354.417 19.2016C346.117 10.9016 334.017 6.75156 318.117 6.75156H295.317V100.652H318.117ZM400.932 1.05156V106.352H394.182V1.05156H400.932ZM500.976 106.352H494.226L432.426 12.1516V106.352H425.676V1.20156H432.426L494.226 95.1016V1.20156H500.976V106.352ZM612.275 32.1016C609.275 24.2016 604.275 17.9016 597.275 13.2016C590.375 8.50156 582.175 6.15156 572.675 6.15156C564.375 6.15156 556.875 8.10156 550.175 12.0016C543.475 15.9016 538.175 21.4516 534.275 28.6516C530.375 35.8516 528.425 44.2516 528.425 53.8516C528.425 63.4516 530.375 71.8516 534.275 79.0516C538.175 86.2516 543.475 91.8016 550.175 95.7016C556.875 99.5016 564.375 101.402 572.675 101.402C580.675 101.402 587.925 99.6016 594.425 96.0016C600.925 92.4016 606.125 87.3016 610.025 80.7016C613.925 74.0016 616.075 66.2016 616.475 57.3016H569.525V51.6016H623.375V56.1016C623.075 65.9016 620.725 74.7016 616.325 82.5016C611.925 90.3016 605.925 96.4016 598.325 100.802C590.725 105.202 582.175 107.402 572.675 107.402C562.975 107.402 554.225 105.152 546.425 100.652C538.625 96.0516 532.525 89.7016 528.125 81.6016C523.725 73.4016 521.525 64.1516 521.525 53.8516C521.525 43.4516 523.725 34.2016 528.125 26.1016C532.525 17.9016 538.625 11.5516 546.425 7.05155C554.225 2.45156 562.975 0.151562 572.675 0.151562C583.975 0.151562 593.725 3.00156 601.925 8.70156C610.225 14.3016 616.275 22.1016 620.075 32.1016H612.275ZM744.325 1.05156V6.75156H714.325V106.352H707.575V6.75156H677.575V1.05156H744.325ZM835.393 1.05156V106.352H828.643V55.3516H767.143V106.352H760.393V1.05156H767.143V49.6516H828.643V1.05156H835.393ZM866.899 6.75156V50.7016H908.899V56.4016H866.899V100.652H913.399V106.352H860.149V1.05156H913.399V6.75156H866.899ZM1021.61 51.9016C1027.71 53.0016 1032.81 56.0016 1036.91 60.9016C1041.11 65.8016 1043.21 71.5516 1043.21 78.1516C1043.21 83.5516 1041.91 88.4016 1039.31 92.7016C1036.81 96.9016 1033.01 100.252 1027.91 102.752C1022.91 105.152 1016.81 106.352 1009.61 106.352H976.164V1.05156H1009.01C1019.51 1.05156 1027.41 3.50156 1032.71 8.40155C1038.11 13.2016 1040.81 19.4516 1040.81 27.1516C1040.81 33.8516 1039.01 39.3016 1035.41 43.5016C1031.81 47.6016 1027.21 50.4016 1021.61 51.9016ZM982.914 48.9016H1009.31C1017.21 48.9016 1023.26 47.0516 1027.46 43.3516C1031.76 39.5516 1033.91 34.3516 1033.91 27.7516C1033.91 21.3516 1031.81 16.3016 1027.61 12.6016C1023.41 8.90156 1017.06 7.05155 1008.56 7.05155H982.914V48.9016ZM1009.16 100.502C1017.66 100.502 1024.31 98.5016 1029.11 94.5016C1034.01 90.4016 1036.46 84.8016 1036.46 77.7016C1036.46 70.7016 1033.96 65.1516 1028.96 61.0516C1024.06 56.8516 1017.31 54.7516 1008.71 54.7516H982.914V100.502H1009.16ZM1122.73 79.3516H1072.78L1062.73 106.352H1055.38L1094.08 3.45156H1101.58L1140.13 106.352H1132.78L1122.73 79.3516ZM1120.63 73.6516L1097.83 12.3016L1074.88 73.6516H1120.63ZM1152.87 53.8516C1152.87 43.4516 1155.02 34.2016 1159.32 26.1016C1163.72 17.9016 1169.72 11.5016 1177.32 6.90156C1185.02 2.30156 1193.62 0.00155485 1203.12 0.00155485C1215.12 0.00155485 1225.22 2.80155 1233.42 8.40155C1241.62 14.0016 1247.62 21.8516 1251.42 31.9516H1243.62C1240.62 23.9516 1235.62 17.6516 1228.62 13.0516C1221.72 8.35156 1213.22 6.00156 1203.12 6.00156C1195.02 6.00156 1187.67 7.95156 1181.07 11.8516C1174.47 15.6516 1169.27 21.2016 1165.47 28.5016C1161.67 35.7016 1159.77 44.1516 1159.77 53.8516C1159.77 63.4516 1161.67 71.8516 1165.47 79.0516C1169.27 86.1516 1174.47 91.6516 1181.07 95.5516C1187.67 99.4516 1195.02 101.402 1203.12 101.402C1213.22 101.402 1221.72 99.1016 1228.62 94.5016C1235.62 89.8016 1240.62 83.4516 1243.62 75.4516H1251.42C1247.62 85.5516 1241.62 93.4016 1233.42 99.0016C1225.22 104.602 1215.12 107.402 1203.12 107.402C1193.62 107.402 1185.02 105.152 1177.32 100.652C1169.72 96.0516 1163.72 89.7016 1159.32 81.6016C1155.02 73.4016 1152.87 64.1516 1152.87 53.8516ZM1327.7 106.352L1279.25 56.7016V106.352H1272.5V1.05156H1279.25V51.1516L1327.7 1.05156H1336.4L1285.1 53.8516L1336.55 106.352H1327.7ZM1397.64 51.9016C1403.74 53.0016 1408.84 56.0016 1412.94 60.9016C1417.14 65.8016 1419.24 71.5516 1419.24 78.1516C1419.24 83.5516 1417.94 88.4016 1415.34 92.7016C1412.84 96.9016 1409.04 100.252 1403.94 102.752C1398.94 105.152 1392.84 106.352 1385.64 106.352H1352.19V1.05156H1385.04C1395.54 1.05156 1403.44 3.50156 1408.74 8.40155C1414.14 13.2016 1416.84 19.4516 1416.84 27.1516C1416.84 33.8516 1415.04 39.3016 1411.44 43.5016C1407.84 47.6016 1403.24 50.4016 1397.64 51.9016ZM1358.94 48.9016H1385.34C1393.24 48.9016 1399.29 47.0516 1403.49 43.3516C1407.79 39.5516 1409.94 34.3516 1409.94 27.7516C1409.94 21.3516 1407.84 16.3016 1403.64 12.6016C1399.44 8.90156 1393.09 7.05155 1384.59 7.05155H1358.94V48.9016ZM1385.19 100.502C1393.69 100.502 1400.34 98.5016 1405.14 94.5016C1410.04 90.4016 1412.49 84.8016 1412.49 77.7016C1412.49 70.7016 1409.99 65.1516 1404.99 61.0516C1400.09 56.8516 1393.34 54.7516 1384.74 54.7516H1358.94V100.502H1385.19ZM1486 107.552C1476.3 107.552 1467.55 105.302 1459.75 100.802C1451.95 96.2016 1445.85 89.8016 1441.45 81.6016C1437.05 73.4016 1434.85 64.1516 1434.85 53.8516C1434.85 43.4516 1437.05 34.2016 1441.45 26.1016C1445.85 17.9016 1451.95 11.5516 1459.75 7.05155C1467.55 2.45156 1476.3 0.151562 1486 0.151562C1495.7 0.151562 1504.45 2.45156 1512.25 7.05155C1520.05 11.5516 1526.15 17.9016 1530.55 26.1016C1534.95 34.2016 1537.15 43.4516 1537.15 53.8516C1537.15 64.1516 1534.95 73.4016 1530.55 81.6016C1526.15 89.8016 1520.05 96.2016 1512.25 100.802C1504.45 105.302 1495.7 107.552 1486 107.552ZM1486 101.552C1494.3 101.552 1501.8 99.6016 1508.5 95.7016C1515.2 91.8016 1520.45 86.2516 1524.25 79.0516C1528.15 71.8516 1530.1 63.4516 1530.1 53.8516C1530.1 44.1516 1528.15 35.7016 1524.25 28.5016C1520.45 21.3016 1515.2 15.7516 1508.5 11.8516C1501.8 7.95156 1494.3 6.00156 1486 6.00156C1477.7 6.00156 1470.2 7.95156 1463.5 11.8516C1456.8 15.7516 1451.5 21.3016 1447.6 28.5016C1443.7 35.7016 1441.75 44.1516 1441.75 53.8516C1441.75 63.4516 1443.7 71.8516 1447.6 79.0516C1451.5 86.2516 1456.8 91.8016 1463.5 95.7016C1470.2 99.6016 1477.7 101.552 1486 101.552ZM1632.86 106.352H1626.11L1564.31 12.1516V106.352H1557.56V1.20156H1564.31L1626.11 95.1016V1.20156H1632.86V106.352ZM1664.36 6.75156V50.7016H1706.36V56.4016H1664.36V100.652H1710.86V106.352H1657.61V1.05156H1710.86V6.75156H1664.36ZM1820.58 107.552C1810.88 107.552 1802.13 105.302 1794.33 100.802C1786.53 96.2016 1780.43 89.8016 1776.03 81.6016C1771.63 73.4016 1769.43 64.1516 1769.43 53.8516C1769.43 43.4516 1771.63 34.2016 1776.03 26.1016C1780.43 17.9016 1786.53 11.5516 1794.33 7.05155C1802.13 2.45156 1810.88 0.151562 1820.58 0.151562C1830.28 0.151562 1839.03 2.45156 1846.83 7.05155C1854.63 11.5516 1860.73 17.9016 1865.13 26.1016C1869.53 34.2016 1871.73 43.4516 1871.73 53.8516C1871.73 64.1516 1869.53 73.4016 1865.13 81.6016C1860.73 89.8016 1854.63 96.2016 1846.83 100.802C1839.03 105.302 1830.28 107.552 1820.58 107.552ZM1820.58 101.552C1828.88 101.552 1836.38 99.6016 1843.08 95.7016C1849.78 91.8016 1855.03 86.2516 1858.83 79.0516C1862.73 71.8516 1864.68 63.4516 1864.68 53.8516C1864.68 44.1516 1862.73 35.7016 1858.83 28.5016C1855.03 21.3016 1849.78 15.7516 1843.08 11.8516C1836.38 7.95156 1828.88 6.00156 1820.58 6.00156C1812.28 6.00156 1804.78 7.95156 1798.08 11.8516C1791.38 15.7516 1786.08 21.3016 1782.18 28.5016C1778.28 35.7016 1776.33 44.1516 1776.33 53.8516C1776.33 63.4516 1778.28 71.8516 1782.18 79.0516C1786.08 86.2516 1791.38 91.8016 1798.08 95.7016C1804.78 99.6016 1812.28 101.552 1820.58 101.552ZM1946.43 1.05156V6.75156H1898.88V50.7016H1940.43V56.4016H1898.88V106.352H1892.13V1.05156H1946.43ZM2064.88 1.05156V6.75156H2034.88V106.352H2028.13V6.75156H1998.13V1.05156H2064.88ZM2155.95 1.05156V106.352H2149.2V55.3516H2087.7V106.352H2080.95V1.05156H2087.7V49.6516H2149.2V1.05156H2155.95ZM2187.46 6.75156V50.7016H2229.46V56.4016H2187.46V100.652H2233.96V106.352H2180.71V1.05156H2233.96V6.75156H2187.46ZM2372.02 106.352H2365.27L2303.47 12.1516V106.352H2296.72V1.20156H2303.47L2365.27 95.1016V1.20156H2372.02V106.352ZM2403.52 6.75156V50.7016H2445.52V56.4016H2403.52V100.652H2450.02V106.352H2396.77V1.05156H2450.02V6.75156H2403.52ZM2593 1.05156L2563.9 106.352H2556.55L2527.75 11.5516L2498.5 106.352H2491.45L2462.8 1.05156H2470L2495.2 96.9016L2524.15 1.05156H2531.65L2560.3 97.5016L2585.65 1.05156H2593ZM2658.84 1.05156V106.352H2652.09V1.05156H2658.84ZM2758.89 106.352H2752.14L2690.34 12.1516V106.352H2683.59V1.20156H2690.34L2752.14 95.1016V1.20156H2758.89V106.352ZM2813.18 1.05156C2830.98 1.05156 2844.68 5.70156 2854.28 15.0016C2863.98 24.3016 2868.83 37.2516 2868.83 53.8516C2868.83 70.4516 2863.98 83.3516 2854.28 92.5516C2844.68 101.752 2830.98 106.352 2813.18 106.352H2783.63V1.05156H2813.18ZM2813.18 100.652C2829.08 100.652 2841.18 96.5516 2849.48 88.3516C2857.78 80.0516 2861.93 68.5516 2861.93 53.8516C2861.93 39.0516 2857.78 27.5016 2849.48 19.2016C2841.18 10.9016 2829.08 6.75156 2813.18 6.75156H2790.38V100.652H2813.18ZM2896 1.05156V106.352H2889.25V1.05156H2896ZM2980.44 79.3516H2930.49L2920.44 106.352H2913.09L2951.79 3.45156H2959.29L2997.84 106.352H2990.49L2980.44 79.3516ZM2978.34 73.6516L2955.54 12.3016L2932.59 73.6516H2978.34Z" fill="white"/>
<path d="M-0.00292969 121.352H3002.49V128.852H-0.00292969V121.352Z" fill="white"/>
</svg>
