<svg width="5975" height="1501" viewBox="0 0 5975 1501" fill="none" xmlns="http://www.w3.org/2000/svg">
<g opacity="0.6" filter="url(#filter0_g_313_1430)">
<rect x="2626" y="428" width="723.213" height="164" rx="57" fill="#338021"/>
<rect x="2626" y="100" width="723.213" height="164" rx="57" fill="#D36900"/>
<rect x="2626" y="264" width="723.213" height="164" rx="57" fill="#D9D9D9"/>
</g>
<path d="M1950.48 852.76L1924.16 856.178L1922.45 810.035L1894.08 811.061L1892.37 990.846L1916.3 990.162L1914.59 1020.92L1844.18 1022.63L1843.15 990.846H1863.32L1862.98 812.77L1832.21 814.82L1833.92 857.887H1805.55L1807.26 783.717L1947.06 778.59L1950.48 852.76ZM2147.35 813.453L2129.58 812.77L2126.16 994.605H2145.98L2147.01 1026.05L2071.13 1024.34V993.58L2095.4 994.605L2096.42 930.006H2018.49V990.846H2038.66L2039.34 1022.63L1965.17 1020.92V990.162L1989.44 990.846L1987.73 817.896L1964.49 816.188L1965.17 785.426H2036.61V818.58L2018.49 817.896V903.346L2096.08 900.611L2096.76 812.77L2073.86 811.061L2074.55 780.299H2147.35V813.453ZM2314.66 846.607L2289.37 848.316L2285.95 813.111L2223.74 814.479L2223.06 890.699H2275.01V915.309L2222.72 918.385L2222.03 994.605L2285.95 992.213V954.615H2311.24L2312.95 1022.63L2173.84 1026.05L2172.81 994.605H2192.98L2192.64 814.479L2171.45 815.162L2173.16 782.008L2312.95 780.299L2314.66 846.607ZM2550.67 809.352L2529.48 811.061L2485.39 1027.08L2446.76 1025.03L2404.38 814.479L2383.19 815.162L2384.9 782.008H2454.28L2457.02 812.77L2437.19 814.479L2466.25 989.137L2498.38 811.061L2477.18 811.744L2478.89 778.59L2548.28 776.881L2550.67 809.352ZM2633.9 990.162L2632.19 1020.92L2561.78 1022.63L2560.75 990.846H2580.92L2580.58 816.188L2559.39 816.871L2561.1 783.717H2628.77L2631.51 814.479L2611.68 816.188L2609.97 990.846L2633.9 990.162ZM2820.86 780.299L2818.13 812.77H2800.35L2732.34 898.219L2797.28 994.605L2816.08 993.58L2817.79 1024.34L2747.38 1027.76L2744.64 996.314H2764.81L2705.68 906.422L2704.99 990.846L2728.92 990.162L2727.21 1020.92L2656.8 1022.63L2655.77 990.846H2675.94L2675.6 816.188L2654.41 816.871L2656.12 783.717H2723.79L2726.53 814.479L2706.7 816.188L2706.02 889.674L2767.54 811.061L2746.01 808.326L2748.06 778.59L2820.86 780.299ZM2985.95 996.314L2983.56 1028.79L2914.17 1027.08L2912.46 993.922L2933.65 994.605L2924.77 944.703L2879.65 946.754L2872.47 991.188L2892.3 992.896L2889.56 1023.66H2820.18L2818.47 990.504L2839.66 991.188L2876.92 808.668L2859.48 809.352L2857.78 780.299L2944.93 778.59L2943.22 805.934L2926.13 806.617L2964.76 994.605L2985.95 996.314ZM2919.98 918.043L2901.53 813.111L2884.44 918.043H2919.98ZM3133.43 959.059C3133.43 968.287 3132.24 977.003 3129.85 985.206C3127.57 993.295 3124.04 1000.36 3119.25 1006.4C3114.46 1012.44 3108.37 1017.22 3100.96 1020.75C3093.67 1024.28 3085.01 1026.05 3074.99 1026.05C3068.95 1026.05 3063.54 1025.48 3058.75 1024.34C3053.97 1023.32 3049.58 1021.66 3045.59 1019.39C3041.72 1016.99 3038.07 1013.97 3034.66 1010.33C3031.35 1006.68 3028.16 1002.35 3025.08 997.34L3024.74 1023.66L2994.67 1019.56L3000.13 941.285L3025.43 942.311C3026.45 948.349 3028.05 954.672 3030.21 961.28C3032.38 967.774 3035.22 973.756 3038.76 979.225C3042.4 984.693 3046.85 989.194 3052.09 992.726C3057.44 996.257 3063.82 998.023 3071.23 998.023C3077.15 998.023 3082.11 997.055 3086.1 995.118C3090.2 993.181 3093.5 990.504 3096.01 987.086C3098.51 983.668 3100.28 979.623 3101.31 974.952C3102.44 970.281 3103.01 965.211 3103.01 959.742C3103.01 953.59 3101.99 948.121 3099.94 943.336C3098 938.437 3095.27 934.164 3091.74 930.519C3088.2 926.759 3084.04 923.569 3079.26 920.948C3074.59 918.214 3069.52 915.878 3064.05 913.941C3057.78 911.777 3051.75 909.498 3045.93 907.105C3040.24 904.713 3034.88 902.092 3029.87 899.244C3024.86 896.282 3020.24 893.035 3016.03 889.503C3011.93 885.857 3008.39 881.699 3005.43 877.027C3002.47 872.356 3000.13 867.058 2998.42 861.134C2996.83 855.209 2996.03 848.43 2996.03 840.797C2996.03 831.34 2997.46 822.625 3000.3 814.649C3003.15 806.674 3007.25 799.838 3012.61 794.142C3017.96 788.331 3024.46 783.831 3032.09 780.641C3039.73 777.451 3048.33 775.855 3057.9 775.855C3063.94 775.855 3069.12 776.425 3073.45 777.564C3077.89 778.704 3081.82 780.47 3085.24 782.862C3088.66 785.255 3091.79 788.274 3094.64 791.92C3097.49 795.452 3100.39 799.667 3103.36 804.566L3103.7 776.539L3133.43 777.223L3129.67 864.381L3103.01 863.355C3102.22 859.14 3101.31 854.811 3100.28 850.367C3099.37 845.81 3098.12 841.424 3096.52 837.208C3094.93 832.993 3093.05 829.005 3090.88 825.245C3088.72 821.371 3086.1 818.01 3083.02 815.162C3080.06 812.314 3076.58 810.092 3072.59 808.497C3068.61 806.788 3064.05 805.934 3058.92 805.934C3053.68 805.934 3049.12 806.959 3045.25 809.01C3041.49 810.947 3038.36 813.624 3035.85 817.042C3033.35 820.346 3031.47 824.22 3030.21 828.663C3029.07 832.993 3028.5 837.493 3028.5 842.164C3028.5 848.772 3029.59 854.412 3031.75 859.083C3033.91 863.754 3036.82 867.799 3040.47 871.217C3044.23 874.521 3048.56 877.369 3053.45 879.762C3058.35 882.154 3063.59 884.319 3069.18 886.256C3077.72 889.332 3085.87 892.978 3093.62 897.193C3101.36 901.409 3108.2 906.422 3114.12 912.232C3120.05 918.043 3124.72 924.822 3128.14 932.569C3131.67 940.203 3133.43 949.033 3133.43 959.059ZM3232.04 990.162L3230.33 1020.92L3159.92 1022.63L3158.9 990.846H3179.06L3178.72 816.188L3157.53 816.871L3159.24 783.717H3226.92L3229.65 814.479L3209.83 816.188L3208.12 990.846L3232.04 990.162ZM3392.86 852.76L3366.54 856.178L3364.83 810.035L3336.46 811.061L3334.75 990.846L3358.68 990.162L3356.97 1020.92L3286.56 1022.63L3285.53 990.846H3305.7L3305.36 812.77L3274.6 814.82L3276.31 857.887H3247.94L3249.65 783.717L3389.44 778.59L3392.86 852.76ZM3625.96 809.352L3604.77 811.061L3560.68 1027.08L3522.06 1025.03L3479.67 814.479L3458.48 815.162L3460.19 782.008H3529.58L3532.31 812.77L3512.49 814.479L3541.54 989.137L3573.67 811.061L3552.48 811.744L3554.19 778.59L3623.57 776.881L3625.96 809.352ZM3709.19 990.162L3707.48 1020.92L3637.07 1022.63L3636.05 990.846H3656.21L3655.87 816.188L3634.68 816.871L3636.39 783.717H3704.06L3706.8 814.479L3686.97 816.188L3685.27 990.846L3709.19 990.162ZM3872.91 846.607L3847.62 848.316L3844.2 813.111L3781.99 814.479L3781.31 890.699H3833.26V915.309L3780.97 918.385L3780.29 994.605L3844.2 992.213V954.615H3869.49L3871.2 1022.63L3732.09 1026.05L3731.07 994.605H3751.23L3750.89 814.479L3729.7 815.162L3731.41 782.008L3871.2 780.299L3872.91 846.607ZM4100.89 810.035L4079.7 809.352L4054.41 1025.03L4010.66 1027.08L3991.17 860.279L3969.64 1021.95L3922.81 1023.32L3904.36 814.479L3883.17 815.162L3884.88 782.008H3947.42L3950.16 812.77L3937.17 814.479L3947.42 987.428L3974.08 816.871L3963.49 815.162L3965.2 785.426L4017.49 783.717L4019.54 811.744L4007.92 815.162L4033.21 982.301L4046.89 809.352L4033.9 807.643L4036.63 776.881H4099.18L4100.89 810.035ZM4161.22 891.041C4161.22 894.003 4160.65 896.852 4159.51 899.586C4158.37 902.206 4156.77 904.542 4154.72 906.593C4152.79 908.53 4150.45 910.068 4147.72 911.207C4145.1 912.346 4142.31 912.916 4139.34 912.916C4136.38 912.916 4133.59 912.346 4130.97 911.207C4128.35 910.068 4126.07 908.53 4124.13 906.593C4122.2 904.542 4120.66 902.206 4119.52 899.586C4118.38 896.852 4117.81 894.003 4117.81 891.041C4117.81 888.079 4118.38 885.287 4119.52 882.667C4120.66 880.047 4122.2 877.768 4124.13 875.831C4126.07 873.894 4128.35 872.356 4130.97 871.217C4133.59 870.077 4136.38 869.508 4139.34 869.508C4142.31 869.508 4145.1 870.077 4147.72 871.217C4150.45 872.356 4152.79 873.894 4154.72 875.831C4156.77 877.768 4158.37 880.047 4159.51 882.667C4160.65 885.287 4161.22 888.079 4161.22 891.041ZM4161.22 1004.52C4161.22 1007.48 4160.65 1010.27 4159.51 1012.89C4158.37 1015.51 4156.77 1017.79 4154.72 1019.73C4152.79 1021.66 4150.45 1023.2 4147.72 1024.34C4145.1 1025.48 4142.31 1026.05 4139.34 1026.05C4136.38 1026.05 4133.59 1025.48 4130.97 1024.34C4128.35 1023.2 4126.07 1021.66 4124.13 1019.73C4122.2 1017.79 4120.66 1015.51 4119.52 1012.89C4118.38 1010.27 4117.81 1007.48 4117.81 1004.52C4117.81 1001.56 4118.38 998.764 4119.52 996.144C4120.66 993.409 4122.2 991.074 4124.13 989.137C4126.07 987.086 4128.35 985.491 4130.97 984.352C4133.59 983.212 4136.38 982.643 4139.34 982.643C4142.31 982.643 4145.1 983.212 4147.72 984.352C4150.45 985.491 4152.79 987.086 4154.72 989.137C4156.77 991.074 4158.37 993.409 4159.51 996.144C4160.65 998.764 4161.22 1001.56 4161.22 1004.52Z" fill="white"/>
<path d="M1465.6 1235.3V1242.7H1446.6V1305H1437.5V1242.7H1418.4V1235.3H1465.6ZM1570.5 1235.3V1305H1561.4V1273.4H1525.9V1305H1516.8V1235.3H1525.9V1265.9H1561.4V1235.3H1570.5ZM1635.14 1242.7V1266H1660.54V1273.5H1635.14V1297.5H1663.54V1305H1626.04V1235.2H1663.54V1242.7H1635.14ZM1890.03 1235.3V1242.7H1859.73V1266.2H1884.33V1273.6H1859.73V1305H1850.63V1235.3H1890.03ZM1949.92 1235.3V1279.4C1949.92 1285.6 1951.42 1290.2 1954.42 1293.2C1957.49 1296.2 1961.72 1297.7 1967.12 1297.7C1972.45 1297.7 1976.62 1296.2 1979.62 1293.2C1982.69 1290.2 1984.22 1285.6 1984.22 1279.4V1235.3H1993.32V1279.3C1993.32 1285.1 1992.15 1290 1989.82 1294C1987.49 1297.93 1984.32 1300.87 1980.32 1302.8C1976.39 1304.73 1971.95 1305.7 1967.02 1305.7C1962.09 1305.7 1957.62 1304.73 1953.62 1302.8C1949.69 1300.87 1946.55 1297.93 1944.22 1294C1941.95 1290 1940.82 1285.1 1940.82 1279.3V1235.3H1949.92ZM2091.4 1235.3V1242.7H2072.4V1305H2063.3V1242.7H2044.2V1235.3H2091.4ZM2151.5 1235.3V1279.4C2151.5 1285.6 2153 1290.2 2156 1293.2C2159.07 1296.2 2163.3 1297.7 2168.7 1297.7C2174.04 1297.7 2178.2 1296.2 2181.2 1293.2C2184.27 1290.2 2185.8 1285.6 2185.8 1279.4V1235.3H2194.9V1279.3C2194.9 1285.1 2193.74 1290 2191.4 1294C2189.07 1297.93 2185.9 1300.87 2181.9 1302.8C2177.97 1304.73 2173.54 1305.7 2168.6 1305.7C2163.67 1305.7 2159.2 1304.73 2155.2 1302.8C2151.27 1300.87 2148.14 1297.93 2145.8 1294C2143.54 1290 2142.4 1285.1 2142.4 1279.3V1235.3H2151.5ZM2286.78 1305L2270.18 1276.5H2259.18V1305H2250.08V1235.3H2272.58C2277.85 1235.3 2282.28 1236.2 2285.88 1238C2289.55 1239.8 2292.28 1242.23 2294.08 1245.3C2295.88 1248.37 2296.78 1251.87 2296.78 1255.8C2296.78 1260.6 2295.38 1264.83 2292.58 1268.5C2289.85 1272.17 2285.72 1274.6 2280.18 1275.8L2297.68 1305H2286.78ZM2259.18 1269.2H2272.58C2277.52 1269.2 2281.22 1268 2283.68 1265.6C2286.15 1263.13 2287.38 1259.87 2287.38 1255.8C2287.38 1251.67 2286.15 1248.47 2283.68 1246.2C2281.28 1243.93 2277.58 1242.8 2272.58 1242.8H2259.18V1269.2ZM2360.02 1242.7V1266H2385.42V1273.5H2360.02V1297.5H2388.42V1305H2350.92V1235.2H2388.42V1242.7H2360.02ZM2629.21 1235.3V1305H2620.11V1273.4H2584.61V1305H2575.51V1235.3H2584.61V1265.9H2620.11V1235.3H2629.21ZM2725.95 1289.5H2695.55L2689.95 1305H2680.35L2705.55 1235.7H2716.05L2741.15 1305H2731.55L2725.95 1289.5ZM2723.35 1282.1L2710.75 1246.9L2698.15 1282.1H2723.35ZM2814.23 1305.7C2809.63 1305.7 2805.5 1304.9 2801.83 1303.3C2798.23 1301.63 2795.4 1299.37 2793.33 1296.5C2791.27 1293.57 2790.2 1290.2 2790.13 1286.4H2799.83C2800.17 1289.67 2801.5 1292.43 2803.83 1294.7C2806.23 1296.9 2809.7 1298 2814.23 1298C2818.57 1298 2821.97 1296.93 2824.43 1294.8C2826.97 1292.6 2828.23 1289.8 2828.23 1286.4C2828.23 1283.73 2827.5 1281.57 2826.03 1279.9C2824.57 1278.23 2822.73 1276.97 2820.53 1276.1C2818.33 1275.23 2815.37 1274.3 2811.63 1273.3C2807.03 1272.1 2803.33 1270.9 2800.53 1269.7C2797.8 1268.5 2795.43 1266.63 2793.43 1264.1C2791.5 1261.5 2790.53 1258.03 2790.53 1253.7C2790.53 1249.9 2791.5 1246.53 2793.43 1243.6C2795.37 1240.67 2798.07 1238.4 2801.53 1236.8C2805.07 1235.2 2809.1 1234.4 2813.63 1234.4C2820.17 1234.4 2825.5 1236.03 2829.63 1239.3C2833.83 1242.57 2836.2 1246.9 2836.73 1252.3H2826.73C2826.4 1249.63 2825 1247.3 2822.53 1245.3C2820.07 1243.23 2816.8 1242.2 2812.73 1242.2C2808.93 1242.2 2805.83 1243.2 2803.43 1245.2C2801.03 1247.13 2799.83 1249.87 2799.83 1253.4C2799.83 1255.93 2800.53 1258 2801.93 1259.6C2803.4 1261.2 2805.17 1262.43 2807.23 1263.3C2809.37 1264.1 2812.33 1265.03 2816.13 1266.1C2820.73 1267.37 2824.43 1268.63 2827.23 1269.9C2830.03 1271.1 2832.43 1273 2834.43 1275.6C2836.43 1278.13 2837.43 1281.6 2837.43 1286C2837.43 1289.4 2836.53 1292.6 2834.73 1295.6C2832.93 1298.6 2830.27 1301.03 2826.73 1302.9C2823.2 1304.77 2819.03 1305.7 2814.23 1305.7ZM3055.75 1305.7C3049.28 1305.7 3043.38 1304.2 3038.05 1301.2C3032.71 1298.13 3028.48 1293.9 3025.35 1288.5C3022.28 1283.03 3020.75 1276.9 3020.75 1270.1C3020.75 1263.3 3022.28 1257.2 3025.35 1251.8C3028.48 1246.33 3032.71 1242.1 3038.05 1239.1C3043.38 1236.03 3049.28 1234.5 3055.75 1234.5C3062.28 1234.5 3068.21 1236.03 3073.55 1239.1C3078.88 1242.1 3083.08 1246.3 3086.15 1251.7C3089.21 1257.1 3090.75 1263.23 3090.75 1270.1C3090.75 1276.97 3089.21 1283.1 3086.15 1288.5C3083.08 1293.9 3078.88 1298.13 3073.55 1301.2C3068.21 1304.2 3062.28 1305.7 3055.75 1305.7ZM3055.75 1297.8C3060.61 1297.8 3064.98 1296.67 3068.85 1294.4C3072.78 1292.13 3075.85 1288.9 3078.05 1284.7C3080.31 1280.5 3081.45 1275.63 3081.45 1270.1C3081.45 1264.5 3080.31 1259.63 3078.05 1255.5C3075.85 1251.3 3072.81 1248.07 3068.95 1245.8C3065.08 1243.53 3060.68 1242.4 3055.75 1242.4C3050.81 1242.4 3046.41 1243.53 3042.55 1245.8C3038.68 1248.07 3035.61 1251.3 3033.35 1255.5C3031.15 1259.63 3030.05 1264.5 3030.05 1270.1C3030.05 1275.63 3031.15 1280.5 3033.35 1284.7C3035.61 1288.9 3038.68 1292.13 3042.55 1294.4C3046.48 1296.67 3050.88 1297.8 3055.75 1297.8ZM3151.66 1235.3V1279.4C3151.66 1285.6 3153.16 1290.2 3156.16 1293.2C3159.23 1296.2 3163.46 1297.7 3168.86 1297.7C3174.19 1297.7 3178.36 1296.2 3181.36 1293.2C3184.43 1290.2 3185.96 1285.6 3185.96 1279.4V1235.3H3195.06V1279.3C3195.06 1285.1 3193.89 1290 3191.56 1294C3189.23 1297.93 3186.06 1300.87 3182.06 1302.8C3178.13 1304.73 3173.69 1305.7 3168.76 1305.7C3163.83 1305.7 3159.36 1304.73 3155.36 1302.8C3151.43 1300.87 3148.29 1297.93 3145.96 1294C3143.69 1290 3142.56 1285.1 3142.56 1279.3V1235.3H3151.66ZM3286.94 1305L3270.34 1276.5H3259.34V1305H3250.24V1235.3H3272.74C3278.01 1235.3 3282.44 1236.2 3286.04 1238C3289.71 1239.8 3292.44 1242.23 3294.24 1245.3C3296.04 1248.37 3296.94 1251.87 3296.94 1255.8C3296.94 1260.6 3295.54 1264.83 3292.74 1268.5C3290.01 1272.17 3285.87 1274.6 3280.34 1275.8L3297.84 1305H3286.94ZM3259.34 1269.2H3272.74C3277.67 1269.2 3281.37 1268 3283.84 1265.6C3286.31 1263.13 3287.54 1259.87 3287.54 1255.8C3287.54 1251.67 3286.31 1248.47 3283.84 1246.2C3281.44 1243.93 3277.74 1242.8 3272.74 1242.8H3259.34V1269.2ZM3539.2 1305H3530.1L3493.5 1249.5V1305H3484.4V1235.2H3493.5L3530.1 1290.6V1235.2H3539.2V1305ZM3635.91 1289.5H3605.51L3599.91 1305H3590.31L3615.51 1235.7H3626.01L3651.11 1305H3641.51L3635.91 1289.5ZM3633.31 1282.1L3620.71 1246.9L3608.11 1282.1H3633.31ZM3772.79 1235.8V1305H3763.69V1253.4L3740.69 1305H3734.29L3711.19 1253.3V1305H3702.09V1235.8H3711.89L3737.49 1293L3763.09 1235.8H3772.79ZM3837.33 1242.7V1266H3862.73V1273.5H3837.33V1297.5H3865.73V1305H3828.23V1235.2H3865.73V1242.7H3837.33ZM4084.42 1305.7C4077.95 1305.7 4072.05 1304.2 4066.72 1301.2C4061.38 1298.13 4057.15 1293.9 4054.02 1288.5C4050.95 1283.03 4049.42 1276.9 4049.42 1270.1C4049.42 1263.3 4050.95 1257.2 4054.02 1251.8C4057.15 1246.33 4061.38 1242.1 4066.72 1239.1C4072.05 1236.03 4077.95 1234.5 4084.42 1234.5C4090.95 1234.5 4096.88 1236.03 4102.22 1239.1C4107.55 1242.1 4111.75 1246.3 4114.82 1251.7C4117.88 1257.1 4119.42 1263.23 4119.42 1270.1C4119.42 1276.97 4117.88 1283.1 4114.82 1288.5C4111.75 1293.9 4107.55 1298.13 4102.22 1301.2C4096.88 1304.2 4090.95 1305.7 4084.42 1305.7ZM4084.42 1297.8C4089.28 1297.8 4093.65 1296.67 4097.52 1294.4C4101.45 1292.13 4104.52 1288.9 4106.72 1284.7C4108.98 1280.5 4110.12 1275.63 4110.12 1270.1C4110.12 1264.5 4108.98 1259.63 4106.72 1255.5C4104.52 1251.3 4101.48 1248.07 4097.62 1245.8C4093.75 1243.53 4089.35 1242.4 4084.42 1242.4C4079.48 1242.4 4075.08 1243.53 4071.22 1245.8C4067.35 1248.07 4064.28 1251.3 4062.02 1255.5C4059.82 1259.63 4058.72 1264.5 4058.72 1270.1C4058.72 1275.63 4059.82 1280.5 4062.02 1284.7C4064.28 1288.9 4067.35 1292.13 4071.22 1294.4C4075.15 1296.67 4079.55 1297.8 4084.42 1297.8ZM4226.23 1305H4217.13L4180.53 1249.5V1305H4171.43V1235.2H4180.53L4217.13 1290.6V1235.2H4226.23V1305ZM4424.16 1235.3V1305H4415.06V1235.3H4424.16ZM4522.57 1235.3V1242.7H4503.57V1305H4494.47V1242.7H4475.37V1235.3H4522.57Z" fill="white"/>
<line y1="1498.5" x2="5975" y2="1498.5" stroke="white" stroke-width="5"/>
<defs>
<filter id="filter0_g_313_1430" x="2526" y="0" width="923.211" height="692" filterUnits="userSpaceOnUse" color-interpolation-filters="sRGB">
<feFlood flood-opacity="0" result="BackgroundImageFix"/>
<feBlend mode="normal" in="SourceGraphic" in2="BackgroundImageFix" result="shape"/>
<feTurbulence type="fractalNoise" baseFrequency="0.02049180306494236 0.02049180306494236" numOctaves="3" seed="6392" />
<feDisplacementMap in="shape" scale="200" xChannelSelector="R" yChannelSelector="G" result="displacedImage" width="100%" height="100%" />
<feMerge result="effect1_texture_313_1430">
<feMergeNode in="displacedImage"/>
</feMerge>
</filter>
</defs>
</svg>
