<svg width="2393" height="628" viewBox="0 0 2393 628" fill="none" xmlns="http://www.w3.org/2000/svg">
<path d="M62.7561 73.5584H34.4361L27.9561 86.3984H-0.00390634L46.0761 1.43844H76.7961L92.7561 86.3984H64.6761L62.7561 73.5584ZM59.8761 53.5184L56.3961 29.8784L44.5161 53.5184H59.8761ZM200.679 86.3984H174.039L153.399 43.6784L145.839 86.3984H119.199L134.199 1.43844H160.839L181.359 44.8784L189.039 1.43844H215.679L200.679 86.3984ZM269.475 73.5584H241.155L234.675 86.3984H206.715L252.795 1.43844H283.515L299.475 86.3984H271.395L269.475 73.5584ZM266.595 53.5184L263.115 29.8784L251.235 53.5184H266.595ZM387.247 1.43844L383.527 22.5584H360.967L349.687 86.3984H323.047L334.327 22.5584H312.007L315.727 1.43844H387.247ZM421.113 1.43844L406.113 86.3984H379.473L394.473 1.43844H421.113ZM459.785 87.2384C452.585 87.2384 446.265 85.7584 440.825 82.7984C435.385 79.8384 431.185 75.6784 428.225 70.3184C425.265 64.8784 423.785 58.6784 423.785 51.7184C423.785 41.5584 425.865 32.5984 430.025 24.8384C434.265 16.9984 440.145 10.9184 447.665 6.59843C455.265 2.19843 463.985 -0.00156593 473.825 -0.00156593C481.185 -0.00156593 487.585 1.47843 493.025 4.43843C498.545 7.31844 502.785 11.4384 505.745 16.7984C508.705 22.0784 510.185 28.1984 510.185 35.1584C510.185 45.2384 508.065 54.2384 503.825 62.1584C499.665 70.0784 493.745 76.2384 486.065 80.6384C478.465 85.0384 469.705 87.2384 459.785 87.2384ZM463.865 62.3984C468.025 62.3984 471.625 61.3184 474.665 59.1584C477.785 56.9184 480.145 53.9984 481.745 50.3984C483.345 46.7184 484.145 42.7584 484.145 38.5184C484.145 34.1184 482.945 30.7184 480.545 28.3184C478.225 25.8384 474.865 24.5984 470.465 24.5984C466.305 24.5984 462.665 25.6784 459.545 27.8384C456.425 29.9984 454.025 32.9184 452.345 36.5984C450.745 40.1984 449.945 44.1184 449.945 48.3584C449.945 52.7584 451.105 56.1984 453.425 58.6784C455.825 61.1584 459.305 62.3984 463.865 62.3984ZM594.195 86.3984H567.555L546.915 43.6784L539.355 86.3984H512.715L527.715 1.43844H554.355L574.875 44.8784L582.555 1.43844H609.195L594.195 86.3984ZM764.021 1.43844L729.581 86.3984H696.461L695.141 38.1584L676.781 86.3984H643.661L639.221 1.43844H667.901L666.221 54.9584L687.101 1.43844H716.141L718.181 54.9584L735.341 1.43844H764.021ZM852.174 1.43844L837.174 86.3984H810.534L816.414 53.2784H791.094L785.214 86.3984H758.574L773.574 1.43844H800.214L794.814 32.0384H820.134L825.534 1.43844H852.174ZM887.08 22.5584L885.28 33.1184H911.68L908.08 53.1584H881.68L879.52 65.1584H909.52L905.8 86.3984H849.16L864.16 1.43844H920.8L917.08 22.5584H887.08ZM970.44 1.43844C979.56 1.43844 986.48 3.47844 991.2 7.55844C995.92 11.6384 998.28 17.0784 998.28 23.8784C998.28 25.8784 998.12 27.6784 997.8 29.2784C996.76 35.0384 994.28 40.1184 990.36 44.5184C986.44 48.8384 981.36 51.9584 975.12 53.8784L987.84 86.3984H958.56L947.88 55.9184L942.48 86.3984H915.84L930.84 1.43844H970.44ZM951 38.1584H961.56C964.12 38.1584 966.12 37.5984 967.56 36.4784C969.08 35.2784 970.08 33.4384 970.56 30.9584C970.64 30.5584 970.68 30.0384 970.68 29.3984C970.68 27.6384 970.12 26.2784 969 25.3184C967.88 24.2784 966.24 23.7584 964.08 23.7584H953.52L951 38.1584ZM1034.15 22.5584L1032.35 33.1184H1058.75L1055.15 53.1584H1028.75L1026.59 65.1584H1056.59L1052.87 86.3984H996.23L1011.23 1.43844H1067.87L1064.15 22.5584H1034.15ZM1121.22 22.5584L1119.42 33.1184H1145.82L1142.22 53.1584H1115.82L1113.66 65.1584H1143.66L1139.94 86.3984H1083.3L1098.3 1.43844H1154.94L1151.22 22.5584H1121.22ZM1187.3 1.43844L1194.5 59.8784L1222.22 1.43844H1250.54L1206.98 86.3984H1172.54L1158.98 1.43844H1187.3ZM1279.42 22.5584L1277.62 33.1184H1304.02L1300.42 53.1584H1274.02L1271.86 65.1584H1301.86L1298.14 86.3984H1241.5L1256.5 1.43844H1313.14L1309.42 22.5584H1279.42ZM1362.78 1.43844C1371.9 1.43844 1378.82 3.47844 1383.54 7.55844C1388.26 11.6384 1390.62 17.0784 1390.62 23.8784C1390.62 25.8784 1390.46 27.6784 1390.14 29.2784C1389.1 35.0384 1386.62 40.1184 1382.7 44.5184C1378.78 48.8384 1373.7 51.9584 1367.46 53.8784L1380.18 86.3984H1350.9L1340.22 55.9184L1334.82 86.3984H1308.18L1323.18 1.43844H1362.78ZM1343.34 38.1584H1353.9C1356.46 38.1584 1358.46 37.5984 1359.9 36.4784C1361.42 35.2784 1362.42 33.4384 1362.9 30.9584C1362.98 30.5584 1363.02 30.0384 1363.02 29.3984C1363.02 27.6384 1362.46 26.2784 1361.34 25.3184C1360.22 24.2784 1358.58 23.7584 1356.42 23.7584H1345.86L1343.34 38.1584ZM1485.17 1.43844L1444.25 60.5984L1439.69 86.3984H1413.05L1417.61 60.5984L1397.57 1.43844H1428.05L1436.33 31.5584L1455.17 1.43844H1485.17ZM1501.78 43.7984C1503.22 35.3984 1506.22 27.9184 1510.78 21.3584C1515.34 14.7984 1521.1 9.71844 1528.06 6.11843C1535.02 2.43843 1542.78 0.598433 1551.34 0.598433C1558.7 0.598433 1565.02 1.99843 1570.3 4.79844C1575.66 7.51844 1579.74 11.3984 1582.54 16.4384C1585.34 21.4784 1586.7 27.3584 1586.62 34.0784H1558.54C1557.74 31.2784 1556.3 29.1184 1554.22 27.5984C1552.14 25.9984 1549.58 25.1984 1546.54 25.1984C1542.06 25.1984 1538.22 26.8784 1535.02 30.2384C1531.82 33.5984 1529.74 38.1184 1528.78 43.7984C1528.46 45.3984 1528.3 47.1184 1528.3 48.9584C1528.3 53.1184 1529.3 56.3984 1531.3 58.7984C1533.38 61.1984 1536.3 62.3984 1540.06 62.3984C1543.1 62.3984 1545.94 61.6384 1548.58 60.1184C1551.22 58.5184 1553.42 56.3184 1555.18 53.5184H1583.26C1580.86 60.2384 1577.38 66.1184 1572.82 71.1584C1568.26 76.1984 1562.82 80.1184 1556.5 82.9184C1550.26 85.6384 1543.46 86.9984 1536.1 86.9984C1528.66 86.9984 1522.3 85.6384 1517.02 82.9184C1511.74 80.1184 1507.74 76.1984 1505.02 71.1584C1502.3 66.0384 1500.94 60.1184 1500.94 53.3984C1500.94 50.1184 1501.22 46.9184 1501.78 43.7984ZM1680.57 1.43844L1665.57 86.3984H1638.93L1644.81 53.2784H1619.49L1613.61 86.3984H1586.97L1601.97 1.43844H1628.61L1623.21 32.0384H1648.53L1653.93 1.43844H1680.57ZM1719.2 1.43844L1704.2 86.3984H1677.56L1692.56 1.43844H1719.2ZM1746.47 66.2384H1772.15L1768.55 86.3984H1716.23L1731.23 1.43844H1757.87L1746.47 66.2384ZM1827.33 1.43844C1835.17 1.43844 1841.89 2.87844 1847.49 5.75843C1853.09 8.55843 1857.37 12.5184 1860.33 17.6384C1863.29 22.6784 1864.77 28.5184 1864.77 35.1584C1864.77 37.7984 1864.53 40.6384 1864.05 43.6784C1862.61 51.7584 1859.49 59.0384 1854.69 65.5184C1849.97 71.9984 1843.93 77.1184 1836.57 80.8784C1829.29 84.5584 1821.21 86.3984 1812.33 86.3984H1776.93L1791.93 1.43844H1827.33ZM1814.13 62.6384C1820.13 62.6384 1825.17 60.9984 1829.25 57.7184C1833.41 54.4384 1836.01 49.7584 1837.05 43.6784C1837.29 42.0784 1837.41 40.5984 1837.41 39.2384C1837.41 34.5184 1835.93 30.9184 1832.97 28.4384C1830.09 25.9584 1826.05 24.7184 1820.85 24.7184H1814.49L1807.77 62.6384H1814.13ZM1916.74 66.2384H1942.42L1938.82 86.3984H1886.5L1901.5 1.43844H1928.14L1916.74 66.2384ZM1985.13 22.5584L1983.33 33.1184H2009.73L2006.13 53.1584H1979.73L1977.57 65.1584H2007.57L2003.85 86.3984H1947.21L1962.21 1.43844H2018.85L2015.13 22.5584H1985.13ZM2070.65 73.5584H2042.33L2035.85 86.3984H2007.89L2053.97 1.43844H2084.69L2100.65 86.3984H2072.57L2070.65 73.5584ZM2067.77 53.5184L2064.29 29.8784L2052.41 53.5184H2067.77ZM2161.3 1.43844C2170.42 1.43844 2177.34 3.47844 2182.06 7.55844C2186.78 11.6384 2189.14 17.0784 2189.14 23.8784C2189.14 25.8784 2188.98 27.6784 2188.66 29.2784C2187.62 35.0384 2185.14 40.1184 2181.22 44.5184C2177.3 48.8384 2172.22 51.9584 2165.98 53.8784L2178.7 86.3984H2149.42L2138.74 55.9184L2133.34 86.3984H2106.7L2121.7 1.43844H2161.3ZM2141.86 38.1584H2152.42C2154.98 38.1584 2156.98 37.5984 2158.42 36.4784C2159.94 35.2784 2160.94 33.4384 2161.42 30.9584C2161.5 30.5584 2161.54 30.0384 2161.54 29.3984C2161.54 27.6384 2160.98 26.2784 2159.86 25.3184C2158.74 24.2784 2157.1 23.7584 2154.94 23.7584H2144.38L2141.86 38.1584ZM2268.57 86.3984H2241.93L2221.29 43.6784L2213.73 86.3984H2187.09L2202.09 1.43844H2228.73L2249.25 44.8784L2256.93 1.43844H2283.57L2268.57 86.3984ZM2317.09 87.2384C2306.69 87.2384 2298.37 85.1584 2292.13 80.9984C2285.97 76.8384 2282.89 70.7584 2282.89 62.7584C2282.89 61.9584 2282.97 60.7584 2283.13 59.1584H2311.45C2311.21 61.6384 2311.57 63.4784 2312.53 64.6784C2313.57 65.8784 2315.25 66.4784 2317.57 66.4784C2319.01 66.4784 2320.21 66.1184 2321.17 65.3984C2322.13 64.6784 2322.61 63.6384 2322.61 62.2784C2322.61 60.3584 2321.65 58.7584 2319.73 57.4784C2317.89 56.1984 2314.89 54.6784 2310.73 52.9184C2306.17 50.9984 2302.41 49.1584 2299.45 47.3984C2296.57 45.6384 2294.05 43.2384 2291.89 40.1984C2289.73 37.1584 2288.65 33.3584 2288.65 28.7984C2288.65 22.7984 2290.13 17.6384 2293.09 13.3184C2296.13 8.91843 2300.33 5.59843 2305.69 3.35843C2311.05 1.11843 2317.17 -0.00156593 2324.05 -0.00156593C2330.21 -0.00156593 2335.69 0.958434 2340.49 2.87843C2345.37 4.79843 2349.17 7.59843 2351.89 11.2784C2354.69 14.8784 2356.09 19.1584 2356.09 24.1184C2356.09 24.7584 2356.01 25.8784 2355.85 27.4784H2327.17C2327.33 26.5184 2327.41 25.8784 2327.41 25.5584C2327.41 24.0384 2326.97 22.8784 2326.09 22.0784C2325.21 21.1984 2324.01 20.7584 2322.49 20.7584C2321.13 20.7584 2320.01 21.1584 2319.13 21.9584C2318.25 22.7584 2317.81 23.7984 2317.81 25.0784C2317.81 26.8384 2318.73 28.3984 2320.57 29.7584C2322.41 31.0384 2325.33 32.6384 2329.33 34.5584C2333.89 36.7184 2337.65 38.7584 2340.61 40.6784C2343.65 42.5984 2346.25 45.1584 2348.41 48.3584C2350.57 51.4784 2351.65 55.3184 2351.65 59.8784C2351.65 65.0784 2350.25 69.7584 2347.45 73.9184C2344.73 78.0784 2340.77 81.3584 2335.57 83.7584C2330.37 86.0784 2324.21 87.2384 2317.09 87.2384ZM2392.4 64.1984L2373.56 100.558H2356.04L2366 64.1984H2392.4ZM546.182 202.558L544.382 213.118H570.782L567.182 233.158H540.782L538.622 245.158H568.622L564.902 266.398H508.262L523.262 181.438H579.902L576.182 202.558H546.182ZM612.261 181.438L619.461 239.878L647.181 181.438H675.501L631.941 266.398H597.501L583.941 181.438H612.261ZM704.385 202.558L702.585 213.118H728.985L725.385 233.158H698.985L696.825 245.158H726.825L723.105 266.398H666.465L681.465 181.438H738.105L734.385 202.558H704.385ZM787.745 181.438C796.865 181.438 803.785 183.478 808.505 187.558C813.225 191.638 815.585 197.078 815.585 203.878C815.585 205.878 815.425 207.678 815.105 209.278C814.065 215.038 811.585 220.118 807.665 224.518C803.745 228.838 798.665 231.958 792.425 233.878L805.145 266.398H775.865L765.185 235.918L759.785 266.398H733.145L748.145 181.438H787.745ZM768.305 218.158H778.865C781.425 218.158 783.425 217.598 784.865 216.478C786.385 215.278 787.385 213.438 787.865 210.958C787.945 210.558 787.985 210.038 787.985 209.398C787.985 207.638 787.425 206.278 786.305 205.318C785.185 204.278 783.545 203.758 781.385 203.758H770.825L768.305 218.158ZM910.135 181.438L869.215 240.598L864.655 266.398H838.015L842.575 240.598L822.535 181.438H853.015L861.295 211.558L880.135 181.438H910.135ZM1058.98 181.438L1024.54 266.398H991.422L990.102 218.158L971.742 266.398H938.622L934.182 181.438H962.862L961.182 234.958L982.062 181.438H1011.1L1013.14 234.958L1030.3 181.438H1058.98ZM1095.18 267.238C1087.98 267.238 1081.66 265.758 1076.22 262.798C1070.78 259.838 1066.58 255.678 1063.62 250.318C1060.66 244.878 1059.18 238.678 1059.18 231.718C1059.18 221.558 1061.26 212.598 1065.42 204.838C1069.66 196.998 1075.54 190.918 1083.06 186.598C1090.66 182.198 1099.38 179.998 1109.22 179.998C1116.58 179.998 1122.98 181.478 1128.42 184.438C1133.94 187.318 1138.18 191.438 1141.14 196.798C1144.1 202.078 1145.58 208.198 1145.58 215.158C1145.58 225.238 1143.46 234.238 1139.22 242.158C1135.06 250.078 1129.14 256.238 1121.46 260.638C1113.86 265.038 1105.1 267.238 1095.18 267.238ZM1099.26 242.398C1103.42 242.398 1107.02 241.318 1110.06 239.158C1113.18 236.918 1115.54 233.998 1117.14 230.398C1118.74 226.718 1119.54 222.758 1119.54 218.518C1119.54 214.118 1118.34 210.718 1115.94 208.318C1113.62 205.838 1110.26 204.598 1105.86 204.598C1101.7 204.598 1098.06 205.678 1094.94 207.838C1091.82 209.998 1089.42 212.918 1087.74 216.598C1086.14 220.198 1085.34 224.118 1085.34 228.358C1085.34 232.758 1086.5 236.198 1088.82 238.678C1091.22 241.158 1094.7 242.398 1099.26 242.398ZM1265.23 181.438L1250.23 266.398H1223.71L1231.15 224.158L1210.63 266.398H1187.83L1182.19 223.798L1174.75 266.398H1148.11L1163.11 181.438H1195.75L1205.47 232.558L1232.71 181.438H1265.23ZM1319.01 253.558H1290.69L1284.21 266.398H1256.25L1302.33 181.438H1333.05L1349.01 266.398H1320.93L1319.01 253.558ZM1316.13 233.518L1312.65 209.878L1300.77 233.518H1316.13ZM1436.54 266.398H1409.9L1389.26 223.678L1381.7 266.398H1355.06L1370.06 181.438H1396.7L1417.22 224.878L1424.9 181.438H1451.54L1436.54 266.398ZM1499.2 246.238H1524.88L1521.28 266.398H1468.96L1483.96 181.438H1510.6L1499.2 246.238ZM1567.59 202.558L1565.79 213.118H1592.19L1588.59 233.158H1562.19L1560.03 245.158H1590.03L1586.31 266.398H1529.67L1544.67 181.438H1601.31L1597.59 202.558H1567.59ZM1653.11 253.558H1624.79L1618.31 266.398H1590.35L1636.43 181.438H1667.15L1683.11 266.398H1655.03L1653.11 253.558ZM1650.23 233.518L1646.75 209.878L1634.87 233.518H1650.23ZM1739.56 181.438C1747.4 181.438 1754.12 182.878 1759.72 185.758C1765.32 188.558 1769.6 192.518 1772.56 197.638C1775.52 202.678 1777 208.518 1777 215.158C1777 217.798 1776.76 220.638 1776.28 223.678C1774.84 231.758 1771.72 239.038 1766.92 245.518C1762.2 251.998 1756.16 257.118 1748.8 260.878C1741.52 264.558 1733.44 266.398 1724.56 266.398H1689.16L1704.16 181.438H1739.56ZM1726.36 242.638C1732.36 242.638 1737.4 240.998 1741.48 237.718C1745.64 234.438 1748.24 229.758 1749.28 223.678C1749.52 222.078 1749.64 220.598 1749.64 219.238C1749.64 214.518 1748.16 210.918 1745.2 208.438C1742.32 205.958 1738.28 204.718 1733.08 204.718H1726.72L1720 242.638H1726.36ZM1814.82 267.238C1804.42 267.238 1796.1 265.158 1789.86 260.998C1783.7 256.838 1780.62 250.758 1780.62 242.758C1780.62 241.958 1780.7 240.758 1780.86 239.158H1809.18C1808.94 241.638 1809.3 243.478 1810.26 244.678C1811.3 245.878 1812.98 246.478 1815.3 246.478C1816.74 246.478 1817.94 246.118 1818.9 245.398C1819.86 244.678 1820.34 243.638 1820.34 242.278C1820.34 240.358 1819.38 238.758 1817.46 237.478C1815.62 236.198 1812.62 234.678 1808.46 232.918C1803.9 230.998 1800.14 229.158 1797.18 227.398C1794.3 225.638 1791.78 223.238 1789.62 220.198C1787.46 217.158 1786.38 213.358 1786.38 208.798C1786.38 202.798 1787.86 197.638 1790.82 193.318C1793.86 188.918 1798.06 185.598 1803.42 183.358C1808.78 181.118 1814.9 179.998 1821.78 179.998C1827.94 179.998 1833.42 180.958 1838.22 182.878C1843.1 184.798 1846.9 187.598 1849.62 191.278C1852.42 194.878 1853.82 199.158 1853.82 204.118C1853.82 204.758 1853.74 205.878 1853.58 207.478H1824.9C1825.06 206.518 1825.14 205.878 1825.14 205.558C1825.14 204.038 1824.7 202.878 1823.82 202.078C1822.94 201.198 1821.74 200.758 1820.22 200.758C1818.86 200.758 1817.74 201.158 1816.86 201.958C1815.98 202.758 1815.54 203.798 1815.54 205.078C1815.54 206.838 1816.46 208.398 1818.3 209.758C1820.14 211.038 1823.06 212.638 1827.06 214.558C1831.62 216.718 1835.38 218.758 1838.34 220.678C1841.38 222.598 1843.98 225.158 1846.14 228.358C1848.3 231.478 1849.38 235.318 1849.38 239.878C1849.38 245.078 1847.98 249.758 1845.18 253.918C1842.46 258.078 1838.5 261.358 1833.3 263.758C1828.1 266.078 1821.94 267.238 1814.82 267.238ZM1890.13 244.198L1871.29 280.558H1853.77L1863.73 244.198H1890.13ZM491.748 382.558L489.948 393.118H516.348L512.748 413.158H486.348L484.188 425.158H514.188L510.468 446.398H453.828L468.828 361.438H525.468L521.748 382.558H491.748ZM557.828 361.438L565.028 419.878L592.748 361.438H621.068L577.508 446.398H543.068L529.508 361.438H557.828ZM649.951 382.558L648.151 393.118H674.551L670.951 413.158H644.551L642.391 425.158H672.391L668.671 446.398H612.031L627.031 361.438H683.671L679.951 382.558H649.951ZM733.311 361.438C742.431 361.438 749.351 363.478 754.071 367.558C758.791 371.638 761.151 377.078 761.151 383.878C761.151 385.878 760.991 387.678 760.671 389.278C759.631 395.038 757.151 400.118 753.231 404.518C749.311 408.838 744.231 411.958 737.991 413.878L750.711 446.398H721.431L710.751 415.918L705.351 446.398H678.711L693.711 361.438H733.311ZM713.871 398.158H724.431C726.991 398.158 728.991 397.598 730.431 396.478C731.951 395.278 732.951 393.438 733.431 390.958C733.511 390.558 733.551 390.038 733.551 389.398C733.551 387.638 732.991 386.278 731.871 385.318C730.751 384.278 729.111 383.758 726.951 383.758H716.391L713.871 398.158ZM855.702 361.438L814.782 420.598L810.222 446.398H783.582L788.142 420.598L768.102 361.438H798.582L806.862 391.558L825.702 361.438H855.702ZM942.148 361.438L938.428 382.558H905.068L903.028 394.318H927.028L923.428 414.358H899.428L893.788 446.398H867.148L882.148 361.438H942.148ZM992.932 433.558H964.612L958.132 446.398H930.172L976.252 361.438H1006.97L1022.93 446.398H994.852L992.932 433.558ZM990.052 413.518L986.572 389.878L974.692 413.518H990.052ZM1083.58 361.438C1092.7 361.438 1099.62 363.478 1104.34 367.558C1109.06 371.638 1111.42 377.078 1111.42 383.878C1111.42 385.878 1111.26 387.678 1110.94 389.278C1109.9 395.038 1107.42 400.118 1103.5 404.518C1099.58 408.838 1094.5 411.958 1088.26 413.878L1100.98 446.398H1071.7L1061.02 415.918L1055.62 446.398H1028.98L1043.98 361.438H1083.58ZM1064.14 398.158H1074.7C1077.26 398.158 1079.26 397.598 1080.7 396.478C1082.22 395.278 1083.22 393.438 1083.7 390.958C1083.78 390.558 1083.82 390.038 1083.82 389.398C1083.82 387.638 1083.26 386.278 1082.14 385.318C1081.02 384.278 1079.38 383.758 1077.22 383.758H1066.66L1064.14 398.158ZM1226.5 361.438L1211.5 446.398H1184.98L1192.42 404.158L1171.9 446.398H1149.1L1143.46 403.798L1136.02 446.398H1109.38L1124.38 361.438H1157.02L1166.74 412.558L1193.98 361.438H1226.5ZM1261.44 382.558L1259.64 393.118H1286.04L1282.44 413.158H1256.04L1253.88 425.158H1283.88L1280.16 446.398H1223.52L1238.52 361.438H1295.16L1291.44 382.558H1261.44ZM1344.8 361.438C1353.92 361.438 1360.84 363.478 1365.56 367.558C1370.28 371.638 1372.64 377.078 1372.64 383.878C1372.64 385.878 1372.48 387.678 1372.16 389.278C1371.12 395.038 1368.64 400.118 1364.72 404.518C1360.8 408.838 1355.72 411.958 1349.48 413.878L1362.2 446.398H1332.92L1322.24 415.918L1316.84 446.398H1290.2L1305.2 361.438H1344.8ZM1325.36 398.158H1335.92C1338.48 398.158 1340.48 397.598 1341.92 396.478C1343.44 395.278 1344.44 393.438 1344.92 390.958C1345 390.558 1345.04 390.038 1345.04 389.398C1345.04 387.638 1344.48 386.278 1343.36 385.318C1342.24 384.278 1340.6 383.758 1338.44 383.758H1327.88L1325.36 398.158ZM1472.7 361.438L1468.98 382.558H1446.42L1435.14 446.398H1408.5L1419.78 382.558H1397.46L1401.18 361.438H1472.7ZM1558.52 361.438L1543.52 446.398H1516.88L1522.76 413.278H1497.44L1491.56 446.398H1464.92L1479.92 361.438H1506.56L1501.16 392.038H1526.48L1531.88 361.438H1558.52ZM1610.11 361.438C1619.23 361.438 1626.15 363.478 1630.87 367.558C1635.59 371.638 1637.95 377.078 1637.95 383.878C1637.95 385.878 1637.79 387.678 1637.47 389.278C1636.43 395.038 1633.95 400.118 1630.03 404.518C1626.11 408.838 1621.03 411.958 1614.79 413.878L1627.51 446.398H1598.23L1587.55 415.918L1582.15 446.398H1555.51L1570.51 361.438H1610.11ZM1590.67 398.158H1601.23C1603.79 398.158 1605.79 397.598 1607.23 396.478C1608.75 395.278 1609.75 393.438 1610.23 390.958C1610.31 390.558 1610.35 390.038 1610.35 389.398C1610.35 387.638 1609.79 386.278 1608.67 385.318C1607.55 384.278 1605.91 383.758 1603.75 383.758H1593.19L1590.67 398.158ZM1677.54 361.438L1662.54 446.398H1635.9L1650.9 361.438H1677.54ZM1711.89 361.438L1719.09 419.878L1746.81 361.438H1775.13L1731.57 446.398H1697.13L1683.57 361.438H1711.89ZM1804.01 382.558L1802.21 393.118H1828.61L1825.01 413.158H1798.61L1796.45 425.158H1826.45L1822.73 446.398H1766.09L1781.09 361.438H1837.73L1834.01 382.558H1804.01ZM1869.25 447.238C1858.85 447.238 1850.53 445.158 1844.29 440.998C1838.13 436.838 1835.05 430.758 1835.05 422.758C1835.05 421.958 1835.13 420.758 1835.29 419.158H1863.61C1863.37 421.638 1863.73 423.478 1864.69 424.678C1865.73 425.878 1867.41 426.478 1869.73 426.478C1871.17 426.478 1872.37 426.118 1873.33 425.398C1874.29 424.678 1874.77 423.638 1874.77 422.278C1874.77 420.358 1873.81 418.758 1871.89 417.478C1870.05 416.198 1867.05 414.678 1862.89 412.918C1858.33 410.998 1854.57 409.158 1851.61 407.398C1848.73 405.638 1846.21 403.238 1844.05 400.198C1841.89 397.158 1840.81 393.358 1840.81 388.798C1840.81 382.798 1842.29 377.638 1845.25 373.318C1848.29 368.918 1852.49 365.598 1857.85 363.358C1863.21 361.118 1869.33 359.998 1876.21 359.998C1882.37 359.998 1887.85 360.958 1892.65 362.878C1897.53 364.798 1901.33 367.598 1904.05 371.278C1906.85 374.878 1908.25 379.158 1908.25 384.118C1908.25 384.758 1908.17 385.878 1908.01 387.478H1879.33C1879.49 386.518 1879.57 385.878 1879.57 385.558C1879.57 384.038 1879.13 382.878 1878.25 382.078C1877.37 381.198 1876.17 380.758 1874.65 380.758C1873.29 380.758 1872.17 381.158 1871.29 381.958C1870.41 382.758 1869.97 383.798 1869.97 385.078C1869.97 386.838 1870.89 388.398 1872.73 389.758C1874.57 391.038 1877.49 392.638 1881.49 394.558C1886.05 396.718 1889.81 398.758 1892.77 400.678C1895.81 402.598 1898.41 405.158 1900.57 408.358C1902.73 411.478 1903.81 415.318 1903.81 419.878C1903.81 425.078 1902.41 429.758 1899.61 433.918C1896.89 438.078 1892.93 441.358 1887.73 443.758C1882.53 446.078 1876.37 447.238 1869.25 447.238ZM1944.57 424.198L1925.73 460.558H1908.21L1918.17 424.198H1944.57ZM183.811 613.558H155.491L149.011 626.398H121.051L167.131 541.438H197.851L213.811 626.398H185.731L183.811 613.558ZM180.931 593.518L177.451 569.878L165.571 593.518H180.931ZM301.343 626.398H274.703L254.063 583.678L246.503 626.398H219.863L234.863 541.438H261.503L282.023 584.878L289.703 541.438H316.343L301.343 626.398ZM363.779 541.438C371.619 541.438 378.339 542.878 383.939 545.758C389.539 548.558 393.819 552.518 396.779 557.638C399.739 562.678 401.219 568.518 401.219 575.158C401.219 577.798 400.979 580.638 400.499 583.678C399.059 591.758 395.939 599.038 391.139 605.518C386.419 611.998 380.379 617.118 373.019 620.878C365.739 624.558 357.659 626.398 348.779 626.398H313.379L328.379 541.438H363.779ZM350.579 602.638C356.579 602.638 361.619 600.998 365.699 597.718C369.859 594.438 372.459 589.758 373.499 583.678C373.739 582.078 373.859 580.598 373.859 579.238C373.859 574.518 372.379 570.918 369.419 568.438C366.539 565.958 362.499 564.718 357.299 564.718H350.939L344.219 602.638H350.579ZM460.869 562.558L459.069 573.118H485.469L481.869 593.158H455.469L453.309 605.158H483.309L479.589 626.398H422.949L437.949 541.438H494.589L490.869 562.558H460.869ZM526.949 541.438L534.149 599.878L561.869 541.438H590.189L546.629 626.398H512.189L498.629 541.438H526.949ZM619.072 562.558L617.272 573.118H643.672L640.072 593.158H613.672L611.512 605.158H641.512L637.792 626.398H581.152L596.152 541.438H652.792L649.072 562.558H619.072ZM702.432 541.438C711.552 541.438 718.472 543.478 723.192 547.558C727.912 551.638 730.272 557.078 730.272 563.878C730.272 565.878 730.112 567.678 729.792 569.278C728.752 575.038 726.272 580.118 722.352 584.518C718.432 588.838 713.352 591.958 707.112 593.878L719.832 626.398H690.552L679.872 595.918L674.472 626.398H647.832L662.832 541.438H702.432ZM682.992 578.158H693.552C696.112 578.158 698.112 577.598 699.552 576.478C701.072 575.278 702.072 573.438 702.552 570.958C702.632 570.558 702.672 570.038 702.672 569.398C702.672 567.638 702.112 566.278 700.992 565.318C699.872 564.278 698.232 563.758 696.072 563.758H685.512L682.992 578.158ZM824.823 541.438L783.903 600.598L779.343 626.398H752.703L757.263 600.598L737.223 541.438H767.703L775.983 571.558L794.823 541.438H824.823ZM886.67 541.438C894.51 541.438 901.23 542.878 906.83 545.758C912.43 548.558 916.71 552.518 919.67 557.638C922.63 562.678 924.11 568.518 924.11 575.158C924.11 577.798 923.87 580.638 923.39 583.678C921.95 591.758 918.83 599.038 914.03 605.518C909.31 611.998 903.27 617.118 895.91 620.878C888.63 624.558 880.55 626.398 871.67 626.398H836.27L851.27 541.438H886.67ZM873.47 602.638C879.47 602.638 884.51 600.998 888.59 597.718C892.75 594.438 895.35 589.758 896.39 583.678C896.63 582.078 896.75 580.598 896.75 579.238C896.75 574.518 895.27 570.918 892.31 568.438C889.43 565.958 885.39 564.718 880.19 564.718H873.83L867.11 602.638H873.47ZM980.049 541.438C989.169 541.438 996.089 543.478 1000.81 547.558C1005.53 551.638 1007.89 557.078 1007.89 563.878C1007.89 565.878 1007.73 567.678 1007.41 569.278C1006.37 575.038 1003.89 580.118 999.969 584.518C996.049 588.838 990.969 591.958 984.729 593.878L997.449 626.398H968.169L957.489 595.918L952.089 626.398H925.449L940.449 541.438H980.049ZM960.609 578.158H971.169C973.729 578.158 975.729 577.598 977.169 576.478C978.689 575.278 979.689 573.438 980.169 570.958C980.249 570.558 980.289 570.038 980.289 569.398C980.289 567.638 979.729 566.278 978.609 565.318C977.489 564.278 975.849 563.758 973.689 563.758H963.129L960.609 578.158ZM1043.76 562.558L1041.96 573.118H1068.36L1064.76 593.158H1038.36L1036.2 605.158H1066.2L1062.48 626.398H1005.84L1020.84 541.438H1077.48L1073.76 562.558H1043.76ZM1129.28 613.558H1100.96L1094.48 626.398H1066.52L1112.6 541.438H1143.32L1159.28 626.398H1131.2L1129.28 613.558ZM1126.4 593.518L1122.92 569.878L1111.04 593.518H1126.4ZM1282.45 541.438L1267.45 626.398H1240.93L1248.37 584.158L1227.85 626.398H1205.05L1199.41 583.798L1191.97 626.398H1165.33L1180.33 541.438H1212.97L1222.69 592.558L1249.93 541.438H1282.45ZM1374.86 541.438L1371.14 562.558H1337.78L1335.74 574.318H1359.74L1356.14 594.358H1332.14L1326.5 626.398H1299.86L1314.86 541.438H1374.86ZM1410.53 541.438L1395.53 626.398H1368.89L1383.89 541.438H1410.53ZM1489.04 626.398H1462.4L1441.76 583.678L1434.2 626.398H1407.56L1422.56 541.438H1449.2L1469.72 584.878L1477.4 541.438H1504.04L1489.04 626.398ZM1551.47 541.438C1559.31 541.438 1566.03 542.878 1571.63 545.758C1577.23 548.558 1581.51 552.518 1584.47 557.638C1587.43 562.678 1588.91 568.518 1588.91 575.158C1588.91 577.798 1588.67 580.638 1588.19 583.678C1586.75 591.758 1583.63 599.038 1578.83 605.518C1574.11 611.998 1568.07 617.118 1560.71 620.878C1553.43 624.558 1545.35 626.398 1536.47 626.398H1501.07L1516.07 541.438H1551.47ZM1538.27 602.638C1544.27 602.638 1549.31 600.998 1553.39 597.718C1557.55 594.438 1560.15 589.758 1561.19 583.678C1561.43 582.078 1561.55 580.598 1561.55 579.238C1561.55 574.518 1560.07 570.918 1557.11 568.438C1554.23 565.958 1550.19 564.718 1544.99 564.718H1538.63L1531.91 602.638H1538.27ZM1626.73 627.238C1616.33 627.238 1608.01 625.158 1601.77 620.998C1595.61 616.838 1592.53 610.758 1592.53 602.758C1592.53 601.958 1592.61 600.758 1592.77 599.158H1621.09C1620.85 601.638 1621.21 603.478 1622.17 604.678C1623.21 605.878 1624.89 606.478 1627.21 606.478C1628.65 606.478 1629.85 606.118 1630.81 605.398C1631.77 604.678 1632.25 603.638 1632.25 602.278C1632.25 600.358 1631.29 598.758 1629.37 597.478C1627.53 596.198 1624.53 594.678 1620.37 592.918C1615.81 590.998 1612.05 589.158 1609.09 587.398C1606.21 585.638 1603.69 583.238 1601.53 580.198C1599.37 577.158 1598.29 573.358 1598.29 568.798C1598.29 562.798 1599.77 557.638 1602.73 553.318C1605.77 548.918 1609.97 545.598 1615.33 543.358C1620.69 541.118 1626.81 539.998 1633.69 539.998C1639.85 539.998 1645.33 540.958 1650.13 542.878C1655.01 544.798 1658.81 547.598 1661.53 551.278C1664.33 554.878 1665.73 559.158 1665.73 564.118C1665.73 564.758 1665.65 565.878 1665.49 567.478H1636.81C1636.97 566.518 1637.05 565.878 1637.05 565.558C1637.05 564.038 1636.61 562.878 1635.73 562.078C1634.85 561.198 1633.65 560.758 1632.13 560.758C1630.77 560.758 1629.65 561.158 1628.77 561.958C1627.89 562.758 1627.45 563.798 1627.45 565.078C1627.45 566.838 1628.37 568.398 1630.21 569.758C1632.05 571.038 1634.97 572.638 1638.97 574.558C1643.53 576.718 1647.29 578.758 1650.25 580.678C1653.29 582.598 1655.89 585.158 1658.05 588.358C1660.21 591.478 1661.29 595.318 1661.29 599.878C1661.29 605.078 1659.89 609.758 1657.09 613.918C1654.37 618.078 1650.41 621.358 1645.21 623.758C1640.01 626.078 1633.85 627.238 1626.73 627.238ZM1729.28 541.438L1714.28 626.398H1687.64L1702.64 541.438H1729.28ZM1808.03 541.438L1804.31 562.558H1781.75L1770.47 626.398H1743.83L1755.11 562.558H1732.79L1736.51 541.438H1808.03ZM1822.21 541.438H1848.61L1828.21 576.838H1810.69L1822.21 541.438ZM1882.09 627.238C1871.69 627.238 1863.37 625.158 1857.13 620.998C1850.97 616.838 1847.89 610.758 1847.89 602.758C1847.89 601.958 1847.97 600.758 1848.13 599.158H1876.45C1876.21 601.638 1876.57 603.478 1877.53 604.678C1878.57 605.878 1880.25 606.478 1882.57 606.478C1884.01 606.478 1885.21 606.118 1886.17 605.398C1887.13 604.678 1887.61 603.638 1887.61 602.278C1887.61 600.358 1886.65 598.758 1884.73 597.478C1882.89 596.198 1879.89 594.678 1875.73 592.918C1871.17 590.998 1867.41 589.158 1864.45 587.398C1861.57 585.638 1859.05 583.238 1856.89 580.198C1854.73 577.158 1853.65 573.358 1853.65 568.798C1853.65 562.798 1855.13 557.638 1858.09 553.318C1861.13 548.918 1865.33 545.598 1870.69 543.358C1876.05 541.118 1882.17 539.998 1889.05 539.998C1895.21 539.998 1900.69 540.958 1905.49 542.878C1910.37 544.798 1914.17 547.598 1916.89 551.278C1919.69 554.878 1921.09 559.158 1921.09 564.118C1921.09 564.758 1921.01 565.878 1920.85 567.478H1892.17C1892.33 566.518 1892.41 565.878 1892.41 565.558C1892.41 564.038 1891.97 562.878 1891.09 562.078C1890.21 561.198 1889.01 560.758 1887.49 560.758C1886.13 560.758 1885.01 561.158 1884.13 561.958C1883.25 562.758 1882.81 563.798 1882.81 565.078C1882.81 566.838 1883.73 568.398 1885.57 569.758C1887.41 571.038 1890.33 572.638 1894.33 574.558C1898.89 576.718 1902.65 578.758 1905.61 580.678C1908.65 582.598 1911.25 585.158 1913.41 588.358C1915.57 591.478 1916.65 595.318 1916.65 599.878C1916.65 605.078 1915.25 609.758 1912.45 613.918C1909.73 618.078 1905.77 621.358 1900.57 623.758C1895.37 626.078 1889.21 627.238 1882.09 627.238ZM2022.31 570.598C2021.35 575.958 2019.27 580.838 2016.07 585.238C2012.87 589.558 2008.59 592.998 2003.23 595.558C1997.95 598.118 1991.87 599.398 1984.99 599.398H1974.43L1969.63 626.398H1942.99L1957.99 541.438H1995.19C2004.23 541.438 2011.11 543.478 2015.83 547.558C2020.55 551.638 2022.91 557.238 2022.91 564.358C2022.91 566.118 2022.71 568.198 2022.31 570.598ZM1985.71 578.398C1991.15 578.398 1994.35 575.798 1995.31 570.598C1995.47 569.638 1995.55 568.958 1995.55 568.558C1995.55 564.718 1993.19 562.798 1988.47 562.798H1980.91L1978.15 578.398H1985.71ZM2077.68 613.558H2049.36L2042.88 626.398H2014.92L2061 541.438H2091.72L2107.68 626.398H2079.6L2077.68 613.558ZM2074.8 593.518L2071.32 569.878L2059.44 593.518H2074.8ZM2195.45 541.438L2191.73 562.558H2169.17L2157.89 626.398H2131.25L2142.53 562.558H2120.21L2123.93 541.438H2195.45ZM2281.28 541.438L2266.28 626.398H2239.64L2245.52 593.278H2220.2L2214.32 626.398H2187.68L2202.68 541.438H2229.32L2223.92 572.038H2249.24L2254.64 541.438H2281.28Z" fill="white"/>
</svg>
